ISO-10303-21;
HEADER;
/* Generated by software containing ST-Developer
 * from STEP Tools, Inc. (www.steptools.com) 
 */
/* OPTION: using custom renumber hook */

FILE_DESCRIPTION(
/* description */ ('STEP AP242 Edition 2',
'CAx-IF Rec.Pracs.---Representation and Presentation of Product Manufa
cturing Information (PMI)---4.0---2014-10-13',
'CAx-IF Rec.Pracs.---3D Tessellated Geometry---0.4---2014-09-14','2;1',
'CAx-IF Rec.Pracs.---User Defined Attributes---1.5---2016-08-15'),
/* implementation_level */ '2;1');

FILE_NAME(
/* name */ 'Armchair',
/* time_stamp */ '2026-09-03T13:01:36Z',
/* author */ (''),
/* organization */ (''),
/* preprocessor_version */ 'ST-DEVELOPER v20',
/* originating_system */ 'ONSHAPE BY PTC INC, 1.220',
/* authorisation */ '  ');

FILE_SCHEMA (('AP242_MANAGED_MODEL_BASED_3D_ENGINEERING_MIM_LF { 1 0 10303 442 3 1 4 }'));
ENDSEC;

DATA;
#10=SHAPE_REPRESENTATION_RELATIONSHIP('','',#602,#11);
#11=ADVANCED_BREP_SHAPE_REPRESENTATION('',(#600),#904);
#12=SPHERICAL_SURFACE('',#629,0.005);
#13=SPHERICAL_SURFACE('',#633,0.005);
#14=SPHERICAL_SURFACE('',#639,0.005);
#15=SPHERICAL_SURFACE('',#643,0.005);
#16=SPHERICAL_SURFACE('',#648,0.005);
#17=SPHERICAL_SURFACE('',#652,0.005);
#18=ELLIPSE('',#622,0.00707106781186547,0.005);
#19=ELLIPSE('',#625,0.00707106781186547,0.005);
#20=CYLINDRICAL_SURFACE('',#616,0.005);
#21=CYLINDRICAL_SURFACE('',#618,0.005);
#22=CYLINDRICAL_SURFACE('',#620,0.005);
#23=CYLINDRICAL_SURFACE('',#623,0.005);
#24=CYLINDRICAL_SURFACE('',#626,0.005);
#25=CYLINDRICAL_SURFACE('',#631,0.005);
#26=CYLINDRICAL_SURFACE('',#635,0.005);
#27=CYLINDRICAL_SURFACE('',#637,0.005);
#28=CYLINDRICAL_SURFACE('',#641,0.005);
#29=CYLINDRICAL_SURFACE('',#645,0.005);
#30=CYLINDRICAL_SURFACE('',#646,0.005);
#31=CYLINDRICAL_SURFACE('',#650,0.005);
#32=CYLINDRICAL_SURFACE('',#654,0.005);
#33=CIRCLE('',#612,0.005);
#34=CIRCLE('',#613,0.005);
#35=CIRCLE('',#614,0.005);
#36=CIRCLE('',#615,0.005);
#37=CIRCLE('',#617,0.005);
#38=CIRCLE('',#619,0.005);
#39=CIRCLE('',#621,0.005);
#40=CIRCLE('',#624,0.005);
#41=CIRCLE('',#627,0.005);
#42=CIRCLE('',#628,0.005);
#43=CIRCLE('',#630,0.005);
#44=CIRCLE('',#632,0.005);
#45=CIRCLE('',#634,0.005);
#46=CIRCLE('',#636,0.005);
#47=CIRCLE('',#638,0.005);
#48=CIRCLE('',#640,0.005);
#49=CIRCLE('',#642,0.005);
#50=CIRCLE('',#644,0.005);
#51=CIRCLE('',#647,0.005);
#52=CIRCLE('',#649,0.005);
#53=CIRCLE('',#651,0.005);
#54=CIRCLE('',#653,0.005);
#55=ORIENTED_EDGE('',*,*,#165,.T.);
#56=ORIENTED_EDGE('',*,*,#166,.T.);
#57=ORIENTED_EDGE('',*,*,#167,.T.);
#58=ORIENTED_EDGE('',*,*,#168,.T.);
#59=ORIENTED_EDGE('',*,*,#169,.T.);
#60=ORIENTED_EDGE('',*,*,#170,.T.);
#61=ORIENTED_EDGE('',*,*,#171,.T.);
#62=ORIENTED_EDGE('',*,*,#172,.T.);
#63=ORIENTED_EDGE('',*,*,#173,.T.);
#64=ORIENTED_EDGE('',*,*,#174,.T.);
#65=ORIENTED_EDGE('',*,*,#175,.T.);
#66=ORIENTED_EDGE('',*,*,#176,.T.);
#67=ORIENTED_EDGE('',*,*,#177,.T.);
#68=ORIENTED_EDGE('',*,*,#178,.T.);
#69=ORIENTED_EDGE('',*,*,#179,.T.);
#70=ORIENTED_EDGE('',*,*,#180,.F.);
#71=ORIENTED_EDGE('',*,*,#181,.T.);
#72=ORIENTED_EDGE('',*,*,#182,.T.);
#73=ORIENTED_EDGE('',*,*,#183,.T.);
#74=ORIENTED_EDGE('',*,*,#184,.F.);
#75=ORIENTED_EDGE('',*,*,#185,.T.);
#76=ORIENTED_EDGE('',*,*,#186,.T.);
#77=ORIENTED_EDGE('',*,*,#187,.T.);
#78=ORIENTED_EDGE('',*,*,#188,.T.);
#79=ORIENTED_EDGE('',*,*,#189,.T.);
#80=ORIENTED_EDGE('',*,*,#190,.T.);
#81=ORIENTED_EDGE('',*,*,#184,.T.);
#82=ORIENTED_EDGE('',*,*,#191,.T.);
#83=ORIENTED_EDGE('',*,*,#192,.T.);
#84=ORIENTED_EDGE('',*,*,#193,.T.);
#85=ORIENTED_EDGE('',*,*,#194,.T.);
#86=ORIENTED_EDGE('',*,*,#195,.F.);
#87=ORIENTED_EDGE('',*,*,#187,.F.);
#88=ORIENTED_EDGE('',*,*,#196,.T.);
#89=ORIENTED_EDGE('',*,*,#168,.F.);
#90=ORIENTED_EDGE('',*,*,#197,.T.);
#91=ORIENTED_EDGE('',*,*,#195,.T.);
#92=ORIENTED_EDGE('',*,*,#198,.T.);
#93=ORIENTED_EDGE('',*,*,#180,.T.);
#94=ORIENTED_EDGE('',*,*,#199,.T.);
#95=ORIENTED_EDGE('',*,*,#167,.F.);
#96=ORIENTED_EDGE('',*,*,#200,.T.);
#97=ORIENTED_EDGE('',*,*,#192,.F.);
#98=ORIENTED_EDGE('',*,*,#197,.F.);
#99=ORIENTED_EDGE('',*,*,#194,.F.);
#100=ORIENTED_EDGE('',*,*,#201,.T.);
#101=ORIENTED_EDGE('',*,*,#175,.F.);
#102=ORIENTED_EDGE('',*,*,#198,.F.);
#103=ORIENTED_EDGE('',*,*,#165,.F.);
#104=ORIENTED_EDGE('',*,*,#202,.T.);
#105=ORIENTED_EDGE('',*,*,#181,.F.);
#106=ORIENTED_EDGE('',*,*,#203,.T.);
#107=ORIENTED_EDGE('',*,*,#183,.F.);
#108=ORIENTED_EDGE('',*,*,#204,.T.);
#109=ORIENTED_EDGE('',*,*,#177,.F.);
#110=ORIENTED_EDGE('',*,*,#205,.T.);
#111=ORIENTED_EDGE('',*,*,#173,.F.);
#112=ORIENTED_EDGE('',*,*,#206,.T.);
#113=ORIENTED_EDGE('',*,*,#178,.F.);
#114=ORIENTED_EDGE('',*,*,#207,.F.);
#115=ORIENTED_EDGE('',*,*,#207,.T.);
#116=ORIENTED_EDGE('',*,*,#204,.F.);
#117=ORIENTED_EDGE('',*,*,#208,.F.);
#118=ORIENTED_EDGE('',*,*,#208,.T.);
#119=ORIENTED_EDGE('',*,*,#182,.F.);
#120=ORIENTED_EDGE('',*,*,#209,.F.);
#121=ORIENTED_EDGE('',*,*,#174,.F.);
#122=ORIENTED_EDGE('',*,*,#209,.T.);
#123=ORIENTED_EDGE('',*,*,#202,.F.);
#124=ORIENTED_EDGE('',*,*,#210,.F.);
#125=ORIENTED_EDGE('',*,*,#170,.F.);
#126=ORIENTED_EDGE('',*,*,#211,.T.);
#127=ORIENTED_EDGE('',*,*,#171,.F.);
#128=ORIENTED_EDGE('',*,*,#210,.T.);
#129=ORIENTED_EDGE('',*,*,#199,.F.);
#130=ORIENTED_EDGE('',*,*,#179,.F.);
#131=ORIENTED_EDGE('',*,*,#212,.F.);
#132=ORIENTED_EDGE('',*,*,#188,.F.);
#133=ORIENTED_EDGE('',*,*,#212,.T.);
#134=ORIENTED_EDGE('',*,*,#206,.F.);
#135=ORIENTED_EDGE('',*,*,#213,.F.);
#136=ORIENTED_EDGE('',*,*,#213,.T.);
#137=ORIENTED_EDGE('',*,*,#172,.F.);
#138=ORIENTED_EDGE('',*,*,#214,.F.);
#139=ORIENTED_EDGE('',*,*,#185,.F.);
#140=ORIENTED_EDGE('',*,*,#214,.T.);
#141=ORIENTED_EDGE('',*,*,#211,.F.);
#142=ORIENTED_EDGE('',*,*,#215,.F.);
#143=ORIENTED_EDGE('',*,*,#196,.F.);
#144=ORIENTED_EDGE('',*,*,#186,.F.);
#145=ORIENTED_EDGE('',*,*,#215,.T.);
#146=ORIENTED_EDGE('',*,*,#169,.F.);
#147=ORIENTED_EDGE('',*,*,#205,.F.);
#148=ORIENTED_EDGE('',*,*,#176,.F.);
#149=ORIENTED_EDGE('',*,*,#216,.F.);
#150=ORIENTED_EDGE('',*,*,#191,.F.);
#151=ORIENTED_EDGE('',*,*,#216,.T.);
#152=ORIENTED_EDGE('',*,*,#201,.F.);
#153=ORIENTED_EDGE('',*,*,#217,.F.);
#154=ORIENTED_EDGE('',*,*,#217,.T.);
#155=ORIENTED_EDGE('',*,*,#193,.F.);
#156=ORIENTED_EDGE('',*,*,#218,.F.);
#157=ORIENTED_EDGE('',*,*,#189,.F.);
#158=ORIENTED_EDGE('',*,*,#218,.T.);
#159=ORIENTED_EDGE('',*,*,#200,.F.);
#160=ORIENTED_EDGE('',*,*,#219,.F.);
#161=ORIENTED_EDGE('',*,*,#219,.T.);
#162=ORIENTED_EDGE('',*,*,#166,.F.);
#163=ORIENTED_EDGE('',*,*,#203,.F.);
#164=ORIENTED_EDGE('',*,*,#190,.F.);
#165=EDGE_CURVE('',#220,#221,#250,.F.);
#166=EDGE_CURVE('',#221,#222,#251,.F.);
#167=EDGE_CURVE('',#222,#223,#252,.F.);
#168=EDGE_CURVE('',#223,#224,#253,.T.);
#169=EDGE_CURVE('',#224,#225,#254,.T.);
#170=EDGE_CURVE('',#225,#220,#255,.F.);
#171=EDGE_CURVE('',#226,#227,#256,.T.);
#172=EDGE_CURVE('',#227,#228,#257,.T.);
#173=EDGE_CURVE('',#228,#229,#258,.F.);
#174=EDGE_CURVE('',#229,#226,#259,.F.);
#175=EDGE_CURVE('',#230,#231,#260,.T.);
#176=EDGE_CURVE('',#231,#232,#261,.T.);
#177=EDGE_CURVE('',#232,#233,#262,.T.);
#178=EDGE_CURVE('',#233,#234,#263,.T.);
#179=EDGE_CURVE('',#234,#235,#264,.F.);
#180=EDGE_CURVE('',#230,#235,#265,.T.);
#181=EDGE_CURVE('',#236,#237,#266,.T.);
#182=EDGE_CURVE('',#237,#238,#267,.T.);
#183=EDGE_CURVE('',#238,#239,#268,.F.);
#184=EDGE_CURVE('',#236,#239,#269,.T.);
#185=EDGE_CURVE('',#240,#241,#270,.F.);
#186=EDGE_CURVE('',#241,#242,#271,.F.);
#187=EDGE_CURVE('',#242,#243,#272,.T.);
#188=EDGE_CURVE('',#243,#240,#273,.T.);
#189=EDGE_CURVE('',#244,#245,#274,.F.);
#190=EDGE_CURVE('',#245,#236,#275,.T.);
#191=EDGE_CURVE('',#239,#244,#276,.F.);
#192=EDGE_CURVE('',#246,#247,#277,.T.);
#193=EDGE_CURVE('',#247,#248,#278,.T.);
#194=EDGE_CURVE('',#248,#249,#279,.F.);
#195=EDGE_CURVE('',#246,#249,#280,.T.);
#196=EDGE_CURVE('',#242,#224,#33,.T.);
#197=EDGE_CURVE('',#223,#246,#34,.T.);
#198=EDGE_CURVE('',#249,#230,#35,.T.);
#199=EDGE_CURVE('',#235,#243,#36,.T.);
#200=EDGE_CURVE('',#222,#247,#37,.F.);
#201=EDGE_CURVE('',#248,#231,#38,.T.);
#202=EDGE_CURVE('',#220,#237,#39,.T.);
#203=EDGE_CURVE('',#236,#221,#18,.T.);
#204=EDGE_CURVE('',#238,#233,#40,.F.);
#205=EDGE_CURVE('',#232,#239,#19,.F.);
#206=EDGE_CURVE('',#228,#234,#41,.T.);
#207=EDGE_CURVE('',#229,#233,#42,.T.);
#208=EDGE_CURVE('',#229,#238,#43,.T.);
#209=EDGE_CURVE('',#226,#237,#44,.T.);
#210=EDGE_CURVE('',#226,#220,#45,.T.);
#211=EDGE_CURVE('',#225,#227,#46,.F.);
#212=EDGE_CURVE('',#240,#234,#47,.T.);
#213=EDGE_CURVE('',#240,#228,#48,.T.);
#214=EDGE_CURVE('',#241,#227,#49,.T.);
#215=EDGE_CURVE('',#241,#225,#50,.T.);
#216=EDGE_CURVE('',#244,#231,#51,.T.);
#217=EDGE_CURVE('',#244,#248,#52,.T.);
#218=EDGE_CURVE('',#245,#247,#53,.T.);
#219=EDGE_CURVE('',#245,#222,#54,.T.);
#220=VERTEX_POINT('',#793);
#221=VERTEX_POINT('',#794);
#222=VERTEX_POINT('',#796);
#223=VERTEX_POINT('',#798);
#224=VERTEX_POINT('',#800);
#225=VERTEX_POINT('',#802);
#226=VERTEX_POINT('',#806);
#227=VERTEX_POINT('',#807);
#228=VERTEX_POINT('',#809);
#229=VERTEX_POINT('',#811);
#230=VERTEX_POINT('',#815);
#231=VERTEX_POINT('',#816);
#232=VERTEX_POINT('',#818);
#233=VERTEX_POINT('',#820);
#234=VERTEX_POINT('',#822);
#235=VERTEX_POINT('',#824);
#236=VERTEX_POINT('',#828);
#237=VERTEX_POINT('',#829);
#238=VERTEX_POINT('',#831);
#239=VERTEX_POINT('',#833);
#240=VERTEX_POINT('',#837);
#241=VERTEX_POINT('',#838);
#242=VERTEX_POINT('',#840);
#243=VERTEX_POINT('',#842);
#244=VERTEX_POINT('',#846);
#245=VERTEX_POINT('',#847);
#246=VERTEX_POINT('',#852);
#247=VERTEX_POINT('',#853);
#248=VERTEX_POINT('',#855);
#249=VERTEX_POINT('',#857);
#250=LINE('',#792,#281);
#251=LINE('',#795,#282);
#252=LINE('',#797,#283);
#253=LINE('',#799,#284);
#254=LINE('',#801,#285);
#255=LINE('',#803,#286);
#256=LINE('',#805,#287);
#257=LINE('',#808,#288);
#258=LINE('',#810,#289);
#259=LINE('',#812,#290);
#260=LINE('',#814,#291);
#261=LINE('',#817,#292);
#262=LINE('',#819,#293);
#263=LINE('',#821,#294);
#264=LINE('',#823,#295);
#265=LINE('',#825,#296);
#266=LINE('',#827,#297);
#267=LINE('',#830,#298);
#268=LINE('',#832,#299);
#269=LINE('',#834,#300);
#270=LINE('',#836,#301);
#271=LINE('',#839,#302);
#272=LINE('',#841,#303);
#273=LINE('',#843,#304);
#274=LINE('',#845,#305);
#275=LINE('',#848,#306);
#276=LINE('',#849,#307);
#277=LINE('',#851,#308);
#278=LINE('',#854,#309);
#279=LINE('',#856,#310);
#280=LINE('',#858,#311);
#281=VECTOR('',#659,1.);
#282=VECTOR('',#660,1.);
#283=VECTOR('',#661,1.);
#284=VECTOR('',#662,1.);
#285=VECTOR('',#663,1.);
#286=VECTOR('',#664,1.);
#287=VECTOR('',#667,1.);
#288=VECTOR('',#668,1.);
#289=VECTOR('',#669,1.);
#290=VECTOR('',#670,1.);
#291=VECTOR('',#673,1.);
#292=VECTOR('',#674,1.);
#293=VECTOR('',#675,1.);
#294=VECTOR('',#676,1.);
#295=VECTOR('',#677,1.);
#296=VECTOR('',#678,1.);
#297=VECTOR('',#681,1.);
#298=VECTOR('',#682,1.);
#299=VECTOR('',#683,1.);
#300=VECTOR('',#684,1.);
#301=VECTOR('',#687,1.);
#302=VECTOR('',#688,1.);
#303=VECTOR('',#689,1.);
#304=VECTOR('',#690,1.);
#305=VECTOR('',#693,1.);
#306=VECTOR('',#694,1.);
#307=VECTOR('',#695,1.);
#308=VECTOR('',#698,1.);
#309=VECTOR('',#699,1.);
#310=VECTOR('',#700,1.);
#311=VECTOR('',#701,1.);
#312=EDGE_LOOP('',(#55,#56,#57,#58,#59,#60));
#313=EDGE_LOOP('',(#61,#62,#63,#64));
#314=EDGE_LOOP('',(#65,#66,#67,#68,#69,#70));
#315=EDGE_LOOP('',(#71,#72,#73,#74));
#316=EDGE_LOOP('',(#75,#76,#77,#78));
#317=EDGE_LOOP('',(#79,#80,#81,#82));
#318=EDGE_LOOP('',(#83,#84,#85,#86));
#319=EDGE_LOOP('',(#87,#88,#89,#90,#91,#92,#93,#94));
#320=EDGE_LOOP('',(#95,#96,#97,#98));
#321=EDGE_LOOP('',(#99,#100,#101,#102));
#322=EDGE_LOOP('',(#103,#104,#105,#106));
#323=EDGE_LOOP('',(#107,#108,#109,#110));
#324=EDGE_LOOP('',(#111,#112,#113,#114));
#325=EDGE_LOOP('',(#115,#116,#117));
#326=EDGE_LOOP('',(#118,#119,#120,#121));
#327=EDGE_LOOP('',(#122,#123,#124));
#328=EDGE_LOOP('',(#125,#126,#127,#128));
#329=EDGE_LOOP('',(#129,#130,#131,#132));
#330=EDGE_LOOP('',(#133,#134,#135));
#331=EDGE_LOOP('',(#136,#137,#138,#139));
#332=EDGE_LOOP('',(#140,#141,#142));
#333=EDGE_LOOP('',(#143,#144,#145,#146));
#334=EDGE_LOOP('',(#147,#148,#149,#150));
#335=EDGE_LOOP('',(#151,#152,#153));
#336=EDGE_LOOP('',(#154,#155,#156,#157));
#337=EDGE_LOOP('',(#158,#159,#160));
#338=EDGE_LOOP('',(#161,#162,#163,#164));
#339=FACE_BOUND('',#312,.T.);
#340=FACE_BOUND('',#313,.T.);
#341=FACE_BOUND('',#314,.T.);
#342=FACE_BOUND('',#315,.T.);
#343=FACE_BOUND('',#316,.T.);
#344=FACE_BOUND('',#317,.T.);
#345=FACE_BOUND('',#318,.T.);
#346=FACE_BOUND('',#319,.T.);
#347=FACE_BOUND('',#320,.T.);
#348=FACE_BOUND('',#321,.T.);
#349=FACE_BOUND('',#322,.T.);
#350=FACE_BOUND('',#323,.T.);
#351=FACE_BOUND('',#324,.T.);
#352=FACE_BOUND('',#325,.T.);
#353=FACE_BOUND('',#326,.T.);
#354=FACE_BOUND('',#327,.T.);
#355=FACE_BOUND('',#328,.T.);
#356=FACE_BOUND('',#329,.T.);
#357=FACE_BOUND('',#330,.T.);
#358=FACE_BOUND('',#331,.T.);
#359=FACE_BOUND('',#332,.T.);
#360=FACE_BOUND('',#333,.T.);
#361=FACE_BOUND('',#334,.T.);
#362=FACE_BOUND('',#335,.T.);
#363=FACE_BOUND('',#336,.T.);
#364=FACE_BOUND('',#337,.T.);
#365=FACE_BOUND('',#338,.T.);
#366=PLANE('',#604);
#367=PLANE('',#605);
#368=PLANE('',#606);
#369=PLANE('',#607);
#370=PLANE('',#608);
#371=PLANE('',#609);
#372=PLANE('',#610);
#373=PLANE('',#611);
#374=OVER_RIDING_STYLED_ITEM('',(#431),#401,#429);
#375=OVER_RIDING_STYLED_ITEM('',(#432),#402,#429);
#376=OVER_RIDING_STYLED_ITEM('',(#433),#403,#429);
#377=OVER_RIDING_STYLED_ITEM('',(#434),#404,#429);
#378=OVER_RIDING_STYLED_ITEM('',(#435),#405,#429);
#379=OVER_RIDING_STYLED_ITEM('',(#436),#406,#429);
#380=OVER_RIDING_STYLED_ITEM('',(#437),#407,#429);
#381=OVER_RIDING_STYLED_ITEM('',(#438),#408,#429);
#382=OVER_RIDING_STYLED_ITEM('',(#439),#409,#429);
#383=OVER_RIDING_STYLED_ITEM('',(#440),#410,#429);
#384=OVER_RIDING_STYLED_ITEM('',(#441),#411,#429);
#385=OVER_RIDING_STYLED_ITEM('',(#442),#412,#429);
#386=OVER_RIDING_STYLED_ITEM('',(#443),#413,#429);
#387=OVER_RIDING_STYLED_ITEM('',(#444),#414,#429);
#388=OVER_RIDING_STYLED_ITEM('',(#445),#415,#429);
#389=OVER_RIDING_STYLED_ITEM('',(#446),#416,#429);
#390=OVER_RIDING_STYLED_ITEM('',(#447),#417,#429);
#391=OVER_RIDING_STYLED_ITEM('',(#448),#418,#429);
#392=OVER_RIDING_STYLED_ITEM('',(#449),#419,#429);
#393=OVER_RIDING_STYLED_ITEM('',(#450),#420,#429);
#394=OVER_RIDING_STYLED_ITEM('',(#451),#421,#429);
#395=OVER_RIDING_STYLED_ITEM('',(#452),#422,#429);
#396=OVER_RIDING_STYLED_ITEM('',(#453),#423,#429);
#397=OVER_RIDING_STYLED_ITEM('',(#454),#424,#429);
#398=OVER_RIDING_STYLED_ITEM('',(#455),#425,#429);
#399=OVER_RIDING_STYLED_ITEM('',(#456),#426,#429);
#400=OVER_RIDING_STYLED_ITEM('',(#457),#427,#429);
#401=ADVANCED_FACE('Face appearance 2',(#339),#366,.F.);
#402=ADVANCED_FACE('Face appearance 1',(#340),#367,.F.);
#403=ADVANCED_FACE('Face appearance 2',(#341),#368,.T.);
#404=ADVANCED_FACE('Face appearance 1',(#342),#369,.T.);
#405=ADVANCED_FACE('Face appearance 2',(#343),#370,.F.);
#406=ADVANCED_FACE('Face appearance 2',(#344),#371,.F.);
#407=ADVANCED_FACE('Face appearance 2',(#345),#372,.F.);
#408=ADVANCED_FACE('Face appearance 2',(#346),#373,.T.);
#409=ADVANCED_FACE('Face appearance 3',(#347),#20,.T.);
#410=ADVANCED_FACE('Face appearance 4',(#348),#21,.T.);
#411=ADVANCED_FACE('Face appearance 8',(#349),#22,.T.);
#412=ADVANCED_FACE('Face appearance 5',(#350),#23,.T.);
#413=ADVANCED_FACE('Face appearance 9',(#351),#24,.T.);
#414=ADVANCED_FACE('Face appearance 9',(#352),#12,.T.);
#415=ADVANCED_FACE('Face appearance 9',(#353),#25,.T.);
#416=ADVANCED_FACE('Face appearance 9',(#354),#13,.T.);
#417=ADVANCED_FACE('Face appearance 9',(#355),#26,.T.);
#418=ADVANCED_FACE('Face appearance 6',(#356),#27,.T.);
#419=ADVANCED_FACE('Face appearance 6',(#357),#14,.T.);
#420=ADVANCED_FACE('Face appearance 6',(#358),#28,.T.);
#421=ADVANCED_FACE('Face appearance 6',(#359),#15,.T.);
#422=ADVANCED_FACE('Face appearance 6',(#360),#29,.T.);
#423=ADVANCED_FACE('Face appearance 7',(#361),#30,.T.);
#424=ADVANCED_FACE('Face appearance 7',(#362),#16,.T.);
#425=ADVANCED_FACE('Face appearance 7',(#363),#31,.T.);
#426=ADVANCED_FACE('Face appearance 7',(#364),#17,.T.);
#427=ADVANCED_FACE('Face appearance 7',(#365),#32,.T.);
#428=CLOSED_SHELL('',(#401,#402,#403,#404,#405,#406,#407,#408,#409,#410,
#411,#412,#413,#414,#415,#416,#417,#418,#419,#420,#421,#422,#423,#424,#425,
#426,#427));
#429=STYLED_ITEM('',(#430),#600);
#430=PRESENTATION_STYLE_ASSIGNMENT((#458));
#431=PRESENTATION_STYLE_ASSIGNMENT((#459));
#432=PRESENTATION_STYLE_ASSIGNMENT((#460));
#433=PRESENTATION_STYLE_ASSIGNMENT((#461));
#434=PRESENTATION_STYLE_ASSIGNMENT((#462));
#435=PRESENTATION_STYLE_ASSIGNMENT((#463));
#436=PRESENTATION_STYLE_ASSIGNMENT((#464));
#437=PRESENTATION_STYLE_ASSIGNMENT((#465));
#438=PRESENTATION_STYLE_ASSIGNMENT((#466));
#439=PRESENTATION_STYLE_ASSIGNMENT((#467));
#440=PRESENTATION_STYLE_ASSIGNMENT((#468));
#441=PRESENTATION_STYLE_ASSIGNMENT((#469));
#442=PRESENTATION_STYLE_ASSIGNMENT((#470));
#443=PRESENTATION_STYLE_ASSIGNMENT((#471));
#444=PRESENTATION_STYLE_ASSIGNMENT((#472));
#445=PRESENTATION_STYLE_ASSIGNMENT((#473));
#446=PRESENTATION_STYLE_ASSIGNMENT((#474));
#447=PRESENTATION_STYLE_ASSIGNMENT((#475));
#448=PRESENTATION_STYLE_ASSIGNMENT((#476));
#449=PRESENTATION_STYLE_ASSIGNMENT((#477));
#450=PRESENTATION_STYLE_ASSIGNMENT((#478));
#451=PRESENTATION_STYLE_ASSIGNMENT((#479));
#452=PRESENTATION_STYLE_ASSIGNMENT((#480));
#453=PRESENTATION_STYLE_ASSIGNMENT((#481));
#454=PRESENTATION_STYLE_ASSIGNMENT((#482));
#455=PRESENTATION_STYLE_ASSIGNMENT((#483));
#456=PRESENTATION_STYLE_ASSIGNMENT((#484));
#457=PRESENTATION_STYLE_ASSIGNMENT((#485));
#458=SURFACE_STYLE_USAGE(.BOTH.,#486);
#459=SURFACE_STYLE_USAGE(.BOTH.,#487);
#460=SURFACE_STYLE_USAGE(.BOTH.,#488);
#461=SURFACE_STYLE_USAGE(.BOTH.,#489);
#462=SURFACE_STYLE_USAGE(.BOTH.,#490);
#463=SURFACE_STYLE_USAGE(.BOTH.,#491);
#464=SURFACE_STYLE_USAGE(.BOTH.,#492);
#465=SURFACE_STYLE_USAGE(.BOTH.,#493);
#466=SURFACE_STYLE_USAGE(.BOTH.,#494);
#467=SURFACE_STYLE_USAGE(.BOTH.,#495);
#468=SURFACE_STYLE_USAGE(.BOTH.,#496);
#469=SURFACE_STYLE_USAGE(.BOTH.,#497);
#470=SURFACE_STYLE_USAGE(.BOTH.,#498);
#471=SURFACE_STYLE_USAGE(.BOTH.,#499);
#472=SURFACE_STYLE_USAGE(.BOTH.,#500);
#473=SURFACE_STYLE_USAGE(.BOTH.,#501);
#474=SURFACE_STYLE_USAGE(.BOTH.,#502);
#475=SURFACE_STYLE_USAGE(.BOTH.,#503);
#476=SURFACE_STYLE_USAGE(.BOTH.,#504);
#477=SURFACE_STYLE_USAGE(.BOTH.,#505);
#478=SURFACE_STYLE_USAGE(.BOTH.,#506);
#479=SURFACE_STYLE_USAGE(.BOTH.,#507);
#480=SURFACE_STYLE_USAGE(.BOTH.,#508);
#481=SURFACE_STYLE_USAGE(.BOTH.,#509);
#482=SURFACE_STYLE_USAGE(.BOTH.,#510);
#483=SURFACE_STYLE_USAGE(.BOTH.,#511);
#484=SURFACE_STYLE_USAGE(.BOTH.,#512);
#485=SURFACE_STYLE_USAGE(.BOTH.,#513);
#486=SURFACE_SIDE_STYLE('',(#514));
#487=SURFACE_SIDE_STYLE('',(#515));
#488=SURFACE_SIDE_STYLE('',(#516));
#489=SURFACE_SIDE_STYLE('',(#517));
#490=SURFACE_SIDE_STYLE('',(#518));
#491=SURFACE_SIDE_STYLE('',(#519));
#492=SURFACE_SIDE_STYLE('',(#520));
#493=SURFACE_SIDE_STYLE('',(#521));
#494=SURFACE_SIDE_STYLE('',(#522));
#495=SURFACE_SIDE_STYLE('',(#523));
#496=SURFACE_SIDE_STYLE('',(#524));
#497=SURFACE_SIDE_STYLE('',(#525));
#498=SURFACE_SIDE_STYLE('',(#526));
#499=SURFACE_SIDE_STYLE('',(#527));
#500=SURFACE_SIDE_STYLE('',(#528));
#501=SURFACE_SIDE_STYLE('',(#529));
#502=SURFACE_SIDE_STYLE('',(#530));
#503=SURFACE_SIDE_STYLE('',(#531));
#504=SURFACE_SIDE_STYLE('',(#532));
#505=SURFACE_SIDE_STYLE('',(#533));
#506=SURFACE_SIDE_STYLE('',(#534));
#507=SURFACE_SIDE_STYLE('',(#535));
#508=SURFACE_SIDE_STYLE('',(#536));
#509=SURFACE_SIDE_STYLE('',(#537));
#510=SURFACE_SIDE_STYLE('',(#538));
#511=SURFACE_SIDE_STYLE('',(#539));
#512=SURFACE_SIDE_STYLE('',(#540));
#513=SURFACE_SIDE_STYLE('',(#541));
#514=SURFACE_STYLE_FILL_AREA(#542);
#515=SURFACE_STYLE_FILL_AREA(#543);
#516=SURFACE_STYLE_FILL_AREA(#544);
#517=SURFACE_STYLE_FILL_AREA(#545);
#518=SURFACE_STYLE_FILL_AREA(#546);
#519=SURFACE_STYLE_FILL_AREA(#547);
#520=SURFACE_STYLE_FILL_AREA(#548);
#521=SURFACE_STYLE_FILL_AREA(#549);
#522=SURFACE_STYLE_FILL_AREA(#550);
#523=SURFACE_STYLE_FILL_AREA(#551);
#524=SURFACE_STYLE_FILL_AREA(#552);
#525=SURFACE_STYLE_FILL_AREA(#553);
#526=SURFACE_STYLE_FILL_AREA(#554);
#527=SURFACE_STYLE_FILL_AREA(#555);
#528=SURFACE_STYLE_FILL_AREA(#556);
#529=SURFACE_STYLE_FILL_AREA(#557);
#530=SURFACE_STYLE_FILL_AREA(#558);
#531=SURFACE_STYLE_FILL_AREA(#559);
#532=SURFACE_STYLE_FILL_AREA(#560);
#533=SURFACE_STYLE_FILL_AREA(#561);
#534=SURFACE_STYLE_FILL_AREA(#562);
#535=SURFACE_STYLE_FILL_AREA(#563);
#536=SURFACE_STYLE_FILL_AREA(#564);
#537=SURFACE_STYLE_FILL_AREA(#565);
#538=SURFACE_STYLE_FILL_AREA(#566);
#539=SURFACE_STYLE_FILL_AREA(#567);
#540=SURFACE_STYLE_FILL_AREA(#568);
#541=SURFACE_STYLE_FILL_AREA(#569);
#542=FILL_AREA_STYLE('',(#570));
#543=FILL_AREA_STYLE('',(#571));
#544=FILL_AREA_STYLE('',(#572));
#545=FILL_AREA_STYLE('',(#573));
#546=FILL_AREA_STYLE('',(#574));
#547=FILL_AREA_STYLE('',(#575));
#548=FILL_AREA_STYLE('',(#576));
#549=FILL_AREA_STYLE('',(#577));
#550=FILL_AREA_STYLE('',(#578));
#551=FILL_AREA_STYLE('',(#579));
#552=FILL_AREA_STYLE('',(#580));
#553=FILL_AREA_STYLE('',(#581));
#554=FILL_AREA_STYLE('',(#582));
#555=FILL_AREA_STYLE('',(#583));
#556=FILL_AREA_STYLE('',(#584));
#557=FILL_AREA_STYLE('',(#585));
#558=FILL_AREA_STYLE('',(#586));
#559=FILL_AREA_STYLE('',(#587));
#560=FILL_AREA_STYLE('',(#588));
#561=FILL_AREA_STYLE('',(#589));
#562=FILL_AREA_STYLE('',(#590));
#563=FILL_AREA_STYLE('',(#591));
#564=FILL_AREA_STYLE('',(#592));
#565=FILL_AREA_STYLE('',(#593));
#566=FILL_AREA_STYLE('',(#594));
#567=FILL_AREA_STYLE('',(#595));
#568=FILL_AREA_STYLE('',(#596));
#569=FILL_AREA_STYLE('',(#597));
#570=FILL_AREA_STYLE_COLOUR('',#598);
#571=FILL_AREA_STYLE_COLOUR('',#599);
#572=FILL_AREA_STYLE_COLOUR('',#599);
#573=FILL_AREA_STYLE_COLOUR('',#599);
#574=FILL_AREA_STYLE_COLOUR('',#599);
#575=FILL_AREA_STYLE_COLOUR('',#599);
#576=FILL_AREA_STYLE_COLOUR('',#599);
#577=FILL_AREA_STYLE_COLOUR('',#599);
#578=FILL_AREA_STYLE_COLOUR('',#599);
#579=FILL_AREA_STYLE_COLOUR('',#599);
#580=FILL_AREA_STYLE_COLOUR('',#599);
#581=FILL_AREA_STYLE_COLOUR('',#599);
#582=FILL_AREA_STYLE_COLOUR('',#599);
#583=FILL_AREA_STYLE_COLOUR('',#599);
#584=FILL_AREA_STYLE_COLOUR('',#599);
#585=FILL_AREA_STYLE_COLOUR('',#599);
#586=FILL_AREA_STYLE_COLOUR('',#599);
#587=FILL_AREA_STYLE_COLOUR('',#599);
#588=FILL_AREA_STYLE_COLOUR('',#599);
#589=FILL_AREA_STYLE_COLOUR('',#599);
#590=FILL_AREA_STYLE_COLOUR('',#599);
#591=FILL_AREA_STYLE_COLOUR('',#599);
#592=FILL_AREA_STYLE_COLOUR('',#599);
#593=FILL_AREA_STYLE_COLOUR('',#599);
#594=FILL_AREA_STYLE_COLOUR('',#599);
#595=FILL_AREA_STYLE_COLOUR('',#599);
#596=FILL_AREA_STYLE_COLOUR('',#599);
#597=FILL_AREA_STYLE_COLOUR('',#599);
#598=COLOUR_RGB('',0.615686274509804,0.811764705882353,0.929411764705882);
#599=COLOUR_RGB('',0.698039215686275,0.752941176470588,0.4);
#600=MANIFOLD_SOLID_BREP('Part 1',#428);
#601=SHAPE_DEFINITION_REPRESENTATION(#909,#602);
#602=SHAPE_REPRESENTATION('Part 1',(#603),#904);
#603=AXIS2_PLACEMENT_3D('',#790,#655,#656);
#604=AXIS2_PLACEMENT_3D('',#791,#657,#658);
#605=AXIS2_PLACEMENT_3D('',#804,#665,#666);
#606=AXIS2_PLACEMENT_3D('',#813,#671,#672);
#607=AXIS2_PLACEMENT_3D('',#826,#679,#680);
#608=AXIS2_PLACEMENT_3D('',#835,#685,#686);
#609=AXIS2_PLACEMENT_3D('',#844,#691,#692);
#610=AXIS2_PLACEMENT_3D('',#850,#696,#697);
#611=AXIS2_PLACEMENT_3D('',#859,#702,#703);
#612=AXIS2_PLACEMENT_3D('',#860,#704,#705);
#613=AXIS2_PLACEMENT_3D('',#861,#706,#707);
#614=AXIS2_PLACEMENT_3D('',#862,#708,#709);
#615=AXIS2_PLACEMENT_3D('',#863,#710,#711);
#616=AXIS2_PLACEMENT_3D('',#864,#712,#713);
#617=AXIS2_PLACEMENT_3D('',#865,#714,#715);
#618=AXIS2_PLACEMENT_3D('',#866,#716,#717);
#619=AXIS2_PLACEMENT_3D('',#867,#718,#719);
#620=AXIS2_PLACEMENT_3D('',#868,#720,#721);
#621=AXIS2_PLACEMENT_3D('',#869,#722,#723);
#622=AXIS2_PLACEMENT_3D('',#870,#724,#725);
#623=AXIS2_PLACEMENT_3D('',#871,#726,#727);
#624=AXIS2_PLACEMENT_3D('',#872,#728,#729);
#625=AXIS2_PLACEMENT_3D('',#873,#730,#731);
#626=AXIS2_PLACEMENT_3D('',#874,#732,#733);
#627=AXIS2_PLACEMENT_3D('',#875,#734,#735);
#628=AXIS2_PLACEMENT_3D('',#876,#736,#737);
#629=AXIS2_PLACEMENT_3D('',#877,#738,#739);
#630=AXIS2_PLACEMENT_3D('',#878,#740,#741);
#631=AXIS2_PLACEMENT_3D('',#879,#742,#743);
#632=AXIS2_PLACEMENT_3D('',#880,#744,#745);
#633=AXIS2_PLACEMENT_3D('',#881,#746,#747);
#634=AXIS2_PLACEMENT_3D('',#882,#748,#749);
#635=AXIS2_PLACEMENT_3D('',#883,#750,#751);
#636=AXIS2_PLACEMENT_3D('',#884,#752,#753);
#637=AXIS2_PLACEMENT_3D('',#885,#754,#755);
#638=AXIS2_PLACEMENT_3D('',#886,#756,#757);
#639=AXIS2_PLACEMENT_3D('',#887,#758,#759);
#640=AXIS2_PLACEMENT_3D('',#888,#760,#761);
#641=AXIS2_PLACEMENT_3D('',#889,#762,#763);
#642=AXIS2_PLACEMENT_3D('',#890,#764,#765);
#643=AXIS2_PLACEMENT_3D('',#891,#766,#767);
#644=AXIS2_PLACEMENT_3D('',#892,#768,#769);
#645=AXIS2_PLACEMENT_3D('',#893,#770,#771);
#646=AXIS2_PLACEMENT_3D('',#894,#772,#773);
#647=AXIS2_PLACEMENT_3D('',#895,#774,#775);
#648=AXIS2_PLACEMENT_3D('',#896,#776,#777);
#649=AXIS2_PLACEMENT_3D('',#897,#778,#779);
#650=AXIS2_PLACEMENT_3D('',#898,#780,#781);
#651=AXIS2_PLACEMENT_3D('',#899,#782,#783);
#652=AXIS2_PLACEMENT_3D('',#900,#784,#785);
#653=AXIS2_PLACEMENT_3D('',#901,#786,#787);
#654=AXIS2_PLACEMENT_3D('',#902,#788,#789);
#655=DIRECTION('',(0.,0.,1.));
#656=DIRECTION('',(1.,0.,0.));
#657=DIRECTION('',(1.,0.,0.));
#658=DIRECTION('',(0.,0.,-1.));
#659=DIRECTION('',(0.,-1.,0.));
#660=DIRECTION('',(0.,0.,-1.));
#661=DIRECTION('',(0.,-1.,0.));
#662=DIRECTION('',(0.,0.,-1.));
#663=DIRECTION('',(0.,-1.,0.));
#664=DIRECTION('',(0.,0.,-1.));
#665=DIRECTION('',(0.,1.,0.));
#666=DIRECTION('',(0.,0.,1.));
#667=DIRECTION('',(0.,0.,-1.));
#668=DIRECTION('',(1.,0.,0.));
#669=DIRECTION('',(0.,0.,-1.));
#670=DIRECTION('',(1.,0.,0.));
#671=DIRECTION('',(1.,0.,0.));
#672=DIRECTION('',(0.,0.,-1.));
#673=DIRECTION('',(0.,-1.,0.));
#674=DIRECTION('',(0.,0.,-1.));
#675=DIRECTION('',(0.,-1.,0.));
#676=DIRECTION('',(0.,0.,-1.));
#677=DIRECTION('',(0.,-1.,0.));
#678=DIRECTION('',(0.,0.,-1.));
#679=DIRECTION('',(0.,0.,1.));
#680=DIRECTION('',(1.,0.,0.));
#681=DIRECTION('',(0.,-1.,0.));
#682=DIRECTION('',(1.,0.,0.));
#683=DIRECTION('',(0.,-1.,0.));
#684=DIRECTION('',(1.,0.,0.));
#685=DIRECTION('',(0.,0.,1.));
#686=DIRECTION('',(1.,0.,0.));
#687=DIRECTION('',(1.,0.,0.));
#688=DIRECTION('',(0.,-1.,0.));
#689=DIRECTION('',(1.,0.,0.));
#690=DIRECTION('',(0.,-1.,0.));
#691=DIRECTION('',(0.,1.,0.));
#692=DIRECTION('',(-1.,0.,0.));
#693=DIRECTION('',(1.,0.,0.));
#694=DIRECTION('',(0.,0.,-1.));
#695=DIRECTION('',(0.,0.,-1.));
#696=DIRECTION('',(0.,0.,-1.));
#697=DIRECTION('',(-1.,0.,0.));
#698=DIRECTION('',(0.,-1.,0.));
#699=DIRECTION('',(1.,0.,0.));
#700=DIRECTION('',(0.,-1.,0.));
#701=DIRECTION('',(1.,0.,0.));
#702=DIRECTION('',(0.,1.,0.));
#703=DIRECTION('',(-1.,0.,0.));
#704=DIRECTION('',(0.,1.,0.));
#705=DIRECTION('',(0.,0.,1.));
#706=DIRECTION('',(0.,1.,0.));
#707=DIRECTION('',(0.,0.,1.));
#708=DIRECTION('',(0.,1.,0.));
#709=DIRECTION('',(0.,0.,1.));
#710=DIRECTION('',(0.,1.,0.));
#711=DIRECTION('',(0.,0.,1.));
#712=DIRECTION('',(0.,-1.,0.));
#713=DIRECTION('',(0.,0.,-1.));
#714=DIRECTION('',(0.,-1.,0.));
#715=DIRECTION('',(0.,0.,-1.));
#716=DIRECTION('',(0.,1.,0.));
#717=DIRECTION('',(0.,0.,1.));
#718=DIRECTION('',(0.,1.,0.));
#719=DIRECTION('',(0.,0.,1.));
#720=DIRECTION('',(0.,1.,0.));
#721=DIRECTION('',(0.,0.,1.));
#722=DIRECTION('',(0.,1.,0.));
#723=DIRECTION('',(0.,0.,1.));
#724=DIRECTION('',(0.,-0.707106781186548,-0.707106781186548));
#725=DIRECTION('',(0.,0.707106781186548,-0.707106781186548));
#726=DIRECTION('',(0.,-1.,0.));
#727=DIRECTION('',(0.,0.,-1.));
#728=DIRECTION('',(0.,-1.,0.));
#729=DIRECTION('',(0.,0.,-1.));
#730=DIRECTION('',(0.,0.707106781186548,0.707106781186548));
#731=DIRECTION('',(0.,-0.707106781186548,0.707106781186548));
#732=DIRECTION('',(0.,0.,1.));
#733=DIRECTION('',(1.,0.,0.));
#734=DIRECTION('',(0.,0.,1.));
#735=DIRECTION('',(1.,0.,0.));
#736=DIRECTION('',(0.,0.,1.));
#737=DIRECTION('',(1.,0.,0.));
#738=DIRECTION('',(0.,1.,0.));
#739=DIRECTION('',(0.,0.,1.));
#740=DIRECTION('',(-1.,0.,0.));
#741=DIRECTION('',(0.,0.,1.));
#742=DIRECTION('',(-1.,0.,0.));
#743=DIRECTION('',(0.,0.,1.));
#744=DIRECTION('',(-1.,0.,0.));
#745=DIRECTION('',(0.,0.,1.));
#746=DIRECTION('',(0.,1.,0.));
#747=DIRECTION('',(0.,0.,1.));
#748=DIRECTION('',(0.,0.,-1.));
#749=DIRECTION('',(-1.,0.,0.));
#750=DIRECTION('',(0.,0.,-1.));
#751=DIRECTION('',(-1.,0.,0.));
#752=DIRECTION('',(0.,0.,-1.));
#753=DIRECTION('',(-1.,0.,0.));
#754=DIRECTION('',(0.,1.,0.));
#755=DIRECTION('',(0.,0.,1.));
#756=DIRECTION('',(0.,-1.,0.));
#757=DIRECTION('',(0.,0.,-1.));
#758=DIRECTION('',(0.,0.,1.));
#759=DIRECTION('',(1.,0.,0.));
#760=DIRECTION('',(-1.,0.,0.));
#761=DIRECTION('',(0.,0.,1.));
#762=DIRECTION('',(1.,0.,0.));
#763=DIRECTION('',(0.,0.,-1.));
#764=DIRECTION('',(-1.,0.,0.));
#765=DIRECTION('',(0.,0.,1.));
#766=DIRECTION('',(0.,0.,1.));
#767=DIRECTION('',(1.,0.,0.));
#768=DIRECTION('',(0.,1.,0.));
#769=DIRECTION('',(0.,0.,1.));
#770=DIRECTION('',(0.,-1.,0.));
#771=DIRECTION('',(0.,0.,-1.));
#772=DIRECTION('',(0.,0.,1.));
#773=DIRECTION('',(1.,0.,0.));
#774=DIRECTION('',(0.,0.,1.));
#775=DIRECTION('',(1.,0.,0.));
#776=DIRECTION('',(0.,1.,0.));
#777=DIRECTION('',(0.,0.,1.));
#778=DIRECTION('',(-1.,0.,0.));
#779=DIRECTION('',(0.,0.,1.));
#780=DIRECTION('',(1.,0.,0.));
#781=DIRECTION('',(0.,0.,-1.));
#782=DIRECTION('',(-1.,0.,0.));
#783=DIRECTION('',(0.,0.,1.));
#784=DIRECTION('',(0.,1.,0.));
#785=DIRECTION('',(0.,0.,1.));
#786=DIRECTION('',(0.,0.,-1.));
#787=DIRECTION('',(-1.,0.,0.));
#788=DIRECTION('',(0.,0.,-1.));
#789=DIRECTION('',(-1.,0.,0.));
#790=CARTESIAN_POINT('',(0.,0.,0.));
#791=CARTESIAN_POINT('',(-0.0591048792004585,0.053781043810644,0.025));
#792=CARTESIAN_POINT('',(-0.0591048792004585,0.063781043810644,0.02));
#793=CARTESIAN_POINT('',(-0.0591048792004585,0.048781043810644,0.02));
#794=CARTESIAN_POINT('',(-0.0591048792004585,0.068781043810644,0.02));
#795=CARTESIAN_POINT('',(-0.0591048792004585,0.068781043810644,0.025));
#796=CARTESIAN_POINT('',(-0.0591048792004585,0.068781043810644,0.035));
#797=CARTESIAN_POINT('',(-0.0591048792004585,0.053781043810644,0.035));
#798=CARTESIAN_POINT('',(-0.0591048792004585,0.073781043810644,0.035));
#799=CARTESIAN_POINT('',(-0.0591048792004585,0.073781043810644,0.025));
#800=CARTESIAN_POINT('',(-0.0591048792004585,0.073781043810644,0.005));
#801=CARTESIAN_POINT('',(-0.0591048792004585,0.053781043810644,0.005));
#802=CARTESIAN_POINT('',(-0.0591048792004585,0.048781043810644,0.005));
#803=CARTESIAN_POINT('',(-0.0591048792004585,0.048781043810644,0.025));
#804=CARTESIAN_POINT('',(-0.0391048792004585,0.0437810438106441,0.025));
#805=CARTESIAN_POINT('',(-0.0541048792004585,0.0437810438106441,0.025));
#806=CARTESIAN_POINT('',(-0.0541048792004585,0.0437810438106441,0.02));
#807=CARTESIAN_POINT('',(-0.0541048792004585,0.0437810438106441,0.005));
#808=CARTESIAN_POINT('',(-0.0391048792004585,0.0437810438106441,0.005));
#809=CARTESIAN_POINT('',(-0.0241048792004585,0.0437810438106441,0.005));
#810=CARTESIAN_POINT('',(-0.0241048792004585,0.0437810438106441,0.02));
#811=CARTESIAN_POINT('',(-0.0241048792004585,0.0437810438106441,0.02));
#812=CARTESIAN_POINT('',(-0.0541048792004585,0.0437810438106441,0.02));
#813=CARTESIAN_POINT('',(-0.0191048792004586,0.053781043810644,0.025));
#814=CARTESIAN_POINT('',(-0.0191048792004586,0.063781043810644,0.035));
#815=CARTESIAN_POINT('',(-0.0191048792004586,0.073781043810644,0.035));
#816=CARTESIAN_POINT('',(-0.0191048792004586,0.068781043810644,0.035));
#817=CARTESIAN_POINT('',(-0.0191048792004586,0.068781043810644,0.02));
#818=CARTESIAN_POINT('',(-0.0191048792004586,0.068781043810644,0.02));
#819=CARTESIAN_POINT('',(-0.0191048792004586,0.053781043810644,0.02));
#820=CARTESIAN_POINT('',(-0.0191048792004586,0.048781043810644,0.02));
#821=CARTESIAN_POINT('',(-0.0191048792004586,0.048781043810644,0.));
#822=CARTESIAN_POINT('',(-0.0191048792004586,0.048781043810644,0.005));
#823=CARTESIAN_POINT('',(-0.0191048792004586,0.073781043810644,0.005));
#824=CARTESIAN_POINT('',(-0.0191048792004586,0.073781043810644,0.005));
#825=CARTESIAN_POINT('',(-0.0191048792004586,0.073781043810644,0.025));
#826=CARTESIAN_POINT('',(-0.0391048792004585,0.053781043810644,0.025));
#827=CARTESIAN_POINT('',(-0.0541048792004585,0.0437810438106441,0.025));
#828=CARTESIAN_POINT('',(-0.0541048792004585,0.063781043810644,0.025));
#829=CARTESIAN_POINT('',(-0.0541048792004585,0.048781043810644,0.025));
#830=CARTESIAN_POINT('',(-0.0241048792004585,0.048781043810644,0.025));
#831=CARTESIAN_POINT('',(-0.0241048792004585,0.048781043810644,0.025));
#832=CARTESIAN_POINT('',(-0.0241048792004585,0.053781043810644,0.025));
#833=CARTESIAN_POINT('',(-0.0241048792004585,0.063781043810644,0.025));
#834=CARTESIAN_POINT('',(-0.0391048792004585,0.063781043810644,0.025));
#835=CARTESIAN_POINT('',(-0.0391048792004585,0.053781043810644,0.));
#836=CARTESIAN_POINT('',(-0.0391048792004585,0.048781043810644,0.));
#837=CARTESIAN_POINT('',(-0.0241048792004585,0.048781043810644,0.));
#838=CARTESIAN_POINT('',(-0.0541048792004585,0.048781043810644,0.));
#839=CARTESIAN_POINT('',(-0.0541048792004585,0.053781043810644,0.));
#840=CARTESIAN_POINT('',(-0.0541048792004585,0.073781043810644,0.));
#841=CARTESIAN_POINT('',(-0.0391048792004585,0.073781043810644,0.));
#842=CARTESIAN_POINT('',(-0.0241048792004585,0.073781043810644,0.));
#843=CARTESIAN_POINT('',(-0.0241048792004585,0.048781043810644,0.));
#844=CARTESIAN_POINT('',(-0.0391048792004585,0.063781043810644,0.02));
#845=CARTESIAN_POINT('',(-0.0391048792004585,0.063781043810644,0.035));
#846=CARTESIAN_POINT('',(-0.0241048792004585,0.063781043810644,0.035));
#847=CARTESIAN_POINT('',(-0.0541048792004585,0.063781043810644,0.035));
#848=CARTESIAN_POINT('',(-0.0541048792004585,0.063781043810644,0.02));
#849=CARTESIAN_POINT('',(-0.0241048792004585,0.063781043810644,0.035));
#850=CARTESIAN_POINT('',(-0.0391048792004585,0.073781043810644,0.04));
#851=CARTESIAN_POINT('',(-0.0541048792004585,0.073781043810644,0.04));
#852=CARTESIAN_POINT('',(-0.0541048792004585,0.073781043810644,0.04));
#853=CARTESIAN_POINT('',(-0.0541048792004585,0.068781043810644,0.04));
#854=CARTESIAN_POINT('',(-0.0391048792004585,0.068781043810644,0.04));
#855=CARTESIAN_POINT('',(-0.0241048792004585,0.068781043810644,0.04));
#856=CARTESIAN_POINT('',(-0.0241048792004585,0.073781043810644,0.04));
#857=CARTESIAN_POINT('',(-0.0241048792004585,0.073781043810644,0.04));
#858=CARTESIAN_POINT('',(-0.0391048792004585,0.073781043810644,0.04));
#859=CARTESIAN_POINT('',(-0.0391048792004585,0.073781043810644,0.02));
#860=CARTESIAN_POINT('',(-0.0541048792004585,0.073781043810644,0.005));
#861=CARTESIAN_POINT('',(-0.0541048792004585,0.073781043810644,0.035));
#862=CARTESIAN_POINT('',(-0.0241048792004585,0.073781043810644,0.035));
#863=CARTESIAN_POINT('',(-0.0241048792004585,0.073781043810644,0.005));
#864=CARTESIAN_POINT('',(-0.0541048792004585,0.073781043810644,0.035));
#865=CARTESIAN_POINT('',(-0.0541048792004585,0.068781043810644,0.035));
#866=CARTESIAN_POINT('',(-0.0241048792004585,0.053781043810644,0.035));
#867=CARTESIAN_POINT('',(-0.0241048792004585,0.068781043810644,0.035));
#868=CARTESIAN_POINT('',(-0.0541048792004585,0.053781043810644,0.02));
#869=CARTESIAN_POINT('',(-0.0541048792004585,0.048781043810644,0.02));
#870=CARTESIAN_POINT('',(-0.0541048792004585,0.068781043810644,0.02));
#871=CARTESIAN_POINT('',(-0.0241048792004585,0.053781043810644,0.02));
#872=CARTESIAN_POINT('',(-0.0241048792004585,0.048781043810644,0.02));
#873=CARTESIAN_POINT('',(-0.0241048792004585,0.068781043810644,0.02));
#874=CARTESIAN_POINT('',(-0.0241048792004585,0.048781043810644,0.025));
#875=CARTESIAN_POINT('',(-0.0241048792004585,0.048781043810644,0.005));
#876=CARTESIAN_POINT('',(-0.0241048792004585,0.048781043810644,0.02));
#877=CARTESIAN_POINT('',(-0.0241048792004585,0.048781043810644,0.02));
#878=CARTESIAN_POINT('',(-0.0241048792004585,0.048781043810644,0.02));
#879=CARTESIAN_POINT('',(-0.0391048792004585,0.048781043810644,0.02));
#880=CARTESIAN_POINT('',(-0.0541048792004585,0.048781043810644,0.02));
#881=CARTESIAN_POINT('',(-0.0541048792004585,0.048781043810644,0.02));
#882=CARTESIAN_POINT('',(-0.0541048792004585,0.048781043810644,0.02));
#883=CARTESIAN_POINT('',(-0.0541048792004585,0.048781043810644,0.025));
#884=CARTESIAN_POINT('',(-0.0541048792004585,0.048781043810644,0.005));
#885=CARTESIAN_POINT('',(-0.0241048792004585,0.053781043810644,0.005));
#886=CARTESIAN_POINT('',(-0.0241048792004585,0.048781043810644,0.005));
#887=CARTESIAN_POINT('',(-0.0241048792004585,0.048781043810644,0.005));
#888=CARTESIAN_POINT('',(-0.0241048792004585,0.048781043810644,0.005));
#889=CARTESIAN_POINT('',(-0.0391048792004585,0.048781043810644,0.005));
#890=CARTESIAN_POINT('',(-0.0541048792004585,0.048781043810644,0.005));
#891=CARTESIAN_POINT('',(-0.0541048792004585,0.048781043810644,0.005));
#892=CARTESIAN_POINT('',(-0.0541048792004585,0.048781043810644,0.005));
#893=CARTESIAN_POINT('',(-0.0541048792004585,0.053781043810644,0.005));
#894=CARTESIAN_POINT('',(-0.0241048792004585,0.068781043810644,0.025));
#895=CARTESIAN_POINT('',(-0.0241048792004585,0.068781043810644,0.035));
#896=CARTESIAN_POINT('',(-0.0241048792004585,0.068781043810644,0.035));
#897=CARTESIAN_POINT('',(-0.0241048792004585,0.068781043810644,0.035));
#898=CARTESIAN_POINT('',(-0.0391048792004585,0.068781043810644,0.035));
#899=CARTESIAN_POINT('',(-0.0541048792004585,0.068781043810644,0.035));
#900=CARTESIAN_POINT('',(-0.0541048792004585,0.068781043810644,0.035));
#901=CARTESIAN_POINT('',(-0.0541048792004585,0.068781043810644,0.035));
#902=CARTESIAN_POINT('',(-0.0541048792004585,0.068781043810644,0.02));
#903=MECHANICAL_DESIGN_GEOMETRIC_PRESENTATION_REPRESENTATION('',(#429,#374,
#375,#376,#377,#378,#379,#380,#381,#382,#383,#384,#385,#386,#387,#388,#389,
#390,#391,#392,#393,#394,#395,#396,#397,#398,#399,#400),#904);
#904=(
GEOMETRIC_REPRESENTATION_CONTEXT(3)
GLOBAL_UNCERTAINTY_ASSIGNED_CONTEXT((#905))
GLOBAL_UNIT_ASSIGNED_CONTEXT((#908,#907,#906))
REPRESENTATION_CONTEXT('Part 1','TOP_LEVEL_ASSEMBLY_PART')
);
#905=UNCERTAINTY_MEASURE_WITH_UNIT(LENGTH_MEASURE(1.E-8),#908,
'DISTANCE_ACCURACY_VALUE','Maximum Tolerance applied to model');
#906=(
NAMED_UNIT(*)
SI_UNIT($,.STERADIAN.)
SOLID_ANGLE_UNIT()
);
#907=(
NAMED_UNIT(*)
PLANE_ANGLE_UNIT()
SI_UNIT($,.RADIAN.)
);
#908=(
LENGTH_UNIT()
NAMED_UNIT(*)
SI_UNIT($,.METRE.)
);
#909=PRODUCT_DEFINITION_SHAPE('','',#910);
#910=PRODUCT_DEFINITION('','',#912,#911);
#911=PRODUCT_DEFINITION_CONTEXT('',#918,'design');
#912=PRODUCT_DEFINITION_FORMATION_WITH_SPECIFIED_SOURCE('','',#914,
 .NOT_KNOWN.);
#913=PRODUCT_RELATED_PRODUCT_CATEGORY('','',(#914));
#914=PRODUCT('Part 1','Part 1','Part 1',(#916));
#915=PRODUCT_CATEGORY('','');
#916=PRODUCT_CONTEXT('',#918,'mechanical');
#917=APPLICATION_PROTOCOL_DEFINITION('international standard',
'ap242_managed_model_based_3d_engineering',2020,#918);
#918=APPLICATION_CONTEXT('managed model based 3d engineering');
ENDSEC;
END-ISO-10303-21;
