ISO-10303-21;
HEADER;
/* Generated by software containing ST-Developer
 * from STEP Tools, Inc. (www.steptools.com) 
 */
/* OPTION: using custom renumber hook */

FILE_DESCRIPTION(
/* description */ ('STEP AP242 Edition 2',
'CAx-IF Rec.Pracs.---Representation and Presentation of Product Manufa
cturing Information (PMI)---4.0---2014-10-13',
'CAx-IF Rec.Pracs.---3D Tessellated Geometry---0.4---2014-09-14','2;1',
'CAx-IF Rec.Pracs.---User Defined Attributes---1.5---2016-08-15'),
/* implementation_level */ '2;1');

FILE_NAME(
/* name */ 'Base Plate',
/* time_stamp */ '2026-09-03T13:00:13Z',
/* author */ (''),
/* organization */ (''),
/* preprocessor_version */ 'ST-DEVELOPER v20',
/* originating_system */ 'ONSHAPE BY PTC INC, 1.220',
/* authorisation */ '  ');

FILE_SCHEMA (('AP242_MANAGED_MODEL_BASED_3D_ENGINEERING_MIM_LF { 1 0 10303 442 3 1 4 }'));
ENDSEC;

DATA;
#10=SHAPE_REPRESENTATION_RELATIONSHIP('','',#270,#11);
#11=ADVANCED_BREP_SHAPE_REPRESENTATION('',(#268),#380);
#12=ORIENTED_EDGE('',*,*,#60,.F.);
#13=ORIENTED_EDGE('',*,*,#61,.T.);
#14=ORIENTED_EDGE('',*,*,#62,.T.);
#15=ORIENTED_EDGE('',*,*,#63,.F.);
#16=ORIENTED_EDGE('',*,*,#64,.F.);
#17=ORIENTED_EDGE('',*,*,#60,.T.);
#18=ORIENTED_EDGE('',*,*,#65,.T.);
#19=ORIENTED_EDGE('',*,*,#66,.F.);
#20=ORIENTED_EDGE('',*,*,#62,.F.);
#21=ORIENTED_EDGE('',*,*,#67,.T.);
#22=ORIENTED_EDGE('',*,*,#68,.T.);
#23=ORIENTED_EDGE('',*,*,#69,.F.);
#24=ORIENTED_EDGE('',*,*,#70,.F.);
#25=ORIENTED_EDGE('',*,*,#71,.T.);
#26=ORIENTED_EDGE('',*,*,#72,.F.);
#27=ORIENTED_EDGE('',*,*,#73,.F.);
#28=ORIENTED_EDGE('',*,*,#74,.F.);
#29=ORIENTED_EDGE('',*,*,#66,.T.);
#30=ORIENTED_EDGE('',*,*,#75,.T.);
#31=ORIENTED_EDGE('',*,*,#68,.F.);
#32=ORIENTED_EDGE('',*,*,#76,.F.);
#33=ORIENTED_EDGE('',*,*,#77,.T.);
#34=ORIENTED_EDGE('',*,*,#72,.T.);
#35=ORIENTED_EDGE('',*,*,#78,.F.);
#36=ORIENTED_EDGE('',*,*,#63,.T.);
#37=ORIENTED_EDGE('',*,*,#69,.T.);
#38=ORIENTED_EDGE('',*,*,#75,.F.);
#39=ORIENTED_EDGE('',*,*,#65,.F.);
#40=ORIENTED_EDGE('',*,*,#77,.F.);
#41=ORIENTED_EDGE('',*,*,#79,.F.);
#42=ORIENTED_EDGE('',*,*,#80,.T.);
#43=ORIENTED_EDGE('',*,*,#73,.T.);
#44=ORIENTED_EDGE('',*,*,#76,.T.);
#45=ORIENTED_EDGE('',*,*,#81,.F.);
#46=ORIENTED_EDGE('',*,*,#82,.F.);
#47=ORIENTED_EDGE('',*,*,#79,.T.);
#48=ORIENTED_EDGE('',*,*,#78,.T.);
#49=ORIENTED_EDGE('',*,*,#71,.F.);
#50=ORIENTED_EDGE('',*,*,#83,.F.);
#51=ORIENTED_EDGE('',*,*,#81,.T.);
#52=ORIENTED_EDGE('',*,*,#80,.F.);
#53=ORIENTED_EDGE('',*,*,#82,.T.);
#54=ORIENTED_EDGE('',*,*,#83,.T.);
#55=ORIENTED_EDGE('',*,*,#70,.T.);
#56=ORIENTED_EDGE('',*,*,#67,.F.);
#57=ORIENTED_EDGE('',*,*,#61,.F.);
#58=ORIENTED_EDGE('',*,*,#64,.T.);
#59=ORIENTED_EDGE('',*,*,#74,.T.);
#60=EDGE_CURVE('',#84,#85,#100,.T.);
#61=EDGE_CURVE('',#84,#86,#101,.T.);
#62=EDGE_CURVE('',#86,#87,#102,.T.);
#63=EDGE_CURVE('',#85,#87,#103,.T.);
#64=EDGE_CURVE('',#84,#88,#104,.T.);
#65=EDGE_CURVE('',#85,#89,#105,.T.);
#66=EDGE_CURVE('',#88,#89,#106,.T.);
#67=EDGE_CURVE('',#86,#90,#107,.T.);
#68=EDGE_CURVE('',#90,#91,#108,.T.);
#69=EDGE_CURVE('',#87,#91,#109,.T.);
#70=EDGE_CURVE('',#92,#90,#110,.T.);
#71=EDGE_CURVE('',#92,#93,#111,.T.);
#72=EDGE_CURVE('',#94,#93,#112,.T.);
#73=EDGE_CURVE('',#95,#94,#113,.T.);
#74=EDGE_CURVE('',#88,#95,#114,.T.);
#75=EDGE_CURVE('',#89,#91,#115,.T.);
#76=EDGE_CURVE('',#96,#97,#116,.T.);
#77=EDGE_CURVE('',#96,#94,#117,.T.);
#78=EDGE_CURVE('',#97,#93,#118,.T.);
#79=EDGE_CURVE('',#98,#96,#119,.T.);
#80=EDGE_CURVE('',#98,#95,#120,.T.);
#81=EDGE_CURVE('',#99,#97,#121,.T.);
#82=EDGE_CURVE('',#98,#99,#122,.T.);
#83=EDGE_CURVE('',#99,#92,#123,.T.);
#84=VERTEX_POINT('',#331);
#85=VERTEX_POINT('',#332);
#86=VERTEX_POINT('',#334);
#87=VERTEX_POINT('',#336);
#88=VERTEX_POINT('',#340);
#89=VERTEX_POINT('',#342);
#90=VERTEX_POINT('',#346);
#91=VERTEX_POINT('',#348);
#92=VERTEX_POINT('',#352);
#93=VERTEX_POINT('',#354);
#94=VERTEX_POINT('',#356);
#95=VERTEX_POINT('',#358);
#96=VERTEX_POINT('',#363);
#97=VERTEX_POINT('',#364);
#98=VERTEX_POINT('',#370);
#99=VERTEX_POINT('',#374);
#100=LINE('',#330,#124);
#101=LINE('',#333,#125);
#102=LINE('',#335,#126);
#103=LINE('',#337,#127);
#104=LINE('',#339,#128);
#105=LINE('',#341,#129);
#106=LINE('',#343,#130);
#107=LINE('',#345,#131);
#108=LINE('',#347,#132);
#109=LINE('',#349,#133);
#110=LINE('',#351,#134);
#111=LINE('',#353,#135);
#112=LINE('',#355,#136);
#113=LINE('',#357,#137);
#114=LINE('',#359,#138);
#115=LINE('',#360,#139);
#116=LINE('',#362,#140);
#117=LINE('',#365,#141);
#118=LINE('',#366,#142);
#119=LINE('',#369,#143);
#120=LINE('',#371,#144);
#121=LINE('',#373,#145);
#122=LINE('',#375,#146);
#123=LINE('',#377,#147);
#124=VECTOR('',#286,1.);
#125=VECTOR('',#287,1.);
#126=VECTOR('',#288,1.);
#127=VECTOR('',#289,1.);
#128=VECTOR('',#292,1.);
#129=VECTOR('',#293,1.);
#130=VECTOR('',#294,1.);
#131=VECTOR('',#297,1.);
#132=VECTOR('',#298,1.);
#133=VECTOR('',#299,1.);
#134=VECTOR('',#302,1.);
#135=VECTOR('',#303,1.);
#136=VECTOR('',#304,1.);
#137=VECTOR('',#305,1.);
#138=VECTOR('',#306,1.);
#139=VECTOR('',#307,1.);
#140=VECTOR('',#310,1.);
#141=VECTOR('',#311,1.);
#142=VECTOR('',#312,1.);
#143=VECTOR('',#317,1.);
#144=VECTOR('',#318,1.);
#145=VECTOR('',#321,1.);
#146=VECTOR('',#322,1.);
#147=VECTOR('',#325,1.);
#148=EDGE_LOOP('',(#12,#13,#14,#15));
#149=EDGE_LOOP('',(#16,#17,#18,#19));
#150=EDGE_LOOP('',(#20,#21,#22,#23));
#151=EDGE_LOOP('',(#24,#25,#26,#27,#28,#29,#30,#31));
#152=EDGE_LOOP('',(#32,#33,#34,#35));
#153=EDGE_LOOP('',(#36,#37,#38,#39));
#154=EDGE_LOOP('',(#40,#41,#42,#43));
#155=EDGE_LOOP('',(#44,#45,#46,#47));
#156=EDGE_LOOP('',(#48,#49,#50,#51));
#157=EDGE_LOOP('',(#52,#53,#54,#55,#56,#57,#58,#59));
#158=FACE_BOUND('',#148,.T.);
#159=FACE_BOUND('',#149,.T.);
#160=FACE_BOUND('',#150,.T.);
#161=FACE_BOUND('',#151,.T.);
#162=FACE_BOUND('',#152,.T.);
#163=FACE_BOUND('',#153,.T.);
#164=FACE_BOUND('',#154,.T.);
#165=FACE_BOUND('',#155,.T.);
#166=FACE_BOUND('',#156,.T.);
#167=FACE_BOUND('',#157,.T.);
#168=PLANE('',#272);
#169=PLANE('',#273);
#170=PLANE('',#274);
#171=PLANE('',#275);
#172=PLANE('',#276);
#173=PLANE('',#277);
#174=PLANE('',#278);
#175=PLANE('',#279);
#176=PLANE('',#280);
#177=PLANE('',#281);
#178=OVER_RIDING_STYLED_ITEM('',(#201),#188,#199);
#179=OVER_RIDING_STYLED_ITEM('',(#202),#189,#199);
#180=OVER_RIDING_STYLED_ITEM('',(#203),#190,#199);
#181=OVER_RIDING_STYLED_ITEM('',(#204),#191,#199);
#182=OVER_RIDING_STYLED_ITEM('',(#205),#192,#199);
#183=OVER_RIDING_STYLED_ITEM('',(#206),#193,#199);
#184=OVER_RIDING_STYLED_ITEM('',(#207),#194,#199);
#185=OVER_RIDING_STYLED_ITEM('',(#208),#195,#199);
#186=OVER_RIDING_STYLED_ITEM('',(#209),#196,#199);
#187=OVER_RIDING_STYLED_ITEM('',(#210),#197,#199);
#188=ADVANCED_FACE('Face appearance 1',(#158),#168,.T.);
#189=ADVANCED_FACE('Face appearance 1',(#159),#169,.F.);
#190=ADVANCED_FACE('Face appearance 1',(#160),#170,.T.);
#191=ADVANCED_FACE('Face appearance 1',(#161),#171,.F.);
#192=ADVANCED_FACE('Face appearance 1',(#162),#172,.T.);
#193=ADVANCED_FACE('Face appearance 1',(#163),#173,.F.);
#194=ADVANCED_FACE('Face appearance 2',(#164),#174,.T.);
#195=ADVANCED_FACE('Face appearance 2',(#165),#175,.F.);
#196=ADVANCED_FACE('Face appearance 2',(#166),#176,.F.);
#197=ADVANCED_FACE('Face appearance 2',(#167),#177,.T.);
#198=CLOSED_SHELL('',(#188,#189,#190,#191,#192,#193,#194,#195,#196,#197));
#199=STYLED_ITEM('',(#200),#268);
#200=PRESENTATION_STYLE_ASSIGNMENT((#211));
#201=PRESENTATION_STYLE_ASSIGNMENT((#212));
#202=PRESENTATION_STYLE_ASSIGNMENT((#213));
#203=PRESENTATION_STYLE_ASSIGNMENT((#214));
#204=PRESENTATION_STYLE_ASSIGNMENT((#215));
#205=PRESENTATION_STYLE_ASSIGNMENT((#216));
#206=PRESENTATION_STYLE_ASSIGNMENT((#217));
#207=PRESENTATION_STYLE_ASSIGNMENT((#218));
#208=PRESENTATION_STYLE_ASSIGNMENT((#219));
#209=PRESENTATION_STYLE_ASSIGNMENT((#220));
#210=PRESENTATION_STYLE_ASSIGNMENT((#221));
#211=SURFACE_STYLE_USAGE(.BOTH.,#222);
#212=SURFACE_STYLE_USAGE(.BOTH.,#223);
#213=SURFACE_STYLE_USAGE(.BOTH.,#224);
#214=SURFACE_STYLE_USAGE(.BOTH.,#225);
#215=SURFACE_STYLE_USAGE(.BOTH.,#226);
#216=SURFACE_STYLE_USAGE(.BOTH.,#227);
#217=SURFACE_STYLE_USAGE(.BOTH.,#228);
#218=SURFACE_STYLE_USAGE(.BOTH.,#229);
#219=SURFACE_STYLE_USAGE(.BOTH.,#230);
#220=SURFACE_STYLE_USAGE(.BOTH.,#231);
#221=SURFACE_STYLE_USAGE(.BOTH.,#232);
#222=SURFACE_SIDE_STYLE('',(#233));
#223=SURFACE_SIDE_STYLE('',(#234));
#224=SURFACE_SIDE_STYLE('',(#235));
#225=SURFACE_SIDE_STYLE('',(#236));
#226=SURFACE_SIDE_STYLE('',(#237));
#227=SURFACE_SIDE_STYLE('',(#238));
#228=SURFACE_SIDE_STYLE('',(#239));
#229=SURFACE_SIDE_STYLE('',(#240));
#230=SURFACE_SIDE_STYLE('',(#241));
#231=SURFACE_SIDE_STYLE('',(#242));
#232=SURFACE_SIDE_STYLE('',(#243));
#233=SURFACE_STYLE_FILL_AREA(#244);
#234=SURFACE_STYLE_FILL_AREA(#245);
#235=SURFACE_STYLE_FILL_AREA(#246);
#236=SURFACE_STYLE_FILL_AREA(#247);
#237=SURFACE_STYLE_FILL_AREA(#248);
#238=SURFACE_STYLE_FILL_AREA(#249);
#239=SURFACE_STYLE_FILL_AREA(#250);
#240=SURFACE_STYLE_FILL_AREA(#251);
#241=SURFACE_STYLE_FILL_AREA(#252);
#242=SURFACE_STYLE_FILL_AREA(#253);
#243=SURFACE_STYLE_FILL_AREA(#254);
#244=FILL_AREA_STYLE('',(#255));
#245=FILL_AREA_STYLE('',(#256));
#246=FILL_AREA_STYLE('',(#257));
#247=FILL_AREA_STYLE('',(#258));
#248=FILL_AREA_STYLE('',(#259));
#249=FILL_AREA_STYLE('',(#260));
#250=FILL_AREA_STYLE('',(#261));
#251=FILL_AREA_STYLE('',(#262));
#252=FILL_AREA_STYLE('',(#263));
#253=FILL_AREA_STYLE('',(#264));
#254=FILL_AREA_STYLE('',(#265));
#255=FILL_AREA_STYLE_COLOUR('',#266);
#256=FILL_AREA_STYLE_COLOUR('',#267);
#257=FILL_AREA_STYLE_COLOUR('',#267);
#258=FILL_AREA_STYLE_COLOUR('',#267);
#259=FILL_AREA_STYLE_COLOUR('',#267);
#260=FILL_AREA_STYLE_COLOUR('',#267);
#261=FILL_AREA_STYLE_COLOUR('',#267);
#262=FILL_AREA_STYLE_COLOUR('',#267);
#263=FILL_AREA_STYLE_COLOUR('',#267);
#264=FILL_AREA_STYLE_COLOUR('',#267);
#265=FILL_AREA_STYLE_COLOUR('',#267);
#266=COLOUR_RGB('',0.615686274509804,0.811764705882353,0.929411764705882);
#267=COLOUR_RGB('',0.815686274509804,0.850980392156863,0.627450980392157);
#268=MANIFOLD_SOLID_BREP('Part 1',#198);
#269=SHAPE_DEFINITION_REPRESENTATION(#385,#270);
#270=SHAPE_REPRESENTATION('Part 1',(#271),#380);
#271=AXIS2_PLACEMENT_3D('',#328,#282,#283);
#272=AXIS2_PLACEMENT_3D('',#329,#284,#285);
#273=AXIS2_PLACEMENT_3D('',#338,#290,#291);
#274=AXIS2_PLACEMENT_3D('',#344,#295,#296);
#275=AXIS2_PLACEMENT_3D('',#350,#300,#301);
#276=AXIS2_PLACEMENT_3D('',#361,#308,#309);
#277=AXIS2_PLACEMENT_3D('',#367,#313,#314);
#278=AXIS2_PLACEMENT_3D('',#368,#315,#316);
#279=AXIS2_PLACEMENT_3D('',#372,#319,#320);
#280=AXIS2_PLACEMENT_3D('',#376,#323,#324);
#281=AXIS2_PLACEMENT_3D('',#378,#326,#327);
#282=DIRECTION('',(0.,0.,1.));
#283=DIRECTION('',(1.,0.,0.));
#284=DIRECTION('',(0.,1.,0.));
#285=DIRECTION('',(0.,0.,1.));
#286=DIRECTION('',(0.,0.,-1.));
#287=DIRECTION('',(1.,0.,0.));
#288=DIRECTION('',(0.,0.,-1.));
#289=DIRECTION('',(1.,0.,0.));
#290=DIRECTION('',(1.,0.,0.));
#291=DIRECTION('',(0.,0.,-1.));
#292=DIRECTION('',(0.,-1.,0.));
#293=DIRECTION('',(0.,-1.,0.));
#294=DIRECTION('',(0.,0.,-1.));
#295=DIRECTION('',(1.,0.,0.));
#296=DIRECTION('',(0.,0.,-1.));
#297=DIRECTION('',(0.,-1.,0.));
#298=DIRECTION('',(0.,0.,-1.));
#299=DIRECTION('',(0.,-1.,0.));
#300=DIRECTION('',(0.,1.,0.));
#301=DIRECTION('',(0.,0.,1.));
#302=DIRECTION('',(1.,0.,0.));
#303=DIRECTION('',(0.,0.,1.));
#304=DIRECTION('',(1.,0.,0.));
#305=DIRECTION('',(0.,0.,1.));
#306=DIRECTION('',(1.,0.,0.));
#307=DIRECTION('',(1.,0.,0.));
#308=DIRECTION('',(0.,0.,1.));
#309=DIRECTION('',(1.,0.,0.));
#310=DIRECTION('',(1.,0.,0.));
#311=DIRECTION('',(0.,-1.,0.));
#312=DIRECTION('',(3.02788097625043E-16,-1.,0.));
#313=DIRECTION('',(0.,0.,1.));
#314=DIRECTION('',(1.,0.,0.));
#315=DIRECTION('',(-1.,0.,0.));
#316=DIRECTION('',(0.,0.,1.));
#317=DIRECTION('',(0.,0.,1.));
#318=DIRECTION('',(0.,-1.,0.));
#319=DIRECTION('',(0.,-1.,0.));
#320=DIRECTION('',(0.,0.,-1.));
#321=DIRECTION('',(0.,0.,1.));
#322=DIRECTION('',(1.,0.,0.));
#323=DIRECTION('',(-1.,-3.02788097625043E-16,0.));
#324=DIRECTION('',(3.02788097625043E-16,-1.,0.));
#325=DIRECTION('',(3.02788097625043E-16,-1.,0.));
#326=DIRECTION('',(0.,0.,1.));
#327=DIRECTION('',(1.,0.,0.));
#328=CARTESIAN_POINT('',(0.,0.,0.));
#329=CARTESIAN_POINT('',(0.00460088253021239,0.187919140431554,0.0025));
#330=CARTESIAN_POINT('',(-0.0653991174697876,0.187919140431554,0.0025));
#331=CARTESIAN_POINT('',(-0.0653991174697876,0.187919140431554,0.001));
#332=CARTESIAN_POINT('',(-0.0653991174697876,0.187919140431554,0.));
#333=CARTESIAN_POINT('',(0.00460088253021239,0.187919140431554,0.001));
#334=CARTESIAN_POINT('',(0.0746008825302124,0.187919140431554,0.001));
#335=CARTESIAN_POINT('',(0.0746008825302124,0.187919140431554,0.0025));
#336=CARTESIAN_POINT('',(0.0746008825302124,0.187919140431554,0.));
#337=CARTESIAN_POINT('',(0.00460088253021239,0.187919140431554,0.));
#338=CARTESIAN_POINT('',(-0.0653991174697876,0.117919140431555,0.0025));
#339=CARTESIAN_POINT('',(-0.0653991174697876,0.117919140431555,0.001));
#340=CARTESIAN_POINT('',(-0.0653991174697876,0.0479191404315546,0.001));
#341=CARTESIAN_POINT('',(-0.0653991174697876,0.117919140431555,0.));
#342=CARTESIAN_POINT('',(-0.0653991174697876,0.0479191404315546,0.));
#343=CARTESIAN_POINT('',(-0.0653991174697876,0.0479191404315546,0.0025));
#344=CARTESIAN_POINT('',(0.0746008825302124,0.117919140431555,0.0025));
#345=CARTESIAN_POINT('',(0.0746008825302124,0.117919140431555,0.001));
#346=CARTESIAN_POINT('',(0.0746008825302124,0.0479191404315546,0.001));
#347=CARTESIAN_POINT('',(0.0746008825302124,0.0479191404315546,0.0025));
#348=CARTESIAN_POINT('',(0.0746008825302124,0.0479191404315546,0.));
#349=CARTESIAN_POINT('',(0.0746008825302124,0.117919140431555,0.));
#350=CARTESIAN_POINT('',(0.0046008825302124,0.0479191404315546,0.0025));
#351=CARTESIAN_POINT('',(0.0046008825302124,0.0479191404315546,0.001));
#352=CARTESIAN_POINT('',(0.0721008825302124,0.0479191404315546,0.001));
#353=CARTESIAN_POINT('',(0.0721008825302124,0.0479191404315546,0.001));
#354=CARTESIAN_POINT('',(0.0721008825302124,0.0479191404315546,0.0025));
#355=CARTESIAN_POINT('',(0.0046008825302124,0.0479191404315546,0.0025));
#356=CARTESIAN_POINT('',(-0.0628991174697876,0.0479191404315546,0.0025));
#357=CARTESIAN_POINT('',(-0.0628991174697876,0.0479191404315546,0.001));
#358=CARTESIAN_POINT('',(-0.0628991174697876,0.0479191404315546,0.001));
#359=CARTESIAN_POINT('',(0.0046008825302124,0.0479191404315546,0.001));
#360=CARTESIAN_POINT('',(0.0046008825302124,0.0479191404315546,0.));
#361=CARTESIAN_POINT('',(0.0046008825302124,0.117919140431555,0.0025));
#362=CARTESIAN_POINT('',(0.00460088253021239,0.185419140431554,0.0025));
#363=CARTESIAN_POINT('',(-0.0628991174697876,0.185419140431554,0.0025));
#364=CARTESIAN_POINT('',(0.0721008825302124,0.185419140431554,0.0025));
#365=CARTESIAN_POINT('',(-0.0628991174697876,0.116669140431554,0.0025));
#366=CARTESIAN_POINT('',(0.0721008825302124,0.116669140431554,0.0025));
#367=CARTESIAN_POINT('',(0.0046008825302124,0.117919140431555,0.));
#368=CARTESIAN_POINT('',(-0.0628991174697876,0.116669140431554,0.001));
#369=CARTESIAN_POINT('',(-0.0628991174697876,0.185419140431554,0.001));
#370=CARTESIAN_POINT('',(-0.0628991174697876,0.185419140431554,0.001));
#371=CARTESIAN_POINT('',(-0.0628991174697876,0.116669140431554,0.001));
#372=CARTESIAN_POINT('',(0.00460088253021239,0.185419140431554,0.001));
#373=CARTESIAN_POINT('',(0.0721008825302124,0.185419140431554,0.001));
#374=CARTESIAN_POINT('',(0.0721008825302124,0.185419140431554,0.001));
#375=CARTESIAN_POINT('',(0.00460088253021239,0.185419140431554,0.001));
#376=CARTESIAN_POINT('',(0.0721008825302124,0.116669140431554,0.001));
#377=CARTESIAN_POINT('',(0.0721008825302124,0.116669140431554,0.001));
#378=CARTESIAN_POINT('',(0.0046008825302124,0.117919140431555,0.001));
#379=MECHANICAL_DESIGN_GEOMETRIC_PRESENTATION_REPRESENTATION('',(#199,#178,
#179,#180,#181,#182,#183,#184,#185,#186,#187),#380);
#380=(
GEOMETRIC_REPRESENTATION_CONTEXT(3)
GLOBAL_UNCERTAINTY_ASSIGNED_CONTEXT((#381))
GLOBAL_UNIT_ASSIGNED_CONTEXT((#384,#383,#382))
REPRESENTATION_CONTEXT('Part 1','TOP_LEVEL_ASSEMBLY_PART')
);
#381=UNCERTAINTY_MEASURE_WITH_UNIT(LENGTH_MEASURE(1.E-8),#384,
'DISTANCE_ACCURACY_VALUE','Maximum Tolerance applied to model');
#382=(
NAMED_UNIT(*)
SI_UNIT($,.STERADIAN.)
SOLID_ANGLE_UNIT()
);
#383=(
NAMED_UNIT(*)
PLANE_ANGLE_UNIT()
SI_UNIT($,.RADIAN.)
);
#384=(
LENGTH_UNIT()
NAMED_UNIT(*)
SI_UNIT($,.METRE.)
);
#385=PRODUCT_DEFINITION_SHAPE('','',#386);
#386=PRODUCT_DEFINITION('','',#388,#387);
#387=PRODUCT_DEFINITION_CONTEXT('',#394,'design');
#388=PRODUCT_DEFINITION_FORMATION_WITH_SPECIFIED_SOURCE('','',#390,
 .NOT_KNOWN.);
#389=PRODUCT_RELATED_PRODUCT_CATEGORY('','',(#390));
#390=PRODUCT('Part 1','Part 1','Part 1',(#392));
#391=PRODUCT_CATEGORY('','');
#392=PRODUCT_CONTEXT('',#394,'mechanical');
#393=APPLICATION_PROTOCOL_DEFINITION('international standard',
'ap242_managed_model_based_3d_engineering',2020,#394);
#394=APPLICATION_CONTEXT('managed model based 3d engineering');
ENDSEC;
END-ISO-10303-21;
