ISO-10303-21;
HEADER;
/* Generated by software containing ST-Developer
 * from STEP Tools, Inc. (www.steptools.com) 
 */
/* OPTION: using custom renumber hook */

FILE_DESCRIPTION(
/* description */ ('STEP AP242 Edition 2',
'CAx-IF Rec.Pracs.---Representation and Presentation of Product Manufa
cturing Information (PMI)---4.0---2014-10-13',
'CAx-IF Rec.Pracs.---3D Tessellated Geometry---0.4---2014-09-14','2;1',
'CAx-IF Rec.Pracs.---User Defined Attributes---1.5---2016-08-15'),
/* implementation_level */ '2;1');

FILE_NAME(
/* name */ 'Bottom Plate',
/* time_stamp */ '2026-09-03T13:03:46Z',
/* author */ (''),
/* organization */ (''),
/* preprocessor_version */ 'ST-DEVELOPER v20',
/* originating_system */ 'ONSHAPE BY PTC INC, 1.220',
/* authorisation */ '  ');

FILE_SCHEMA (('AP242_MANAGED_MODEL_BASED_3D_ENGINEERING_MIM_LF { 1 0 10303 442 3 1 4 }'));
ENDSEC;

DATA;
#10=SHAPE_REPRESENTATION_RELATIONSHIP('','',#158,#11);
#11=ADVANCED_BREP_SHAPE_REPRESENTATION('',(#156),#220);
#12=ORIENTED_EDGE('',*,*,#36,.F.);
#13=ORIENTED_EDGE('',*,*,#37,.F.);
#14=ORIENTED_EDGE('',*,*,#38,.T.);
#15=ORIENTED_EDGE('',*,*,#39,.T.);
#16=ORIENTED_EDGE('',*,*,#40,.T.);
#17=ORIENTED_EDGE('',*,*,#41,.F.);
#18=ORIENTED_EDGE('',*,*,#42,.F.);
#19=ORIENTED_EDGE('',*,*,#37,.T.);
#20=ORIENTED_EDGE('',*,*,#43,.T.);
#21=ORIENTED_EDGE('',*,*,#44,.F.);
#22=ORIENTED_EDGE('',*,*,#45,.F.);
#23=ORIENTED_EDGE('',*,*,#41,.T.);
#24=ORIENTED_EDGE('',*,*,#46,.F.);
#25=ORIENTED_EDGE('',*,*,#39,.F.);
#26=ORIENTED_EDGE('',*,*,#47,.T.);
#27=ORIENTED_EDGE('',*,*,#44,.T.);
#28=ORIENTED_EDGE('',*,*,#38,.F.);
#29=ORIENTED_EDGE('',*,*,#42,.T.);
#30=ORIENTED_EDGE('',*,*,#45,.T.);
#31=ORIENTED_EDGE('',*,*,#47,.F.);
#32=ORIENTED_EDGE('',*,*,#36,.T.);
#33=ORIENTED_EDGE('',*,*,#46,.T.);
#34=ORIENTED_EDGE('',*,*,#43,.F.);
#35=ORIENTED_EDGE('',*,*,#40,.F.);
#36=EDGE_CURVE('',#48,#49,#56,.T.);
#37=EDGE_CURVE('',#50,#48,#57,.T.);
#38=EDGE_CURVE('',#50,#51,#58,.T.);
#39=EDGE_CURVE('',#51,#49,#59,.T.);
#40=EDGE_CURVE('',#48,#52,#60,.T.);
#41=EDGE_CURVE('',#53,#52,#61,.T.);
#42=EDGE_CURVE('',#50,#53,#62,.T.);
#43=EDGE_CURVE('',#52,#54,#63,.T.);
#44=EDGE_CURVE('',#55,#54,#64,.T.);
#45=EDGE_CURVE('',#53,#55,#65,.T.);
#46=EDGE_CURVE('',#49,#54,#66,.T.);
#47=EDGE_CURVE('',#51,#55,#67,.T.);
#48=VERTEX_POINT('',#195);
#49=VERTEX_POINT('',#196);
#50=VERTEX_POINT('',#198);
#51=VERTEX_POINT('',#200);
#52=VERTEX_POINT('',#204);
#53=VERTEX_POINT('',#206);
#54=VERTEX_POINT('',#210);
#55=VERTEX_POINT('',#212);
#56=LINE('',#194,#68);
#57=LINE('',#197,#69);
#58=LINE('',#199,#70);
#59=LINE('',#201,#71);
#60=LINE('',#203,#72);
#61=LINE('',#205,#73);
#62=LINE('',#207,#74);
#63=LINE('',#209,#75);
#64=LINE('',#211,#76);
#65=LINE('',#213,#77);
#66=LINE('',#215,#78);
#67=LINE('',#216,#79);
#68=VECTOR('',#170,1.);
#69=VECTOR('',#171,1.);
#70=VECTOR('',#172,1.);
#71=VECTOR('',#173,1.);
#72=VECTOR('',#176,1.);
#73=VECTOR('',#177,1.);
#74=VECTOR('',#178,1.);
#75=VECTOR('',#181,1.);
#76=VECTOR('',#182,1.);
#77=VECTOR('',#183,1.);
#78=VECTOR('',#186,1.);
#79=VECTOR('',#187,1.);
#80=EDGE_LOOP('',(#12,#13,#14,#15));
#81=EDGE_LOOP('',(#16,#17,#18,#19));
#82=EDGE_LOOP('',(#20,#21,#22,#23));
#83=EDGE_LOOP('',(#24,#25,#26,#27));
#84=EDGE_LOOP('',(#28,#29,#30,#31));
#85=EDGE_LOOP('',(#32,#33,#34,#35));
#86=FACE_BOUND('',#80,.T.);
#87=FACE_BOUND('',#81,.T.);
#88=FACE_BOUND('',#82,.T.);
#89=FACE_BOUND('',#83,.T.);
#90=FACE_BOUND('',#84,.T.);
#91=FACE_BOUND('',#85,.T.);
#92=PLANE('',#160);
#93=PLANE('',#161);
#94=PLANE('',#162);
#95=PLANE('',#163);
#96=PLANE('',#164);
#97=PLANE('',#165);
#98=OVER_RIDING_STYLED_ITEM('',(#113),#104,#111);
#99=OVER_RIDING_STYLED_ITEM('',(#114),#105,#111);
#100=OVER_RIDING_STYLED_ITEM('',(#115),#106,#111);
#101=OVER_RIDING_STYLED_ITEM('',(#116),#107,#111);
#102=OVER_RIDING_STYLED_ITEM('',(#117),#108,#111);
#103=OVER_RIDING_STYLED_ITEM('',(#118),#109,#111);
#104=ADVANCED_FACE('Face appearance 1',(#86),#92,.T.);
#105=ADVANCED_FACE('Face appearance 1',(#87),#93,.F.);
#106=ADVANCED_FACE('Face appearance 1',(#88),#94,.F.);
#107=ADVANCED_FACE('Face appearance 1',(#89),#95,.T.);
#108=ADVANCED_FACE('Face appearance 1',(#90),#96,.T.);
#109=ADVANCED_FACE('Face appearance 1',(#91),#97,.F.);
#110=CLOSED_SHELL('',(#104,#105,#106,#107,#108,#109));
#111=STYLED_ITEM('',(#112),#156);
#112=PRESENTATION_STYLE_ASSIGNMENT((#119));
#113=PRESENTATION_STYLE_ASSIGNMENT((#120));
#114=PRESENTATION_STYLE_ASSIGNMENT((#121));
#115=PRESENTATION_STYLE_ASSIGNMENT((#122));
#116=PRESENTATION_STYLE_ASSIGNMENT((#123));
#117=PRESENTATION_STYLE_ASSIGNMENT((#124));
#118=PRESENTATION_STYLE_ASSIGNMENT((#125));
#119=SURFACE_STYLE_USAGE(.BOTH.,#126);
#120=SURFACE_STYLE_USAGE(.BOTH.,#127);
#121=SURFACE_STYLE_USAGE(.BOTH.,#128);
#122=SURFACE_STYLE_USAGE(.BOTH.,#129);
#123=SURFACE_STYLE_USAGE(.BOTH.,#130);
#124=SURFACE_STYLE_USAGE(.BOTH.,#131);
#125=SURFACE_STYLE_USAGE(.BOTH.,#132);
#126=SURFACE_SIDE_STYLE('',(#133));
#127=SURFACE_SIDE_STYLE('',(#134));
#128=SURFACE_SIDE_STYLE('',(#135));
#129=SURFACE_SIDE_STYLE('',(#136));
#130=SURFACE_SIDE_STYLE('',(#137));
#131=SURFACE_SIDE_STYLE('',(#138));
#132=SURFACE_SIDE_STYLE('',(#139));
#133=SURFACE_STYLE_FILL_AREA(#140);
#134=SURFACE_STYLE_FILL_AREA(#141);
#135=SURFACE_STYLE_FILL_AREA(#142);
#136=SURFACE_STYLE_FILL_AREA(#143);
#137=SURFACE_STYLE_FILL_AREA(#144);
#138=SURFACE_STYLE_FILL_AREA(#145);
#139=SURFACE_STYLE_FILL_AREA(#146);
#140=FILL_AREA_STYLE('',(#147));
#141=FILL_AREA_STYLE('',(#148));
#142=FILL_AREA_STYLE('',(#149));
#143=FILL_AREA_STYLE('',(#150));
#144=FILL_AREA_STYLE('',(#151));
#145=FILL_AREA_STYLE('',(#152));
#146=FILL_AREA_STYLE('',(#153));
#147=FILL_AREA_STYLE_COLOUR('',#154);
#148=FILL_AREA_STYLE_COLOUR('',#155);
#149=FILL_AREA_STYLE_COLOUR('',#155);
#150=FILL_AREA_STYLE_COLOUR('',#155);
#151=FILL_AREA_STYLE_COLOUR('',#155);
#152=FILL_AREA_STYLE_COLOUR('',#155);
#153=FILL_AREA_STYLE_COLOUR('',#155);
#154=COLOUR_RGB('',0.615686274509804,0.811764705882353,0.929411764705882);
#155=COLOUR_RGB('',0.815686274509804,0.850980392156863,0.627450980392157);
#156=MANIFOLD_SOLID_BREP('Part 1',#110);
#157=SHAPE_DEFINITION_REPRESENTATION(#225,#158);
#158=SHAPE_REPRESENTATION('Part 1',(#159),#220);
#159=AXIS2_PLACEMENT_3D('',#192,#166,#167);
#160=AXIS2_PLACEMENT_3D('',#193,#168,#169);
#161=AXIS2_PLACEMENT_3D('',#202,#174,#175);
#162=AXIS2_PLACEMENT_3D('',#208,#179,#180);
#163=AXIS2_PLACEMENT_3D('',#214,#184,#185);
#164=AXIS2_PLACEMENT_3D('',#217,#188,#189);
#165=AXIS2_PLACEMENT_3D('',#218,#190,#191);
#166=DIRECTION('',(0.,0.,1.));
#167=DIRECTION('',(1.,0.,0.));
#168=DIRECTION('',(0.,1.,0.));
#169=DIRECTION('',(0.,0.,1.));
#170=DIRECTION('',(1.,0.,0.));
#171=DIRECTION('',(0.,0.,-1.));
#172=DIRECTION('',(1.,0.,0.));
#173=DIRECTION('',(0.,0.,-1.));
#174=DIRECTION('',(1.,0.,0.));
#175=DIRECTION('',(0.,0.,-1.));
#176=DIRECTION('',(0.,-1.,0.));
#177=DIRECTION('',(0.,0.,-1.));
#178=DIRECTION('',(0.,-1.,0.));
#179=DIRECTION('',(0.,1.,0.));
#180=DIRECTION('',(0.,0.,1.));
#181=DIRECTION('',(1.,0.,0.));
#182=DIRECTION('',(0.,0.,-1.));
#183=DIRECTION('',(1.,0.,0.));
#184=DIRECTION('',(1.,0.,0.));
#185=DIRECTION('',(0.,0.,-1.));
#186=DIRECTION('',(0.,-1.,0.));
#187=DIRECTION('',(0.,-1.,0.));
#188=DIRECTION('',(0.,0.,1.));
#189=DIRECTION('',(1.,0.,0.));
#190=DIRECTION('',(0.,0.,1.));
#191=DIRECTION('',(1.,0.,0.));
#192=CARTESIAN_POINT('',(0.,0.,0.));
#193=CARTESIAN_POINT('',(0.00201635807752609,0.0720950549295386,0.0025));
#194=CARTESIAN_POINT('',(0.00201635807752609,0.0720950549295386,0.));
#195=CARTESIAN_POINT('',(-0.0679836419224739,0.0720950549295386,0.));
#196=CARTESIAN_POINT('',(0.0720163580775261,0.0720950549295386,0.));
#197=CARTESIAN_POINT('',(-0.0679836419224739,0.0720950549295386,0.0025));
#198=CARTESIAN_POINT('',(-0.0679836419224739,0.0720950549295386,0.0025));
#199=CARTESIAN_POINT('',(0.00201635807752609,0.0720950549295386,0.0025));
#200=CARTESIAN_POINT('',(0.0720163580775261,0.0720950549295386,0.0025));
#201=CARTESIAN_POINT('',(0.0720163580775261,0.0720950549295386,0.0025));
#202=CARTESIAN_POINT('',(-0.0679836419224739,0.0033450549295386,0.0025));
#203=CARTESIAN_POINT('',(-0.0679836419224739,0.0033450549295386,0.));
#204=CARTESIAN_POINT('',(-0.0679836419224739,-0.0654049450704614,0.));
#205=CARTESIAN_POINT('',(-0.0679836419224739,-0.0654049450704614,0.0025));
#206=CARTESIAN_POINT('',(-0.0679836419224739,-0.0654049450704614,0.0025));
#207=CARTESIAN_POINT('',(-0.0679836419224739,0.0033450549295386,0.0025));
#208=CARTESIAN_POINT('',(0.00201635807752609,-0.0654049450704614,0.0025));
#209=CARTESIAN_POINT('',(0.00201635807752609,-0.0654049450704614,0.));
#210=CARTESIAN_POINT('',(0.0720163580775261,-0.0654049450704614,0.));
#211=CARTESIAN_POINT('',(0.0720163580775261,-0.0654049450704614,0.0025));
#212=CARTESIAN_POINT('',(0.0720163580775261,-0.0654049450704614,0.0025));
#213=CARTESIAN_POINT('',(0.00201635807752609,-0.0654049450704614,0.0025));
#214=CARTESIAN_POINT('',(0.0720163580775261,0.0033450549295386,0.0025));
#215=CARTESIAN_POINT('',(0.0720163580775261,0.0033450549295386,0.));
#216=CARTESIAN_POINT('',(0.0720163580775261,0.0033450549295386,0.0025));
#217=CARTESIAN_POINT('',(0.00201635807752609,0.0033450549295386,0.0025));
#218=CARTESIAN_POINT('',(0.00201635807752609,0.0033450549295386,0.));
#219=MECHANICAL_DESIGN_GEOMETRIC_PRESENTATION_REPRESENTATION('',(#111,#98,
#99,#100,#101,#102,#103),#220);
#220=(
GEOMETRIC_REPRESENTATION_CONTEXT(3)
GLOBAL_UNCERTAINTY_ASSIGNED_CONTEXT((#221))
GLOBAL_UNIT_ASSIGNED_CONTEXT((#224,#223,#222))
REPRESENTATION_CONTEXT('Part 1','TOP_LEVEL_ASSEMBLY_PART')
);
#221=UNCERTAINTY_MEASURE_WITH_UNIT(LENGTH_MEASURE(1.E-8),#224,
'DISTANCE_ACCURACY_VALUE','Maximum Tolerance applied to model');
#222=(
NAMED_UNIT(*)
SI_UNIT($,.STERADIAN.)
SOLID_ANGLE_UNIT()
);
#223=(
NAMED_UNIT(*)
PLANE_ANGLE_UNIT()
SI_UNIT($,.RADIAN.)
);
#224=(
LENGTH_UNIT()
NAMED_UNIT(*)
SI_UNIT($,.METRE.)
);
#225=PRODUCT_DEFINITION_SHAPE('','',#226);
#226=PRODUCT_DEFINITION('','',#228,#227);
#227=PRODUCT_DEFINITION_CONTEXT('',#234,'design');
#228=PRODUCT_DEFINITION_FORMATION_WITH_SPECIFIED_SOURCE('','',#230,
 .NOT_KNOWN.);
#229=PRODUCT_RELATED_PRODUCT_CATEGORY('','',(#230));
#230=PRODUCT('Part 1','Part 1','Part 1',(#232));
#231=PRODUCT_CATEGORY('','');
#232=PRODUCT_CONTEXT('',#234,'mechanical');
#233=APPLICATION_PROTOCOL_DEFINITION('international standard',
'ap242_managed_model_based_3d_engineering',2020,#234);
#234=APPLICATION_CONTEXT('managed model based 3d engineering');
ENDSEC;
END-ISO-10303-21;
