ISO-10303-21;
HEADER;
/* Generated by software containing ST-Developer
 * from STEP Tools, Inc. (www.steptools.com) 
 */
/* OPTION: using custom renumber hook */

FILE_DESCRIPTION(
/* description */ ('STEP AP242 Edition 2',
'CAx-IF Rec.Pracs.---Representation and Presentation of Product Manufa
cturing Information (PMI)---4.0---2014-10-13',
'CAx-IF Rec.Pracs.---3D Tessellated Geometry---0.4---2014-09-14','2;1',
'CAx-IF Rec.Pracs.---User Defined Attributes---1.5---2016-08-15'),
/* implementation_level */ '2;1');

FILE_NAME(
/* name */ 'Floor Lamp',
/* time_stamp */ '2026-09-03T13:04:17Z',
/* author */ (''),
/* organization */ (''),
/* preprocessor_version */ 'ST-DEVELOPER v20',
/* originating_system */ 'ONSHAPE BY PTC INC, 1.220',
/* authorisation */ '  ');

FILE_SCHEMA (('AP242_MANAGED_MODEL_BASED_3D_ENGINEERING_MIM_LF { 1 0 10303 442 3 1 4 }'));
ENDSEC;

DATA;
#10=TOROIDAL_SURFACE('',#235,0.00649896230895146,0.005);
#11=CONICAL_SURFACE('',#229,0.0125025057100509,0.26179938779915);
#12=CONICAL_SURFACE('',#237,0.01,0.349065850398866);
#13=SHAPE_REPRESENTATION_RELATIONSHIP('','',#216,#15);
#14=SHAPE_REPRESENTATION_RELATIONSHIP('','',#217,#16);
#15=ADVANCED_BREP_SHAPE_REPRESENTATION('',(#212),#317);
#16=ADVANCED_BREP_SHAPE_REPRESENTATION('',(#213),#318);
#17=PLANE('',#225);
#18=PLANE('',#226);
#19=PLANE('',#227);
#20=PLANE('',#232);
#21=PLANE('',#233);
#22=PLANE('',#239);
#23=ORIENTED_EDGE('',*,*,#41,.T.);
#24=ORIENTED_EDGE('',*,*,#42,.T.);
#25=ORIENTED_EDGE('',*,*,#43,.F.);
#26=ORIENTED_EDGE('',*,*,#44,.T.);
#27=ORIENTED_EDGE('',*,*,#41,.F.);
#28=ORIENTED_EDGE('',*,*,#43,.T.);
#29=ORIENTED_EDGE('',*,*,#44,.F.);
#30=ORIENTED_EDGE('',*,*,#42,.F.);
#31=ORIENTED_EDGE('',*,*,#45,.F.);
#32=ORIENTED_EDGE('',*,*,#46,.T.);
#33=ORIENTED_EDGE('',*,*,#45,.T.);
#34=ORIENTED_EDGE('',*,*,#47,.T.);
#35=ORIENTED_EDGE('',*,*,#48,.F.);
#36=ORIENTED_EDGE('',*,*,#47,.F.);
#37=ORIENTED_EDGE('',*,*,#48,.T.);
#38=ORIENTED_EDGE('',*,*,#49,.T.);
#39=ORIENTED_EDGE('',*,*,#46,.F.);
#40=ORIENTED_EDGE('',*,*,#49,.F.);
#41=EDGE_CURVE('',#50,#50,#59,.T.);
#42=EDGE_CURVE('',#51,#51,#60,.T.);
#43=EDGE_CURVE('',#52,#52,#61,.T.);
#44=EDGE_CURVE('',#53,#53,#62,.T.);
#45=EDGE_CURVE('',#54,#54,#63,.T.);
#46=EDGE_CURVE('',#55,#55,#64,.T.);
#47=EDGE_CURVE('',#56,#56,#65,.T.);
#48=EDGE_CURVE('',#57,#57,#66,.F.);
#49=EDGE_CURVE('',#58,#58,#67,.T.);
#50=VERTEX_POINT('',#287);
#51=VERTEX_POINT('',#289);
#52=VERTEX_POINT('',#292);
#53=VERTEX_POINT('',#294);
#54=VERTEX_POINT('',#301);
#55=VERTEX_POINT('',#303);
#56=VERTEX_POINT('',#307);
#57=VERTEX_POINT('',#310);
#58=VERTEX_POINT('',#313);
#59=CIRCLE('',#220,0.00175);
#60=CIRCLE('',#221,0.00175);
#61=CIRCLE('',#223,0.011);
#62=CIRCLE('',#224,0.011);
#63=CIRCLE('',#230,0.0107876308784917);
#64=CIRCLE('',#231,0.0125025057100509);
#65=CIRCLE('',#234,0.00649896230895146);
#66=CIRCLE('',#236,0.011197425412881);
#67=CIRCLE('',#238,0.013639702342662);
#68=EDGE_LOOP('',(#23));
#69=EDGE_LOOP('',(#24));
#70=EDGE_LOOP('',(#25));
#71=EDGE_LOOP('',(#26));
#72=EDGE_LOOP('',(#27));
#73=EDGE_LOOP('',(#28));
#74=EDGE_LOOP('',(#29));
#75=EDGE_LOOP('',(#30));
#76=EDGE_LOOP('',(#31));
#77=EDGE_LOOP('',(#32));
#78=EDGE_LOOP('',(#33));
#79=EDGE_LOOP('',(#34));
#80=EDGE_LOOP('',(#35));
#81=EDGE_LOOP('',(#36));
#82=EDGE_LOOP('',(#37));
#83=EDGE_LOOP('',(#38));
#84=EDGE_LOOP('',(#39));
#85=EDGE_LOOP('',(#40));
#86=FACE_BOUND('',#68,.T.);
#87=FACE_BOUND('',#69,.T.);
#88=FACE_BOUND('',#70,.T.);
#89=FACE_BOUND('',#71,.T.);
#90=FACE_BOUND('',#72,.T.);
#91=FACE_BOUND('',#73,.T.);
#92=FACE_BOUND('',#74,.T.);
#93=FACE_BOUND('',#75,.T.);
#94=FACE_BOUND('',#76,.T.);
#95=FACE_BOUND('',#77,.T.);
#96=FACE_BOUND('',#78,.T.);
#97=FACE_BOUND('',#79,.T.);
#98=FACE_BOUND('',#80,.T.);
#99=FACE_BOUND('',#81,.T.);
#100=FACE_BOUND('',#82,.T.);
#101=FACE_BOUND('',#83,.T.);
#102=FACE_BOUND('',#84,.T.);
#103=FACE_BOUND('',#85,.T.);
#104=CYLINDRICAL_SURFACE('',#219,0.00175);
#105=CYLINDRICAL_SURFACE('',#222,0.011);
#106=OVER_RIDING_STYLED_ITEM('',(#133),#117,#130);
#107=OVER_RIDING_STYLED_ITEM('',(#134),#118,#130);
#108=OVER_RIDING_STYLED_ITEM('',(#135),#119,#130);
#109=OVER_RIDING_STYLED_ITEM('',(#136),#120,#130);
#110=OVER_RIDING_STYLED_ITEM('',(#137),#121,#130);
#111=OVER_RIDING_STYLED_ITEM('',(#139),#122,#131);
#112=OVER_RIDING_STYLED_ITEM('',(#140),#123,#131);
#113=OVER_RIDING_STYLED_ITEM('',(#141),#124,#131);
#114=OVER_RIDING_STYLED_ITEM('',(#142),#125,#131);
#115=OVER_RIDING_STYLED_ITEM('',(#143),#126,#131);
#116=OVER_RIDING_STYLED_ITEM('',(#144),#127,#131);
#117=ADVANCED_FACE('Face appearance 2',(#86,#87),#104,.T.);
#118=ADVANCED_FACE('Face appearance 1',(#88,#89),#105,.T.);
#119=ADVANCED_FACE('Face appearance 1',(#90,#91),#17,.T.);
#120=ADVANCED_FACE('Face appearance 1',(#92),#18,.F.);
#121=ADVANCED_FACE('Face appearance 5',(#93),#19,.F.);
#122=ADVANCED_FACE('Face appearance 5',(#94,#95),#11,.F.);
#123=ADVANCED_FACE('Face appearance 5',(#96),#20,.T.);
#124=ADVANCED_FACE('Face appearance 3',(#97),#21,.T.);
#125=ADVANCED_FACE('Face appearance 4',(#98,#99),#10,.T.);
#126=ADVANCED_FACE('Face appearance 3',(#100,#101),#12,.T.);
#127=ADVANCED_FACE('Face appearance 3',(#102,#103),#22,.F.);
#128=CLOSED_SHELL('',(#117,#118,#119,#120,#121));
#129=CLOSED_SHELL('',(#122,#123,#124,#125,#126,#127));
#130=STYLED_ITEM('',(#132),#212);
#131=STYLED_ITEM('',(#138),#213);
#132=PRESENTATION_STYLE_ASSIGNMENT((#145));
#133=PRESENTATION_STYLE_ASSIGNMENT((#146));
#134=PRESENTATION_STYLE_ASSIGNMENT((#147));
#135=PRESENTATION_STYLE_ASSIGNMENT((#148));
#136=PRESENTATION_STYLE_ASSIGNMENT((#149));
#137=PRESENTATION_STYLE_ASSIGNMENT((#150));
#138=PRESENTATION_STYLE_ASSIGNMENT((#151));
#139=PRESENTATION_STYLE_ASSIGNMENT((#152));
#140=PRESENTATION_STYLE_ASSIGNMENT((#153));
#141=PRESENTATION_STYLE_ASSIGNMENT((#154));
#142=PRESENTATION_STYLE_ASSIGNMENT((#155));
#143=PRESENTATION_STYLE_ASSIGNMENT((#156));
#144=PRESENTATION_STYLE_ASSIGNMENT((#157));
#145=SURFACE_STYLE_USAGE(.BOTH.,#158);
#146=SURFACE_STYLE_USAGE(.BOTH.,#159);
#147=SURFACE_STYLE_USAGE(.BOTH.,#160);
#148=SURFACE_STYLE_USAGE(.BOTH.,#161);
#149=SURFACE_STYLE_USAGE(.BOTH.,#162);
#150=SURFACE_STYLE_USAGE(.BOTH.,#163);
#151=SURFACE_STYLE_USAGE(.BOTH.,#164);
#152=SURFACE_STYLE_USAGE(.BOTH.,#165);
#153=SURFACE_STYLE_USAGE(.BOTH.,#166);
#154=SURFACE_STYLE_USAGE(.BOTH.,#167);
#155=SURFACE_STYLE_USAGE(.BOTH.,#168);
#156=SURFACE_STYLE_USAGE(.BOTH.,#169);
#157=SURFACE_STYLE_USAGE(.BOTH.,#170);
#158=SURFACE_SIDE_STYLE('',(#171));
#159=SURFACE_SIDE_STYLE('',(#172));
#160=SURFACE_SIDE_STYLE('',(#173));
#161=SURFACE_SIDE_STYLE('',(#174));
#162=SURFACE_SIDE_STYLE('',(#175));
#163=SURFACE_SIDE_STYLE('',(#176));
#164=SURFACE_SIDE_STYLE('',(#177));
#165=SURFACE_SIDE_STYLE('',(#178));
#166=SURFACE_SIDE_STYLE('',(#179));
#167=SURFACE_SIDE_STYLE('',(#180));
#168=SURFACE_SIDE_STYLE('',(#181));
#169=SURFACE_SIDE_STYLE('',(#182));
#170=SURFACE_SIDE_STYLE('',(#183));
#171=SURFACE_STYLE_FILL_AREA(#184);
#172=SURFACE_STYLE_FILL_AREA(#185);
#173=SURFACE_STYLE_FILL_AREA(#186);
#174=SURFACE_STYLE_FILL_AREA(#187);
#175=SURFACE_STYLE_FILL_AREA(#188);
#176=SURFACE_STYLE_FILL_AREA(#189);
#177=SURFACE_STYLE_FILL_AREA(#190);
#178=SURFACE_STYLE_FILL_AREA(#191);
#179=SURFACE_STYLE_FILL_AREA(#192);
#180=SURFACE_STYLE_FILL_AREA(#193);
#181=SURFACE_STYLE_FILL_AREA(#194);
#182=SURFACE_STYLE_FILL_AREA(#195);
#183=SURFACE_STYLE_FILL_AREA(#196);
#184=FILL_AREA_STYLE('',(#197));
#185=FILL_AREA_STYLE('',(#198));
#186=FILL_AREA_STYLE('',(#199));
#187=FILL_AREA_STYLE('',(#200));
#188=FILL_AREA_STYLE('',(#201));
#189=FILL_AREA_STYLE('',(#202));
#190=FILL_AREA_STYLE('',(#203));
#191=FILL_AREA_STYLE('',(#204));
#192=FILL_AREA_STYLE('',(#205));
#193=FILL_AREA_STYLE('',(#206));
#194=FILL_AREA_STYLE('',(#207));
#195=FILL_AREA_STYLE('',(#208));
#196=FILL_AREA_STYLE('',(#209));
#197=FILL_AREA_STYLE_COLOUR('',#210);
#198=FILL_AREA_STYLE_COLOUR('',#211);
#199=FILL_AREA_STYLE_COLOUR('',#211);
#200=FILL_AREA_STYLE_COLOUR('',#211);
#201=FILL_AREA_STYLE_COLOUR('',#211);
#202=FILL_AREA_STYLE_COLOUR('',#211);
#203=FILL_AREA_STYLE_COLOUR('',#210);
#204=FILL_AREA_STYLE_COLOUR('',#211);
#205=FILL_AREA_STYLE_COLOUR('',#211);
#206=FILL_AREA_STYLE_COLOUR('',#211);
#207=FILL_AREA_STYLE_COLOUR('',#211);
#208=FILL_AREA_STYLE_COLOUR('',#211);
#209=FILL_AREA_STYLE_COLOUR('',#211);
#210=COLOUR_RGB('',0.615686274509804,0.811764705882353,0.929411764705882);
#211=COLOUR_RGB('',0.698039215686275,0.752941176470588,0.4);
#212=MANIFOLD_SOLID_BREP('Part 1',#128);
#213=MANIFOLD_SOLID_BREP('Part 2',#129);
#214=SHAPE_DEFINITION_REPRESENTATION(#327,#216);
#215=SHAPE_DEFINITION_REPRESENTATION(#328,#217);
#216=SHAPE_REPRESENTATION('Part 1',(#218),#317);
#217=SHAPE_REPRESENTATION('Part 2',(#228),#318);
#218=AXIS2_PLACEMENT_3D('',#284,#240,#241);
#219=AXIS2_PLACEMENT_3D('',#285,#242,#243);
#220=AXIS2_PLACEMENT_3D('',#286,#244,#245);
#221=AXIS2_PLACEMENT_3D('',#288,#246,#247);
#222=AXIS2_PLACEMENT_3D('',#290,#248,#249);
#223=AXIS2_PLACEMENT_3D('',#291,#250,#251);
#224=AXIS2_PLACEMENT_3D('',#293,#252,#253);
#225=AXIS2_PLACEMENT_3D('',#295,#254,#255);
#226=AXIS2_PLACEMENT_3D('',#296,#256,#257);
#227=AXIS2_PLACEMENT_3D('',#297,#258,#259);
#228=AXIS2_PLACEMENT_3D('',#298,#260,#261);
#229=AXIS2_PLACEMENT_3D('',#299,#262,#263);
#230=AXIS2_PLACEMENT_3D('',#300,#264,#265);
#231=AXIS2_PLACEMENT_3D('',#302,#266,#267);
#232=AXIS2_PLACEMENT_3D('',#304,#268,#269);
#233=AXIS2_PLACEMENT_3D('',#305,#270,#271);
#234=AXIS2_PLACEMENT_3D('',#306,#272,#273);
#235=AXIS2_PLACEMENT_3D('',#308,#274,#275);
#236=AXIS2_PLACEMENT_3D('',#309,#276,#277);
#237=AXIS2_PLACEMENT_3D('',#311,#278,#279);
#238=AXIS2_PLACEMENT_3D('',#312,#280,#281);
#239=AXIS2_PLACEMENT_3D('',#314,#282,#283);
#240=DIRECTION('',(0.,0.,1.));
#241=DIRECTION('',(1.,0.,0.));
#242=DIRECTION('',(0.,0.,-1.));
#243=DIRECTION('',(-1.,0.,0.));
#244=DIRECTION('',(0.,0.,1.));
#245=DIRECTION('',(1.,0.,0.));
#246=DIRECTION('',(0.,0.,-1.));
#247=DIRECTION('',(-1.,0.,0.));
#248=DIRECTION('',(0.,0.,-1.));
#249=DIRECTION('',(-1.,0.,0.));
#250=DIRECTION('',(0.,0.,1.));
#251=DIRECTION('',(1.,0.,0.));
#252=DIRECTION('',(0.,0.,1.));
#253=DIRECTION('',(1.,0.,0.));
#254=DIRECTION('',(0.,0.,1.));
#255=DIRECTION('',(1.,0.,0.));
#256=DIRECTION('',(0.,0.,1.));
#257=DIRECTION('',(1.,0.,0.));
#258=DIRECTION('',(0.,0.,-1.));
#259=DIRECTION('',(1.,0.,0.));
#260=DIRECTION('',(0.,0.,1.));
#261=DIRECTION('',(1.,0.,0.));
#262=DIRECTION('',(0.,0.,-1.));
#263=DIRECTION('',(1.,0.,0.));
#264=DIRECTION('',(0.,0.,-1.));
#265=DIRECTION('',(-1.,0.,0.));
#266=DIRECTION('',(0.,0.,-1.));
#267=DIRECTION('',(-1.,0.,0.));
#268=DIRECTION('',(0.,0.,-1.));
#269=DIRECTION('',(1.,0.,0.));
#270=DIRECTION('',(0.,0.,1.));
#271=DIRECTION('',(1.,0.,0.));
#272=DIRECTION('',(0.,0.,1.));
#273=DIRECTION('',(1.,0.,0.));
#274=DIRECTION('',(0.,0.,1.));
#275=DIRECTION('',(1.,0.,0.));
#276=DIRECTION('',(0.,0.,1.));
#277=DIRECTION('',(1.,0.,0.));
#278=DIRECTION('',(0.,0.,-1.));
#279=DIRECTION('',(-1.,0.,0.));
#280=DIRECTION('',(0.,0.,1.));
#281=DIRECTION('',(1.,0.,0.));
#282=DIRECTION('',(0.,0.,1.));
#283=DIRECTION('',(1.,0.,0.));
#284=CARTESIAN_POINT('',(0.,0.,0.));
#285=CARTESIAN_POINT('',(-0.0206074826419354,0.0182523373514414,0.0701));
#286=CARTESIAN_POINT('',(-0.0206074826419354,0.0182523373514414,0.0025));
#287=CARTESIAN_POINT('',(-0.0188574826419354,0.0182523373514414,0.0025));
#288=CARTESIAN_POINT('',(-0.0206074826419354,0.0182523373514414,0.0601));
#289=CARTESIAN_POINT('',(-0.0223574826419354,0.0182523373514414,0.0601));
#290=CARTESIAN_POINT('',(-0.0206074826419354,0.0182523373514414,0.0025));
#291=CARTESIAN_POINT('',(-0.0206074826419354,0.0182523373514414,0.0025));
#292=CARTESIAN_POINT('',(-0.00960748264193535,0.0182523373514414,0.0025));
#293=CARTESIAN_POINT('',(-0.0206074826419354,0.0182523373514414,0.));
#294=CARTESIAN_POINT('',(-0.00960748264193535,0.0182523373514414,0.));
#295=CARTESIAN_POINT('',(-0.0206074826419354,0.0182523373514414,0.0025));
#296=CARTESIAN_POINT('',(-0.0206074826419354,0.0182523373514414,0.));
#297=CARTESIAN_POINT('',(-0.0206074826419354,0.0182523373514414,0.0601));
#298=CARTESIAN_POINT('',(0.,0.,0.));
#299=CARTESIAN_POINT('',(-0.0206074826419354,0.0182523373514414,0.0601));
#300=CARTESIAN_POINT('',(-0.0206074826419354,0.0182523373514414,0.0665));
#301=CARTESIAN_POINT('',(-0.0313951135204271,0.0182523373514414,0.0665));
#302=CARTESIAN_POINT('',(-0.0206074826419354,0.0182523373514414,0.0601));
#303=CARTESIAN_POINT('',(-0.0331099883519863,0.0182523373514414,0.0601));
#304=CARTESIAN_POINT('',(-0.0206074826419354,0.0182523373514414,0.0665));
#305=CARTESIAN_POINT('',(-0.0206074826419354,0.0182523373514414,0.0701));
#306=CARTESIAN_POINT('',(-0.0206074826419354,0.0182523373514414,0.0701));
#307=CARTESIAN_POINT('',(-0.0141085203329839,0.0182523373514414,0.0701));
#308=CARTESIAN_POINT('',(-0.0206074826419354,0.0182523373514414,0.0651));
#309=CARTESIAN_POINT('',(-0.0206074826419354,0.0182523373514414,0.0668101007166283));
#310=CARTESIAN_POINT('',(-0.00941005722905435,0.0182523373514414,0.0668101007166283));
#311=CARTESIAN_POINT('',(-0.0206074826419354,0.0182523373514414,0.0701));
#312=CARTESIAN_POINT('',(-0.0206074826419354,0.0182523373514414,0.0601));
#313=CARTESIAN_POINT('',(-0.00696778029927333,0.0182523373514414,0.0601));
#314=CARTESIAN_POINT('',(-0.0206074826419354,0.0182523373514414,0.0601));
#315=MECHANICAL_DESIGN_GEOMETRIC_PRESENTATION_REPRESENTATION('',(#130,#106,
#107,#108,#109,#110),#317);
#316=MECHANICAL_DESIGN_GEOMETRIC_PRESENTATION_REPRESENTATION('',(#131,#111,
#112,#113,#114,#115,#116),#318);
#317=(
GEOMETRIC_REPRESENTATION_CONTEXT(3)
GLOBAL_UNCERTAINTY_ASSIGNED_CONTEXT((#319))
GLOBAL_UNIT_ASSIGNED_CONTEXT((#325,#323,#321))
REPRESENTATION_CONTEXT('Part 1','TOP_LEVEL_ASSEMBLY_PART')
);
#318=(
GEOMETRIC_REPRESENTATION_CONTEXT(3)
GLOBAL_UNCERTAINTY_ASSIGNED_CONTEXT((#320))
GLOBAL_UNIT_ASSIGNED_CONTEXT((#326,#324,#322))
REPRESENTATION_CONTEXT('Part 2','TOP_LEVEL_ASSEMBLY_PART')
);
#319=UNCERTAINTY_MEASURE_WITH_UNIT(LENGTH_MEASURE(1.E-8),#325,
'DISTANCE_ACCURACY_VALUE','Maximum Tolerance applied to model');
#320=UNCERTAINTY_MEASURE_WITH_UNIT(LENGTH_MEASURE(1.E-8),#326,
'DISTANCE_ACCURACY_VALUE','Maximum Tolerance applied to model');
#321=(
NAMED_UNIT(*)
SI_UNIT($,.STERADIAN.)
SOLID_ANGLE_UNIT()
);
#322=(
NAMED_UNIT(*)
SI_UNIT($,.STERADIAN.)
SOLID_ANGLE_UNIT()
);
#323=(
NAMED_UNIT(*)
PLANE_ANGLE_UNIT()
SI_UNIT($,.RADIAN.)
);
#324=(
NAMED_UNIT(*)
PLANE_ANGLE_UNIT()
SI_UNIT($,.RADIAN.)
);
#325=(
LENGTH_UNIT()
NAMED_UNIT(*)
SI_UNIT($,.METRE.)
);
#326=(
LENGTH_UNIT()
NAMED_UNIT(*)
SI_UNIT($,.METRE.)
);
#327=PRODUCT_DEFINITION_SHAPE('','',#329);
#328=PRODUCT_DEFINITION_SHAPE('','',#330);
#329=PRODUCT_DEFINITION('','',#333,#331);
#330=PRODUCT_DEFINITION('','',#334,#332);
#331=PRODUCT_DEFINITION_CONTEXT('',#345,'design');
#332=PRODUCT_DEFINITION_CONTEXT('',#346,'design');
#333=PRODUCT_DEFINITION_FORMATION_WITH_SPECIFIED_SOURCE('','',#337,
 .NOT_KNOWN.);
#334=PRODUCT_DEFINITION_FORMATION_WITH_SPECIFIED_SOURCE('','',#338,
 .NOT_KNOWN.);
#335=PRODUCT_RELATED_PRODUCT_CATEGORY('','',(#337));
#336=PRODUCT_RELATED_PRODUCT_CATEGORY('','',(#338));
#337=PRODUCT('Part 1','Part 1','Part 1',(#341));
#338=PRODUCT('Part 2','Part 2','Part 2',(#342));
#339=PRODUCT_CATEGORY('','');
#340=PRODUCT_CATEGORY('','');
#341=PRODUCT_CONTEXT('',#345,'mechanical');
#342=PRODUCT_CONTEXT('',#346,'mechanical');
#343=APPLICATION_PROTOCOL_DEFINITION('international standard',
'ap242_managed_model_based_3d_engineering',2020,#345);
#344=APPLICATION_PROTOCOL_DEFINITION('international standard',
'ap242_managed_model_based_3d_engineering',2020,#346);
#345=APPLICATION_CONTEXT('managed model based 3d engineering');
#346=APPLICATION_CONTEXT('managed model based 3d engineering');
ENDSEC;
END-ISO-10303-21;
