ISO-10303-21;
HEADER;
/* Generated by software containing ST-Developer
 * from STEP Tools, Inc. (www.steptools.com) 
 */
/* OPTION: using custom renumber hook */

FILE_DESCRIPTION(
/* description */ ('STEP AP242 Edition 2',
'CAx-IF Rec.Pracs.---Representation and Presentation of Product Manufa
cturing Information (PMI)---4.0---2014-10-13',
'CAx-IF Rec.Pracs.---3D Tessellated Geometry---0.4---2014-09-14','2;1',
'CAx-IF Rec.Pracs.---User Defined Attributes---1.5---2016-08-15'),
/* implementation_level */ '2;1');

FILE_NAME(
/* name */ 'Food Display',
/* time_stamp */ '2026-09-03T13:06:25Z',
/* author */ (''),
/* organization */ (''),
/* preprocessor_version */ 'ST-DEVELOPER v20',
/* originating_system */ 'ONSHAPE BY PTC INC, 1.220',
/* authorisation */ '  ');

FILE_SCHEMA (('AP242_MANAGED_MODEL_BASED_3D_ENGINEERING_MIM_LF { 1 0 10303 442 3 1 4 }'));
ENDSEC;

DATA;
#10=SHAPE_REPRESENTATION_RELATIONSHIP('','',#882,#11);
#11=ADVANCED_BREP_SHAPE_REPRESENTATION('',(#880),#1244);
#12=ORIENTED_EDGE('',*,*,#180,.F.);
#13=ORIENTED_EDGE('',*,*,#181,.T.);
#14=ORIENTED_EDGE('',*,*,#182,.T.);
#15=ORIENTED_EDGE('',*,*,#183,.F.);
#16=ORIENTED_EDGE('',*,*,#184,.F.);
#17=ORIENTED_EDGE('',*,*,#185,.T.);
#18=ORIENTED_EDGE('',*,*,#186,.T.);
#19=ORIENTED_EDGE('',*,*,#187,.F.);
#20=ORIENTED_EDGE('',*,*,#188,.F.);
#21=ORIENTED_EDGE('',*,*,#189,.T.);
#22=ORIENTED_EDGE('',*,*,#190,.T.);
#23=ORIENTED_EDGE('',*,*,#191,.F.);
#24=ORIENTED_EDGE('',*,*,#192,.F.);
#25=ORIENTED_EDGE('',*,*,#193,.T.);
#26=ORIENTED_EDGE('',*,*,#194,.T.);
#27=ORIENTED_EDGE('',*,*,#195,.F.);
#28=ORIENTED_EDGE('',*,*,#196,.F.);
#29=ORIENTED_EDGE('',*,*,#197,.T.);
#30=ORIENTED_EDGE('',*,*,#198,.T.);
#31=ORIENTED_EDGE('',*,*,#199,.F.);
#32=ORIENTED_EDGE('',*,*,#200,.F.);
#33=ORIENTED_EDGE('',*,*,#201,.T.);
#34=ORIENTED_EDGE('',*,*,#202,.T.);
#35=ORIENTED_EDGE('',*,*,#203,.F.);
#36=ORIENTED_EDGE('',*,*,#204,.F.);
#37=ORIENTED_EDGE('',*,*,#205,.T.);
#38=ORIENTED_EDGE('',*,*,#206,.T.);
#39=ORIENTED_EDGE('',*,*,#207,.F.);
#40=ORIENTED_EDGE('',*,*,#208,.F.);
#41=ORIENTED_EDGE('',*,*,#209,.F.);
#42=ORIENTED_EDGE('',*,*,#188,.T.);
#43=ORIENTED_EDGE('',*,*,#210,.T.);
#44=ORIENTED_EDGE('',*,*,#211,.T.);
#45=ORIENTED_EDGE('',*,*,#212,.F.);
#46=ORIENTED_EDGE('',*,*,#189,.F.);
#47=ORIENTED_EDGE('',*,*,#209,.T.);
#48=ORIENTED_EDGE('',*,*,#213,.T.);
#49=ORIENTED_EDGE('',*,*,#214,.F.);
#50=ORIENTED_EDGE('',*,*,#190,.F.);
#51=ORIENTED_EDGE('',*,*,#212,.T.);
#52=ORIENTED_EDGE('',*,*,#215,.F.);
#53=ORIENTED_EDGE('',*,*,#210,.F.);
#54=ORIENTED_EDGE('',*,*,#191,.T.);
#55=ORIENTED_EDGE('',*,*,#214,.T.);
#56=ORIENTED_EDGE('',*,*,#208,.T.);
#57=ORIENTED_EDGE('',*,*,#215,.T.);
#58=ORIENTED_EDGE('',*,*,#213,.F.);
#59=ORIENTED_EDGE('',*,*,#211,.F.);
#60=ORIENTED_EDGE('',*,*,#193,.F.);
#61=ORIENTED_EDGE('',*,*,#216,.F.);
#62=ORIENTED_EDGE('',*,*,#217,.T.);
#63=ORIENTED_EDGE('',*,*,#218,.T.);
#64=ORIENTED_EDGE('',*,*,#192,.T.);
#65=ORIENTED_EDGE('',*,*,#219,.F.);
#66=ORIENTED_EDGE('',*,*,#220,.F.);
#67=ORIENTED_EDGE('',*,*,#216,.T.);
#68=ORIENTED_EDGE('',*,*,#195,.T.);
#69=ORIENTED_EDGE('',*,*,#221,.F.);
#70=ORIENTED_EDGE('',*,*,#222,.F.);
#71=ORIENTED_EDGE('',*,*,#219,.T.);
#72=ORIENTED_EDGE('',*,*,#194,.F.);
#73=ORIENTED_EDGE('',*,*,#218,.F.);
#74=ORIENTED_EDGE('',*,*,#223,.T.);
#75=ORIENTED_EDGE('',*,*,#221,.T.);
#76=ORIENTED_EDGE('',*,*,#197,.F.);
#77=ORIENTED_EDGE('',*,*,#224,.F.);
#78=ORIENTED_EDGE('',*,*,#225,.T.);
#79=ORIENTED_EDGE('',*,*,#226,.T.);
#80=ORIENTED_EDGE('',*,*,#196,.T.);
#81=ORIENTED_EDGE('',*,*,#227,.F.);
#82=ORIENTED_EDGE('',*,*,#228,.F.);
#83=ORIENTED_EDGE('',*,*,#224,.T.);
#84=ORIENTED_EDGE('',*,*,#199,.T.);
#85=ORIENTED_EDGE('',*,*,#229,.F.);
#86=ORIENTED_EDGE('',*,*,#230,.F.);
#87=ORIENTED_EDGE('',*,*,#227,.T.);
#88=ORIENTED_EDGE('',*,*,#198,.F.);
#89=ORIENTED_EDGE('',*,*,#226,.F.);
#90=ORIENTED_EDGE('',*,*,#231,.T.);
#91=ORIENTED_EDGE('',*,*,#229,.T.);
#92=ORIENTED_EDGE('',*,*,#201,.F.);
#93=ORIENTED_EDGE('',*,*,#232,.F.);
#94=ORIENTED_EDGE('',*,*,#233,.T.);
#95=ORIENTED_EDGE('',*,*,#234,.T.);
#96=ORIENTED_EDGE('',*,*,#200,.T.);
#97=ORIENTED_EDGE('',*,*,#235,.F.);
#98=ORIENTED_EDGE('',*,*,#236,.F.);
#99=ORIENTED_EDGE('',*,*,#232,.T.);
#100=ORIENTED_EDGE('',*,*,#203,.T.);
#101=ORIENTED_EDGE('',*,*,#237,.F.);
#102=ORIENTED_EDGE('',*,*,#238,.F.);
#103=ORIENTED_EDGE('',*,*,#235,.T.);
#104=ORIENTED_EDGE('',*,*,#202,.F.);
#105=ORIENTED_EDGE('',*,*,#234,.F.);
#106=ORIENTED_EDGE('',*,*,#239,.T.);
#107=ORIENTED_EDGE('',*,*,#237,.T.);
#108=ORIENTED_EDGE('',*,*,#205,.F.);
#109=ORIENTED_EDGE('',*,*,#240,.F.);
#110=ORIENTED_EDGE('',*,*,#241,.T.);
#111=ORIENTED_EDGE('',*,*,#242,.T.);
#112=ORIENTED_EDGE('',*,*,#204,.T.);
#113=ORIENTED_EDGE('',*,*,#243,.F.);
#114=ORIENTED_EDGE('',*,*,#244,.F.);
#115=ORIENTED_EDGE('',*,*,#240,.T.);
#116=ORIENTED_EDGE('',*,*,#207,.T.);
#117=ORIENTED_EDGE('',*,*,#245,.F.);
#118=ORIENTED_EDGE('',*,*,#246,.F.);
#119=ORIENTED_EDGE('',*,*,#243,.T.);
#120=ORIENTED_EDGE('',*,*,#206,.F.);
#121=ORIENTED_EDGE('',*,*,#242,.F.);
#122=ORIENTED_EDGE('',*,*,#247,.T.);
#123=ORIENTED_EDGE('',*,*,#245,.T.);
#124=ORIENTED_EDGE('',*,*,#248,.F.);
#125=ORIENTED_EDGE('',*,*,#249,.F.);
#126=ORIENTED_EDGE('',*,*,#180,.T.);
#127=ORIENTED_EDGE('',*,*,#250,.T.);
#128=ORIENTED_EDGE('',*,*,#251,.T.);
#129=ORIENTED_EDGE('',*,*,#252,.F.);
#130=ORIENTED_EDGE('',*,*,#181,.F.);
#131=ORIENTED_EDGE('',*,*,#249,.T.);
#132=ORIENTED_EDGE('',*,*,#253,.T.);
#133=ORIENTED_EDGE('',*,*,#254,.F.);
#134=ORIENTED_EDGE('',*,*,#182,.F.);
#135=ORIENTED_EDGE('',*,*,#252,.T.);
#136=ORIENTED_EDGE('',*,*,#255,.F.);
#137=ORIENTED_EDGE('',*,*,#250,.F.);
#138=ORIENTED_EDGE('',*,*,#183,.T.);
#139=ORIENTED_EDGE('',*,*,#254,.T.);
#140=ORIENTED_EDGE('',*,*,#217,.F.);
#141=ORIENTED_EDGE('',*,*,#220,.T.);
#142=ORIENTED_EDGE('',*,*,#222,.T.);
#143=ORIENTED_EDGE('',*,*,#223,.F.);
#144=ORIENTED_EDGE('',*,*,#225,.F.);
#145=ORIENTED_EDGE('',*,*,#228,.T.);
#146=ORIENTED_EDGE('',*,*,#230,.T.);
#147=ORIENTED_EDGE('',*,*,#231,.F.);
#148=ORIENTED_EDGE('',*,*,#233,.F.);
#149=ORIENTED_EDGE('',*,*,#236,.T.);
#150=ORIENTED_EDGE('',*,*,#238,.T.);
#151=ORIENTED_EDGE('',*,*,#239,.F.);
#152=ORIENTED_EDGE('',*,*,#241,.F.);
#153=ORIENTED_EDGE('',*,*,#244,.T.);
#154=ORIENTED_EDGE('',*,*,#246,.T.);
#155=ORIENTED_EDGE('',*,*,#247,.F.);
#156=ORIENTED_EDGE('',*,*,#248,.T.);
#157=ORIENTED_EDGE('',*,*,#255,.T.);
#158=ORIENTED_EDGE('',*,*,#253,.F.);
#159=ORIENTED_EDGE('',*,*,#251,.F.);
#160=ORIENTED_EDGE('',*,*,#185,.F.);
#161=ORIENTED_EDGE('',*,*,#256,.F.);
#162=ORIENTED_EDGE('',*,*,#257,.T.);
#163=ORIENTED_EDGE('',*,*,#258,.T.);
#164=ORIENTED_EDGE('',*,*,#184,.T.);
#165=ORIENTED_EDGE('',*,*,#259,.F.);
#166=ORIENTED_EDGE('',*,*,#260,.F.);
#167=ORIENTED_EDGE('',*,*,#256,.T.);
#168=ORIENTED_EDGE('',*,*,#187,.T.);
#169=ORIENTED_EDGE('',*,*,#261,.F.);
#170=ORIENTED_EDGE('',*,*,#262,.F.);
#171=ORIENTED_EDGE('',*,*,#259,.T.);
#172=ORIENTED_EDGE('',*,*,#186,.F.);
#173=ORIENTED_EDGE('',*,*,#258,.F.);
#174=ORIENTED_EDGE('',*,*,#263,.T.);
#175=ORIENTED_EDGE('',*,*,#261,.T.);
#176=ORIENTED_EDGE('',*,*,#257,.F.);
#177=ORIENTED_EDGE('',*,*,#260,.T.);
#178=ORIENTED_EDGE('',*,*,#262,.T.);
#179=ORIENTED_EDGE('',*,*,#263,.F.);
#180=EDGE_CURVE('',#264,#265,#320,.T.);
#181=EDGE_CURVE('',#264,#266,#321,.T.);
#182=EDGE_CURVE('',#266,#267,#322,.T.);
#183=EDGE_CURVE('',#265,#267,#323,.T.);
#184=EDGE_CURVE('',#268,#269,#324,.T.);
#185=EDGE_CURVE('',#268,#270,#325,.T.);
#186=EDGE_CURVE('',#270,#271,#326,.T.);
#187=EDGE_CURVE('',#269,#271,#327,.T.);
#188=EDGE_CURVE('',#272,#273,#328,.T.);
#189=EDGE_CURVE('',#272,#274,#329,.T.);
#190=EDGE_CURVE('',#274,#275,#330,.T.);
#191=EDGE_CURVE('',#273,#275,#331,.T.);
#192=EDGE_CURVE('',#276,#277,#332,.T.);
#193=EDGE_CURVE('',#276,#278,#333,.T.);
#194=EDGE_CURVE('',#278,#279,#334,.T.);
#195=EDGE_CURVE('',#277,#279,#335,.T.);
#196=EDGE_CURVE('',#280,#281,#336,.T.);
#197=EDGE_CURVE('',#280,#282,#337,.T.);
#198=EDGE_CURVE('',#282,#283,#338,.T.);
#199=EDGE_CURVE('',#281,#283,#339,.T.);
#200=EDGE_CURVE('',#284,#285,#340,.T.);
#201=EDGE_CURVE('',#284,#286,#341,.T.);
#202=EDGE_CURVE('',#286,#287,#342,.T.);
#203=EDGE_CURVE('',#285,#287,#343,.T.);
#204=EDGE_CURVE('',#288,#289,#344,.T.);
#205=EDGE_CURVE('',#288,#290,#345,.T.);
#206=EDGE_CURVE('',#290,#291,#346,.T.);
#207=EDGE_CURVE('',#289,#291,#347,.T.);
#208=EDGE_CURVE('',#292,#293,#348,.T.);
#209=EDGE_CURVE('',#272,#292,#349,.T.);
#210=EDGE_CURVE('',#273,#293,#350,.T.);
#211=EDGE_CURVE('',#292,#294,#351,.T.);
#212=EDGE_CURVE('',#274,#294,#352,.T.);
#213=EDGE_CURVE('',#294,#295,#353,.T.);
#214=EDGE_CURVE('',#275,#295,#354,.T.);
#215=EDGE_CURVE('',#293,#295,#355,.T.);
#216=EDGE_CURVE('',#296,#276,#356,.T.);
#217=EDGE_CURVE('',#296,#297,#357,.T.);
#218=EDGE_CURVE('',#297,#278,#358,.T.);
#219=EDGE_CURVE('',#298,#277,#359,.T.);
#220=EDGE_CURVE('',#296,#298,#360,.T.);
#221=EDGE_CURVE('',#299,#279,#361,.T.);
#222=EDGE_CURVE('',#298,#299,#362,.T.);
#223=EDGE_CURVE('',#297,#299,#363,.T.);
#224=EDGE_CURVE('',#300,#280,#364,.T.);
#225=EDGE_CURVE('',#300,#301,#365,.T.);
#226=EDGE_CURVE('',#301,#282,#366,.T.);
#227=EDGE_CURVE('',#302,#281,#367,.T.);
#228=EDGE_CURVE('',#300,#302,#368,.T.);
#229=EDGE_CURVE('',#303,#283,#369,.T.);
#230=EDGE_CURVE('',#302,#303,#370,.T.);
#231=EDGE_CURVE('',#301,#303,#371,.T.);
#232=EDGE_CURVE('',#304,#284,#372,.T.);
#233=EDGE_CURVE('',#304,#305,#373,.T.);
#234=EDGE_CURVE('',#305,#286,#374,.T.);
#235=EDGE_CURVE('',#306,#285,#375,.T.);
#236=EDGE_CURVE('',#304,#306,#376,.T.);
#237=EDGE_CURVE('',#307,#287,#377,.T.);
#238=EDGE_CURVE('',#306,#307,#378,.T.);
#239=EDGE_CURVE('',#305,#307,#379,.T.);
#240=EDGE_CURVE('',#308,#288,#380,.T.);
#241=EDGE_CURVE('',#308,#309,#381,.T.);
#242=EDGE_CURVE('',#309,#290,#382,.T.);
#243=EDGE_CURVE('',#310,#289,#383,.T.);
#244=EDGE_CURVE('',#308,#310,#384,.T.);
#245=EDGE_CURVE('',#311,#291,#385,.T.);
#246=EDGE_CURVE('',#310,#311,#386,.T.);
#247=EDGE_CURVE('',#309,#311,#387,.T.);
#248=EDGE_CURVE('',#312,#313,#388,.T.);
#249=EDGE_CURVE('',#264,#312,#389,.T.);
#250=EDGE_CURVE('',#265,#313,#390,.T.);
#251=EDGE_CURVE('',#312,#314,#391,.T.);
#252=EDGE_CURVE('',#266,#314,#392,.T.);
#253=EDGE_CURVE('',#314,#315,#393,.T.);
#254=EDGE_CURVE('',#267,#315,#394,.T.);
#255=EDGE_CURVE('',#313,#315,#395,.T.);
#256=EDGE_CURVE('',#316,#268,#396,.T.);
#257=EDGE_CURVE('',#316,#317,#397,.T.);
#258=EDGE_CURVE('',#317,#270,#398,.T.);
#259=EDGE_CURVE('',#318,#269,#399,.T.);
#260=EDGE_CURVE('',#316,#318,#400,.T.);
#261=EDGE_CURVE('',#319,#271,#401,.T.);
#262=EDGE_CURVE('',#318,#319,#402,.T.);
#263=EDGE_CURVE('',#317,#319,#403,.T.);
#264=VERTEX_POINT('',#1072);
#265=VERTEX_POINT('',#1073);
#266=VERTEX_POINT('',#1075);
#267=VERTEX_POINT('',#1077);
#268=VERTEX_POINT('',#1080);
#269=VERTEX_POINT('',#1081);
#270=VERTEX_POINT('',#1083);
#271=VERTEX_POINT('',#1085);
#272=VERTEX_POINT('',#1089);
#273=VERTEX_POINT('',#1090);
#274=VERTEX_POINT('',#1092);
#275=VERTEX_POINT('',#1094);
#276=VERTEX_POINT('',#1097);
#277=VERTEX_POINT('',#1098);
#278=VERTEX_POINT('',#1100);
#279=VERTEX_POINT('',#1102);
#280=VERTEX_POINT('',#1105);
#281=VERTEX_POINT('',#1106);
#282=VERTEX_POINT('',#1108);
#283=VERTEX_POINT('',#1110);
#284=VERTEX_POINT('',#1113);
#285=VERTEX_POINT('',#1114);
#286=VERTEX_POINT('',#1116);
#287=VERTEX_POINT('',#1118);
#288=VERTEX_POINT('',#1121);
#289=VERTEX_POINT('',#1122);
#290=VERTEX_POINT('',#1124);
#291=VERTEX_POINT('',#1126);
#292=VERTEX_POINT('',#1130);
#293=VERTEX_POINT('',#1131);
#294=VERTEX_POINT('',#1136);
#295=VERTEX_POINT('',#1140);
#296=VERTEX_POINT('',#1147);
#297=VERTEX_POINT('',#1149);
#298=VERTEX_POINT('',#1153);
#299=VERTEX_POINT('',#1157);
#300=VERTEX_POINT('',#1163);
#301=VERTEX_POINT('',#1165);
#302=VERTEX_POINT('',#1169);
#303=VERTEX_POINT('',#1173);
#304=VERTEX_POINT('',#1179);
#305=VERTEX_POINT('',#1181);
#306=VERTEX_POINT('',#1185);
#307=VERTEX_POINT('',#1189);
#308=VERTEX_POINT('',#1195);
#309=VERTEX_POINT('',#1197);
#310=VERTEX_POINT('',#1201);
#311=VERTEX_POINT('',#1205);
#312=VERTEX_POINT('',#1211);
#313=VERTEX_POINT('',#1212);
#314=VERTEX_POINT('',#1217);
#315=VERTEX_POINT('',#1221);
#316=VERTEX_POINT('',#1228);
#317=VERTEX_POINT('',#1230);
#318=VERTEX_POINT('',#1234);
#319=VERTEX_POINT('',#1238);
#320=LINE('',#1071,#404);
#321=LINE('',#1074,#405);
#322=LINE('',#1076,#406);
#323=LINE('',#1078,#407);
#324=LINE('',#1079,#408);
#325=LINE('',#1082,#409);
#326=LINE('',#1084,#410);
#327=LINE('',#1086,#411);
#328=LINE('',#1088,#412);
#329=LINE('',#1091,#413);
#330=LINE('',#1093,#414);
#331=LINE('',#1095,#415);
#332=LINE('',#1096,#416);
#333=LINE('',#1099,#417);
#334=LINE('',#1101,#418);
#335=LINE('',#1103,#419);
#336=LINE('',#1104,#420);
#337=LINE('',#1107,#421);
#338=LINE('',#1109,#422);
#339=LINE('',#1111,#423);
#340=LINE('',#1112,#424);
#341=LINE('',#1115,#425);
#342=LINE('',#1117,#426);
#343=LINE('',#1119,#427);
#344=LINE('',#1120,#428);
#345=LINE('',#1123,#429);
#346=LINE('',#1125,#430);
#347=LINE('',#1127,#431);
#348=LINE('',#1129,#432);
#349=LINE('',#1132,#433);
#350=LINE('',#1133,#434);
#351=LINE('',#1135,#435);
#352=LINE('',#1137,#436);
#353=LINE('',#1139,#437);
#354=LINE('',#1141,#438);
#355=LINE('',#1143,#439);
#356=LINE('',#1146,#440);
#357=LINE('',#1148,#441);
#358=LINE('',#1150,#442);
#359=LINE('',#1152,#443);
#360=LINE('',#1154,#444);
#361=LINE('',#1156,#445);
#362=LINE('',#1158,#446);
#363=LINE('',#1160,#447);
#364=LINE('',#1162,#448);
#365=LINE('',#1164,#449);
#366=LINE('',#1166,#450);
#367=LINE('',#1168,#451);
#368=LINE('',#1170,#452);
#369=LINE('',#1172,#453);
#370=LINE('',#1174,#454);
#371=LINE('',#1176,#455);
#372=LINE('',#1178,#456);
#373=LINE('',#1180,#457);
#374=LINE('',#1182,#458);
#375=LINE('',#1184,#459);
#376=LINE('',#1186,#460);
#377=LINE('',#1188,#461);
#378=LINE('',#1190,#462);
#379=LINE('',#1192,#463);
#380=LINE('',#1194,#464);
#381=LINE('',#1196,#465);
#382=LINE('',#1198,#466);
#383=LINE('',#1200,#467);
#384=LINE('',#1202,#468);
#385=LINE('',#1204,#469);
#386=LINE('',#1206,#470);
#387=LINE('',#1208,#471);
#388=LINE('',#1210,#472);
#389=LINE('',#1213,#473);
#390=LINE('',#1214,#474);
#391=LINE('',#1216,#475);
#392=LINE('',#1218,#476);
#393=LINE('',#1220,#477);
#394=LINE('',#1222,#478);
#395=LINE('',#1224,#479);
#396=LINE('',#1227,#480);
#397=LINE('',#1229,#481);
#398=LINE('',#1231,#482);
#399=LINE('',#1233,#483);
#400=LINE('',#1235,#484);
#401=LINE('',#1237,#485);
#402=LINE('',#1239,#486);
#403=LINE('',#1241,#487);
#404=VECTOR('',#921,1.);
#405=VECTOR('',#922,1.);
#406=VECTOR('',#923,1.);
#407=VECTOR('',#924,1.);
#408=VECTOR('',#925,1.);
#409=VECTOR('',#926,1.);
#410=VECTOR('',#927,1.);
#411=VECTOR('',#928,1.);
#412=VECTOR('',#931,1.);
#413=VECTOR('',#932,1.);
#414=VECTOR('',#933,1.);
#415=VECTOR('',#934,1.);
#416=VECTOR('',#935,1.);
#417=VECTOR('',#936,1.);
#418=VECTOR('',#937,1.);
#419=VECTOR('',#938,1.);
#420=VECTOR('',#939,1.);
#421=VECTOR('',#940,1.);
#422=VECTOR('',#941,1.);
#423=VECTOR('',#942,1.);
#424=VECTOR('',#943,1.);
#425=VECTOR('',#944,1.);
#426=VECTOR('',#945,1.);
#427=VECTOR('',#946,1.);
#428=VECTOR('',#947,1.);
#429=VECTOR('',#948,1.);
#430=VECTOR('',#949,1.);
#431=VECTOR('',#950,1.);
#432=VECTOR('',#953,1.);
#433=VECTOR('',#954,1.);
#434=VECTOR('',#955,1.);
#435=VECTOR('',#958,1.);
#436=VECTOR('',#959,1.);
#437=VECTOR('',#962,1.);
#438=VECTOR('',#963,1.);
#439=VECTOR('',#966,1.);
#440=VECTOR('',#971,1.);
#441=VECTOR('',#972,1.);
#442=VECTOR('',#973,1.);
#443=VECTOR('',#976,1.);
#444=VECTOR('',#977,1.);
#445=VECTOR('',#980,1.);
#446=VECTOR('',#981,1.);
#447=VECTOR('',#984,1.);
#448=VECTOR('',#987,1.);
#449=VECTOR('',#988,1.);
#450=VECTOR('',#989,1.);
#451=VECTOR('',#992,1.);
#452=VECTOR('',#993,1.);
#453=VECTOR('',#996,1.);
#454=VECTOR('',#997,1.);
#455=VECTOR('',#1000,1.);
#456=VECTOR('',#1003,1.);
#457=VECTOR('',#1004,1.);
#458=VECTOR('',#1005,1.);
#459=VECTOR('',#1008,1.);
#460=VECTOR('',#1009,1.);
#461=VECTOR('',#1012,1.);
#462=VECTOR('',#1013,1.);
#463=VECTOR('',#1016,1.);
#464=VECTOR('',#1019,1.);
#465=VECTOR('',#1020,1.);
#466=VECTOR('',#1021,1.);
#467=VECTOR('',#1024,1.);
#468=VECTOR('',#1025,1.);
#469=VECTOR('',#1028,1.);
#470=VECTOR('',#1029,1.);
#471=VECTOR('',#1032,1.);
#472=VECTOR('',#1035,1.);
#473=VECTOR('',#1036,1.);
#474=VECTOR('',#1037,1.);
#475=VECTOR('',#1040,1.);
#476=VECTOR('',#1041,1.);
#477=VECTOR('',#1044,1.);
#478=VECTOR('',#1045,1.);
#479=VECTOR('',#1048,1.);
#480=VECTOR('',#1053,1.);
#481=VECTOR('',#1054,1.);
#482=VECTOR('',#1055,1.);
#483=VECTOR('',#1058,1.);
#484=VECTOR('',#1059,1.);
#485=VECTOR('',#1062,1.);
#486=VECTOR('',#1063,1.);
#487=VECTOR('',#1066,1.);
#488=EDGE_LOOP('',(#12,#13,#14,#15));
#489=EDGE_LOOP('',(#16,#17,#18,#19));
#490=EDGE_LOOP('',(#20,#21,#22,#23));
#491=EDGE_LOOP('',(#24,#25,#26,#27));
#492=EDGE_LOOP('',(#28,#29,#30,#31));
#493=EDGE_LOOP('',(#32,#33,#34,#35));
#494=EDGE_LOOP('',(#36,#37,#38,#39));
#495=EDGE_LOOP('',(#40,#41,#42,#43));
#496=EDGE_LOOP('',(#44,#45,#46,#47));
#497=EDGE_LOOP('',(#48,#49,#50,#51));
#498=EDGE_LOOP('',(#52,#53,#54,#55));
#499=EDGE_LOOP('',(#56,#57,#58,#59));
#500=EDGE_LOOP('',(#60,#61,#62,#63));
#501=EDGE_LOOP('',(#64,#65,#66,#67));
#502=EDGE_LOOP('',(#68,#69,#70,#71));
#503=EDGE_LOOP('',(#72,#73,#74,#75));
#504=EDGE_LOOP('',(#76,#77,#78,#79));
#505=EDGE_LOOP('',(#80,#81,#82,#83));
#506=EDGE_LOOP('',(#84,#85,#86,#87));
#507=EDGE_LOOP('',(#88,#89,#90,#91));
#508=EDGE_LOOP('',(#92,#93,#94,#95));
#509=EDGE_LOOP('',(#96,#97,#98,#99));
#510=EDGE_LOOP('',(#100,#101,#102,#103));
#511=EDGE_LOOP('',(#104,#105,#106,#107));
#512=EDGE_LOOP('',(#108,#109,#110,#111));
#513=EDGE_LOOP('',(#112,#113,#114,#115));
#514=EDGE_LOOP('',(#116,#117,#118,#119));
#515=EDGE_LOOP('',(#120,#121,#122,#123));
#516=EDGE_LOOP('',(#124,#125,#126,#127));
#517=EDGE_LOOP('',(#128,#129,#130,#131));
#518=EDGE_LOOP('',(#132,#133,#134,#135));
#519=EDGE_LOOP('',(#136,#137,#138,#139));
#520=EDGE_LOOP('',(#140,#141,#142,#143));
#521=EDGE_LOOP('',(#144,#145,#146,#147));
#522=EDGE_LOOP('',(#148,#149,#150,#151));
#523=EDGE_LOOP('',(#152,#153,#154,#155));
#524=EDGE_LOOP('',(#156,#157,#158,#159));
#525=EDGE_LOOP('',(#160,#161,#162,#163));
#526=EDGE_LOOP('',(#164,#165,#166,#167));
#527=EDGE_LOOP('',(#168,#169,#170,#171));
#528=EDGE_LOOP('',(#172,#173,#174,#175));
#529=EDGE_LOOP('',(#176,#177,#178,#179));
#530=FACE_BOUND('',#488,.T.);
#531=FACE_BOUND('',#489,.T.);
#532=FACE_BOUND('',#490,.T.);
#533=FACE_BOUND('',#491,.T.);
#534=FACE_BOUND('',#492,.T.);
#535=FACE_BOUND('',#493,.T.);
#536=FACE_BOUND('',#494,.T.);
#537=FACE_BOUND('',#495,.T.);
#538=FACE_BOUND('',#496,.T.);
#539=FACE_BOUND('',#497,.T.);
#540=FACE_BOUND('',#498,.T.);
#541=FACE_BOUND('',#499,.T.);
#542=FACE_BOUND('',#500,.T.);
#543=FACE_BOUND('',#501,.T.);
#544=FACE_BOUND('',#502,.T.);
#545=FACE_BOUND('',#503,.T.);
#546=FACE_BOUND('',#504,.T.);
#547=FACE_BOUND('',#505,.T.);
#548=FACE_BOUND('',#506,.T.);
#549=FACE_BOUND('',#507,.T.);
#550=FACE_BOUND('',#508,.T.);
#551=FACE_BOUND('',#509,.T.);
#552=FACE_BOUND('',#510,.T.);
#553=FACE_BOUND('',#511,.T.);
#554=FACE_BOUND('',#512,.T.);
#555=FACE_BOUND('',#513,.T.);
#556=FACE_BOUND('',#514,.T.);
#557=FACE_BOUND('',#515,.T.);
#558=FACE_BOUND('',#516,.T.);
#559=FACE_BOUND('',#517,.T.);
#560=FACE_BOUND('',#518,.T.);
#561=FACE_BOUND('',#519,.T.);
#562=FACE_BOUND('',#520,.T.);
#563=FACE_BOUND('',#521,.T.);
#564=FACE_BOUND('',#522,.T.);
#565=FACE_BOUND('',#523,.T.);
#566=FACE_BOUND('',#524,.T.);
#567=FACE_BOUND('',#525,.T.);
#568=FACE_BOUND('',#526,.T.);
#569=FACE_BOUND('',#527,.T.);
#570=FACE_BOUND('',#528,.T.);
#571=FACE_BOUND('',#529,.T.);
#572=PLANE('',#884);
#573=PLANE('',#885);
#574=PLANE('',#886);
#575=PLANE('',#887);
#576=PLANE('',#888);
#577=PLANE('',#889);
#578=PLANE('',#890);
#579=PLANE('',#891);
#580=PLANE('',#892);
#581=PLANE('',#893);
#582=PLANE('',#894);
#583=PLANE('',#895);
#584=PLANE('',#896);
#585=PLANE('',#897);
#586=PLANE('',#898);
#587=PLANE('',#899);
#588=PLANE('',#900);
#589=PLANE('',#901);
#590=PLANE('',#902);
#591=PLANE('',#903);
#592=PLANE('',#904);
#593=PLANE('',#905);
#594=PLANE('',#906);
#595=PLANE('',#907);
#596=PLANE('',#908);
#597=PLANE('',#909);
#598=PLANE('',#910);
#599=PLANE('',#911);
#600=PLANE('',#912);
#601=PLANE('',#913);
#602=PLANE('',#914);
#603=PLANE('',#915);
#604=PLANE('',#916);
#605=OVER_RIDING_STYLED_ITEM('',(#674),#638,#672);
#606=OVER_RIDING_STYLED_ITEM('',(#675),#639,#672);
#607=OVER_RIDING_STYLED_ITEM('',(#676),#640,#672);
#608=OVER_RIDING_STYLED_ITEM('',(#677),#641,#672);
#609=OVER_RIDING_STYLED_ITEM('',(#678),#642,#672);
#610=OVER_RIDING_STYLED_ITEM('',(#679),#643,#672);
#611=OVER_RIDING_STYLED_ITEM('',(#680),#644,#672);
#612=OVER_RIDING_STYLED_ITEM('',(#681),#645,#672);
#613=OVER_RIDING_STYLED_ITEM('',(#682),#646,#672);
#614=OVER_RIDING_STYLED_ITEM('',(#683),#647,#672);
#615=OVER_RIDING_STYLED_ITEM('',(#684),#648,#672);
#616=OVER_RIDING_STYLED_ITEM('',(#685),#649,#672);
#617=OVER_RIDING_STYLED_ITEM('',(#686),#650,#672);
#618=OVER_RIDING_STYLED_ITEM('',(#687),#651,#672);
#619=OVER_RIDING_STYLED_ITEM('',(#688),#652,#672);
#620=OVER_RIDING_STYLED_ITEM('',(#689),#653,#672);
#621=OVER_RIDING_STYLED_ITEM('',(#690),#654,#672);
#622=OVER_RIDING_STYLED_ITEM('',(#691),#655,#672);
#623=OVER_RIDING_STYLED_ITEM('',(#692),#656,#672);
#624=OVER_RIDING_STYLED_ITEM('',(#693),#657,#672);
#625=OVER_RIDING_STYLED_ITEM('',(#694),#658,#672);
#626=OVER_RIDING_STYLED_ITEM('',(#695),#659,#672);
#627=OVER_RIDING_STYLED_ITEM('',(#696),#660,#672);
#628=OVER_RIDING_STYLED_ITEM('',(#697),#661,#672);
#629=OVER_RIDING_STYLED_ITEM('',(#698),#662,#672);
#630=OVER_RIDING_STYLED_ITEM('',(#699),#663,#672);
#631=OVER_RIDING_STYLED_ITEM('',(#700),#664,#672);
#632=OVER_RIDING_STYLED_ITEM('',(#701),#665,#672);
#633=OVER_RIDING_STYLED_ITEM('',(#702),#666,#672);
#634=OVER_RIDING_STYLED_ITEM('',(#703),#667,#672);
#635=OVER_RIDING_STYLED_ITEM('',(#704),#668,#672);
#636=OVER_RIDING_STYLED_ITEM('',(#705),#669,#672);
#637=OVER_RIDING_STYLED_ITEM('',(#706),#670,#672);
#638=ADVANCED_FACE('Face appearance 3',(#530,#531),#572,.T.);
#639=ADVANCED_FACE('Face appearance 1',(#532,#533,#534,#535,#536),#573,
 .T.);
#640=ADVANCED_FACE('Face appearance 1',(#537),#574,.T.);
#641=ADVANCED_FACE('Face appearance 1',(#538),#575,.F.);
#642=ADVANCED_FACE('Face appearance 1',(#539),#576,.F.);
#643=ADVANCED_FACE('Face appearance 1',(#540),#577,.T.);
#644=ADVANCED_FACE('Face appearance 1',(#541),#578,.F.);
#645=ADVANCED_FACE('Face appearance 2',(#542),#579,.T.);
#646=ADVANCED_FACE('Face appearance 2',(#543),#580,.F.);
#647=ADVANCED_FACE('Face appearance 2',(#544),#581,.F.);
#648=ADVANCED_FACE('Face appearance 2',(#545),#582,.T.);
#649=ADVANCED_FACE('Face appearance 2',(#546),#583,.T.);
#650=ADVANCED_FACE('Face appearance 2',(#547),#584,.F.);
#651=ADVANCED_FACE('Face appearance 2',(#548),#585,.F.);
#652=ADVANCED_FACE('Face appearance 2',(#549),#586,.T.);
#653=ADVANCED_FACE('Face appearance 2',(#550),#587,.T.);
#654=ADVANCED_FACE('Face appearance 2',(#551),#588,.F.);
#655=ADVANCED_FACE('Face appearance 2',(#552),#589,.F.);
#656=ADVANCED_FACE('Face appearance 2',(#553),#590,.T.);
#657=ADVANCED_FACE('Face appearance 2',(#554),#591,.T.);
#658=ADVANCED_FACE('Face appearance 2',(#555),#592,.F.);
#659=ADVANCED_FACE('Face appearance 2',(#556),#593,.F.);
#660=ADVANCED_FACE('Face appearance 2',(#557),#594,.T.);
#661=ADVANCED_FACE('Face appearance 3',(#558),#595,.T.);
#662=ADVANCED_FACE('Face appearance 3',(#559),#596,.F.);
#663=ADVANCED_FACE('Face appearance 3',(#560),#597,.F.);
#664=ADVANCED_FACE('Face appearance 3',(#561),#598,.T.);
#665=ADVANCED_FACE('Face appearance 3',(#562,#563,#564,#565,#566),#599,
 .F.);
#666=ADVANCED_FACE('Face appearance 4',(#567),#600,.T.);
#667=ADVANCED_FACE('Face appearance 4',(#568),#601,.F.);
#668=ADVANCED_FACE('Face appearance 4',(#569),#602,.F.);
#669=ADVANCED_FACE('Face appearance 4',(#570),#603,.T.);
#670=ADVANCED_FACE('Face appearance 4',(#571),#604,.T.);
#671=CLOSED_SHELL('',(#638,#639,#640,#641,#642,#643,#644,#645,#646,#647,
#648,#649,#650,#651,#652,#653,#654,#655,#656,#657,#658,#659,#660,#661,#662,
#663,#664,#665,#666,#667,#668,#669,#670));
#672=STYLED_ITEM('',(#673),#880);
#673=PRESENTATION_STYLE_ASSIGNMENT((#707));
#674=PRESENTATION_STYLE_ASSIGNMENT((#708));
#675=PRESENTATION_STYLE_ASSIGNMENT((#709));
#676=PRESENTATION_STYLE_ASSIGNMENT((#710));
#677=PRESENTATION_STYLE_ASSIGNMENT((#711));
#678=PRESENTATION_STYLE_ASSIGNMENT((#712));
#679=PRESENTATION_STYLE_ASSIGNMENT((#713));
#680=PRESENTATION_STYLE_ASSIGNMENT((#714));
#681=PRESENTATION_STYLE_ASSIGNMENT((#715));
#682=PRESENTATION_STYLE_ASSIGNMENT((#716));
#683=PRESENTATION_STYLE_ASSIGNMENT((#717));
#684=PRESENTATION_STYLE_ASSIGNMENT((#718));
#685=PRESENTATION_STYLE_ASSIGNMENT((#719));
#686=PRESENTATION_STYLE_ASSIGNMENT((#720));
#687=PRESENTATION_STYLE_ASSIGNMENT((#721));
#688=PRESENTATION_STYLE_ASSIGNMENT((#722));
#689=PRESENTATION_STYLE_ASSIGNMENT((#723));
#690=PRESENTATION_STYLE_ASSIGNMENT((#724));
#691=PRESENTATION_STYLE_ASSIGNMENT((#725));
#692=PRESENTATION_STYLE_ASSIGNMENT((#726));
#693=PRESENTATION_STYLE_ASSIGNMENT((#727));
#694=PRESENTATION_STYLE_ASSIGNMENT((#728));
#695=PRESENTATION_STYLE_ASSIGNMENT((#729));
#696=PRESENTATION_STYLE_ASSIGNMENT((#730));
#697=PRESENTATION_STYLE_ASSIGNMENT((#731));
#698=PRESENTATION_STYLE_ASSIGNMENT((#732));
#699=PRESENTATION_STYLE_ASSIGNMENT((#733));
#700=PRESENTATION_STYLE_ASSIGNMENT((#734));
#701=PRESENTATION_STYLE_ASSIGNMENT((#735));
#702=PRESENTATION_STYLE_ASSIGNMENT((#736));
#703=PRESENTATION_STYLE_ASSIGNMENT((#737));
#704=PRESENTATION_STYLE_ASSIGNMENT((#738));
#705=PRESENTATION_STYLE_ASSIGNMENT((#739));
#706=PRESENTATION_STYLE_ASSIGNMENT((#740));
#707=SURFACE_STYLE_USAGE(.BOTH.,#741);
#708=SURFACE_STYLE_USAGE(.BOTH.,#742);
#709=SURFACE_STYLE_USAGE(.BOTH.,#743);
#710=SURFACE_STYLE_USAGE(.BOTH.,#744);
#711=SURFACE_STYLE_USAGE(.BOTH.,#745);
#712=SURFACE_STYLE_USAGE(.BOTH.,#746);
#713=SURFACE_STYLE_USAGE(.BOTH.,#747);
#714=SURFACE_STYLE_USAGE(.BOTH.,#748);
#715=SURFACE_STYLE_USAGE(.BOTH.,#749);
#716=SURFACE_STYLE_USAGE(.BOTH.,#750);
#717=SURFACE_STYLE_USAGE(.BOTH.,#751);
#718=SURFACE_STYLE_USAGE(.BOTH.,#752);
#719=SURFACE_STYLE_USAGE(.BOTH.,#753);
#720=SURFACE_STYLE_USAGE(.BOTH.,#754);
#721=SURFACE_STYLE_USAGE(.BOTH.,#755);
#722=SURFACE_STYLE_USAGE(.BOTH.,#756);
#723=SURFACE_STYLE_USAGE(.BOTH.,#757);
#724=SURFACE_STYLE_USAGE(.BOTH.,#758);
#725=SURFACE_STYLE_USAGE(.BOTH.,#759);
#726=SURFACE_STYLE_USAGE(.BOTH.,#760);
#727=SURFACE_STYLE_USAGE(.BOTH.,#761);
#728=SURFACE_STYLE_USAGE(.BOTH.,#762);
#729=SURFACE_STYLE_USAGE(.BOTH.,#763);
#730=SURFACE_STYLE_USAGE(.BOTH.,#764);
#731=SURFACE_STYLE_USAGE(.BOTH.,#765);
#732=SURFACE_STYLE_USAGE(.BOTH.,#766);
#733=SURFACE_STYLE_USAGE(.BOTH.,#767);
#734=SURFACE_STYLE_USAGE(.BOTH.,#768);
#735=SURFACE_STYLE_USAGE(.BOTH.,#769);
#736=SURFACE_STYLE_USAGE(.BOTH.,#770);
#737=SURFACE_STYLE_USAGE(.BOTH.,#771);
#738=SURFACE_STYLE_USAGE(.BOTH.,#772);
#739=SURFACE_STYLE_USAGE(.BOTH.,#773);
#740=SURFACE_STYLE_USAGE(.BOTH.,#774);
#741=SURFACE_SIDE_STYLE('',(#775));
#742=SURFACE_SIDE_STYLE('',(#776));
#743=SURFACE_SIDE_STYLE('',(#777));
#744=SURFACE_SIDE_STYLE('',(#778));
#745=SURFACE_SIDE_STYLE('',(#779));
#746=SURFACE_SIDE_STYLE('',(#780));
#747=SURFACE_SIDE_STYLE('',(#781));
#748=SURFACE_SIDE_STYLE('',(#782));
#749=SURFACE_SIDE_STYLE('',(#783));
#750=SURFACE_SIDE_STYLE('',(#784));
#751=SURFACE_SIDE_STYLE('',(#785));
#752=SURFACE_SIDE_STYLE('',(#786));
#753=SURFACE_SIDE_STYLE('',(#787));
#754=SURFACE_SIDE_STYLE('',(#788));
#755=SURFACE_SIDE_STYLE('',(#789));
#756=SURFACE_SIDE_STYLE('',(#790));
#757=SURFACE_SIDE_STYLE('',(#791));
#758=SURFACE_SIDE_STYLE('',(#792));
#759=SURFACE_SIDE_STYLE('',(#793));
#760=SURFACE_SIDE_STYLE('',(#794));
#761=SURFACE_SIDE_STYLE('',(#795));
#762=SURFACE_SIDE_STYLE('',(#796));
#763=SURFACE_SIDE_STYLE('',(#797));
#764=SURFACE_SIDE_STYLE('',(#798));
#765=SURFACE_SIDE_STYLE('',(#799));
#766=SURFACE_SIDE_STYLE('',(#800));
#767=SURFACE_SIDE_STYLE('',(#801));
#768=SURFACE_SIDE_STYLE('',(#802));
#769=SURFACE_SIDE_STYLE('',(#803));
#770=SURFACE_SIDE_STYLE('',(#804));
#771=SURFACE_SIDE_STYLE('',(#805));
#772=SURFACE_SIDE_STYLE('',(#806));
#773=SURFACE_SIDE_STYLE('',(#807));
#774=SURFACE_SIDE_STYLE('',(#808));
#775=SURFACE_STYLE_FILL_AREA(#809);
#776=SURFACE_STYLE_FILL_AREA(#810);
#777=SURFACE_STYLE_FILL_AREA(#811);
#778=SURFACE_STYLE_FILL_AREA(#812);
#779=SURFACE_STYLE_FILL_AREA(#813);
#780=SURFACE_STYLE_FILL_AREA(#814);
#781=SURFACE_STYLE_FILL_AREA(#815);
#782=SURFACE_STYLE_FILL_AREA(#816);
#783=SURFACE_STYLE_FILL_AREA(#817);
#784=SURFACE_STYLE_FILL_AREA(#818);
#785=SURFACE_STYLE_FILL_AREA(#819);
#786=SURFACE_STYLE_FILL_AREA(#820);
#787=SURFACE_STYLE_FILL_AREA(#821);
#788=SURFACE_STYLE_FILL_AREA(#822);
#789=SURFACE_STYLE_FILL_AREA(#823);
#790=SURFACE_STYLE_FILL_AREA(#824);
#791=SURFACE_STYLE_FILL_AREA(#825);
#792=SURFACE_STYLE_FILL_AREA(#826);
#793=SURFACE_STYLE_FILL_AREA(#827);
#794=SURFACE_STYLE_FILL_AREA(#828);
#795=SURFACE_STYLE_FILL_AREA(#829);
#796=SURFACE_STYLE_FILL_AREA(#830);
#797=SURFACE_STYLE_FILL_AREA(#831);
#798=SURFACE_STYLE_FILL_AREA(#832);
#799=SURFACE_STYLE_FILL_AREA(#833);
#800=SURFACE_STYLE_FILL_AREA(#834);
#801=SURFACE_STYLE_FILL_AREA(#835);
#802=SURFACE_STYLE_FILL_AREA(#836);
#803=SURFACE_STYLE_FILL_AREA(#837);
#804=SURFACE_STYLE_FILL_AREA(#838);
#805=SURFACE_STYLE_FILL_AREA(#839);
#806=SURFACE_STYLE_FILL_AREA(#840);
#807=SURFACE_STYLE_FILL_AREA(#841);
#808=SURFACE_STYLE_FILL_AREA(#842);
#809=FILL_AREA_STYLE('',(#843));
#810=FILL_AREA_STYLE('',(#844));
#811=FILL_AREA_STYLE('',(#845));
#812=FILL_AREA_STYLE('',(#846));
#813=FILL_AREA_STYLE('',(#847));
#814=FILL_AREA_STYLE('',(#848));
#815=FILL_AREA_STYLE('',(#849));
#816=FILL_AREA_STYLE('',(#850));
#817=FILL_AREA_STYLE('',(#851));
#818=FILL_AREA_STYLE('',(#852));
#819=FILL_AREA_STYLE('',(#853));
#820=FILL_AREA_STYLE('',(#854));
#821=FILL_AREA_STYLE('',(#855));
#822=FILL_AREA_STYLE('',(#856));
#823=FILL_AREA_STYLE('',(#857));
#824=FILL_AREA_STYLE('',(#858));
#825=FILL_AREA_STYLE('',(#859));
#826=FILL_AREA_STYLE('',(#860));
#827=FILL_AREA_STYLE('',(#861));
#828=FILL_AREA_STYLE('',(#862));
#829=FILL_AREA_STYLE('',(#863));
#830=FILL_AREA_STYLE('',(#864));
#831=FILL_AREA_STYLE('',(#865));
#832=FILL_AREA_STYLE('',(#866));
#833=FILL_AREA_STYLE('',(#867));
#834=FILL_AREA_STYLE('',(#868));
#835=FILL_AREA_STYLE('',(#869));
#836=FILL_AREA_STYLE('',(#870));
#837=FILL_AREA_STYLE('',(#871));
#838=FILL_AREA_STYLE('',(#872));
#839=FILL_AREA_STYLE('',(#873));
#840=FILL_AREA_STYLE('',(#874));
#841=FILL_AREA_STYLE('',(#875));
#842=FILL_AREA_STYLE('',(#876));
#843=FILL_AREA_STYLE_COLOUR('',#877);
#844=FILL_AREA_STYLE_COLOUR('',#878);
#845=FILL_AREA_STYLE_COLOUR('',#878);
#846=FILL_AREA_STYLE_COLOUR('',#878);
#847=FILL_AREA_STYLE_COLOUR('',#878);
#848=FILL_AREA_STYLE_COLOUR('',#878);
#849=FILL_AREA_STYLE_COLOUR('',#878);
#850=FILL_AREA_STYLE_COLOUR('',#878);
#851=FILL_AREA_STYLE_COLOUR('',#878);
#852=FILL_AREA_STYLE_COLOUR('',#878);
#853=FILL_AREA_STYLE_COLOUR('',#878);
#854=FILL_AREA_STYLE_COLOUR('',#878);
#855=FILL_AREA_STYLE_COLOUR('',#878);
#856=FILL_AREA_STYLE_COLOUR('',#878);
#857=FILL_AREA_STYLE_COLOUR('',#878);
#858=FILL_AREA_STYLE_COLOUR('',#878);
#859=FILL_AREA_STYLE_COLOUR('',#878);
#860=FILL_AREA_STYLE_COLOUR('',#878);
#861=FILL_AREA_STYLE_COLOUR('',#878);
#862=FILL_AREA_STYLE_COLOUR('',#878);
#863=FILL_AREA_STYLE_COLOUR('',#878);
#864=FILL_AREA_STYLE_COLOUR('',#878);
#865=FILL_AREA_STYLE_COLOUR('',#878);
#866=FILL_AREA_STYLE_COLOUR('',#878);
#867=FILL_AREA_STYLE_COLOUR('',#878);
#868=FILL_AREA_STYLE_COLOUR('',#878);
#869=FILL_AREA_STYLE_COLOUR('',#878);
#870=FILL_AREA_STYLE_COLOUR('',#878);
#871=FILL_AREA_STYLE_COLOUR('',#878);
#872=FILL_AREA_STYLE_COLOUR('',#879);
#873=FILL_AREA_STYLE_COLOUR('',#879);
#874=FILL_AREA_STYLE_COLOUR('',#879);
#875=FILL_AREA_STYLE_COLOUR('',#879);
#876=FILL_AREA_STYLE_COLOUR('',#879);
#877=COLOUR_RGB('',0.615686274509804,0.811764705882353,0.929411764705882);
#878=COLOUR_RGB('',0.698039215686275,0.752941176470588,0.4);
#879=COLOUR_RGB('',0.901960784313726,0.87843137254902,0.811764705882353);
#880=MANIFOLD_SOLID_BREP('Part 1',#671);
#881=SHAPE_DEFINITION_REPRESENTATION(#1249,#882);
#882=SHAPE_REPRESENTATION('Part 1',(#883),#1244);
#883=AXIS2_PLACEMENT_3D('',#1069,#917,#918);
#884=AXIS2_PLACEMENT_3D('',#1070,#919,#920);
#885=AXIS2_PLACEMENT_3D('',#1087,#929,#930);
#886=AXIS2_PLACEMENT_3D('',#1128,#951,#952);
#887=AXIS2_PLACEMENT_3D('',#1134,#956,#957);
#888=AXIS2_PLACEMENT_3D('',#1138,#960,#961);
#889=AXIS2_PLACEMENT_3D('',#1142,#964,#965);
#890=AXIS2_PLACEMENT_3D('',#1144,#967,#968);
#891=AXIS2_PLACEMENT_3D('',#1145,#969,#970);
#892=AXIS2_PLACEMENT_3D('',#1151,#974,#975);
#893=AXIS2_PLACEMENT_3D('',#1155,#978,#979);
#894=AXIS2_PLACEMENT_3D('',#1159,#982,#983);
#895=AXIS2_PLACEMENT_3D('',#1161,#985,#986);
#896=AXIS2_PLACEMENT_3D('',#1167,#990,#991);
#897=AXIS2_PLACEMENT_3D('',#1171,#994,#995);
#898=AXIS2_PLACEMENT_3D('',#1175,#998,#999);
#899=AXIS2_PLACEMENT_3D('',#1177,#1001,#1002);
#900=AXIS2_PLACEMENT_3D('',#1183,#1006,#1007);
#901=AXIS2_PLACEMENT_3D('',#1187,#1010,#1011);
#902=AXIS2_PLACEMENT_3D('',#1191,#1014,#1015);
#903=AXIS2_PLACEMENT_3D('',#1193,#1017,#1018);
#904=AXIS2_PLACEMENT_3D('',#1199,#1022,#1023);
#905=AXIS2_PLACEMENT_3D('',#1203,#1026,#1027);
#906=AXIS2_PLACEMENT_3D('',#1207,#1030,#1031);
#907=AXIS2_PLACEMENT_3D('',#1209,#1033,#1034);
#908=AXIS2_PLACEMENT_3D('',#1215,#1038,#1039);
#909=AXIS2_PLACEMENT_3D('',#1219,#1042,#1043);
#910=AXIS2_PLACEMENT_3D('',#1223,#1046,#1047);
#911=AXIS2_PLACEMENT_3D('',#1225,#1049,#1050);
#912=AXIS2_PLACEMENT_3D('',#1226,#1051,#1052);
#913=AXIS2_PLACEMENT_3D('',#1232,#1056,#1057);
#914=AXIS2_PLACEMENT_3D('',#1236,#1060,#1061);
#915=AXIS2_PLACEMENT_3D('',#1240,#1064,#1065);
#916=AXIS2_PLACEMENT_3D('',#1242,#1067,#1068);
#917=DIRECTION('',(0.,0.,1.));
#918=DIRECTION('',(1.,0.,0.));
#919=DIRECTION('',(0.,0.,1.));
#920=DIRECTION('',(1.,0.,0.));
#921=DIRECTION('',(1.,0.,0.));
#922=DIRECTION('',(0.,-1.,0.));
#923=DIRECTION('',(1.,0.,0.));
#924=DIRECTION('',(0.,-1.,0.));
#925=DIRECTION('',(0.,-1.,0.));
#926=DIRECTION('',(1.,0.,0.));
#927=DIRECTION('',(0.,-1.,0.));
#928=DIRECTION('',(1.,0.,0.));
#929=DIRECTION('',(0.,0.,1.));
#930=DIRECTION('',(1.,0.,0.));
#931=DIRECTION('',(1.,0.,0.));
#932=DIRECTION('',(0.,-1.,0.));
#933=DIRECTION('',(1.,0.,0.));
#934=DIRECTION('',(0.,-1.,0.));
#935=DIRECTION('',(0.,-1.,0.));
#936=DIRECTION('',(1.,0.,0.));
#937=DIRECTION('',(0.,-1.,0.));
#938=DIRECTION('',(1.,0.,0.));
#939=DIRECTION('',(0.,-1.,0.));
#940=DIRECTION('',(1.,1.73472347597681E-16,0.));
#941=DIRECTION('',(0.,-1.,0.));
#942=DIRECTION('',(1.,1.73472347597681E-16,0.));
#943=DIRECTION('',(0.,-1.,0.));
#944=DIRECTION('',(1.,0.,0.));
#945=DIRECTION('',(0.,-1.,0.));
#946=DIRECTION('',(1.,0.,0.));
#947=DIRECTION('',(0.,-1.,0.));
#948=DIRECTION('',(1.,1.7347234759768E-16,0.));
#949=DIRECTION('',(0.,-1.,0.));
#950=DIRECTION('',(1.,1.7347234759768E-16,0.));
#951=DIRECTION('',(0.,1.,0.));
#952=DIRECTION('',(0.,0.,1.));
#953=DIRECTION('',(1.,0.,0.));
#954=DIRECTION('',(0.,0.,-1.));
#955=DIRECTION('',(0.,0.,-1.));
#956=DIRECTION('',(1.,0.,0.));
#957=DIRECTION('',(0.,0.,-1.));
#958=DIRECTION('',(0.,-1.,0.));
#959=DIRECTION('',(0.,0.,-1.));
#960=DIRECTION('',(0.,1.,0.));
#961=DIRECTION('',(0.,0.,1.));
#962=DIRECTION('',(1.,0.,0.));
#963=DIRECTION('',(0.,0.,-1.));
#964=DIRECTION('',(1.,0.,0.));
#965=DIRECTION('',(0.,0.,-1.));
#966=DIRECTION('',(0.,-1.,0.));
#967=DIRECTION('',(0.,0.,1.));
#968=DIRECTION('',(1.,0.,0.));
#969=DIRECTION('',(0.,1.,0.));
#970=DIRECTION('',(0.,0.,1.));
#971=DIRECTION('',(0.,0.,-1.));
#972=DIRECTION('',(1.,0.,0.));
#973=DIRECTION('',(0.,0.,-1.));
#974=DIRECTION('',(1.,0.,0.));
#975=DIRECTION('',(0.,0.,-1.));
#976=DIRECTION('',(0.,0.,-1.));
#977=DIRECTION('',(0.,-1.,0.));
#978=DIRECTION('',(0.,1.,0.));
#979=DIRECTION('',(0.,0.,1.));
#980=DIRECTION('',(0.,0.,-1.));
#981=DIRECTION('',(1.,0.,0.));
#982=DIRECTION('',(1.,0.,0.));
#983=DIRECTION('',(0.,0.,-1.));
#984=DIRECTION('',(0.,-1.,0.));
#985=DIRECTION('',(-1.73472347597681E-16,1.,0.));
#986=DIRECTION('',(-1.,-1.73472347597681E-16,0.));
#987=DIRECTION('',(0.,0.,-1.));
#988=DIRECTION('',(1.,1.73472347597681E-16,0.));
#989=DIRECTION('',(0.,0.,-1.));
#990=DIRECTION('',(1.,0.,0.));
#991=DIRECTION('',(0.,0.,-1.));
#992=DIRECTION('',(0.,0.,-1.));
#993=DIRECTION('',(0.,-1.,0.));
#994=DIRECTION('',(-1.73472347597681E-16,1.,0.));
#995=DIRECTION('',(-1.,-1.73472347597681E-16,0.));
#996=DIRECTION('',(0.,0.,-1.));
#997=DIRECTION('',(1.,1.73472347597681E-16,0.));
#998=DIRECTION('',(1.,0.,0.));
#999=DIRECTION('',(0.,0.,-1.));
#1000=DIRECTION('',(0.,-1.,0.));
#1001=DIRECTION('',(0.,1.,0.));
#1002=DIRECTION('',(0.,0.,1.));
#1003=DIRECTION('',(0.,0.,-1.));
#1004=DIRECTION('',(1.,0.,0.));
#1005=DIRECTION('',(0.,0.,-1.));
#1006=DIRECTION('',(1.,0.,0.));
#1007=DIRECTION('',(0.,0.,-1.));
#1008=DIRECTION('',(0.,0.,-1.));
#1009=DIRECTION('',(0.,-1.,0.));
#1010=DIRECTION('',(0.,1.,0.));
#1011=DIRECTION('',(0.,0.,1.));
#1012=DIRECTION('',(0.,0.,-1.));
#1013=DIRECTION('',(1.,0.,0.));
#1014=DIRECTION('',(1.,0.,0.));
#1015=DIRECTION('',(0.,0.,-1.));
#1016=DIRECTION('',(0.,-1.,0.));
#1017=DIRECTION('',(-1.7347234759768E-16,1.,0.));
#1018=DIRECTION('',(-1.,-1.7347234759768E-16,0.));
#1019=DIRECTION('',(0.,0.,-1.));
#1020=DIRECTION('',(1.,1.7347234759768E-16,0.));
#1021=DIRECTION('',(0.,0.,-1.));
#1022=DIRECTION('',(1.,0.,0.));
#1023=DIRECTION('',(0.,0.,-1.));
#1024=DIRECTION('',(0.,0.,-1.));
#1025=DIRECTION('',(0.,-1.,0.));
#1026=DIRECTION('',(-1.7347234759768E-16,1.,0.));
#1027=DIRECTION('',(-1.,-1.7347234759768E-16,0.));
#1028=DIRECTION('',(0.,0.,-1.));
#1029=DIRECTION('',(1.,1.7347234759768E-16,0.));
#1030=DIRECTION('',(1.,0.,0.));
#1031=DIRECTION('',(0.,0.,-1.));
#1032=DIRECTION('',(0.,-1.,0.));
#1033=DIRECTION('',(0.,1.,0.));
#1034=DIRECTION('',(0.,0.,1.));
#1035=DIRECTION('',(1.,0.,0.));
#1036=DIRECTION('',(0.,0.,-1.));
#1037=DIRECTION('',(0.,0.,-1.));
#1038=DIRECTION('',(1.,0.,0.));
#1039=DIRECTION('',(0.,0.,-1.));
#1040=DIRECTION('',(0.,-1.,0.));
#1041=DIRECTION('',(0.,0.,-1.));
#1042=DIRECTION('',(0.,1.,0.));
#1043=DIRECTION('',(0.,0.,1.));
#1044=DIRECTION('',(1.,0.,0.));
#1045=DIRECTION('',(0.,0.,-1.));
#1046=DIRECTION('',(1.,0.,0.));
#1047=DIRECTION('',(0.,0.,-1.));
#1048=DIRECTION('',(0.,-1.,0.));
#1049=DIRECTION('',(0.,0.,1.));
#1050=DIRECTION('',(1.,0.,0.));
#1051=DIRECTION('',(0.,1.,0.));
#1052=DIRECTION('',(0.,0.,1.));
#1053=DIRECTION('',(0.,0.,-1.));
#1054=DIRECTION('',(1.,0.,0.));
#1055=DIRECTION('',(0.,0.,-1.));
#1056=DIRECTION('',(1.,0.,0.));
#1057=DIRECTION('',(0.,0.,-1.));
#1058=DIRECTION('',(0.,0.,-1.));
#1059=DIRECTION('',(0.,-1.,0.));
#1060=DIRECTION('',(0.,1.,0.));
#1061=DIRECTION('',(0.,0.,1.));
#1062=DIRECTION('',(0.,0.,-1.));
#1063=DIRECTION('',(1.,0.,0.));
#1064=DIRECTION('',(1.,0.,0.));
#1065=DIRECTION('',(0.,0.,-1.));
#1066=DIRECTION('',(0.,-1.,0.));
#1067=DIRECTION('',(0.,0.,1.));
#1068=DIRECTION('',(1.,0.,0.));
#1069=CARTESIAN_POINT('',(0.,0.,0.));
#1070=CARTESIAN_POINT('',(0.00411809608340263,0.0101153829600662,0.053));
#1071=CARTESIAN_POINT('',(0.00411809608340263,0.0226495694369078,0.053));
#1072=CARTESIAN_POINT('',(-0.0308503620326519,0.0226495694369078,0.053));
#1073=CARTESIAN_POINT('',(0.0390865541994571,0.0226495694369078,0.053));
#1074=CARTESIAN_POINT('',(-0.0308503620326519,0.0101153829600662,0.053));
#1075=CARTESIAN_POINT('',(-0.0308503620326519,-0.00241880351677537,0.053));
#1076=CARTESIAN_POINT('',(0.00411809608340263,-0.00241880351677537,0.053));
#1077=CARTESIAN_POINT('',(0.0390865541994571,-0.00241880351677537,0.053));
#1078=CARTESIAN_POINT('',(0.0390865541994571,0.0101153829600662,0.053));
#1079=CARTESIAN_POINT('',(-0.0288503620326519,0.0101153829600662,0.053));
#1080=CARTESIAN_POINT('',(-0.0288503620326519,0.0206495694369077,0.053));
#1081=CARTESIAN_POINT('',(-0.0288503620326519,-0.000418803516775369,0.053));
#1082=CARTESIAN_POINT('',(0.00416946731102777,0.0206495694369077,0.053));
#1083=CARTESIAN_POINT('',(0.0371892966547074,0.0206495694369077,0.053));
#1084=CARTESIAN_POINT('',(0.0371892966547074,0.0101153829600662,0.053));
#1085=CARTESIAN_POINT('',(0.0371892966547074,-0.000418803516775368,0.053));
#1086=CARTESIAN_POINT('',(0.00416946731102777,-0.000418803516775369,0.053));
#1087=CARTESIAN_POINT('',(0.00418929665470743,0.0100910922946204,0.025));
#1088=CARTESIAN_POINT('',(0.00418929665470743,0.0225910922946204,0.025));
#1089=CARTESIAN_POINT('',(-0.0308107033452926,0.0225910922946204,0.025));
#1090=CARTESIAN_POINT('',(0.0391892966547074,0.0225910922946204,0.025));
#1091=CARTESIAN_POINT('',(-0.0308107033452926,0.0100910922946204,0.025));
#1092=CARTESIAN_POINT('',(-0.0308107033452926,-0.00240890770537962,0.025));
#1093=CARTESIAN_POINT('',(0.00418929665470743,-0.00240890770537962,0.025));
#1094=CARTESIAN_POINT('',(0.0391892966547074,-0.00240890770537962,0.025));
#1095=CARTESIAN_POINT('',(0.0391892966547074,0.0100910922946204,0.025));
#1096=CARTESIAN_POINT('',(-0.0298107033452926,0.0190910922946204,0.025));
#1097=CARTESIAN_POINT('',(-0.0298107033452926,0.0215910922946204,0.025));
#1098=CARTESIAN_POINT('',(-0.0298107033452926,0.0165910922946204,0.025));
#1099=CARTESIAN_POINT('',(-0.0273107033452926,0.0215910922946204,0.025));
#1100=CARTESIAN_POINT('',(-0.0248107033452926,0.0215910922946204,0.025));
#1101=CARTESIAN_POINT('',(-0.0248107033452926,0.0190910922946204,0.025));
#1102=CARTESIAN_POINT('',(-0.0248107033452926,0.0165910922946204,0.025));
#1103=CARTESIAN_POINT('',(-0.0273107033452926,0.0165910922946204,0.025));
#1104=CARTESIAN_POINT('',(0.0331892966547074,0.00109109229462038,0.025));
#1105=CARTESIAN_POINT('',(0.0331892966547074,0.00359109229462038,0.025));
#1106=CARTESIAN_POINT('',(0.0331892966547074,-0.00140890770537962,0.025));
#1107=CARTESIAN_POINT('',(0.0356892966547075,0.00359109229462038,0.025));
#1108=CARTESIAN_POINT('',(0.0381892966547074,0.00359109229462038,0.025));
#1109=CARTESIAN_POINT('',(0.0381892966547074,0.00109109229462038,0.025));
#1110=CARTESIAN_POINT('',(0.0381892966547074,-0.00140890770537962,0.025));
#1111=CARTESIAN_POINT('',(0.0356892966547075,-0.00140890770537962,0.025));
#1112=CARTESIAN_POINT('',(0.0331892966547074,0.0190910922946204,0.025));
#1113=CARTESIAN_POINT('',(0.0331892966547074,0.0215910922946204,0.025));
#1114=CARTESIAN_POINT('',(0.0331892966547074,0.0165910922946204,0.025));
#1115=CARTESIAN_POINT('',(0.0356892966547075,0.0215910922946204,0.025));
#1116=CARTESIAN_POINT('',(0.0381892966547074,0.0215910922946204,0.025));
#1117=CARTESIAN_POINT('',(0.0381892966547074,0.0190910922946204,0.025));
#1118=CARTESIAN_POINT('',(0.0381892966547074,0.0165910922946204,0.025));
#1119=CARTESIAN_POINT('',(0.0356892966547075,0.0165910922946204,0.025));
#1120=CARTESIAN_POINT('',(-0.0298107033452926,0.00109109229462038,0.025));
#1121=CARTESIAN_POINT('',(-0.0298107033452926,0.00359109229462038,0.025));
#1122=CARTESIAN_POINT('',(-0.0298107033452926,-0.00140890770537962,0.025));
#1123=CARTESIAN_POINT('',(-0.0273107033452926,0.00359109229462038,0.025));
#1124=CARTESIAN_POINT('',(-0.0248107033452926,0.00359109229462038,0.025));
#1125=CARTESIAN_POINT('',(-0.0248107033452926,0.00109109229462038,0.025));
#1126=CARTESIAN_POINT('',(-0.0248107033452926,-0.00140890770537962,0.025));
#1127=CARTESIAN_POINT('',(-0.0273107033452926,-0.00140890770537962,0.025));
#1128=CARTESIAN_POINT('',(0.00418929665470743,0.0225910922946204,0.025));
#1129=CARTESIAN_POINT('',(0.00418929665470743,0.0225910922946204,0.));
#1130=CARTESIAN_POINT('',(-0.0308107033452926,0.0225910922946204,0.));
#1131=CARTESIAN_POINT('',(0.0391892966547074,0.0225910922946204,0.));
#1132=CARTESIAN_POINT('',(-0.0308107033452926,0.0225910922946204,0.025));
#1133=CARTESIAN_POINT('',(0.0391892966547074,0.0225910922946204,0.025));
#1134=CARTESIAN_POINT('',(-0.0308107033452926,0.0100910922946204,0.025));
#1135=CARTESIAN_POINT('',(-0.0308107033452926,0.0100910922946204,0.));
#1136=CARTESIAN_POINT('',(-0.0308107033452926,-0.00240890770537962,0.));
#1137=CARTESIAN_POINT('',(-0.0308107033452926,-0.00240890770537962,0.025));
#1138=CARTESIAN_POINT('',(0.00418929665470743,-0.00240890770537962,0.025));
#1139=CARTESIAN_POINT('',(0.00418929665470743,-0.00240890770537962,0.));
#1140=CARTESIAN_POINT('',(0.0391892966547074,-0.00240890770537962,0.));
#1141=CARTESIAN_POINT('',(0.0391892966547074,-0.00240890770537962,0.025));
#1142=CARTESIAN_POINT('',(0.0391892966547074,0.0100910922946204,0.025));
#1143=CARTESIAN_POINT('',(0.0391892966547074,0.0100910922946204,0.));
#1144=CARTESIAN_POINT('',(0.00418929665470743,0.0100910922946204,0.));
#1145=CARTESIAN_POINT('',(-0.0273107033452926,0.0215910922946204,0.05));
#1146=CARTESIAN_POINT('',(-0.0298107033452926,0.0215910922946204,0.05));
#1147=CARTESIAN_POINT('',(-0.0298107033452926,0.0215910922946204,0.05));
#1148=CARTESIAN_POINT('',(-0.0273107033452926,0.0215910922946204,0.05));
#1149=CARTESIAN_POINT('',(-0.0248107033452926,0.0215910922946204,0.05));
#1150=CARTESIAN_POINT('',(-0.0248107033452926,0.0215910922946204,0.05));
#1151=CARTESIAN_POINT('',(-0.0298107033452926,0.0190910922946204,0.05));
#1152=CARTESIAN_POINT('',(-0.0298107033452926,0.0165910922946204,0.05));
#1153=CARTESIAN_POINT('',(-0.0298107033452926,0.0165910922946204,0.05));
#1154=CARTESIAN_POINT('',(-0.0298107033452926,0.0190910922946204,0.05));
#1155=CARTESIAN_POINT('',(-0.0273107033452926,0.0165910922946204,0.05));
#1156=CARTESIAN_POINT('',(-0.0248107033452926,0.0165910922946204,0.05));
#1157=CARTESIAN_POINT('',(-0.0248107033452926,0.0165910922946204,0.05));
#1158=CARTESIAN_POINT('',(-0.0273107033452926,0.0165910922946204,0.05));
#1159=CARTESIAN_POINT('',(-0.0248107033452926,0.0190910922946204,0.05));
#1160=CARTESIAN_POINT('',(-0.0248107033452926,0.0190910922946204,0.05));
#1161=CARTESIAN_POINT('',(0.0356892966547075,0.00359109229462038,0.05));
#1162=CARTESIAN_POINT('',(0.0331892966547074,0.00359109229462038,0.05));
#1163=CARTESIAN_POINT('',(0.0331892966547074,0.00359109229462038,0.05));
#1164=CARTESIAN_POINT('',(0.0356892966547075,0.00359109229462038,0.05));
#1165=CARTESIAN_POINT('',(0.0381892966547074,0.00359109229462038,0.05));
#1166=CARTESIAN_POINT('',(0.0381892966547074,0.00359109229462038,0.05));
#1167=CARTESIAN_POINT('',(0.0331892966547074,0.00109109229462038,0.05));
#1168=CARTESIAN_POINT('',(0.0331892966547074,-0.00140890770537962,0.05));
#1169=CARTESIAN_POINT('',(0.0331892966547074,-0.00140890770537962,0.05));
#1170=CARTESIAN_POINT('',(0.0331892966547074,0.00109109229462038,0.05));
#1171=CARTESIAN_POINT('',(0.0356892966547075,-0.00140890770537962,0.05));
#1172=CARTESIAN_POINT('',(0.0381892966547074,-0.00140890770537962,0.05));
#1173=CARTESIAN_POINT('',(0.0381892966547074,-0.00140890770537962,0.05));
#1174=CARTESIAN_POINT('',(0.0356892966547075,-0.00140890770537962,0.05));
#1175=CARTESIAN_POINT('',(0.0381892966547074,0.00109109229462038,0.05));
#1176=CARTESIAN_POINT('',(0.0381892966547074,0.00109109229462038,0.05));
#1177=CARTESIAN_POINT('',(0.0356892966547075,0.0215910922946204,0.05));
#1178=CARTESIAN_POINT('',(0.0331892966547074,0.0215910922946204,0.05));
#1179=CARTESIAN_POINT('',(0.0331892966547074,0.0215910922946204,0.05));
#1180=CARTESIAN_POINT('',(0.0356892966547075,0.0215910922946204,0.05));
#1181=CARTESIAN_POINT('',(0.0381892966547074,0.0215910922946204,0.05));
#1182=CARTESIAN_POINT('',(0.0381892966547074,0.0215910922946204,0.05));
#1183=CARTESIAN_POINT('',(0.0331892966547074,0.0190910922946204,0.05));
#1184=CARTESIAN_POINT('',(0.0331892966547074,0.0165910922946204,0.05));
#1185=CARTESIAN_POINT('',(0.0331892966547074,0.0165910922946204,0.05));
#1186=CARTESIAN_POINT('',(0.0331892966547074,0.0190910922946204,0.05));
#1187=CARTESIAN_POINT('',(0.0356892966547075,0.0165910922946204,0.05));
#1188=CARTESIAN_POINT('',(0.0381892966547074,0.0165910922946204,0.05));
#1189=CARTESIAN_POINT('',(0.0381892966547074,0.0165910922946204,0.05));
#1190=CARTESIAN_POINT('',(0.0356892966547075,0.0165910922946204,0.05));
#1191=CARTESIAN_POINT('',(0.0381892966547074,0.0190910922946204,0.05));
#1192=CARTESIAN_POINT('',(0.0381892966547074,0.0190910922946204,0.05));
#1193=CARTESIAN_POINT('',(-0.0273107033452926,0.00359109229462038,0.05));
#1194=CARTESIAN_POINT('',(-0.0298107033452926,0.00359109229462038,0.05));
#1195=CARTESIAN_POINT('',(-0.0298107033452926,0.00359109229462038,0.05));
#1196=CARTESIAN_POINT('',(-0.0273107033452926,0.00359109229462038,0.05));
#1197=CARTESIAN_POINT('',(-0.0248107033452926,0.00359109229462038,0.05));
#1198=CARTESIAN_POINT('',(-0.0248107033452926,0.00359109229462038,0.05));
#1199=CARTESIAN_POINT('',(-0.0298107033452926,0.00109109229462038,0.05));
#1200=CARTESIAN_POINT('',(-0.0298107033452926,-0.00140890770537962,0.05));
#1201=CARTESIAN_POINT('',(-0.0298107033452926,-0.00140890770537962,0.05));
#1202=CARTESIAN_POINT('',(-0.0298107033452926,0.00109109229462038,0.05));
#1203=CARTESIAN_POINT('',(-0.0273107033452926,-0.00140890770537962,0.05));
#1204=CARTESIAN_POINT('',(-0.0248107033452926,-0.00140890770537962,0.05));
#1205=CARTESIAN_POINT('',(-0.0248107033452926,-0.00140890770537962,0.05));
#1206=CARTESIAN_POINT('',(-0.0273107033452926,-0.00140890770537962,0.05));
#1207=CARTESIAN_POINT('',(-0.0248107033452926,0.00109109229462038,0.05));
#1208=CARTESIAN_POINT('',(-0.0248107033452926,0.00109109229462038,0.05));
#1209=CARTESIAN_POINT('',(0.00411809608340263,0.0226495694369078,0.053));
#1210=CARTESIAN_POINT('',(0.00411809608340263,0.0226495694369078,0.05));
#1211=CARTESIAN_POINT('',(-0.0308503620326519,0.0226495694369078,0.05));
#1212=CARTESIAN_POINT('',(0.0390865541994571,0.0226495694369078,0.05));
#1213=CARTESIAN_POINT('',(-0.0308503620326519,0.0226495694369078,0.053));
#1214=CARTESIAN_POINT('',(0.0390865541994571,0.0226495694369078,0.053));
#1215=CARTESIAN_POINT('',(-0.0308503620326519,0.0101153829600662,0.053));
#1216=CARTESIAN_POINT('',(-0.0308503620326519,0.0101153829600662,0.05));
#1217=CARTESIAN_POINT('',(-0.0308503620326519,-0.00241880351677537,0.05));
#1218=CARTESIAN_POINT('',(-0.0308503620326519,-0.00241880351677537,0.053));
#1219=CARTESIAN_POINT('',(0.00411809608340263,-0.00241880351677537,0.053));
#1220=CARTESIAN_POINT('',(0.00411809608340263,-0.00241880351677537,0.05));
#1221=CARTESIAN_POINT('',(0.0390865541994571,-0.00241880351677537,0.05));
#1222=CARTESIAN_POINT('',(0.0390865541994571,-0.00241880351677537,0.053));
#1223=CARTESIAN_POINT('',(0.0390865541994571,0.0101153829600662,0.053));
#1224=CARTESIAN_POINT('',(0.0390865541994571,0.0101153829600662,0.05));
#1225=CARTESIAN_POINT('',(0.00411809608340263,0.0101153829600662,0.05));
#1226=CARTESIAN_POINT('',(0.00416946731102777,0.0206495694369077,0.054));
#1227=CARTESIAN_POINT('',(-0.0288503620326519,0.0206495694369077,0.054));
#1228=CARTESIAN_POINT('',(-0.0288503620326519,0.0206495694369077,0.054));
#1229=CARTESIAN_POINT('',(0.00416946731102777,0.0206495694369077,0.054));
#1230=CARTESIAN_POINT('',(0.0371892966547074,0.0206495694369077,0.054));
#1231=CARTESIAN_POINT('',(0.0371892966547074,0.0206495694369077,0.054));
#1232=CARTESIAN_POINT('',(-0.0288503620326519,0.0101153829600662,0.054));
#1233=CARTESIAN_POINT('',(-0.0288503620326519,-0.000418803516775369,0.054));
#1234=CARTESIAN_POINT('',(-0.0288503620326519,-0.000418803516775369,0.054));
#1235=CARTESIAN_POINT('',(-0.0288503620326519,0.0101153829600662,0.054));
#1236=CARTESIAN_POINT('',(0.00416946731102777,-0.000418803516775369,0.054));
#1237=CARTESIAN_POINT('',(0.0371892966547074,-0.000418803516775368,0.054));
#1238=CARTESIAN_POINT('',(0.0371892966547074,-0.000418803516775368,0.054));
#1239=CARTESIAN_POINT('',(0.00416946731102777,-0.000418803516775369,0.054));
#1240=CARTESIAN_POINT('',(0.0371892966547074,0.0101153829600662,0.054));
#1241=CARTESIAN_POINT('',(0.0371892966547074,0.0101153829600662,0.054));
#1242=CARTESIAN_POINT('',(0.00411809608340263,0.0101153829600662,0.054));
#1243=MECHANICAL_DESIGN_GEOMETRIC_PRESENTATION_REPRESENTATION('',(#672,
#605,#606,#607,#608,#609,#610,#611,#612,#613,#614,#615,#616,#617,#618,#619,
#620,#621,#622,#623,#624,#625,#626,#627,#628,#629,#630,#631,#632,#633,#634,
#635,#636,#637),#1244);
#1244=(
GEOMETRIC_REPRESENTATION_CONTEXT(3)
GLOBAL_UNCERTAINTY_ASSIGNED_CONTEXT((#1245))
GLOBAL_UNIT_ASSIGNED_CONTEXT((#1248,#1247,#1246))
REPRESENTATION_CONTEXT('Part 1','TOP_LEVEL_ASSEMBLY_PART')
);
#1245=UNCERTAINTY_MEASURE_WITH_UNIT(LENGTH_MEASURE(1.E-8),#1248,
'DISTANCE_ACCURACY_VALUE','Maximum Tolerance applied to model');
#1246=(
NAMED_UNIT(*)
SI_UNIT($,.STERADIAN.)
SOLID_ANGLE_UNIT()
);
#1247=(
NAMED_UNIT(*)
PLANE_ANGLE_UNIT()
SI_UNIT($,.RADIAN.)
);
#1248=(
LENGTH_UNIT()
NAMED_UNIT(*)
SI_UNIT($,.METRE.)
);
#1249=PRODUCT_DEFINITION_SHAPE('','',#1250);
#1250=PRODUCT_DEFINITION('','',#1252,#1251);
#1251=PRODUCT_DEFINITION_CONTEXT('',#1258,'design');
#1252=PRODUCT_DEFINITION_FORMATION_WITH_SPECIFIED_SOURCE('','',#1254,
 .NOT_KNOWN.);
#1253=PRODUCT_RELATED_PRODUCT_CATEGORY('','',(#1254));
#1254=PRODUCT('Part 1','Part 1','Part 1',(#1256));
#1255=PRODUCT_CATEGORY('','');
#1256=PRODUCT_CONTEXT('',#1258,'mechanical');
#1257=APPLICATION_PROTOCOL_DEFINITION('international standard',
'ap242_managed_model_based_3d_engineering',2020,#1258);
#1258=APPLICATION_CONTEXT('managed model based 3d engineering');
ENDSEC;
END-ISO-10303-21;
