ISO-10303-21;
HEADER;
/* Generated by software containing ST-Developer
 * from STEP Tools, Inc. (www.steptools.com) 
 */
/* OPTION: using custom renumber hook */

FILE_DESCRIPTION(
/* description */ ('STEP AP242 Edition 2',
'CAx-IF Rec.Pracs.---Representation and Presentation of Product Manufa
cturing Information (PMI)---4.0---2014-10-13',
'CAx-IF Rec.Pracs.---3D Tessellated Geometry---0.4---2014-09-14','2;1',
'CAx-IF Rec.Pracs.---User Defined Attributes---1.5---2016-08-15'),
/* implementation_level */ '2;1');

FILE_NAME(
/* name */ 'Mug',
/* time_stamp */ '2026-09-03T13:06:44Z',
/* author */ (''),
/* organization */ (''),
/* preprocessor_version */ 'ST-DEVELOPER v20',
/* originating_system */ 'ONSHAPE BY PTC INC, 1.220',
/* authorisation */ '  ');

FILE_SCHEMA (('AP242_MANAGED_MODEL_BASED_3D_ENGINEERING_MIM_LF { 1 0 10303 442 3 1 4 }'));
ENDSEC;

DATA;
#10=SHAPE_REPRESENTATION_RELATIONSHIP('','',#178,#11);
#11=ADVANCED_BREP_SHAPE_REPRESENTATION('',(#176),#260);
#12=TOROIDAL_SURFACE('',#189,0.0024,0.0001);
#13=TOROIDAL_SURFACE('',#190,0.0023,0.0001);
#14=PLANE('',#183);
#15=PLANE('',#191);
#16=PLANE('',#195);
#17=PLANE('',#196);
#18=ORIENTED_EDGE('',*,*,#34,.T.);
#19=ORIENTED_EDGE('',*,*,#35,.T.);
#20=ORIENTED_EDGE('',*,*,#36,.T.);
#21=ORIENTED_EDGE('',*,*,#37,.T.);
#22=ORIENTED_EDGE('',*,*,#38,.F.);
#23=ORIENTED_EDGE('',*,*,#39,.T.);
#24=ORIENTED_EDGE('',*,*,#35,.F.);
#25=ORIENTED_EDGE('',*,*,#36,.F.);
#26=ORIENTED_EDGE('',*,*,#37,.F.);
#27=ORIENTED_EDGE('',*,*,#39,.F.);
#28=ORIENTED_EDGE('',*,*,#38,.T.);
#29=ORIENTED_EDGE('',*,*,#40,.F.);
#30=ORIENTED_EDGE('',*,*,#41,.T.);
#31=ORIENTED_EDGE('',*,*,#34,.F.);
#32=ORIENTED_EDGE('',*,*,#40,.T.);
#33=ORIENTED_EDGE('',*,*,#41,.F.);
#34=EDGE_CURVE('',#42,#42,#50,.T.);
#35=EDGE_CURVE('',#43,#43,#51,.F.);
#36=EDGE_CURVE('',#44,#44,#52,.T.);
#37=EDGE_CURVE('',#45,#45,#53,.F.);
#38=EDGE_CURVE('',#46,#46,#54,.T.);
#39=EDGE_CURVE('',#47,#47,#55,.T.);
#40=EDGE_CURVE('',#48,#48,#56,.T.);
#41=EDGE_CURVE('',#49,#49,#57,.T.);
#42=VERTEX_POINT('',#236);
#43=VERTEX_POINT('',#238);
#44=VERTEX_POINT('',#241);
#45=VERTEX_POINT('',#243);
#46=VERTEX_POINT('',#246);
#47=VERTEX_POINT('',#248);
#48=VERTEX_POINT('',#254);
#49=VERTEX_POINT('',#256);
#50=CIRCLE('',#181,0.0025);
#51=CIRCLE('',#182,0.0025);
#52=CIRCLE('',#184,0.0024);
#53=CIRCLE('',#185,0.0023);
#54=CIRCLE('',#187,0.0022);
#55=CIRCLE('',#188,0.0022);
#56=CIRCLE('',#193,0.00258672896040945);
#57=CIRCLE('',#194,0.00258672896040945);
#58=EDGE_LOOP('',(#18));
#59=EDGE_LOOP('',(#19));
#60=EDGE_LOOP('',(#20));
#61=EDGE_LOOP('',(#21));
#62=EDGE_LOOP('',(#22));
#63=EDGE_LOOP('',(#23));
#64=EDGE_LOOP('',(#24));
#65=EDGE_LOOP('',(#25));
#66=EDGE_LOOP('',(#26));
#67=EDGE_LOOP('',(#27));
#68=EDGE_LOOP('',(#28));
#69=EDGE_LOOP('',(#29));
#70=EDGE_LOOP('',(#30));
#71=EDGE_LOOP('',(#31));
#72=EDGE_LOOP('',(#32));
#73=EDGE_LOOP('',(#33));
#74=FACE_BOUND('',#58,.T.);
#75=FACE_BOUND('',#59,.T.);
#76=FACE_BOUND('',#60,.T.);
#77=FACE_BOUND('',#61,.T.);
#78=FACE_BOUND('',#62,.T.);
#79=FACE_BOUND('',#63,.T.);
#80=FACE_BOUND('',#64,.T.);
#81=FACE_BOUND('',#65,.T.);
#82=FACE_BOUND('',#66,.T.);
#83=FACE_BOUND('',#67,.T.);
#84=FACE_BOUND('',#68,.T.);
#85=FACE_BOUND('',#69,.T.);
#86=FACE_BOUND('',#70,.T.);
#87=FACE_BOUND('',#71,.T.);
#88=FACE_BOUND('',#72,.T.);
#89=FACE_BOUND('',#73,.T.);
#90=CYLINDRICAL_SURFACE('',#180,0.0025);
#91=CYLINDRICAL_SURFACE('',#186,0.0022);
#92=CYLINDRICAL_SURFACE('',#192,0.00258672896040945);
#93=OVER_RIDING_STYLED_ITEM('',(#114),#102,#112);
#94=OVER_RIDING_STYLED_ITEM('',(#115),#103,#112);
#95=OVER_RIDING_STYLED_ITEM('',(#116),#104,#112);
#96=OVER_RIDING_STYLED_ITEM('',(#117),#105,#112);
#97=OVER_RIDING_STYLED_ITEM('',(#118),#106,#112);
#98=OVER_RIDING_STYLED_ITEM('',(#119),#107,#112);
#99=OVER_RIDING_STYLED_ITEM('',(#120),#108,#112);
#100=OVER_RIDING_STYLED_ITEM('',(#121),#109,#112);
#101=OVER_RIDING_STYLED_ITEM('',(#122),#110,#112);
#102=ADVANCED_FACE('Face appearance 2',(#74,#75),#90,.T.);
#103=ADVANCED_FACE('Face appearance 2',(#76,#77),#14,.T.);
#104=ADVANCED_FACE('Face appearance 2',(#78,#79),#91,.F.);
#105=ADVANCED_FACE('Face appearance 2',(#80,#81),#12,.T.);
#106=ADVANCED_FACE('Face appearance 2',(#82,#83),#13,.T.);
#107=ADVANCED_FACE('Face appearance 2',(#84),#15,.T.);
#108=ADVANCED_FACE('Face appearance 1',(#85,#86),#92,.T.);
#109=ADVANCED_FACE('Face appearance 1',(#87,#88),#16,.T.);
#110=ADVANCED_FACE('Face appearance 1',(#89),#17,.F.);
#111=CLOSED_SHELL('',(#102,#103,#104,#105,#106,#107,#108,#109,#110));
#112=STYLED_ITEM('',(#113),#176);
#113=PRESENTATION_STYLE_ASSIGNMENT((#123));
#114=PRESENTATION_STYLE_ASSIGNMENT((#124));
#115=PRESENTATION_STYLE_ASSIGNMENT((#125));
#116=PRESENTATION_STYLE_ASSIGNMENT((#126));
#117=PRESENTATION_STYLE_ASSIGNMENT((#127));
#118=PRESENTATION_STYLE_ASSIGNMENT((#128));
#119=PRESENTATION_STYLE_ASSIGNMENT((#129));
#120=PRESENTATION_STYLE_ASSIGNMENT((#130));
#121=PRESENTATION_STYLE_ASSIGNMENT((#131));
#122=PRESENTATION_STYLE_ASSIGNMENT((#132));
#123=SURFACE_STYLE_USAGE(.BOTH.,#133);
#124=SURFACE_STYLE_USAGE(.BOTH.,#134);
#125=SURFACE_STYLE_USAGE(.BOTH.,#135);
#126=SURFACE_STYLE_USAGE(.BOTH.,#136);
#127=SURFACE_STYLE_USAGE(.BOTH.,#137);
#128=SURFACE_STYLE_USAGE(.BOTH.,#138);
#129=SURFACE_STYLE_USAGE(.BOTH.,#139);
#130=SURFACE_STYLE_USAGE(.BOTH.,#140);
#131=SURFACE_STYLE_USAGE(.BOTH.,#141);
#132=SURFACE_STYLE_USAGE(.BOTH.,#142);
#133=SURFACE_SIDE_STYLE('',(#143));
#134=SURFACE_SIDE_STYLE('',(#144));
#135=SURFACE_SIDE_STYLE('',(#145));
#136=SURFACE_SIDE_STYLE('',(#146));
#137=SURFACE_SIDE_STYLE('',(#147));
#138=SURFACE_SIDE_STYLE('',(#148));
#139=SURFACE_SIDE_STYLE('',(#149));
#140=SURFACE_SIDE_STYLE('',(#150));
#141=SURFACE_SIDE_STYLE('',(#151));
#142=SURFACE_SIDE_STYLE('',(#152));
#143=SURFACE_STYLE_FILL_AREA(#153);
#144=SURFACE_STYLE_FILL_AREA(#154);
#145=SURFACE_STYLE_FILL_AREA(#155);
#146=SURFACE_STYLE_FILL_AREA(#156);
#147=SURFACE_STYLE_FILL_AREA(#157);
#148=SURFACE_STYLE_FILL_AREA(#158);
#149=SURFACE_STYLE_FILL_AREA(#159);
#150=SURFACE_STYLE_FILL_AREA(#160);
#151=SURFACE_STYLE_FILL_AREA(#161);
#152=SURFACE_STYLE_FILL_AREA(#162);
#153=FILL_AREA_STYLE('',(#163));
#154=FILL_AREA_STYLE('',(#164));
#155=FILL_AREA_STYLE('',(#165));
#156=FILL_AREA_STYLE('',(#166));
#157=FILL_AREA_STYLE('',(#167));
#158=FILL_AREA_STYLE('',(#168));
#159=FILL_AREA_STYLE('',(#169));
#160=FILL_AREA_STYLE('',(#170));
#161=FILL_AREA_STYLE('',(#171));
#162=FILL_AREA_STYLE('',(#172));
#163=FILL_AREA_STYLE_COLOUR('',#173);
#164=FILL_AREA_STYLE_COLOUR('',#174);
#165=FILL_AREA_STYLE_COLOUR('',#174);
#166=FILL_AREA_STYLE_COLOUR('',#174);
#167=FILL_AREA_STYLE_COLOUR('',#174);
#168=FILL_AREA_STYLE_COLOUR('',#174);
#169=FILL_AREA_STYLE_COLOUR('',#174);
#170=FILL_AREA_STYLE_COLOUR('',#175);
#171=FILL_AREA_STYLE_COLOUR('',#175);
#172=FILL_AREA_STYLE_COLOUR('',#175);
#173=COLOUR_RGB('',0.615686274509804,0.811764705882353,0.929411764705882);
#174=COLOUR_RGB('',0.796078431372549,0.905882352941176,0.745098039215686);
#175=COLOUR_RGB('',0.952941176470588,0.901960784313726,0.756862745098039);
#176=MANIFOLD_SOLID_BREP('Part 1',#111);
#177=SHAPE_DEFINITION_REPRESENTATION(#265,#178);
#178=SHAPE_REPRESENTATION('Part 1',(#179),#260);
#179=AXIS2_PLACEMENT_3D('',#233,#197,#198);
#180=AXIS2_PLACEMENT_3D('',#234,#199,#200);
#181=AXIS2_PLACEMENT_3D('',#235,#201,#202);
#182=AXIS2_PLACEMENT_3D('',#237,#203,#204);
#183=AXIS2_PLACEMENT_3D('',#239,#205,#206);
#184=AXIS2_PLACEMENT_3D('',#240,#207,#208);
#185=AXIS2_PLACEMENT_3D('',#242,#209,#210);
#186=AXIS2_PLACEMENT_3D('',#244,#211,#212);
#187=AXIS2_PLACEMENT_3D('',#245,#213,#214);
#188=AXIS2_PLACEMENT_3D('',#247,#215,#216);
#189=AXIS2_PLACEMENT_3D('',#249,#217,#218);
#190=AXIS2_PLACEMENT_3D('',#250,#219,#220);
#191=AXIS2_PLACEMENT_3D('',#251,#221,#222);
#192=AXIS2_PLACEMENT_3D('',#252,#223,#224);
#193=AXIS2_PLACEMENT_3D('',#253,#225,#226);
#194=AXIS2_PLACEMENT_3D('',#255,#227,#228);
#195=AXIS2_PLACEMENT_3D('',#257,#229,#230);
#196=AXIS2_PLACEMENT_3D('',#258,#231,#232);
#197=DIRECTION('',(0.,0.,1.));
#198=DIRECTION('',(1.,0.,0.));
#199=DIRECTION('',(0.,0.,-1.));
#200=DIRECTION('',(-1.,0.,0.));
#201=DIRECTION('',(0.,0.,1.));
#202=DIRECTION('',(1.,0.,0.));
#203=DIRECTION('',(0.,0.,1.));
#204=DIRECTION('',(1.,0.,0.));
#205=DIRECTION('',(0.,0.,1.));
#206=DIRECTION('',(1.,0.,0.));
#207=DIRECTION('',(0.,0.,1.));
#208=DIRECTION('',(1.,0.,0.));
#209=DIRECTION('',(0.,0.,1.));
#210=DIRECTION('',(1.,0.,0.));
#211=DIRECTION('',(0.,0.,-1.));
#212=DIRECTION('',(-1.,0.,0.));
#213=DIRECTION('',(0.,0.,1.));
#214=DIRECTION('',(1.,0.,0.));
#215=DIRECTION('',(0.,0.,1.));
#216=DIRECTION('',(1.,0.,0.));
#217=DIRECTION('',(0.,0.,1.));
#218=DIRECTION('',(1.,0.,0.));
#219=DIRECTION('',(0.,0.,1.));
#220=DIRECTION('',(1.,0.,0.));
#221=DIRECTION('',(0.,0.,1.));
#222=DIRECTION('',(1.,0.,0.));
#223=DIRECTION('',(0.,0.,-1.));
#224=DIRECTION('',(-1.,0.,0.));
#225=DIRECTION('',(0.,0.,1.));
#226=DIRECTION('',(1.,0.,0.));
#227=DIRECTION('',(0.,0.,1.));
#228=DIRECTION('',(1.,0.,0.));
#229=DIRECTION('',(0.,0.,1.));
#230=DIRECTION('',(1.,0.,0.));
#231=DIRECTION('',(0.,0.,1.));
#232=DIRECTION('',(1.,0.,0.));
#233=CARTESIAN_POINT('',(0.,0.,0.));
#234=CARTESIAN_POINT('',(-0.0315972268581391,0.0327638909220695,0.005));
#235=CARTESIAN_POINT('',(-0.0315972268581391,0.0327638909220695,0.002));
#236=CARTESIAN_POINT('',(-0.0290972268581391,0.0327638909220695,0.002));
#237=CARTESIAN_POINT('',(-0.0315972268581391,0.0327638909220695,0.0049));
#238=CARTESIAN_POINT('',(-0.0290972268581391,0.0327638909220695,0.0049));
#239=CARTESIAN_POINT('',(-0.0315972268581391,0.0327638909220695,0.005));
#240=CARTESIAN_POINT('',(-0.0315972268581391,0.0327638909220695,0.005));
#241=CARTESIAN_POINT('',(-0.0291972268581391,0.0327638909220695,0.005));
#242=CARTESIAN_POINT('',(-0.0315972268581391,0.0327638909220695,0.005));
#243=CARTESIAN_POINT('',(-0.0292972268581391,0.0327638909220695,0.005));
#244=CARTESIAN_POINT('',(-0.0315972268581391,0.0327638909220695,0.005));
#245=CARTESIAN_POINT('',(-0.0315972268581391,0.0327638909220695,0.002));
#246=CARTESIAN_POINT('',(-0.0293972268581391,0.0327638909220695,0.002));
#247=CARTESIAN_POINT('',(-0.0315972268581391,0.0327638909220695,0.0049));
#248=CARTESIAN_POINT('',(-0.0293972268581391,0.0327638909220695,0.0049));
#249=CARTESIAN_POINT('',(-0.0315972268581391,0.0327638909220695,0.0049));
#250=CARTESIAN_POINT('',(-0.0315972268581391,0.0327638909220695,0.0049));
#251=CARTESIAN_POINT('',(-0.0315972268581391,0.0327638909220695,0.002));
#252=CARTESIAN_POINT('',(-0.0315972268581391,0.0327638909220695,0.002));
#253=CARTESIAN_POINT('',(-0.0315972268581391,0.0327638909220695,0.002));
#254=CARTESIAN_POINT('',(-0.0290104978977296,0.0327638909220695,0.002));
#255=CARTESIAN_POINT('',(-0.0315972268581391,0.0327638909220695,0.));
#256=CARTESIAN_POINT('',(-0.0290104978977296,0.0327638909220695,0.));
#257=CARTESIAN_POINT('',(-0.0315972268581391,0.0327638909220695,0.002));
#258=CARTESIAN_POINT('',(-0.0315972268581391,0.0327638909220695,0.));
#259=MECHANICAL_DESIGN_GEOMETRIC_PRESENTATION_REPRESENTATION('',(#112,#93,
#94,#95,#96,#97,#98,#99,#100,#101),#260);
#260=(
GEOMETRIC_REPRESENTATION_CONTEXT(3)
GLOBAL_UNCERTAINTY_ASSIGNED_CONTEXT((#261))
GLOBAL_UNIT_ASSIGNED_CONTEXT((#264,#263,#262))
REPRESENTATION_CONTEXT('Part 1','TOP_LEVEL_ASSEMBLY_PART')
);
#261=UNCERTAINTY_MEASURE_WITH_UNIT(LENGTH_MEASURE(1.E-8),#264,
'DISTANCE_ACCURACY_VALUE','Maximum Tolerance applied to model');
#262=(
NAMED_UNIT(*)
SI_UNIT($,.STERADIAN.)
SOLID_ANGLE_UNIT()
);
#263=(
NAMED_UNIT(*)
PLANE_ANGLE_UNIT()
SI_UNIT($,.RADIAN.)
);
#264=(
LENGTH_UNIT()
NAMED_UNIT(*)
SI_UNIT($,.METRE.)
);
#265=PRODUCT_DEFINITION_SHAPE('','',#266);
#266=PRODUCT_DEFINITION('','',#268,#267);
#267=PRODUCT_DEFINITION_CONTEXT('',#274,'design');
#268=PRODUCT_DEFINITION_FORMATION_WITH_SPECIFIED_SOURCE('','',#270,
 .NOT_KNOWN.);
#269=PRODUCT_RELATED_PRODUCT_CATEGORY('','',(#270));
#270=PRODUCT('Part 1','Part 1','Part 1',(#272));
#271=PRODUCT_CATEGORY('','');
#272=PRODUCT_CONTEXT('',#274,'mechanical');
#273=APPLICATION_PROTOCOL_DEFINITION('international standard',
'ap242_managed_model_based_3d_engineering',2020,#274);
#274=APPLICATION_CONTEXT('managed model based 3d engineering');
ENDSEC;
END-ISO-10303-21;
