ISO-10303-21;
HEADER;
/* Generated by software containing ST-Developer
 * from STEP Tools, Inc. (www.steptools.com) 
 */
/* OPTION: using custom renumber hook */

FILE_DESCRIPTION(
/* description */ ('STEP AP242 Edition 2',
'CAx-IF Rec.Pracs.---Representation and Presentation of Product Manufa
cturing Information (PMI)---4.0---2014-10-13',
'CAx-IF Rec.Pracs.---3D Tessellated Geometry---0.4---2014-09-14','2;1',
'CAx-IF Rec.Pracs.---User Defined Attributes---1.5---2016-08-15'),
/* implementation_level */ '2;1');

FILE_NAME(
/* name */ 'Photo Frame1',
/* time_stamp */ '2026-09-03T13:05:10Z',
/* author */ (''),
/* organization */ (''),
/* preprocessor_version */ 'ST-DEVELOPER v20',
/* originating_system */ 'ONSHAPE BY PTC INC, 1.220',
/* authorisation */ '  ');

FILE_SCHEMA (('AP242_MANAGED_MODEL_BASED_3D_ENGINEERING_MIM_LF { 1 0 10303 442 3 1 4 }'));
ENDSEC;

DATA;
#10=SHAPE_REPRESENTATION_RELATIONSHIP('','',#381,#11);
#11=ADVANCED_BREP_SHAPE_REPRESENTATION('',(#379),#551);
#12=ELLIPSE('',#397,0.00339411254969543,0.0024);
#13=ELLIPSE('',#398,0.00339411254969543,0.0024);
#14=ELLIPSE('',#400,0.00339411254969543,0.0024);
#15=ELLIPSE('',#402,0.00339411254969543,0.0024);
#16=CYLINDRICAL_SURFACE('',#396,0.0024);
#17=CYLINDRICAL_SURFACE('',#399,0.0024);
#18=CYLINDRICAL_SURFACE('',#401,0.0024);
#19=CYLINDRICAL_SURFACE('',#403,0.0024);
#20=CIRCLE('',#391,0.0024);
#21=CIRCLE('',#394,0.0024);
#22=ORIENTED_EDGE('',*,*,#92,.T.);
#23=ORIENTED_EDGE('',*,*,#93,.T.);
#24=ORIENTED_EDGE('',*,*,#94,.T.);
#25=ORIENTED_EDGE('',*,*,#95,.F.);
#26=ORIENTED_EDGE('',*,*,#96,.F.);
#27=ORIENTED_EDGE('',*,*,#97,.T.);
#28=ORIENTED_EDGE('',*,*,#98,.T.);
#29=ORIENTED_EDGE('',*,*,#99,.T.);
#30=ORIENTED_EDGE('',*,*,#100,.F.);
#31=ORIENTED_EDGE('',*,*,#101,.T.);
#32=ORIENTED_EDGE('',*,*,#102,.T.);
#33=ORIENTED_EDGE('',*,*,#103,.F.);
#34=ORIENTED_EDGE('',*,*,#104,.F.);
#35=ORIENTED_EDGE('',*,*,#105,.T.);
#36=ORIENTED_EDGE('',*,*,#100,.T.);
#37=ORIENTED_EDGE('',*,*,#106,.T.);
#38=ORIENTED_EDGE('',*,*,#107,.F.);
#39=ORIENTED_EDGE('',*,*,#108,.T.);
#40=ORIENTED_EDGE('',*,*,#104,.T.);
#41=ORIENTED_EDGE('',*,*,#109,.T.);
#42=ORIENTED_EDGE('',*,*,#102,.F.);
#43=ORIENTED_EDGE('',*,*,#110,.T.);
#44=ORIENTED_EDGE('',*,*,#107,.T.);
#45=ORIENTED_EDGE('',*,*,#111,.F.);
#46=ORIENTED_EDGE('',*,*,#103,.T.);
#47=ORIENTED_EDGE('',*,*,#111,.T.);
#48=ORIENTED_EDGE('',*,*,#109,.F.);
#49=ORIENTED_EDGE('',*,*,#106,.F.);
#50=ORIENTED_EDGE('',*,*,#112,.T.);
#51=ORIENTED_EDGE('',*,*,#113,.T.);
#52=ORIENTED_EDGE('',*,*,#114,.F.);
#53=ORIENTED_EDGE('',*,*,#115,.T.);
#54=ORIENTED_EDGE('',*,*,#114,.T.);
#55=ORIENTED_EDGE('',*,*,#116,.T.);
#56=ORIENTED_EDGE('',*,*,#96,.T.);
#57=ORIENTED_EDGE('',*,*,#117,.F.);
#58=ORIENTED_EDGE('',*,*,#118,.F.);
#59=ORIENTED_EDGE('',*,*,#95,.T.);
#60=ORIENTED_EDGE('',*,*,#119,.F.);
#61=ORIENTED_EDGE('',*,*,#120,.F.);
#62=ORIENTED_EDGE('',*,*,#117,.T.);
#63=ORIENTED_EDGE('',*,*,#94,.F.);
#64=ORIENTED_EDGE('',*,*,#121,.T.);
#65=ORIENTED_EDGE('',*,*,#112,.F.);
#66=ORIENTED_EDGE('',*,*,#122,.T.);
#67=ORIENTED_EDGE('',*,*,#119,.T.);
#68=ORIENTED_EDGE('',*,*,#115,.F.);
#69=ORIENTED_EDGE('',*,*,#118,.T.);
#70=ORIENTED_EDGE('',*,*,#120,.T.);
#71=ORIENTED_EDGE('',*,*,#122,.F.);
#72=ORIENTED_EDGE('',*,*,#123,.F.);
#73=ORIENTED_EDGE('',*,*,#101,.F.);
#74=ORIENTED_EDGE('',*,*,#124,.F.);
#75=ORIENTED_EDGE('',*,*,#97,.F.);
#76=ORIENTED_EDGE('',*,*,#116,.F.);
#77=ORIENTED_EDGE('',*,*,#113,.F.);
#78=ORIENTED_EDGE('',*,*,#121,.F.);
#79=ORIENTED_EDGE('',*,*,#93,.F.);
#80=ORIENTED_EDGE('',*,*,#124,.T.);
#81=ORIENTED_EDGE('',*,*,#105,.F.);
#82=ORIENTED_EDGE('',*,*,#125,.F.);
#83=ORIENTED_EDGE('',*,*,#98,.F.);
#84=ORIENTED_EDGE('',*,*,#123,.T.);
#85=ORIENTED_EDGE('',*,*,#92,.F.);
#86=ORIENTED_EDGE('',*,*,#126,.F.);
#87=ORIENTED_EDGE('',*,*,#110,.F.);
#88=ORIENTED_EDGE('',*,*,#125,.T.);
#89=ORIENTED_EDGE('',*,*,#108,.F.);
#90=ORIENTED_EDGE('',*,*,#126,.T.);
#91=ORIENTED_EDGE('',*,*,#99,.F.);
#92=EDGE_CURVE('',#127,#128,#149,.F.);
#93=EDGE_CURVE('',#128,#129,#150,.F.);
#94=EDGE_CURVE('',#129,#130,#151,.T.);
#95=EDGE_CURVE('',#131,#130,#152,.T.);
#96=EDGE_CURVE('',#132,#131,#153,.T.);
#97=EDGE_CURVE('',#132,#133,#154,.F.);
#98=EDGE_CURVE('',#133,#134,#155,.T.);
#99=EDGE_CURVE('',#134,#127,#156,.T.);
#100=EDGE_CURVE('',#135,#136,#157,.T.);
#101=EDGE_CURVE('',#135,#137,#158,.T.);
#102=EDGE_CURVE('',#137,#138,#159,.T.);
#103=EDGE_CURVE('',#136,#138,#160,.T.);
#104=EDGE_CURVE('',#139,#140,#161,.T.);
#105=EDGE_CURVE('',#139,#135,#162,.F.);
#106=EDGE_CURVE('',#136,#140,#163,.T.);
#107=EDGE_CURVE('',#141,#142,#164,.T.);
#108=EDGE_CURVE('',#141,#139,#165,.F.);
#109=EDGE_CURVE('',#140,#142,#166,.T.);
#110=EDGE_CURVE('',#137,#141,#167,.T.);
#111=EDGE_CURVE('',#138,#142,#168,.T.);
#112=EDGE_CURVE('',#143,#144,#169,.T.);
#113=EDGE_CURVE('',#144,#145,#170,.F.);
#114=EDGE_CURVE('',#146,#145,#171,.T.);
#115=EDGE_CURVE('',#146,#143,#172,.T.);
#116=EDGE_CURVE('',#145,#132,#20,.T.);
#117=EDGE_CURVE('',#147,#131,#173,.T.);
#118=EDGE_CURVE('',#146,#147,#174,.T.);
#119=EDGE_CURVE('',#148,#130,#175,.T.);
#120=EDGE_CURVE('',#147,#148,#176,.T.);
#121=EDGE_CURVE('',#129,#144,#21,.F.);
#122=EDGE_CURVE('',#143,#148,#177,.T.);
#123=EDGE_CURVE('',#137,#128,#12,.T.);
#124=EDGE_CURVE('',#133,#135,#13,.F.);
#125=EDGE_CURVE('',#134,#139,#14,.F.);
#126=EDGE_CURVE('',#141,#127,#15,.T.);
#127=VERTEX_POINT('',#480);
#128=VERTEX_POINT('',#481);
#129=VERTEX_POINT('',#483);
#130=VERTEX_POINT('',#485);
#131=VERTEX_POINT('',#487);
#132=VERTEX_POINT('',#489);
#133=VERTEX_POINT('',#491);
#134=VERTEX_POINT('',#493);
#135=VERTEX_POINT('',#497);
#136=VERTEX_POINT('',#498);
#137=VERTEX_POINT('',#500);
#138=VERTEX_POINT('',#502);
#139=VERTEX_POINT('',#506);
#140=VERTEX_POINT('',#507);
#141=VERTEX_POINT('',#512);
#142=VERTEX_POINT('',#513);
#143=VERTEX_POINT('',#522);
#144=VERTEX_POINT('',#523);
#145=VERTEX_POINT('',#525);
#146=VERTEX_POINT('',#527);
#147=VERTEX_POINT('',#532);
#148=VERTEX_POINT('',#536);
#149=LINE('',#479,#178);
#150=LINE('',#482,#179);
#151=LINE('',#484,#180);
#152=LINE('',#486,#181);
#153=LINE('',#488,#182);
#154=LINE('',#490,#183);
#155=LINE('',#492,#184);
#156=LINE('',#494,#185);
#157=LINE('',#496,#186);
#158=LINE('',#499,#187);
#159=LINE('',#501,#188);
#160=LINE('',#503,#189);
#161=LINE('',#505,#190);
#162=LINE('',#508,#191);
#163=LINE('',#509,#192);
#164=LINE('',#511,#193);
#165=LINE('',#514,#194);
#166=LINE('',#515,#195);
#167=LINE('',#517,#196);
#168=LINE('',#518,#197);
#169=LINE('',#521,#198);
#170=LINE('',#524,#199);
#171=LINE('',#526,#200);
#172=LINE('',#528,#201);
#173=LINE('',#531,#202);
#174=LINE('',#533,#203);
#175=LINE('',#535,#204);
#176=LINE('',#537,#205);
#177=LINE('',#540,#206);
#178=VECTOR('',#408,1.);
#179=VECTOR('',#409,1.);
#180=VECTOR('',#410,1.);
#181=VECTOR('',#411,1.);
#182=VECTOR('',#412,1.);
#183=VECTOR('',#413,1.);
#184=VECTOR('',#414,1.);
#185=VECTOR('',#415,1.);
#186=VECTOR('',#418,1.);
#187=VECTOR('',#419,1.);
#188=VECTOR('',#420,1.);
#189=VECTOR('',#421,1.);
#190=VECTOR('',#424,1.);
#191=VECTOR('',#425,1.);
#192=VECTOR('',#426,1.);
#193=VECTOR('',#429,1.);
#194=VECTOR('',#430,1.);
#195=VECTOR('',#431,1.);
#196=VECTOR('',#434,1.);
#197=VECTOR('',#435,1.);
#198=VECTOR('',#440,1.);
#199=VECTOR('',#441,1.);
#200=VECTOR('',#442,1.);
#201=VECTOR('',#443,1.);
#202=VECTOR('',#448,1.);
#203=VECTOR('',#449,1.);
#204=VECTOR('',#452,1.);
#205=VECTOR('',#453,1.);
#206=VECTOR('',#458,1.);
#207=EDGE_LOOP('',(#22,#23,#24,#25,#26,#27,#28,#29));
#208=EDGE_LOOP('',(#30,#31,#32,#33));
#209=EDGE_LOOP('',(#34,#35,#36,#37));
#210=EDGE_LOOP('',(#38,#39,#40,#41));
#211=EDGE_LOOP('',(#42,#43,#44,#45));
#212=EDGE_LOOP('',(#46,#47,#48,#49));
#213=EDGE_LOOP('',(#50,#51,#52,#53));
#214=EDGE_LOOP('',(#54,#55,#56,#57,#58));
#215=EDGE_LOOP('',(#59,#60,#61,#62));
#216=EDGE_LOOP('',(#63,#64,#65,#66,#67));
#217=EDGE_LOOP('',(#68,#69,#70,#71));
#218=EDGE_LOOP('',(#72,#73,#74,#75,#76,#77,#78,#79));
#219=EDGE_LOOP('',(#80,#81,#82,#83));
#220=EDGE_LOOP('',(#84,#85,#86,#87));
#221=EDGE_LOOP('',(#88,#89,#90,#91));
#222=FACE_BOUND('',#207,.T.);
#223=FACE_BOUND('',#208,.T.);
#224=FACE_BOUND('',#209,.T.);
#225=FACE_BOUND('',#210,.T.);
#226=FACE_BOUND('',#211,.T.);
#227=FACE_BOUND('',#212,.T.);
#228=FACE_BOUND('',#213,.T.);
#229=FACE_BOUND('',#214,.T.);
#230=FACE_BOUND('',#215,.T.);
#231=FACE_BOUND('',#216,.T.);
#232=FACE_BOUND('',#217,.T.);
#233=FACE_BOUND('',#218,.T.);
#234=FACE_BOUND('',#219,.T.);
#235=FACE_BOUND('',#220,.T.);
#236=FACE_BOUND('',#221,.T.);
#237=PLANE('',#383);
#238=PLANE('',#384);
#239=PLANE('',#385);
#240=PLANE('',#386);
#241=PLANE('',#387);
#242=PLANE('',#388);
#243=PLANE('',#389);
#244=PLANE('',#390);
#245=PLANE('',#392);
#246=PLANE('',#393);
#247=PLANE('',#395);
#248=OVER_RIDING_STYLED_ITEM('',(#281),#263,#279);
#249=OVER_RIDING_STYLED_ITEM('',(#282),#264,#279);
#250=OVER_RIDING_STYLED_ITEM('',(#283),#265,#279);
#251=OVER_RIDING_STYLED_ITEM('',(#284),#266,#279);
#252=OVER_RIDING_STYLED_ITEM('',(#285),#267,#279);
#253=OVER_RIDING_STYLED_ITEM('',(#286),#268,#279);
#254=OVER_RIDING_STYLED_ITEM('',(#287),#269,#279);
#255=OVER_RIDING_STYLED_ITEM('',(#288),#270,#279);
#256=OVER_RIDING_STYLED_ITEM('',(#289),#271,#279);
#257=OVER_RIDING_STYLED_ITEM('',(#290),#272,#279);
#258=OVER_RIDING_STYLED_ITEM('',(#291),#273,#279);
#259=OVER_RIDING_STYLED_ITEM('',(#292),#274,#279);
#260=OVER_RIDING_STYLED_ITEM('',(#293),#275,#279);
#261=OVER_RIDING_STYLED_ITEM('',(#294),#276,#279);
#262=OVER_RIDING_STYLED_ITEM('',(#295),#277,#279);
#263=ADVANCED_FACE('Face appearance 1',(#222),#237,.T.);
#264=ADVANCED_FACE('Face appearance 1',(#223),#238,.T.);
#265=ADVANCED_FACE('Face appearance 1',(#224),#239,.F.);
#266=ADVANCED_FACE('Face appearance 1',(#225),#240,.F.);
#267=ADVANCED_FACE('Face appearance 1',(#226),#241,.T.);
#268=ADVANCED_FACE('Face appearance 1',(#227),#242,.F.);
#269=ADVANCED_FACE('Face appearance 2',(#228),#243,.T.);
#270=ADVANCED_FACE('Face appearance 2',(#229),#244,.F.);
#271=ADVANCED_FACE('Face appearance 2',(#230),#245,.F.);
#272=ADVANCED_FACE('Face appearance 2',(#231),#246,.T.);
#273=ADVANCED_FACE('Face appearance 2',(#232),#247,.T.);
#274=ADVANCED_FACE('Face appearance 1',(#233),#16,.T.);
#275=ADVANCED_FACE('Face appearance 1',(#234),#17,.T.);
#276=ADVANCED_FACE('Face appearance 1',(#235),#18,.T.);
#277=ADVANCED_FACE('Face appearance 1',(#236),#19,.T.);
#278=CLOSED_SHELL('',(#263,#264,#265,#266,#267,#268,#269,#270,#271,#272,
#273,#274,#275,#276,#277));
#279=STYLED_ITEM('',(#280),#379);
#280=PRESENTATION_STYLE_ASSIGNMENT((#296));
#281=PRESENTATION_STYLE_ASSIGNMENT((#297));
#282=PRESENTATION_STYLE_ASSIGNMENT((#298));
#283=PRESENTATION_STYLE_ASSIGNMENT((#299));
#284=PRESENTATION_STYLE_ASSIGNMENT((#300));
#285=PRESENTATION_STYLE_ASSIGNMENT((#301));
#286=PRESENTATION_STYLE_ASSIGNMENT((#302));
#287=PRESENTATION_STYLE_ASSIGNMENT((#303));
#288=PRESENTATION_STYLE_ASSIGNMENT((#304));
#289=PRESENTATION_STYLE_ASSIGNMENT((#305));
#290=PRESENTATION_STYLE_ASSIGNMENT((#306));
#291=PRESENTATION_STYLE_ASSIGNMENT((#307));
#292=PRESENTATION_STYLE_ASSIGNMENT((#308));
#293=PRESENTATION_STYLE_ASSIGNMENT((#309));
#294=PRESENTATION_STYLE_ASSIGNMENT((#310));
#295=PRESENTATION_STYLE_ASSIGNMENT((#311));
#296=SURFACE_STYLE_USAGE(.BOTH.,#312);
#297=SURFACE_STYLE_USAGE(.BOTH.,#313);
#298=SURFACE_STYLE_USAGE(.BOTH.,#314);
#299=SURFACE_STYLE_USAGE(.BOTH.,#315);
#300=SURFACE_STYLE_USAGE(.BOTH.,#316);
#301=SURFACE_STYLE_USAGE(.BOTH.,#317);
#302=SURFACE_STYLE_USAGE(.BOTH.,#318);
#303=SURFACE_STYLE_USAGE(.BOTH.,#319);
#304=SURFACE_STYLE_USAGE(.BOTH.,#320);
#305=SURFACE_STYLE_USAGE(.BOTH.,#321);
#306=SURFACE_STYLE_USAGE(.BOTH.,#322);
#307=SURFACE_STYLE_USAGE(.BOTH.,#323);
#308=SURFACE_STYLE_USAGE(.BOTH.,#324);
#309=SURFACE_STYLE_USAGE(.BOTH.,#325);
#310=SURFACE_STYLE_USAGE(.BOTH.,#326);
#311=SURFACE_STYLE_USAGE(.BOTH.,#327);
#312=SURFACE_SIDE_STYLE('',(#328));
#313=SURFACE_SIDE_STYLE('',(#329));
#314=SURFACE_SIDE_STYLE('',(#330));
#315=SURFACE_SIDE_STYLE('',(#331));
#316=SURFACE_SIDE_STYLE('',(#332));
#317=SURFACE_SIDE_STYLE('',(#333));
#318=SURFACE_SIDE_STYLE('',(#334));
#319=SURFACE_SIDE_STYLE('',(#335));
#320=SURFACE_SIDE_STYLE('',(#336));
#321=SURFACE_SIDE_STYLE('',(#337));
#322=SURFACE_SIDE_STYLE('',(#338));
#323=SURFACE_SIDE_STYLE('',(#339));
#324=SURFACE_SIDE_STYLE('',(#340));
#325=SURFACE_SIDE_STYLE('',(#341));
#326=SURFACE_SIDE_STYLE('',(#342));
#327=SURFACE_SIDE_STYLE('',(#343));
#328=SURFACE_STYLE_FILL_AREA(#344);
#329=SURFACE_STYLE_FILL_AREA(#345);
#330=SURFACE_STYLE_FILL_AREA(#346);
#331=SURFACE_STYLE_FILL_AREA(#347);
#332=SURFACE_STYLE_FILL_AREA(#348);
#333=SURFACE_STYLE_FILL_AREA(#349);
#334=SURFACE_STYLE_FILL_AREA(#350);
#335=SURFACE_STYLE_FILL_AREA(#351);
#336=SURFACE_STYLE_FILL_AREA(#352);
#337=SURFACE_STYLE_FILL_AREA(#353);
#338=SURFACE_STYLE_FILL_AREA(#354);
#339=SURFACE_STYLE_FILL_AREA(#355);
#340=SURFACE_STYLE_FILL_AREA(#356);
#341=SURFACE_STYLE_FILL_AREA(#357);
#342=SURFACE_STYLE_FILL_AREA(#358);
#343=SURFACE_STYLE_FILL_AREA(#359);
#344=FILL_AREA_STYLE('',(#360));
#345=FILL_AREA_STYLE('',(#361));
#346=FILL_AREA_STYLE('',(#362));
#347=FILL_AREA_STYLE('',(#363));
#348=FILL_AREA_STYLE('',(#364));
#349=FILL_AREA_STYLE('',(#365));
#350=FILL_AREA_STYLE('',(#366));
#351=FILL_AREA_STYLE('',(#367));
#352=FILL_AREA_STYLE('',(#368));
#353=FILL_AREA_STYLE('',(#369));
#354=FILL_AREA_STYLE('',(#370));
#355=FILL_AREA_STYLE('',(#371));
#356=FILL_AREA_STYLE('',(#372));
#357=FILL_AREA_STYLE('',(#373));
#358=FILL_AREA_STYLE('',(#374));
#359=FILL_AREA_STYLE('',(#375));
#360=FILL_AREA_STYLE_COLOUR('',#376);
#361=FILL_AREA_STYLE_COLOUR('',#377);
#362=FILL_AREA_STYLE_COLOUR('',#377);
#363=FILL_AREA_STYLE_COLOUR('',#377);
#364=FILL_AREA_STYLE_COLOUR('',#377);
#365=FILL_AREA_STYLE_COLOUR('',#377);
#366=FILL_AREA_STYLE_COLOUR('',#377);
#367=FILL_AREA_STYLE_COLOUR('',#378);
#368=FILL_AREA_STYLE_COLOUR('',#378);
#369=FILL_AREA_STYLE_COLOUR('',#378);
#370=FILL_AREA_STYLE_COLOUR('',#378);
#371=FILL_AREA_STYLE_COLOUR('',#378);
#372=FILL_AREA_STYLE_COLOUR('',#377);
#373=FILL_AREA_STYLE_COLOUR('',#377);
#374=FILL_AREA_STYLE_COLOUR('',#377);
#375=FILL_AREA_STYLE_COLOUR('',#377);
#376=COLOUR_RGB('',0.615686274509804,0.811764705882353,0.929411764705882);
#377=COLOUR_RGB('',0.698039215686275,0.752941176470588,0.4);
#378=COLOUR_RGB('',0.901960784313726,0.87843137254902,0.811764705882353);
#379=MANIFOLD_SOLID_BREP('Part 1',#278);
#380=SHAPE_DEFINITION_REPRESENTATION(#556,#381);
#381=SHAPE_REPRESENTATION('Part 1',(#382),#551);
#382=AXIS2_PLACEMENT_3D('',#477,#404,#405);
#383=AXIS2_PLACEMENT_3D('',#478,#406,#407);
#384=AXIS2_PLACEMENT_3D('',#495,#416,#417);
#385=AXIS2_PLACEMENT_3D('',#504,#422,#423);
#386=AXIS2_PLACEMENT_3D('',#510,#427,#428);
#387=AXIS2_PLACEMENT_3D('',#516,#432,#433);
#388=AXIS2_PLACEMENT_3D('',#519,#436,#437);
#389=AXIS2_PLACEMENT_3D('',#520,#438,#439);
#390=AXIS2_PLACEMENT_3D('',#529,#444,#445);
#391=AXIS2_PLACEMENT_3D('',#530,#446,#447);
#392=AXIS2_PLACEMENT_3D('',#534,#450,#451);
#393=AXIS2_PLACEMENT_3D('',#538,#454,#455);
#394=AXIS2_PLACEMENT_3D('',#539,#456,#457);
#395=AXIS2_PLACEMENT_3D('',#541,#459,#460);
#396=AXIS2_PLACEMENT_3D('',#542,#461,#462);
#397=AXIS2_PLACEMENT_3D('',#543,#463,#464);
#398=AXIS2_PLACEMENT_3D('',#544,#465,#466);
#399=AXIS2_PLACEMENT_3D('',#545,#467,#468);
#400=AXIS2_PLACEMENT_3D('',#546,#469,#470);
#401=AXIS2_PLACEMENT_3D('',#547,#471,#472);
#402=AXIS2_PLACEMENT_3D('',#548,#473,#474);
#403=AXIS2_PLACEMENT_3D('',#549,#475,#476);
#404=DIRECTION('',(0.,0.,1.));
#405=DIRECTION('',(1.,0.,0.));
#406=DIRECTION('',(0.,0.,1.));
#407=DIRECTION('',(1.,0.,0.));
#408=DIRECTION('',(0.,-1.,0.));
#409=DIRECTION('',(1.,0.,0.));
#410=DIRECTION('',(0.,-1.,0.));
#411=DIRECTION('',(1.,0.,0.));
#412=DIRECTION('',(0.,-1.,0.));
#413=DIRECTION('',(1.,0.,0.));
#414=DIRECTION('',(0.,-1.,0.));
#415=DIRECTION('',(1.,0.,0.));
#416=DIRECTION('',(0.,1.,0.));
#417=DIRECTION('',(0.,0.,1.));
#418=DIRECTION('',(0.,0.,-1.));
#419=DIRECTION('',(1.,0.,0.));
#420=DIRECTION('',(0.,0.,-1.));
#421=DIRECTION('',(1.,0.,0.));
#422=DIRECTION('',(1.,0.,0.));
#423=DIRECTION('',(0.,0.,-1.));
#424=DIRECTION('',(0.,0.,-1.));
#425=DIRECTION('',(0.,-1.,0.));
#426=DIRECTION('',(0.,-1.,0.));
#427=DIRECTION('',(0.,1.,0.));
#428=DIRECTION('',(0.,0.,1.));
#429=DIRECTION('',(0.,0.,-1.));
#430=DIRECTION('',(1.,0.,0.));
#431=DIRECTION('',(1.,0.,0.));
#432=DIRECTION('',(1.,0.,0.));
#433=DIRECTION('',(0.,0.,-1.));
#434=DIRECTION('',(0.,-1.,0.));
#435=DIRECTION('',(0.,-1.,0.));
#436=DIRECTION('',(0.,0.,1.));
#437=DIRECTION('',(1.,0.,0.));
#438=DIRECTION('',(0.,1.,0.));
#439=DIRECTION('',(0.,0.,1.));
#440=DIRECTION('',(0.,0.,-1.));
#441=DIRECTION('',(1.,0.,0.));
#442=DIRECTION('',(0.,0.,-1.));
#443=DIRECTION('',(1.,0.,0.));
#444=DIRECTION('',(1.,0.,0.));
#445=DIRECTION('',(0.,0.,-1.));
#446=DIRECTION('',(1.,0.,0.));
#447=DIRECTION('',(0.,0.,-1.));
#448=DIRECTION('',(0.,0.,-1.));
#449=DIRECTION('',(0.,-1.,0.));
#450=DIRECTION('',(0.,1.,0.));
#451=DIRECTION('',(0.,0.,1.));
#452=DIRECTION('',(0.,0.,-1.));
#453=DIRECTION('',(1.,0.,0.));
#454=DIRECTION('',(1.,0.,0.));
#455=DIRECTION('',(0.,0.,-1.));
#456=DIRECTION('',(1.,0.,0.));
#457=DIRECTION('',(0.,0.,-1.));
#458=DIRECTION('',(0.,-1.,0.));
#459=DIRECTION('',(0.,0.,1.));
#460=DIRECTION('',(1.,0.,0.));
#461=DIRECTION('',(1.,0.,0.));
#462=DIRECTION('',(0.,0.,-1.));
#463=DIRECTION('',(0.707106781186548,-0.707106781186548,0.));
#464=DIRECTION('',(0.707106781186548,0.707106781186548,0.));
#465=DIRECTION('',(0.707106781186548,0.707106781186548,0.));
#466=DIRECTION('',(-0.707106781186548,0.707106781186548,0.));
#467=DIRECTION('',(0.,1.,0.));
#468=DIRECTION('',(0.,0.,1.));
#469=DIRECTION('',(-0.707106781186548,0.707106781186548,0.));
#470=DIRECTION('',(0.707106781186548,0.707106781186548,0.));
#471=DIRECTION('',(0.,-1.,0.));
#472=DIRECTION('',(0.,0.,-1.));
#473=DIRECTION('',(-0.707106781186548,-0.707106781186548,0.));
#474=DIRECTION('',(0.707106781186548,-0.707106781186548,0.));
#475=DIRECTION('',(-1.,0.,0.));
#476=DIRECTION('',(0.,0.,1.));
#477=CARTESIAN_POINT('',(0.,0.,0.));
#478=CARTESIAN_POINT('',(-0.01,0.015,0.0025));
#479=CARTESIAN_POINT('',(-0.0024,0.015,0.0025));
#480=CARTESIAN_POINT('',(-0.0024,0.0024,0.0025));
#481=CARTESIAN_POINT('',(-0.0024,0.0276,0.0025));
#482=CARTESIAN_POINT('',(-0.01,0.0276,0.0025));
#483=CARTESIAN_POINT('',(-0.00251389231532812,0.0276,0.0025));
#484=CARTESIAN_POINT('',(-0.00251389231532812,0.0151189032610158,0.0025));
#485=CARTESIAN_POINT('',(-0.00251389231532812,0.00261890326101573,0.0025));
#486=CARTESIAN_POINT('',(-0.0100138923153281,0.00261890326101573,0.0025));
#487=CARTESIAN_POINT('',(-0.0175138923153281,0.00261890326101573,0.0025));
#488=CARTESIAN_POINT('',(-0.0175138923153281,0.0151189032610158,0.0025));
#489=CARTESIAN_POINT('',(-0.0175138923153281,0.0276,0.0025));
#490=CARTESIAN_POINT('',(-0.01,0.0276,0.0025));
#491=CARTESIAN_POINT('',(-0.0176,0.0276,0.0025));
#492=CARTESIAN_POINT('',(-0.0176,0.,0.0025));
#493=CARTESIAN_POINT('',(-0.0176,0.0024,0.0025));
#494=CARTESIAN_POINT('',(0.,0.0024,0.0025));
#495=CARTESIAN_POINT('',(-0.01,0.03,0.0025));
#496=CARTESIAN_POINT('',(-0.02,0.03,0.0025));
#497=CARTESIAN_POINT('',(-0.02,0.03,0.0001));
#498=CARTESIAN_POINT('',(-0.02,0.03,0.));
#499=CARTESIAN_POINT('',(-0.01,0.03,0.0001));
#500=CARTESIAN_POINT('',(0.,0.03,0.0001));
#501=CARTESIAN_POINT('',(0.,0.03,0.0025));
#502=CARTESIAN_POINT('',(0.,0.03,0.));
#503=CARTESIAN_POINT('',(-0.01,0.03,0.));
#504=CARTESIAN_POINT('',(-0.02,0.015,0.0025));
#505=CARTESIAN_POINT('',(-0.02,0.,0.0025));
#506=CARTESIAN_POINT('',(-0.02,0.,0.0001));
#507=CARTESIAN_POINT('',(-0.02,0.,0.));
#508=CARTESIAN_POINT('',(-0.02,0.03,0.0001));
#509=CARTESIAN_POINT('',(-0.02,0.015,0.));
#510=CARTESIAN_POINT('',(-0.01,0.,0.0025));
#511=CARTESIAN_POINT('',(0.,0.,0.0025));
#512=CARTESIAN_POINT('',(0.,0.,0.0001));
#513=CARTESIAN_POINT('',(0.,0.,0.));
#514=CARTESIAN_POINT('',(-0.02,0.,0.0001));
#515=CARTESIAN_POINT('',(-0.01,0.,0.));
#516=CARTESIAN_POINT('',(0.,0.015,0.0025));
#517=CARTESIAN_POINT('',(0.,0.015,0.0001));
#518=CARTESIAN_POINT('',(0.,0.015,0.));
#519=CARTESIAN_POINT('',(-0.01,0.015,0.));
#520=CARTESIAN_POINT('',(-0.0100138923153281,0.0276189032610158,0.0035));
#521=CARTESIAN_POINT('',(-0.00251389231532812,0.0276189032610158,0.0035));
#522=CARTESIAN_POINT('',(-0.00251389231532812,0.0276189032610158,0.0035));
#523=CARTESIAN_POINT('',(-0.00251389231532812,0.0276189032610158,0.00249992555441267));
#524=CARTESIAN_POINT('',(-0.00251389231532812,0.0276189032610158,0.00249992555441267));
#525=CARTESIAN_POINT('',(-0.0175138923153281,0.0276189032610158,0.00249992555441267));
#526=CARTESIAN_POINT('',(-0.0175138923153281,0.0276189032610158,0.0035));
#527=CARTESIAN_POINT('',(-0.0175138923153281,0.0276189032610158,0.0035));
#528=CARTESIAN_POINT('',(-0.0100138923153281,0.0276189032610158,0.0035));
#529=CARTESIAN_POINT('',(-0.0175138923153281,0.0151189032610158,0.0035));
#530=CARTESIAN_POINT('',(-0.0175138923153281,0.0276,0.0001));
#531=CARTESIAN_POINT('',(-0.0175138923153281,0.00261890326101573,0.0035));
#532=CARTESIAN_POINT('',(-0.0175138923153281,0.00261890326101573,0.0035));
#533=CARTESIAN_POINT('',(-0.0175138923153281,0.0151189032610158,0.0035));
#534=CARTESIAN_POINT('',(-0.0100138923153281,0.00261890326101573,0.0035));
#535=CARTESIAN_POINT('',(-0.00251389231532812,0.00261890326101573,0.0035));
#536=CARTESIAN_POINT('',(-0.00251389231532812,0.00261890326101573,0.0035));
#537=CARTESIAN_POINT('',(-0.0100138923153281,0.00261890326101573,0.0035));
#538=CARTESIAN_POINT('',(-0.00251389231532812,0.0151189032610158,0.0035));
#539=CARTESIAN_POINT('',(-0.00251389231532812,0.0276,0.0001));
#540=CARTESIAN_POINT('',(-0.00251389231532812,0.0151189032610158,0.0035));
#541=CARTESIAN_POINT('',(-0.01,0.015,0.0035));
#542=CARTESIAN_POINT('',(-0.01,0.0276,0.0001));
#543=CARTESIAN_POINT('',(-0.0024,0.0276,0.0001));
#544=CARTESIAN_POINT('',(-0.0176,0.0276,0.0001));
#545=CARTESIAN_POINT('',(-0.0176,0.015,0.0001));
#546=CARTESIAN_POINT('',(-0.0176,0.0024,0.0001));
#547=CARTESIAN_POINT('',(-0.0024,0.015,0.0001));
#548=CARTESIAN_POINT('',(-0.0024,0.0024,0.0001));
#549=CARTESIAN_POINT('',(-0.01,0.0024,0.0001));
#550=MECHANICAL_DESIGN_GEOMETRIC_PRESENTATION_REPRESENTATION('',(#279,#248,
#249,#250,#251,#252,#253,#254,#255,#256,#257,#258,#259,#260,#261,#262),
#551);
#551=(
GEOMETRIC_REPRESENTATION_CONTEXT(3)
GLOBAL_UNCERTAINTY_ASSIGNED_CONTEXT((#552))
GLOBAL_UNIT_ASSIGNED_CONTEXT((#555,#554,#553))
REPRESENTATION_CONTEXT('Part 1','TOP_LEVEL_ASSEMBLY_PART')
);
#552=UNCERTAINTY_MEASURE_WITH_UNIT(LENGTH_MEASURE(1.E-8),#555,
'DISTANCE_ACCURACY_VALUE','Maximum Tolerance applied to model');
#553=(
NAMED_UNIT(*)
SI_UNIT($,.STERADIAN.)
SOLID_ANGLE_UNIT()
);
#554=(
NAMED_UNIT(*)
PLANE_ANGLE_UNIT()
SI_UNIT($,.RADIAN.)
);
#555=(
LENGTH_UNIT()
NAMED_UNIT(*)
SI_UNIT($,.METRE.)
);
#556=PRODUCT_DEFINITION_SHAPE('','',#557);
#557=PRODUCT_DEFINITION('','',#559,#558);
#558=PRODUCT_DEFINITION_CONTEXT('',#565,'design');
#559=PRODUCT_DEFINITION_FORMATION_WITH_SPECIFIED_SOURCE('','',#561,
 .NOT_KNOWN.);
#560=PRODUCT_RELATED_PRODUCT_CATEGORY('','',(#561));
#561=PRODUCT('Part 1','Part 1','Part 1',(#563));
#562=PRODUCT_CATEGORY('','');
#563=PRODUCT_CONTEXT('',#565,'mechanical');
#564=APPLICATION_PROTOCOL_DEFINITION('international standard',
'ap242_managed_model_based_3d_engineering',2020,#565);
#565=APPLICATION_CONTEXT('managed model based 3d engineering');
ENDSEC;
END-ISO-10303-21;
