ISO-10303-21;
HEADER;
/* Generated by software containing ST-Developer
 * from STEP Tools, Inc. (www.steptools.com) 
 */
/* OPTION: using custom renumber hook */

FILE_DESCRIPTION(
/* description */ ('STEP AP242 Edition 2',
'CAx-IF Rec.Pracs.---Representation and Presentation of Product Manufa
cturing Information (PMI)---4.0---2014-10-13',
'CAx-IF Rec.Pracs.---3D Tessellated Geometry---0.4---2014-09-14','2;1',
'CAx-IF Rec.Pracs.---User Defined Attributes---1.5---2016-08-15'),
/* implementation_level */ '2;1');

FILE_NAME(
/* name */ 'Rounded Bookshelf',
/* time_stamp */ '2026-09-03T13:00:55Z',
/* author */ (''),
/* organization */ (''),
/* preprocessor_version */ 'ST-DEVELOPER v20',
/* originating_system */ 'ONSHAPE BY PTC INC, 1.220',
/* authorisation */ '  ');

FILE_SCHEMA (('AP242_MANAGED_MODEL_BASED_3D_ENGINEERING_MIM_LF { 1 0 10303 442 3 1 4 }'));
ENDSEC;

DATA;
#10=SHAPE_REPRESENTATION_RELATIONSHIP('','',#1154,#11);
#11=ADVANCED_BREP_SHAPE_REPRESENTATION('',(#1152),#1704);
#12=SPHERICAL_SURFACE('',#1183,0.005);
#13=SPHERICAL_SURFACE('',#1187,0.005);
#14=SPHERICAL_SURFACE('',#1200,0.005);
#15=SPHERICAL_SURFACE('',#1202,0.005);
#16=SPHERICAL_SURFACE('',#1208,0.005);
#17=SPHERICAL_SURFACE('',#1210,0.005);
#18=SPHERICAL_SURFACE('',#1216,0.005);
#19=SPHERICAL_SURFACE('',#1220,0.005);
#20=CYLINDRICAL_SURFACE('',#1177,0.005);
#21=CYLINDRICAL_SURFACE('',#1180,0.005);
#22=CYLINDRICAL_SURFACE('',#1185,0.005);
#23=CYLINDRICAL_SURFACE('',#1190,0.005);
#24=CYLINDRICAL_SURFACE('',#1192,0.005);
#25=CYLINDRICAL_SURFACE('',#1194,0.005);
#26=CYLINDRICAL_SURFACE('',#1197,0.005);
#27=CYLINDRICAL_SURFACE('',#1204,0.005);
#28=CYLINDRICAL_SURFACE('',#1206,0.005);
#29=CYLINDRICAL_SURFACE('',#1212,0.005);
#30=CYLINDRICAL_SURFACE('',#1214,0.005);
#31=CYLINDRICAL_SURFACE('',#1218,0.005);
#32=CYLINDRICAL_SURFACE('',#1222,0.005);
#33=CYLINDRICAL_SURFACE('',#1224,0.005);
#34=CYLINDRICAL_SURFACE('',#1227,0.005);
#35=CYLINDRICAL_SURFACE('',#1230,0.005);
#36=CIRCLE('',#1165,0.005);
#37=CIRCLE('',#1166,0.005);
#38=CIRCLE('',#1172,0.005);
#39=CIRCLE('',#1173,0.005);
#40=CIRCLE('',#1174,0.005);
#41=CIRCLE('',#1175,0.005);
#42=CIRCLE('',#1178,0.005);
#43=CIRCLE('',#1179,0.005);
#44=CIRCLE('',#1181,0.005);
#45=CIRCLE('',#1182,0.005);
#46=CIRCLE('',#1184,0.005);
#47=CIRCLE('',#1186,0.005);
#48=CIRCLE('',#1188,0.005);
#49=CIRCLE('',#1189,0.005);
#50=CIRCLE('',#1191,0.005);
#51=CIRCLE('',#1193,0.005);
#52=CIRCLE('',#1195,0.005);
#53=CIRCLE('',#1196,0.005);
#54=CIRCLE('',#1198,0.005);
#55=CIRCLE('',#1199,0.005);
#56=CIRCLE('',#1201,0.005);
#57=CIRCLE('',#1203,0.005);
#58=CIRCLE('',#1205,0.005);
#59=CIRCLE('',#1207,0.005);
#60=CIRCLE('',#1209,0.005);
#61=CIRCLE('',#1211,0.005);
#62=CIRCLE('',#1213,0.005);
#63=CIRCLE('',#1215,0.005);
#64=CIRCLE('',#1217,0.005);
#65=CIRCLE('',#1219,0.005);
#66=CIRCLE('',#1225,0.005);
#67=CIRCLE('',#1228,0.005);
#68=ORIENTED_EDGE('',*,*,#284,.F.);
#69=ORIENTED_EDGE('',*,*,#285,.T.);
#70=ORIENTED_EDGE('',*,*,#286,.F.);
#71=ORIENTED_EDGE('',*,*,#287,.F.);
#72=ORIENTED_EDGE('',*,*,#288,.T.);
#73=ORIENTED_EDGE('',*,*,#289,.T.);
#74=ORIENTED_EDGE('',*,*,#290,.F.);
#75=ORIENTED_EDGE('',*,*,#291,.F.);
#76=ORIENTED_EDGE('',*,*,#292,.T.);
#77=ORIENTED_EDGE('',*,*,#293,.T.);
#78=ORIENTED_EDGE('',*,*,#294,.F.);
#79=ORIENTED_EDGE('',*,*,#295,.F.);
#80=ORIENTED_EDGE('',*,*,#296,.F.);
#81=ORIENTED_EDGE('',*,*,#297,.T.);
#82=ORIENTED_EDGE('',*,*,#298,.T.);
#83=ORIENTED_EDGE('',*,*,#299,.T.);
#84=ORIENTED_EDGE('',*,*,#300,.F.);
#85=ORIENTED_EDGE('',*,*,#301,.F.);
#86=ORIENTED_EDGE('',*,*,#302,.T.);
#87=ORIENTED_EDGE('',*,*,#303,.T.);
#88=ORIENTED_EDGE('',*,*,#304,.F.);
#89=ORIENTED_EDGE('',*,*,#305,.F.);
#90=ORIENTED_EDGE('',*,*,#306,.T.);
#91=ORIENTED_EDGE('',*,*,#307,.T.);
#92=ORIENTED_EDGE('',*,*,#290,.T.);
#93=ORIENTED_EDGE('',*,*,#308,.T.);
#94=ORIENTED_EDGE('',*,*,#303,.F.);
#95=ORIENTED_EDGE('',*,*,#309,.F.);
#96=ORIENTED_EDGE('',*,*,#294,.T.);
#97=ORIENTED_EDGE('',*,*,#310,.T.);
#98=ORIENTED_EDGE('',*,*,#307,.F.);
#99=ORIENTED_EDGE('',*,*,#311,.F.);
#100=ORIENTED_EDGE('',*,*,#312,.T.);
#101=ORIENTED_EDGE('',*,*,#313,.T.);
#102=ORIENTED_EDGE('',*,*,#314,.F.);
#103=ORIENTED_EDGE('',*,*,#315,.T.);
#104=ORIENTED_EDGE('',*,*,#316,.F.);
#105=ORIENTED_EDGE('',*,*,#317,.T.);
#106=ORIENTED_EDGE('',*,*,#318,.T.);
#107=ORIENTED_EDGE('',*,*,#319,.T.);
#108=ORIENTED_EDGE('',*,*,#320,.T.);
#109=ORIENTED_EDGE('',*,*,#321,.T.);
#110=ORIENTED_EDGE('',*,*,#322,.T.);
#111=ORIENTED_EDGE('',*,*,#323,.T.);
#112=ORIENTED_EDGE('',*,*,#324,.T.);
#113=ORIENTED_EDGE('',*,*,#325,.T.);
#114=ORIENTED_EDGE('',*,*,#326,.T.);
#115=ORIENTED_EDGE('',*,*,#327,.T.);
#116=ORIENTED_EDGE('',*,*,#328,.T.);
#117=ORIENTED_EDGE('',*,*,#329,.T.);
#118=ORIENTED_EDGE('',*,*,#330,.T.);
#119=ORIENTED_EDGE('',*,*,#331,.T.);
#120=ORIENTED_EDGE('',*,*,#332,.T.);
#121=ORIENTED_EDGE('',*,*,#333,.T.);
#122=ORIENTED_EDGE('',*,*,#334,.T.);
#123=ORIENTED_EDGE('',*,*,#296,.T.);
#124=ORIENTED_EDGE('',*,*,#335,.F.);
#125=ORIENTED_EDGE('',*,*,#336,.F.);
#126=ORIENTED_EDGE('',*,*,#337,.F.);
#127=ORIENTED_EDGE('',*,*,#285,.F.);
#128=ORIENTED_EDGE('',*,*,#338,.T.);
#129=ORIENTED_EDGE('',*,*,#301,.T.);
#130=ORIENTED_EDGE('',*,*,#339,.F.);
#131=ORIENTED_EDGE('',*,*,#288,.F.);
#132=ORIENTED_EDGE('',*,*,#340,.T.);
#133=ORIENTED_EDGE('',*,*,#305,.T.);
#134=ORIENTED_EDGE('',*,*,#341,.F.);
#135=ORIENTED_EDGE('',*,*,#292,.F.);
#136=ORIENTED_EDGE('',*,*,#342,.F.);
#137=ORIENTED_EDGE('',*,*,#343,.T.);
#138=ORIENTED_EDGE('',*,*,#344,.F.);
#139=ORIENTED_EDGE('',*,*,#345,.T.);
#140=ORIENTED_EDGE('',*,*,#346,.F.);
#141=ORIENTED_EDGE('',*,*,#347,.F.);
#142=ORIENTED_EDGE('',*,*,#348,.T.);
#143=ORIENTED_EDGE('',*,*,#349,.T.);
#144=ORIENTED_EDGE('',*,*,#350,.T.);
#145=ORIENTED_EDGE('',*,*,#351,.T.);
#146=ORIENTED_EDGE('',*,*,#352,.T.);
#147=ORIENTED_EDGE('',*,*,#353,.T.);
#148=ORIENTED_EDGE('',*,*,#354,.T.);
#149=ORIENTED_EDGE('',*,*,#355,.T.);
#150=ORIENTED_EDGE('',*,*,#324,.F.);
#151=ORIENTED_EDGE('',*,*,#356,.T.);
#152=ORIENTED_EDGE('',*,*,#348,.F.);
#153=ORIENTED_EDGE('',*,*,#357,.T.);
#154=ORIENTED_EDGE('',*,*,#351,.F.);
#155=ORIENTED_EDGE('',*,*,#358,.T.);
#156=ORIENTED_EDGE('',*,*,#318,.F.);
#157=ORIENTED_EDGE('',*,*,#359,.T.);
#158=ORIENTED_EDGE('',*,*,#357,.F.);
#159=ORIENTED_EDGE('',*,*,#359,.F.);
#160=ORIENTED_EDGE('',*,*,#360,.F.);
#161=ORIENTED_EDGE('',*,*,#361,.F.);
#162=ORIENTED_EDGE('',*,*,#325,.F.);
#163=ORIENTED_EDGE('',*,*,#360,.T.);
#164=ORIENTED_EDGE('',*,*,#321,.F.);
#165=ORIENTED_EDGE('',*,*,#362,.F.);
#166=ORIENTED_EDGE('',*,*,#361,.T.);
#167=ORIENTED_EDGE('',*,*,#363,.F.);
#168=ORIENTED_EDGE('',*,*,#320,.F.);
#169=ORIENTED_EDGE('',*,*,#364,.T.);
#170=ORIENTED_EDGE('',*,*,#352,.F.);
#171=ORIENTED_EDGE('',*,*,#363,.T.);
#172=ORIENTED_EDGE('',*,*,#355,.F.);
#173=ORIENTED_EDGE('',*,*,#365,.T.);
#174=ORIENTED_EDGE('',*,*,#322,.F.);
#175=ORIENTED_EDGE('',*,*,#362,.T.);
#176=ORIENTED_EDGE('',*,*,#332,.F.);
#177=ORIENTED_EDGE('',*,*,#366,.T.);
#178=ORIENTED_EDGE('',*,*,#319,.F.);
#179=ORIENTED_EDGE('',*,*,#367,.F.);
#180=ORIENTED_EDGE('',*,*,#323,.F.);
#181=ORIENTED_EDGE('',*,*,#368,.T.);
#182=ORIENTED_EDGE('',*,*,#326,.F.);
#183=ORIENTED_EDGE('',*,*,#369,.F.);
#184=ORIENTED_EDGE('',*,*,#367,.T.);
#185=ORIENTED_EDGE('',*,*,#358,.F.);
#186=ORIENTED_EDGE('',*,*,#370,.F.);
#187=ORIENTED_EDGE('',*,*,#356,.F.);
#188=ORIENTED_EDGE('',*,*,#369,.T.);
#189=ORIENTED_EDGE('',*,*,#371,.F.);
#190=ORIENTED_EDGE('',*,*,#350,.F.);
#191=ORIENTED_EDGE('',*,*,#372,.T.);
#192=ORIENTED_EDGE('',*,*,#333,.F.);
#193=ORIENTED_EDGE('',*,*,#370,.T.);
#194=ORIENTED_EDGE('',*,*,#329,.F.);
#195=ORIENTED_EDGE('',*,*,#373,.T.);
#196=ORIENTED_EDGE('',*,*,#349,.F.);
#197=ORIENTED_EDGE('',*,*,#371,.T.);
#198=ORIENTED_EDGE('',*,*,#368,.F.);
#199=ORIENTED_EDGE('',*,*,#365,.F.);
#200=ORIENTED_EDGE('',*,*,#374,.F.);
#201=ORIENTED_EDGE('',*,*,#372,.F.);
#202=ORIENTED_EDGE('',*,*,#373,.F.);
#203=ORIENTED_EDGE('',*,*,#375,.F.);
#204=ORIENTED_EDGE('',*,*,#374,.T.);
#205=ORIENTED_EDGE('',*,*,#354,.F.);
#206=ORIENTED_EDGE('',*,*,#376,.F.);
#207=ORIENTED_EDGE('',*,*,#327,.F.);
#208=ORIENTED_EDGE('',*,*,#375,.T.);
#209=ORIENTED_EDGE('',*,*,#328,.F.);
#210=ORIENTED_EDGE('',*,*,#377,.F.);
#211=ORIENTED_EDGE('',*,*,#330,.F.);
#212=ORIENTED_EDGE('',*,*,#377,.T.);
#213=ORIENTED_EDGE('',*,*,#376,.T.);
#214=ORIENTED_EDGE('',*,*,#378,.F.);
#215=ORIENTED_EDGE('',*,*,#378,.T.);
#216=ORIENTED_EDGE('',*,*,#353,.F.);
#217=ORIENTED_EDGE('',*,*,#379,.F.);
#218=ORIENTED_EDGE('',*,*,#331,.F.);
#219=ORIENTED_EDGE('',*,*,#379,.T.);
#220=ORIENTED_EDGE('',*,*,#364,.F.);
#221=ORIENTED_EDGE('',*,*,#366,.F.);
#222=ORIENTED_EDGE('',*,*,#343,.F.);
#223=ORIENTED_EDGE('',*,*,#380,.F.);
#224=ORIENTED_EDGE('',*,*,#316,.T.);
#225=ORIENTED_EDGE('',*,*,#381,.T.);
#226=ORIENTED_EDGE('',*,*,#342,.T.);
#227=ORIENTED_EDGE('',*,*,#382,.F.);
#228=ORIENTED_EDGE('',*,*,#317,.F.);
#229=ORIENTED_EDGE('',*,*,#380,.T.);
#230=ORIENTED_EDGE('',*,*,#347,.T.);
#231=ORIENTED_EDGE('',*,*,#383,.T.);
#232=ORIENTED_EDGE('',*,*,#312,.F.);
#233=ORIENTED_EDGE('',*,*,#382,.T.);
#234=ORIENTED_EDGE('',*,*,#337,.T.);
#235=ORIENTED_EDGE('',*,*,#384,.F.);
#236=ORIENTED_EDGE('',*,*,#385,.F.);
#237=ORIENTED_EDGE('',*,*,#286,.T.);
#238=ORIENTED_EDGE('',*,*,#336,.T.);
#239=ORIENTED_EDGE('',*,*,#386,.F.);
#240=ORIENTED_EDGE('',*,*,#387,.F.);
#241=ORIENTED_EDGE('',*,*,#384,.T.);
#242=ORIENTED_EDGE('',*,*,#335,.T.);
#243=ORIENTED_EDGE('',*,*,#299,.F.);
#244=ORIENTED_EDGE('',*,*,#388,.F.);
#245=ORIENTED_EDGE('',*,*,#386,.T.);
#246=ORIENTED_EDGE('',*,*,#389,.F.);
#247=ORIENTED_EDGE('',*,*,#345,.F.);
#248=ORIENTED_EDGE('',*,*,#390,.F.);
#249=ORIENTED_EDGE('',*,*,#314,.T.);
#250=ORIENTED_EDGE('',*,*,#344,.T.);
#251=ORIENTED_EDGE('',*,*,#381,.F.);
#252=ORIENTED_EDGE('',*,*,#315,.F.);
#253=ORIENTED_EDGE('',*,*,#390,.T.);
#254=ORIENTED_EDGE('',*,*,#391,.F.);
#255=ORIENTED_EDGE('',*,*,#287,.T.);
#256=ORIENTED_EDGE('',*,*,#385,.T.);
#257=ORIENTED_EDGE('',*,*,#387,.T.);
#258=ORIENTED_EDGE('',*,*,#388,.T.);
#259=ORIENTED_EDGE('',*,*,#298,.F.);
#260=ORIENTED_EDGE('',*,*,#313,.F.);
#261=ORIENTED_EDGE('',*,*,#383,.F.);
#262=ORIENTED_EDGE('',*,*,#346,.T.);
#263=ORIENTED_EDGE('',*,*,#389,.T.);
#264=ORIENTED_EDGE('',*,*,#311,.T.);
#265=ORIENTED_EDGE('',*,*,#306,.F.);
#266=ORIENTED_EDGE('',*,*,#340,.F.);
#267=ORIENTED_EDGE('',*,*,#295,.T.);
#268=ORIENTED_EDGE('',*,*,#310,.F.);
#269=ORIENTED_EDGE('',*,*,#293,.F.);
#270=ORIENTED_EDGE('',*,*,#341,.T.);
#271=ORIENTED_EDGE('',*,*,#304,.T.);
#272=ORIENTED_EDGE('',*,*,#309,.T.);
#273=ORIENTED_EDGE('',*,*,#302,.F.);
#274=ORIENTED_EDGE('',*,*,#338,.F.);
#275=ORIENTED_EDGE('',*,*,#291,.T.);
#276=ORIENTED_EDGE('',*,*,#308,.F.);
#277=ORIENTED_EDGE('',*,*,#289,.F.);
#278=ORIENTED_EDGE('',*,*,#339,.T.);
#279=ORIENTED_EDGE('',*,*,#300,.T.);
#280=ORIENTED_EDGE('',*,*,#391,.T.);
#281=ORIENTED_EDGE('',*,*,#297,.F.);
#282=ORIENTED_EDGE('',*,*,#334,.F.);
#283=ORIENTED_EDGE('',*,*,#284,.T.);
#284=EDGE_CURVE('',#392,#393,#456,.T.);
#285=EDGE_CURVE('',#392,#394,#457,.T.);
#286=EDGE_CURVE('',#395,#394,#458,.T.);
#287=EDGE_CURVE('',#393,#395,#459,.T.);
#288=EDGE_CURVE('',#396,#397,#460,.T.);
#289=EDGE_CURVE('',#397,#398,#461,.T.);
#290=EDGE_CURVE('',#399,#398,#462,.T.);
#291=EDGE_CURVE('',#396,#399,#463,.T.);
#292=EDGE_CURVE('',#400,#401,#464,.T.);
#293=EDGE_CURVE('',#401,#402,#465,.T.);
#294=EDGE_CURVE('',#403,#402,#466,.T.);
#295=EDGE_CURVE('',#400,#403,#467,.T.);
#296=EDGE_CURVE('',#404,#405,#468,.T.);
#297=EDGE_CURVE('',#404,#406,#469,.T.);
#298=EDGE_CURVE('',#406,#407,#470,.T.);
#299=EDGE_CURVE('',#407,#405,#471,.T.);
#300=EDGE_CURVE('',#408,#409,#472,.T.);
#301=EDGE_CURVE('',#410,#408,#473,.T.);
#302=EDGE_CURVE('',#410,#411,#474,.T.);
#303=EDGE_CURVE('',#411,#409,#475,.T.);
#304=EDGE_CURVE('',#412,#413,#476,.T.);
#305=EDGE_CURVE('',#414,#412,#477,.T.);
#306=EDGE_CURVE('',#414,#415,#478,.T.);
#307=EDGE_CURVE('',#415,#413,#479,.T.);
#308=EDGE_CURVE('',#398,#409,#480,.T.);
#309=EDGE_CURVE('',#399,#411,#481,.T.);
#310=EDGE_CURVE('',#402,#413,#482,.T.);
#311=EDGE_CURVE('',#403,#415,#483,.T.);
#312=EDGE_CURVE('',#416,#417,#484,.T.);
#313=EDGE_CURVE('',#417,#418,#485,.T.);
#314=EDGE_CURVE('',#419,#418,#486,.T.);
#315=EDGE_CURVE('',#419,#420,#36,.T.);
#316=EDGE_CURVE('',#421,#420,#487,.T.);
#317=EDGE_CURVE('',#421,#416,#37,.T.);
#318=EDGE_CURVE('',#422,#423,#488,.T.);
#319=EDGE_CURVE('',#423,#424,#489,.T.);
#320=EDGE_CURVE('',#424,#425,#490,.F.);
#321=EDGE_CURVE('',#425,#422,#491,.F.);
#322=EDGE_CURVE('',#426,#427,#492,.T.);
#323=EDGE_CURVE('',#427,#428,#493,.F.);
#324=EDGE_CURVE('',#428,#429,#494,.F.);
#325=EDGE_CURVE('',#429,#426,#495,.T.);
#326=EDGE_CURVE('',#430,#431,#496,.T.);
#327=EDGE_CURVE('',#431,#432,#497,.T.);
#328=EDGE_CURVE('',#432,#433,#498,.F.);
#329=EDGE_CURVE('',#433,#430,#499,.F.);
#330=EDGE_CURVE('',#434,#435,#500,.T.);
#331=EDGE_CURVE('',#435,#436,#501,.F.);
#332=EDGE_CURVE('',#436,#437,#502,.F.);
#333=EDGE_CURVE('',#437,#434,#503,.T.);
#334=EDGE_CURVE('',#392,#404,#504,.T.);
#335=EDGE_CURVE('',#438,#405,#38,.T.);
#336=EDGE_CURVE('',#439,#438,#505,.T.);
#337=EDGE_CURVE('',#394,#439,#39,.T.);
#338=EDGE_CURVE('',#396,#410,#506,.T.);
#339=EDGE_CURVE('',#397,#408,#507,.T.);
#340=EDGE_CURVE('',#400,#414,#508,.T.);
#341=EDGE_CURVE('',#401,#412,#509,.T.);
#342=EDGE_CURVE('',#440,#441,#40,.T.);
#343=EDGE_CURVE('',#440,#442,#510,.T.);
#344=EDGE_CURVE('',#443,#442,#41,.T.);
#345=EDGE_CURVE('',#443,#444,#511,.T.);
#346=EDGE_CURVE('',#445,#444,#512,.T.);
#347=EDGE_CURVE('',#441,#445,#513,.T.);
#348=EDGE_CURVE('',#446,#447,#514,.T.);
#349=EDGE_CURVE('',#447,#448,#515,.T.);
#350=EDGE_CURVE('',#448,#449,#516,.F.);
#351=EDGE_CURVE('',#449,#446,#517,.F.);
#352=EDGE_CURVE('',#450,#451,#518,.T.);
#353=EDGE_CURVE('',#451,#452,#519,.T.);
#354=EDGE_CURVE('',#452,#453,#520,.F.);
#355=EDGE_CURVE('',#453,#450,#521,.F.);
#356=EDGE_CURVE('',#428,#447,#42,.T.);
#357=EDGE_CURVE('',#446,#429,#43,.F.);
#358=EDGE_CURVE('',#449,#423,#44,.F.);
#359=EDGE_CURVE('',#422,#446,#45,.T.);
#360=EDGE_CURVE('',#429,#422,#46,.T.);
#361=EDGE_CURVE('',#426,#425,#47,.T.);
#362=EDGE_CURVE('',#426,#450,#48,.F.);
#363=EDGE_CURVE('',#450,#425,#49,.F.);
#364=EDGE_CURVE('',#424,#451,#50,.T.);
#365=EDGE_CURVE('',#453,#427,#51,.F.);
#366=EDGE_CURVE('',#436,#424,#52,.F.);
#367=EDGE_CURVE('',#437,#423,#53,.T.);
#368=EDGE_CURVE('',#427,#431,#54,.F.);
#369=EDGE_CURVE('',#428,#430,#55,.T.);
#370=EDGE_CURVE('',#437,#449,#56,.T.);
#371=EDGE_CURVE('',#447,#430,#57,.T.);
#372=EDGE_CURVE('',#448,#434,#58,.F.);
#373=EDGE_CURVE('',#433,#448,#59,.T.);
#374=EDGE_CURVE('',#431,#453,#60,.T.);
#375=EDGE_CURVE('',#434,#433,#61,.T.);
#376=EDGE_CURVE('',#432,#452,#62,.T.);
#377=EDGE_CURVE('',#435,#432,#63,.T.);
#378=EDGE_CURVE('',#435,#452,#64,.F.);
#379=EDGE_CURVE('',#436,#451,#65,.T.);
#380=EDGE_CURVE('',#421,#440,#522,.T.);
#381=EDGE_CURVE('',#420,#442,#523,.T.);
#382=EDGE_CURVE('',#416,#441,#524,.T.);
#383=EDGE_CURVE('',#445,#417,#525,.T.);
#384=EDGE_CURVE('',#454,#439,#526,.T.);
#385=EDGE_CURVE('',#395,#454,#66,.T.);
#386=EDGE_CURVE('',#455,#438,#527,.T.);
#387=EDGE_CURVE('',#454,#455,#528,.T.);
#388=EDGE_CURVE('',#455,#407,#67,.T.);
#389=EDGE_CURVE('',#444,#418,#529,.T.);
#390=EDGE_CURVE('',#419,#443,#530,.T.);
#391=EDGE_CURVE('',#393,#406,#531,.T.);
#392=VERTEX_POINT('',#1483);
#393=VERTEX_POINT('',#1484);
#394=VERTEX_POINT('',#1486);
#395=VERTEX_POINT('',#1488);
#396=VERTEX_POINT('',#1492);
#397=VERTEX_POINT('',#1493);
#398=VERTEX_POINT('',#1495);
#399=VERTEX_POINT('',#1497);
#400=VERTEX_POINT('',#1501);
#401=VERTEX_POINT('',#1502);
#402=VERTEX_POINT('',#1504);
#403=VERTEX_POINT('',#1506);
#404=VERTEX_POINT('',#1510);
#405=VERTEX_POINT('',#1511);
#406=VERTEX_POINT('',#1513);
#407=VERTEX_POINT('',#1515);
#408=VERTEX_POINT('',#1519);
#409=VERTEX_POINT('',#1520);
#410=VERTEX_POINT('',#1522);
#411=VERTEX_POINT('',#1524);
#412=VERTEX_POINT('',#1528);
#413=VERTEX_POINT('',#1529);
#414=VERTEX_POINT('',#1531);
#415=VERTEX_POINT('',#1533);
#416=VERTEX_POINT('',#1543);
#417=VERTEX_POINT('',#1544);
#418=VERTEX_POINT('',#1546);
#419=VERTEX_POINT('',#1548);
#420=VERTEX_POINT('',#1550);
#421=VERTEX_POINT('',#1552);
#422=VERTEX_POINT('',#1556);
#423=VERTEX_POINT('',#1557);
#424=VERTEX_POINT('',#1559);
#425=VERTEX_POINT('',#1561);
#426=VERTEX_POINT('',#1565);
#427=VERTEX_POINT('',#1566);
#428=VERTEX_POINT('',#1568);
#429=VERTEX_POINT('',#1570);
#430=VERTEX_POINT('',#1574);
#431=VERTEX_POINT('',#1575);
#432=VERTEX_POINT('',#1577);
#433=VERTEX_POINT('',#1579);
#434=VERTEX_POINT('',#1583);
#435=VERTEX_POINT('',#1584);
#436=VERTEX_POINT('',#1586);
#437=VERTEX_POINT('',#1588);
#438=VERTEX_POINT('',#1593);
#439=VERTEX_POINT('',#1595);
#440=VERTEX_POINT('',#1602);
#441=VERTEX_POINT('',#1603);
#442=VERTEX_POINT('',#1605);
#443=VERTEX_POINT('',#1607);
#444=VERTEX_POINT('',#1609);
#445=VERTEX_POINT('',#1611);
#446=VERTEX_POINT('',#1614);
#447=VERTEX_POINT('',#1615);
#448=VERTEX_POINT('',#1617);
#449=VERTEX_POINT('',#1619);
#450=VERTEX_POINT('',#1623);
#451=VERTEX_POINT('',#1624);
#452=VERTEX_POINT('',#1626);
#453=VERTEX_POINT('',#1628);
#454=VERTEX_POINT('',#1683);
#455=VERTEX_POINT('',#1687);
#456=LINE('',#1482,#532);
#457=LINE('',#1485,#533);
#458=LINE('',#1487,#534);
#459=LINE('',#1489,#535);
#460=LINE('',#1491,#536);
#461=LINE('',#1494,#537);
#462=LINE('',#1496,#538);
#463=LINE('',#1498,#539);
#464=LINE('',#1500,#540);
#465=LINE('',#1503,#541);
#466=LINE('',#1505,#542);
#467=LINE('',#1507,#543);
#468=LINE('',#1509,#544);
#469=LINE('',#1512,#545);
#470=LINE('',#1514,#546);
#471=LINE('',#1516,#547);
#472=LINE('',#1518,#548);
#473=LINE('',#1521,#549);
#474=LINE('',#1523,#550);
#475=LINE('',#1525,#551);
#476=LINE('',#1527,#552);
#477=LINE('',#1530,#553);
#478=LINE('',#1532,#554);
#479=LINE('',#1534,#555);
#480=LINE('',#1536,#556);
#481=LINE('',#1537,#557);
#482=LINE('',#1539,#558);
#483=LINE('',#1540,#559);
#484=LINE('',#1542,#560);
#485=LINE('',#1545,#561);
#486=LINE('',#1547,#562);
#487=LINE('',#1551,#563);
#488=LINE('',#1555,#564);
#489=LINE('',#1558,#565);
#490=LINE('',#1560,#566);
#491=LINE('',#1562,#567);
#492=LINE('',#1564,#568);
#493=LINE('',#1567,#569);
#494=LINE('',#1569,#570);
#495=LINE('',#1571,#571);
#496=LINE('',#1573,#572);
#497=LINE('',#1576,#573);
#498=LINE('',#1578,#574);
#499=LINE('',#1580,#575);
#500=LINE('',#1582,#576);
#501=LINE('',#1585,#577);
#502=LINE('',#1587,#578);
#503=LINE('',#1589,#579);
#504=LINE('',#1591,#580);
#505=LINE('',#1594,#581);
#506=LINE('',#1597,#582);
#507=LINE('',#1598,#583);
#508=LINE('',#1599,#584);
#509=LINE('',#1600,#585);
#510=LINE('',#1604,#586);
#511=LINE('',#1608,#587);
#512=LINE('',#1610,#588);
#513=LINE('',#1612,#589);
#514=LINE('',#1613,#590);
#515=LINE('',#1616,#591);
#516=LINE('',#1618,#592);
#517=LINE('',#1620,#593);
#518=LINE('',#1622,#594);
#519=LINE('',#1625,#595);
#520=LINE('',#1627,#596);
#521=LINE('',#1629,#597);
#522=LINE('',#1675,#598);
#523=LINE('',#1676,#599);
#524=LINE('',#1678,#600);
#525=LINE('',#1680,#601);
#526=LINE('',#1682,#602);
#527=LINE('',#1686,#603);
#528=LINE('',#1688,#604);
#529=LINE('',#1692,#605);
#530=LINE('',#1693,#606);
#531=LINE('',#1696,#607);
#532=VECTOR('',#1242,1.);
#533=VECTOR('',#1243,1.);
#534=VECTOR('',#1244,1.);
#535=VECTOR('',#1245,1.);
#536=VECTOR('',#1248,1.);
#537=VECTOR('',#1249,1.);
#538=VECTOR('',#1250,1.);
#539=VECTOR('',#1251,1.);
#540=VECTOR('',#1254,1.);
#541=VECTOR('',#1255,1.);
#542=VECTOR('',#1256,1.);
#543=VECTOR('',#1257,1.);
#544=VECTOR('',#1260,1.);
#545=VECTOR('',#1261,1.);
#546=VECTOR('',#1262,1.);
#547=VECTOR('',#1263,1.);
#548=VECTOR('',#1266,1.);
#549=VECTOR('',#1267,1.);
#550=VECTOR('',#1268,1.);
#551=VECTOR('',#1269,1.);
#552=VECTOR('',#1272,1.);
#553=VECTOR('',#1273,1.);
#554=VECTOR('',#1274,1.);
#555=VECTOR('',#1275,1.);
#556=VECTOR('',#1278,1.);
#557=VECTOR('',#1279,1.);
#558=VECTOR('',#1282,1.);
#559=VECTOR('',#1283,1.);
#560=VECTOR('',#1286,1.);
#561=VECTOR('',#1287,1.);
#562=VECTOR('',#1288,1.);
#563=VECTOR('',#1291,1.);
#564=VECTOR('',#1296,1.);
#565=VECTOR('',#1297,1.);
#566=VECTOR('',#1298,1.);
#567=VECTOR('',#1299,1.);
#568=VECTOR('',#1302,1.);
#569=VECTOR('',#1303,1.);
#570=VECTOR('',#1304,1.);
#571=VECTOR('',#1305,1.);
#572=VECTOR('',#1308,1.);
#573=VECTOR('',#1309,1.);
#574=VECTOR('',#1310,1.);
#575=VECTOR('',#1311,1.);
#576=VECTOR('',#1314,1.);
#577=VECTOR('',#1315,1.);
#578=VECTOR('',#1316,1.);
#579=VECTOR('',#1317,1.);
#580=VECTOR('',#1320,1.);
#581=VECTOR('',#1323,1.);
#582=VECTOR('',#1326,1.);
#583=VECTOR('',#1327,1.);
#584=VECTOR('',#1328,1.);
#585=VECTOR('',#1329,1.);
#586=VECTOR('',#1332,1.);
#587=VECTOR('',#1335,1.);
#588=VECTOR('',#1336,1.);
#589=VECTOR('',#1337,1.);
#590=VECTOR('',#1338,1.);
#591=VECTOR('',#1339,1.);
#592=VECTOR('',#1340,1.);
#593=VECTOR('',#1341,1.);
#594=VECTOR('',#1344,1.);
#595=VECTOR('',#1345,1.);
#596=VECTOR('',#1346,1.);
#597=VECTOR('',#1347,1.);
#598=VECTOR('',#1438,1.);
#599=VECTOR('',#1439,1.);
#600=VECTOR('',#1442,1.);
#601=VECTOR('',#1445,1.);
#602=VECTOR('',#1448,1.);
#603=VECTOR('',#1453,1.);
#604=VECTOR('',#1454,1.);
#605=VECTOR('',#1461,1.);
#606=VECTOR('',#1462,1.);
#607=VECTOR('',#1467,1.);
#608=EDGE_LOOP('',(#68,#69,#70,#71));
#609=EDGE_LOOP('',(#72,#73,#74,#75));
#610=EDGE_LOOP('',(#76,#77,#78,#79));
#611=EDGE_LOOP('',(#80,#81,#82,#83));
#612=EDGE_LOOP('',(#84,#85,#86,#87));
#613=EDGE_LOOP('',(#88,#89,#90,#91));
#614=EDGE_LOOP('',(#92,#93,#94,#95));
#615=EDGE_LOOP('',(#96,#97,#98,#99));
#616=EDGE_LOOP('',(#100,#101,#102,#103,#104,#105));
#617=EDGE_LOOP('',(#106,#107,#108,#109));
#618=EDGE_LOOP('',(#110,#111,#112,#113));
#619=EDGE_LOOP('',(#114,#115,#116,#117));
#620=EDGE_LOOP('',(#118,#119,#120,#121));
#621=EDGE_LOOP('',(#122,#123,#124,#125,#126,#127));
#622=EDGE_LOOP('',(#128,#129,#130,#131));
#623=EDGE_LOOP('',(#132,#133,#134,#135));
#624=EDGE_LOOP('',(#136,#137,#138,#139,#140,#141));
#625=EDGE_LOOP('',(#142,#143,#144,#145));
#626=EDGE_LOOP('',(#146,#147,#148,#149));
#627=EDGE_LOOP('',(#150,#151,#152,#153));
#628=EDGE_LOOP('',(#154,#155,#156,#157));
#629=EDGE_LOOP('',(#158,#159,#160));
#630=EDGE_LOOP('',(#161,#162,#163,#164));
#631=EDGE_LOOP('',(#165,#166,#167));
#632=EDGE_LOOP('',(#168,#169,#170,#171));
#633=EDGE_LOOP('',(#172,#173,#174,#175));
#634=EDGE_LOOP('',(#176,#177,#178,#179));
#635=EDGE_LOOP('',(#180,#181,#182,#183));
#636=EDGE_LOOP('',(#184,#185,#186));
#637=EDGE_LOOP('',(#187,#188,#189));
#638=EDGE_LOOP('',(#190,#191,#192,#193));
#639=EDGE_LOOP('',(#194,#195,#196,#197));
#640=EDGE_LOOP('',(#198,#199,#200));
#641=EDGE_LOOP('',(#201,#202,#203));
#642=EDGE_LOOP('',(#204,#205,#206,#207));
#643=EDGE_LOOP('',(#208,#209,#210,#211));
#644=EDGE_LOOP('',(#212,#213,#214));
#645=EDGE_LOOP('',(#215,#216,#217,#218));
#646=EDGE_LOOP('',(#219,#220,#221));
#647=EDGE_LOOP('',(#222,#223,#224,#225));
#648=EDGE_LOOP('',(#226,#227,#228,#229));
#649=EDGE_LOOP('',(#230,#231,#232,#233));
#650=EDGE_LOOP('',(#234,#235,#236,#237));
#651=EDGE_LOOP('',(#238,#239,#240,#241));
#652=EDGE_LOOP('',(#242,#243,#244,#245));
#653=EDGE_LOOP('',(#246,#247,#248,#249));
#654=EDGE_LOOP('',(#250,#251,#252,#253));
#655=EDGE_LOOP('',(#254,#255,#256,#257,#258,#259));
#656=EDGE_LOOP('',(#260,#261,#262,#263));
#657=EDGE_LOOP('',(#264,#265,#266,#267));
#658=EDGE_LOOP('',(#268,#269,#270,#271));
#659=EDGE_LOOP('',(#272,#273,#274,#275));
#660=EDGE_LOOP('',(#276,#277,#278,#279));
#661=EDGE_LOOP('',(#280,#281,#282,#283));
#662=FACE_BOUND('',#608,.T.);
#663=FACE_BOUND('',#609,.T.);
#664=FACE_BOUND('',#610,.T.);
#665=FACE_BOUND('',#611,.T.);
#666=FACE_BOUND('',#612,.T.);
#667=FACE_BOUND('',#613,.T.);
#668=FACE_BOUND('',#614,.T.);
#669=FACE_BOUND('',#615,.T.);
#670=FACE_BOUND('',#616,.T.);
#671=FACE_BOUND('',#617,.T.);
#672=FACE_BOUND('',#618,.T.);
#673=FACE_BOUND('',#619,.T.);
#674=FACE_BOUND('',#620,.T.);
#675=FACE_BOUND('',#621,.T.);
#676=FACE_BOUND('',#622,.T.);
#677=FACE_BOUND('',#623,.T.);
#678=FACE_BOUND('',#624,.T.);
#679=FACE_BOUND('',#625,.T.);
#680=FACE_BOUND('',#626,.T.);
#681=FACE_BOUND('',#627,.T.);
#682=FACE_BOUND('',#628,.T.);
#683=FACE_BOUND('',#629,.T.);
#684=FACE_BOUND('',#630,.T.);
#685=FACE_BOUND('',#631,.T.);
#686=FACE_BOUND('',#632,.T.);
#687=FACE_BOUND('',#633,.T.);
#688=FACE_BOUND('',#634,.T.);
#689=FACE_BOUND('',#635,.T.);
#690=FACE_BOUND('',#636,.T.);
#691=FACE_BOUND('',#637,.T.);
#692=FACE_BOUND('',#638,.T.);
#693=FACE_BOUND('',#639,.T.);
#694=FACE_BOUND('',#640,.T.);
#695=FACE_BOUND('',#641,.T.);
#696=FACE_BOUND('',#642,.T.);
#697=FACE_BOUND('',#643,.T.);
#698=FACE_BOUND('',#644,.T.);
#699=FACE_BOUND('',#645,.T.);
#700=FACE_BOUND('',#646,.T.);
#701=FACE_BOUND('',#647,.T.);
#702=FACE_BOUND('',#648,.T.);
#703=FACE_BOUND('',#649,.T.);
#704=FACE_BOUND('',#650,.T.);
#705=FACE_BOUND('',#651,.T.);
#706=FACE_BOUND('',#652,.T.);
#707=FACE_BOUND('',#653,.T.);
#708=FACE_BOUND('',#654,.T.);
#709=FACE_BOUND('',#655,.T.);
#710=FACE_BOUND('',#656,.T.);
#711=FACE_BOUND('',#657,.T.);
#712=FACE_BOUND('',#658,.T.);
#713=FACE_BOUND('',#659,.T.);
#714=FACE_BOUND('',#660,.T.);
#715=FACE_BOUND('',#661,.T.);
#716=PLANE('',#1156);
#717=PLANE('',#1157);
#718=PLANE('',#1158);
#719=PLANE('',#1159);
#720=PLANE('',#1160);
#721=PLANE('',#1161);
#722=PLANE('',#1162);
#723=PLANE('',#1163);
#724=PLANE('',#1164);
#725=PLANE('',#1167);
#726=PLANE('',#1168);
#727=PLANE('',#1169);
#728=PLANE('',#1170);
#729=PLANE('',#1171);
#730=PLANE('',#1176);
#731=PLANE('',#1221);
#732=PLANE('',#1223);
#733=PLANE('',#1226);
#734=PLANE('',#1229);
#735=PLANE('',#1231);
#736=PLANE('',#1232);
#737=PLANE('',#1233);
#738=PLANE('',#1234);
#739=PLANE('',#1235);
#740=PLANE('',#1236);
#741=PLANE('',#1237);
#742=OVER_RIDING_STYLED_ITEM('',(#845),#792,#843);
#743=OVER_RIDING_STYLED_ITEM('',(#846),#793,#843);
#744=OVER_RIDING_STYLED_ITEM('',(#847),#794,#843);
#745=OVER_RIDING_STYLED_ITEM('',(#848),#795,#843);
#746=OVER_RIDING_STYLED_ITEM('',(#849),#796,#843);
#747=OVER_RIDING_STYLED_ITEM('',(#850),#797,#843);
#748=OVER_RIDING_STYLED_ITEM('',(#851),#798,#843);
#749=OVER_RIDING_STYLED_ITEM('',(#852),#799,#843);
#750=OVER_RIDING_STYLED_ITEM('',(#853),#800,#843);
#751=OVER_RIDING_STYLED_ITEM('',(#854),#801,#843);
#752=OVER_RIDING_STYLED_ITEM('',(#855),#802,#843);
#753=OVER_RIDING_STYLED_ITEM('',(#856),#803,#843);
#754=OVER_RIDING_STYLED_ITEM('',(#857),#804,#843);
#755=OVER_RIDING_STYLED_ITEM('',(#858),#805,#843);
#756=OVER_RIDING_STYLED_ITEM('',(#859),#806,#843);
#757=OVER_RIDING_STYLED_ITEM('',(#860),#807,#843);
#758=OVER_RIDING_STYLED_ITEM('',(#861),#808,#843);
#759=OVER_RIDING_STYLED_ITEM('',(#862),#809,#843);
#760=OVER_RIDING_STYLED_ITEM('',(#863),#810,#843);
#761=OVER_RIDING_STYLED_ITEM('',(#864),#811,#843);
#762=OVER_RIDING_STYLED_ITEM('',(#865),#812,#843);
#763=OVER_RIDING_STYLED_ITEM('',(#866),#813,#843);
#764=OVER_RIDING_STYLED_ITEM('',(#867),#814,#843);
#765=OVER_RIDING_STYLED_ITEM('',(#868),#815,#843);
#766=OVER_RIDING_STYLED_ITEM('',(#869),#816,#843);
#767=OVER_RIDING_STYLED_ITEM('',(#870),#817,#843);
#768=OVER_RIDING_STYLED_ITEM('',(#871),#818,#843);
#769=OVER_RIDING_STYLED_ITEM('',(#872),#819,#843);
#770=OVER_RIDING_STYLED_ITEM('',(#873),#820,#843);
#771=OVER_RIDING_STYLED_ITEM('',(#874),#821,#843);
#772=OVER_RIDING_STYLED_ITEM('',(#875),#822,#843);
#773=OVER_RIDING_STYLED_ITEM('',(#876),#823,#843);
#774=OVER_RIDING_STYLED_ITEM('',(#877),#824,#843);
#775=OVER_RIDING_STYLED_ITEM('',(#878),#825,#843);
#776=OVER_RIDING_STYLED_ITEM('',(#879),#826,#843);
#777=OVER_RIDING_STYLED_ITEM('',(#880),#827,#843);
#778=OVER_RIDING_STYLED_ITEM('',(#881),#828,#843);
#779=OVER_RIDING_STYLED_ITEM('',(#882),#829,#843);
#780=OVER_RIDING_STYLED_ITEM('',(#883),#830,#843);
#781=OVER_RIDING_STYLED_ITEM('',(#884),#831,#843);
#782=OVER_RIDING_STYLED_ITEM('',(#885),#832,#843);
#783=OVER_RIDING_STYLED_ITEM('',(#886),#833,#843);
#784=OVER_RIDING_STYLED_ITEM('',(#887),#834,#843);
#785=OVER_RIDING_STYLED_ITEM('',(#888),#835,#843);
#786=OVER_RIDING_STYLED_ITEM('',(#889),#836,#843);
#787=OVER_RIDING_STYLED_ITEM('',(#890),#837,#843);
#788=OVER_RIDING_STYLED_ITEM('',(#891),#838,#843);
#789=OVER_RIDING_STYLED_ITEM('',(#892),#839,#843);
#790=OVER_RIDING_STYLED_ITEM('',(#893),#840,#843);
#791=OVER_RIDING_STYLED_ITEM('',(#894),#841,#843);
#792=ADVANCED_FACE('Face appearance 5',(#662),#716,.F.);
#793=ADVANCED_FACE('Face appearance 5',(#663),#717,.F.);
#794=ADVANCED_FACE('Face appearance 5',(#664),#718,.F.);
#795=ADVANCED_FACE('Face appearance 5',(#665),#719,.T.);
#796=ADVANCED_FACE('Face appearance 5',(#666),#720,.T.);
#797=ADVANCED_FACE('Face appearance 5',(#667),#721,.T.);
#798=ADVANCED_FACE('Face appearance 5',(#668),#722,.T.);
#799=ADVANCED_FACE('Face appearance 5',(#669),#723,.T.);
#800=ADVANCED_FACE('Face appearance 5',(#670),#724,.T.);
#801=ADVANCED_FACE('Face appearance 1',(#671),#725,.T.);
#802=ADVANCED_FACE('Face appearance 1',(#672),#726,.F.);
#803=ADVANCED_FACE('Face appearance 1',(#673),#727,.F.);
#804=ADVANCED_FACE('Face appearance 1',(#674),#728,.T.);
#805=ADVANCED_FACE('Face appearance 6',(#675,#676,#677,#678,#679),#729,
 .T.);
#806=ADVANCED_FACE('Face appearance 1',(#680),#730,.F.);
#807=ADVANCED_FACE('Face appearance 2',(#681),#20,.T.);
#808=ADVANCED_FACE('Face appearance 2',(#682),#21,.T.);
#809=ADVANCED_FACE('Face appearance 3',(#683),#12,.T.);
#810=ADVANCED_FACE('Face appearance 3',(#684),#22,.T.);
#811=ADVANCED_FACE('Face appearance 3',(#685),#13,.T.);
#812=ADVANCED_FACE('Face appearance 3',(#686),#23,.T.);
#813=ADVANCED_FACE('Face appearance 3',(#687),#24,.T.);
#814=ADVANCED_FACE('Face appearance 3',(#688),#25,.T.);
#815=ADVANCED_FACE('Face appearance 3',(#689),#26,.T.);
#816=ADVANCED_FACE('Face appearance 3',(#690),#14,.T.);
#817=ADVANCED_FACE('Face appearance 3',(#691),#15,.T.);
#818=ADVANCED_FACE('Face appearance 3',(#692),#27,.T.);
#819=ADVANCED_FACE('Face appearance 3',(#693),#28,.T.);
#820=ADVANCED_FACE('Face appearance 4',(#694),#16,.T.);
#821=ADVANCED_FACE('Face appearance 4',(#695),#17,.T.);
#822=ADVANCED_FACE('Face appearance 4',(#696),#29,.T.);
#823=ADVANCED_FACE('Face appearance 4',(#697),#30,.T.);
#824=ADVANCED_FACE('Face appearance 4',(#698),#18,.T.);
#825=ADVANCED_FACE('Face appearance 4',(#699),#31,.T.);
#826=ADVANCED_FACE('Face appearance 4',(#700),#19,.T.);
#827=ADVANCED_FACE('Face appearance 5',(#701),#731,.T.);
#828=ADVANCED_FACE('Face appearance 5',(#702),#32,.F.);
#829=ADVANCED_FACE('Face appearance 5',(#703),#732,.F.);
#830=ADVANCED_FACE('Face appearance 5',(#704),#33,.F.);
#831=ADVANCED_FACE('Face appearance 5',(#705),#733,.F.);
#832=ADVANCED_FACE('Face appearance 5',(#706),#34,.F.);
#833=ADVANCED_FACE('Face appearance 5',(#707),#734,.T.);
#834=ADVANCED_FACE('Face appearance 5',(#708),#35,.F.);
#835=ADVANCED_FACE('Face appearance 5',(#709),#735,.T.);
#836=ADVANCED_FACE('Face appearance 6',(#710),#736,.T.);
#837=ADVANCED_FACE('Face appearance 6',(#711),#737,.F.);
#838=ADVANCED_FACE('Face appearance 6',(#712),#738,.T.);
#839=ADVANCED_FACE('Face appearance 6',(#713),#739,.F.);
#840=ADVANCED_FACE('Face appearance 6',(#714),#740,.T.);
#841=ADVANCED_FACE('Face appearance 6',(#715),#741,.F.);
#842=CLOSED_SHELL('',(#792,#793,#794,#795,#796,#797,#798,#799,#800,#801,
#802,#803,#804,#805,#806,#807,#808,#809,#810,#811,#812,#813,#814,#815,#816,
#817,#818,#819,#820,#821,#822,#823,#824,#825,#826,#827,#828,#829,#830,#831,
#832,#833,#834,#835,#836,#837,#838,#839,#840,#841));
#843=STYLED_ITEM('',(#844),#1152);
#844=PRESENTATION_STYLE_ASSIGNMENT((#895));
#845=PRESENTATION_STYLE_ASSIGNMENT((#896));
#846=PRESENTATION_STYLE_ASSIGNMENT((#897));
#847=PRESENTATION_STYLE_ASSIGNMENT((#898));
#848=PRESENTATION_STYLE_ASSIGNMENT((#899));
#849=PRESENTATION_STYLE_ASSIGNMENT((#900));
#850=PRESENTATION_STYLE_ASSIGNMENT((#901));
#851=PRESENTATION_STYLE_ASSIGNMENT((#902));
#852=PRESENTATION_STYLE_ASSIGNMENT((#903));
#853=PRESENTATION_STYLE_ASSIGNMENT((#904));
#854=PRESENTATION_STYLE_ASSIGNMENT((#905));
#855=PRESENTATION_STYLE_ASSIGNMENT((#906));
#856=PRESENTATION_STYLE_ASSIGNMENT((#907));
#857=PRESENTATION_STYLE_ASSIGNMENT((#908));
#858=PRESENTATION_STYLE_ASSIGNMENT((#909));
#859=PRESENTATION_STYLE_ASSIGNMENT((#910));
#860=PRESENTATION_STYLE_ASSIGNMENT((#911));
#861=PRESENTATION_STYLE_ASSIGNMENT((#912));
#862=PRESENTATION_STYLE_ASSIGNMENT((#913));
#863=PRESENTATION_STYLE_ASSIGNMENT((#914));
#864=PRESENTATION_STYLE_ASSIGNMENT((#915));
#865=PRESENTATION_STYLE_ASSIGNMENT((#916));
#866=PRESENTATION_STYLE_ASSIGNMENT((#917));
#867=PRESENTATION_STYLE_ASSIGNMENT((#918));
#868=PRESENTATION_STYLE_ASSIGNMENT((#919));
#869=PRESENTATION_STYLE_ASSIGNMENT((#920));
#870=PRESENTATION_STYLE_ASSIGNMENT((#921));
#871=PRESENTATION_STYLE_ASSIGNMENT((#922));
#872=PRESENTATION_STYLE_ASSIGNMENT((#923));
#873=PRESENTATION_STYLE_ASSIGNMENT((#924));
#874=PRESENTATION_STYLE_ASSIGNMENT((#925));
#875=PRESENTATION_STYLE_ASSIGNMENT((#926));
#876=PRESENTATION_STYLE_ASSIGNMENT((#927));
#877=PRESENTATION_STYLE_ASSIGNMENT((#928));
#878=PRESENTATION_STYLE_ASSIGNMENT((#929));
#879=PRESENTATION_STYLE_ASSIGNMENT((#930));
#880=PRESENTATION_STYLE_ASSIGNMENT((#931));
#881=PRESENTATION_STYLE_ASSIGNMENT((#932));
#882=PRESENTATION_STYLE_ASSIGNMENT((#933));
#883=PRESENTATION_STYLE_ASSIGNMENT((#934));
#884=PRESENTATION_STYLE_ASSIGNMENT((#935));
#885=PRESENTATION_STYLE_ASSIGNMENT((#936));
#886=PRESENTATION_STYLE_ASSIGNMENT((#937));
#887=PRESENTATION_STYLE_ASSIGNMENT((#938));
#888=PRESENTATION_STYLE_ASSIGNMENT((#939));
#889=PRESENTATION_STYLE_ASSIGNMENT((#940));
#890=PRESENTATION_STYLE_ASSIGNMENT((#941));
#891=PRESENTATION_STYLE_ASSIGNMENT((#942));
#892=PRESENTATION_STYLE_ASSIGNMENT((#943));
#893=PRESENTATION_STYLE_ASSIGNMENT((#944));
#894=PRESENTATION_STYLE_ASSIGNMENT((#945));
#895=SURFACE_STYLE_USAGE(.BOTH.,#946);
#896=SURFACE_STYLE_USAGE(.BOTH.,#947);
#897=SURFACE_STYLE_USAGE(.BOTH.,#948);
#898=SURFACE_STYLE_USAGE(.BOTH.,#949);
#899=SURFACE_STYLE_USAGE(.BOTH.,#950);
#900=SURFACE_STYLE_USAGE(.BOTH.,#951);
#901=SURFACE_STYLE_USAGE(.BOTH.,#952);
#902=SURFACE_STYLE_USAGE(.BOTH.,#953);
#903=SURFACE_STYLE_USAGE(.BOTH.,#954);
#904=SURFACE_STYLE_USAGE(.BOTH.,#955);
#905=SURFACE_STYLE_USAGE(.BOTH.,#956);
#906=SURFACE_STYLE_USAGE(.BOTH.,#957);
#907=SURFACE_STYLE_USAGE(.BOTH.,#958);
#908=SURFACE_STYLE_USAGE(.BOTH.,#959);
#909=SURFACE_STYLE_USAGE(.BOTH.,#960);
#910=SURFACE_STYLE_USAGE(.BOTH.,#961);
#911=SURFACE_STYLE_USAGE(.BOTH.,#962);
#912=SURFACE_STYLE_USAGE(.BOTH.,#963);
#913=SURFACE_STYLE_USAGE(.BOTH.,#964);
#914=SURFACE_STYLE_USAGE(.BOTH.,#965);
#915=SURFACE_STYLE_USAGE(.BOTH.,#966);
#916=SURFACE_STYLE_USAGE(.BOTH.,#967);
#917=SURFACE_STYLE_USAGE(.BOTH.,#968);
#918=SURFACE_STYLE_USAGE(.BOTH.,#969);
#919=SURFACE_STYLE_USAGE(.BOTH.,#970);
#920=SURFACE_STYLE_USAGE(.BOTH.,#971);
#921=SURFACE_STYLE_USAGE(.BOTH.,#972);
#922=SURFACE_STYLE_USAGE(.BOTH.,#973);
#923=SURFACE_STYLE_USAGE(.BOTH.,#974);
#924=SURFACE_STYLE_USAGE(.BOTH.,#975);
#925=SURFACE_STYLE_USAGE(.BOTH.,#976);
#926=SURFACE_STYLE_USAGE(.BOTH.,#977);
#927=SURFACE_STYLE_USAGE(.BOTH.,#978);
#928=SURFACE_STYLE_USAGE(.BOTH.,#979);
#929=SURFACE_STYLE_USAGE(.BOTH.,#980);
#930=SURFACE_STYLE_USAGE(.BOTH.,#981);
#931=SURFACE_STYLE_USAGE(.BOTH.,#982);
#932=SURFACE_STYLE_USAGE(.BOTH.,#983);
#933=SURFACE_STYLE_USAGE(.BOTH.,#984);
#934=SURFACE_STYLE_USAGE(.BOTH.,#985);
#935=SURFACE_STYLE_USAGE(.BOTH.,#986);
#936=SURFACE_STYLE_USAGE(.BOTH.,#987);
#937=SURFACE_STYLE_USAGE(.BOTH.,#988);
#938=SURFACE_STYLE_USAGE(.BOTH.,#989);
#939=SURFACE_STYLE_USAGE(.BOTH.,#990);
#940=SURFACE_STYLE_USAGE(.BOTH.,#991);
#941=SURFACE_STYLE_USAGE(.BOTH.,#992);
#942=SURFACE_STYLE_USAGE(.BOTH.,#993);
#943=SURFACE_STYLE_USAGE(.BOTH.,#994);
#944=SURFACE_STYLE_USAGE(.BOTH.,#995);
#945=SURFACE_STYLE_USAGE(.BOTH.,#996);
#946=SURFACE_SIDE_STYLE('',(#997));
#947=SURFACE_SIDE_STYLE('',(#998));
#948=SURFACE_SIDE_STYLE('',(#999));
#949=SURFACE_SIDE_STYLE('',(#1000));
#950=SURFACE_SIDE_STYLE('',(#1001));
#951=SURFACE_SIDE_STYLE('',(#1002));
#952=SURFACE_SIDE_STYLE('',(#1003));
#953=SURFACE_SIDE_STYLE('',(#1004));
#954=SURFACE_SIDE_STYLE('',(#1005));
#955=SURFACE_SIDE_STYLE('',(#1006));
#956=SURFACE_SIDE_STYLE('',(#1007));
#957=SURFACE_SIDE_STYLE('',(#1008));
#958=SURFACE_SIDE_STYLE('',(#1009));
#959=SURFACE_SIDE_STYLE('',(#1010));
#960=SURFACE_SIDE_STYLE('',(#1011));
#961=SURFACE_SIDE_STYLE('',(#1012));
#962=SURFACE_SIDE_STYLE('',(#1013));
#963=SURFACE_SIDE_STYLE('',(#1014));
#964=SURFACE_SIDE_STYLE('',(#1015));
#965=SURFACE_SIDE_STYLE('',(#1016));
#966=SURFACE_SIDE_STYLE('',(#1017));
#967=SURFACE_SIDE_STYLE('',(#1018));
#968=SURFACE_SIDE_STYLE('',(#1019));
#969=SURFACE_SIDE_STYLE('',(#1020));
#970=SURFACE_SIDE_STYLE('',(#1021));
#971=SURFACE_SIDE_STYLE('',(#1022));
#972=SURFACE_SIDE_STYLE('',(#1023));
#973=SURFACE_SIDE_STYLE('',(#1024));
#974=SURFACE_SIDE_STYLE('',(#1025));
#975=SURFACE_SIDE_STYLE('',(#1026));
#976=SURFACE_SIDE_STYLE('',(#1027));
#977=SURFACE_SIDE_STYLE('',(#1028));
#978=SURFACE_SIDE_STYLE('',(#1029));
#979=SURFACE_SIDE_STYLE('',(#1030));
#980=SURFACE_SIDE_STYLE('',(#1031));
#981=SURFACE_SIDE_STYLE('',(#1032));
#982=SURFACE_SIDE_STYLE('',(#1033));
#983=SURFACE_SIDE_STYLE('',(#1034));
#984=SURFACE_SIDE_STYLE('',(#1035));
#985=SURFACE_SIDE_STYLE('',(#1036));
#986=SURFACE_SIDE_STYLE('',(#1037));
#987=SURFACE_SIDE_STYLE('',(#1038));
#988=SURFACE_SIDE_STYLE('',(#1039));
#989=SURFACE_SIDE_STYLE('',(#1040));
#990=SURFACE_SIDE_STYLE('',(#1041));
#991=SURFACE_SIDE_STYLE('',(#1042));
#992=SURFACE_SIDE_STYLE('',(#1043));
#993=SURFACE_SIDE_STYLE('',(#1044));
#994=SURFACE_SIDE_STYLE('',(#1045));
#995=SURFACE_SIDE_STYLE('',(#1046));
#996=SURFACE_SIDE_STYLE('',(#1047));
#997=SURFACE_STYLE_FILL_AREA(#1048);
#998=SURFACE_STYLE_FILL_AREA(#1049);
#999=SURFACE_STYLE_FILL_AREA(#1050);
#1000=SURFACE_STYLE_FILL_AREA(#1051);
#1001=SURFACE_STYLE_FILL_AREA(#1052);
#1002=SURFACE_STYLE_FILL_AREA(#1053);
#1003=SURFACE_STYLE_FILL_AREA(#1054);
#1004=SURFACE_STYLE_FILL_AREA(#1055);
#1005=SURFACE_STYLE_FILL_AREA(#1056);
#1006=SURFACE_STYLE_FILL_AREA(#1057);
#1007=SURFACE_STYLE_FILL_AREA(#1058);
#1008=SURFACE_STYLE_FILL_AREA(#1059);
#1009=SURFACE_STYLE_FILL_AREA(#1060);
#1010=SURFACE_STYLE_FILL_AREA(#1061);
#1011=SURFACE_STYLE_FILL_AREA(#1062);
#1012=SURFACE_STYLE_FILL_AREA(#1063);
#1013=SURFACE_STYLE_FILL_AREA(#1064);
#1014=SURFACE_STYLE_FILL_AREA(#1065);
#1015=SURFACE_STYLE_FILL_AREA(#1066);
#1016=SURFACE_STYLE_FILL_AREA(#1067);
#1017=SURFACE_STYLE_FILL_AREA(#1068);
#1018=SURFACE_STYLE_FILL_AREA(#1069);
#1019=SURFACE_STYLE_FILL_AREA(#1070);
#1020=SURFACE_STYLE_FILL_AREA(#1071);
#1021=SURFACE_STYLE_FILL_AREA(#1072);
#1022=SURFACE_STYLE_FILL_AREA(#1073);
#1023=SURFACE_STYLE_FILL_AREA(#1074);
#1024=SURFACE_STYLE_FILL_AREA(#1075);
#1025=SURFACE_STYLE_FILL_AREA(#1076);
#1026=SURFACE_STYLE_FILL_AREA(#1077);
#1027=SURFACE_STYLE_FILL_AREA(#1078);
#1028=SURFACE_STYLE_FILL_AREA(#1079);
#1029=SURFACE_STYLE_FILL_AREA(#1080);
#1030=SURFACE_STYLE_FILL_AREA(#1081);
#1031=SURFACE_STYLE_FILL_AREA(#1082);
#1032=SURFACE_STYLE_FILL_AREA(#1083);
#1033=SURFACE_STYLE_FILL_AREA(#1084);
#1034=SURFACE_STYLE_FILL_AREA(#1085);
#1035=SURFACE_STYLE_FILL_AREA(#1086);
#1036=SURFACE_STYLE_FILL_AREA(#1087);
#1037=SURFACE_STYLE_FILL_AREA(#1088);
#1038=SURFACE_STYLE_FILL_AREA(#1089);
#1039=SURFACE_STYLE_FILL_AREA(#1090);
#1040=SURFACE_STYLE_FILL_AREA(#1091);
#1041=SURFACE_STYLE_FILL_AREA(#1092);
#1042=SURFACE_STYLE_FILL_AREA(#1093);
#1043=SURFACE_STYLE_FILL_AREA(#1094);
#1044=SURFACE_STYLE_FILL_AREA(#1095);
#1045=SURFACE_STYLE_FILL_AREA(#1096);
#1046=SURFACE_STYLE_FILL_AREA(#1097);
#1047=SURFACE_STYLE_FILL_AREA(#1098);
#1048=FILL_AREA_STYLE('',(#1099));
#1049=FILL_AREA_STYLE('',(#1100));
#1050=FILL_AREA_STYLE('',(#1101));
#1051=FILL_AREA_STYLE('',(#1102));
#1052=FILL_AREA_STYLE('',(#1103));
#1053=FILL_AREA_STYLE('',(#1104));
#1054=FILL_AREA_STYLE('',(#1105));
#1055=FILL_AREA_STYLE('',(#1106));
#1056=FILL_AREA_STYLE('',(#1107));
#1057=FILL_AREA_STYLE('',(#1108));
#1058=FILL_AREA_STYLE('',(#1109));
#1059=FILL_AREA_STYLE('',(#1110));
#1060=FILL_AREA_STYLE('',(#1111));
#1061=FILL_AREA_STYLE('',(#1112));
#1062=FILL_AREA_STYLE('',(#1113));
#1063=FILL_AREA_STYLE('',(#1114));
#1064=FILL_AREA_STYLE('',(#1115));
#1065=FILL_AREA_STYLE('',(#1116));
#1066=FILL_AREA_STYLE('',(#1117));
#1067=FILL_AREA_STYLE('',(#1118));
#1068=FILL_AREA_STYLE('',(#1119));
#1069=FILL_AREA_STYLE('',(#1120));
#1070=FILL_AREA_STYLE('',(#1121));
#1071=FILL_AREA_STYLE('',(#1122));
#1072=FILL_AREA_STYLE('',(#1123));
#1073=FILL_AREA_STYLE('',(#1124));
#1074=FILL_AREA_STYLE('',(#1125));
#1075=FILL_AREA_STYLE('',(#1126));
#1076=FILL_AREA_STYLE('',(#1127));
#1077=FILL_AREA_STYLE('',(#1128));
#1078=FILL_AREA_STYLE('',(#1129));
#1079=FILL_AREA_STYLE('',(#1130));
#1080=FILL_AREA_STYLE('',(#1131));
#1081=FILL_AREA_STYLE('',(#1132));
#1082=FILL_AREA_STYLE('',(#1133));
#1083=FILL_AREA_STYLE('',(#1134));
#1084=FILL_AREA_STYLE('',(#1135));
#1085=FILL_AREA_STYLE('',(#1136));
#1086=FILL_AREA_STYLE('',(#1137));
#1087=FILL_AREA_STYLE('',(#1138));
#1088=FILL_AREA_STYLE('',(#1139));
#1089=FILL_AREA_STYLE('',(#1140));
#1090=FILL_AREA_STYLE('',(#1141));
#1091=FILL_AREA_STYLE('',(#1142));
#1092=FILL_AREA_STYLE('',(#1143));
#1093=FILL_AREA_STYLE('',(#1144));
#1094=FILL_AREA_STYLE('',(#1145));
#1095=FILL_AREA_STYLE('',(#1146));
#1096=FILL_AREA_STYLE('',(#1147));
#1097=FILL_AREA_STYLE('',(#1148));
#1098=FILL_AREA_STYLE('',(#1149));
#1099=FILL_AREA_STYLE_COLOUR('',#1150);
#1100=FILL_AREA_STYLE_COLOUR('',#1151);
#1101=FILL_AREA_STYLE_COLOUR('',#1151);
#1102=FILL_AREA_STYLE_COLOUR('',#1151);
#1103=FILL_AREA_STYLE_COLOUR('',#1151);
#1104=FILL_AREA_STYLE_COLOUR('',#1151);
#1105=FILL_AREA_STYLE_COLOUR('',#1151);
#1106=FILL_AREA_STYLE_COLOUR('',#1151);
#1107=FILL_AREA_STYLE_COLOUR('',#1151);
#1108=FILL_AREA_STYLE_COLOUR('',#1151);
#1109=FILL_AREA_STYLE_COLOUR('',#1151);
#1110=FILL_AREA_STYLE_COLOUR('',#1151);
#1111=FILL_AREA_STYLE_COLOUR('',#1151);
#1112=FILL_AREA_STYLE_COLOUR('',#1151);
#1113=FILL_AREA_STYLE_COLOUR('',#1151);
#1114=FILL_AREA_STYLE_COLOUR('',#1151);
#1115=FILL_AREA_STYLE_COLOUR('',#1151);
#1116=FILL_AREA_STYLE_COLOUR('',#1151);
#1117=FILL_AREA_STYLE_COLOUR('',#1151);
#1118=FILL_AREA_STYLE_COLOUR('',#1151);
#1119=FILL_AREA_STYLE_COLOUR('',#1151);
#1120=FILL_AREA_STYLE_COLOUR('',#1151);
#1121=FILL_AREA_STYLE_COLOUR('',#1151);
#1122=FILL_AREA_STYLE_COLOUR('',#1151);
#1123=FILL_AREA_STYLE_COLOUR('',#1151);
#1124=FILL_AREA_STYLE_COLOUR('',#1151);
#1125=FILL_AREA_STYLE_COLOUR('',#1151);
#1126=FILL_AREA_STYLE_COLOUR('',#1151);
#1127=FILL_AREA_STYLE_COLOUR('',#1151);
#1128=FILL_AREA_STYLE_COLOUR('',#1151);
#1129=FILL_AREA_STYLE_COLOUR('',#1151);
#1130=FILL_AREA_STYLE_COLOUR('',#1151);
#1131=FILL_AREA_STYLE_COLOUR('',#1151);
#1132=FILL_AREA_STYLE_COLOUR('',#1151);
#1133=FILL_AREA_STYLE_COLOUR('',#1151);
#1134=FILL_AREA_STYLE_COLOUR('',#1151);
#1135=FILL_AREA_STYLE_COLOUR('',#1151);
#1136=FILL_AREA_STYLE_COLOUR('',#1151);
#1137=FILL_AREA_STYLE_COLOUR('',#1151);
#1138=FILL_AREA_STYLE_COLOUR('',#1151);
#1139=FILL_AREA_STYLE_COLOUR('',#1151);
#1140=FILL_AREA_STYLE_COLOUR('',#1151);
#1141=FILL_AREA_STYLE_COLOUR('',#1151);
#1142=FILL_AREA_STYLE_COLOUR('',#1151);
#1143=FILL_AREA_STYLE_COLOUR('',#1151);
#1144=FILL_AREA_STYLE_COLOUR('',#1151);
#1145=FILL_AREA_STYLE_COLOUR('',#1151);
#1146=FILL_AREA_STYLE_COLOUR('',#1151);
#1147=FILL_AREA_STYLE_COLOUR('',#1151);
#1148=FILL_AREA_STYLE_COLOUR('',#1151);
#1149=FILL_AREA_STYLE_COLOUR('',#1151);
#1150=COLOUR_RGB('',0.615686274509804,0.811764705882353,0.929411764705882);
#1151=COLOUR_RGB('',0.698039215686275,0.752941176470588,0.4);
#1152=MANIFOLD_SOLID_BREP('Part 1',#842);
#1153=SHAPE_DEFINITION_REPRESENTATION(#1709,#1154);
#1154=SHAPE_REPRESENTATION('Part 1',(#1155),#1704);
#1155=AXIS2_PLACEMENT_3D('',#1480,#1238,#1239);
#1156=AXIS2_PLACEMENT_3D('',#1481,#1240,#1241);
#1157=AXIS2_PLACEMENT_3D('',#1490,#1246,#1247);
#1158=AXIS2_PLACEMENT_3D('',#1499,#1252,#1253);
#1159=AXIS2_PLACEMENT_3D('',#1508,#1258,#1259);
#1160=AXIS2_PLACEMENT_3D('',#1517,#1264,#1265);
#1161=AXIS2_PLACEMENT_3D('',#1526,#1270,#1271);
#1162=AXIS2_PLACEMENT_3D('',#1535,#1276,#1277);
#1163=AXIS2_PLACEMENT_3D('',#1538,#1280,#1281);
#1164=AXIS2_PLACEMENT_3D('',#1541,#1284,#1285);
#1165=AXIS2_PLACEMENT_3D('',#1549,#1289,#1290);
#1166=AXIS2_PLACEMENT_3D('',#1553,#1292,#1293);
#1167=AXIS2_PLACEMENT_3D('',#1554,#1294,#1295);
#1168=AXIS2_PLACEMENT_3D('',#1563,#1300,#1301);
#1169=AXIS2_PLACEMENT_3D('',#1572,#1306,#1307);
#1170=AXIS2_PLACEMENT_3D('',#1581,#1312,#1313);
#1171=AXIS2_PLACEMENT_3D('',#1590,#1318,#1319);
#1172=AXIS2_PLACEMENT_3D('',#1592,#1321,#1322);
#1173=AXIS2_PLACEMENT_3D('',#1596,#1324,#1325);
#1174=AXIS2_PLACEMENT_3D('',#1601,#1330,#1331);
#1175=AXIS2_PLACEMENT_3D('',#1606,#1333,#1334);
#1176=AXIS2_PLACEMENT_3D('',#1621,#1342,#1343);
#1177=AXIS2_PLACEMENT_3D('',#1630,#1348,#1349);
#1178=AXIS2_PLACEMENT_3D('',#1631,#1350,#1351);
#1179=AXIS2_PLACEMENT_3D('',#1632,#1352,#1353);
#1180=AXIS2_PLACEMENT_3D('',#1633,#1354,#1355);
#1181=AXIS2_PLACEMENT_3D('',#1634,#1356,#1357);
#1182=AXIS2_PLACEMENT_3D('',#1635,#1358,#1359);
#1183=AXIS2_PLACEMENT_3D('',#1636,#1360,#1361);
#1184=AXIS2_PLACEMENT_3D('',#1637,#1362,#1363);
#1185=AXIS2_PLACEMENT_3D('',#1638,#1364,#1365);
#1186=AXIS2_PLACEMENT_3D('',#1639,#1366,#1367);
#1187=AXIS2_PLACEMENT_3D('',#1640,#1368,#1369);
#1188=AXIS2_PLACEMENT_3D('',#1641,#1370,#1371);
#1189=AXIS2_PLACEMENT_3D('',#1642,#1372,#1373);
#1190=AXIS2_PLACEMENT_3D('',#1643,#1374,#1375);
#1191=AXIS2_PLACEMENT_3D('',#1644,#1376,#1377);
#1192=AXIS2_PLACEMENT_3D('',#1645,#1378,#1379);
#1193=AXIS2_PLACEMENT_3D('',#1646,#1380,#1381);
#1194=AXIS2_PLACEMENT_3D('',#1647,#1382,#1383);
#1195=AXIS2_PLACEMENT_3D('',#1648,#1384,#1385);
#1196=AXIS2_PLACEMENT_3D('',#1649,#1386,#1387);
#1197=AXIS2_PLACEMENT_3D('',#1650,#1388,#1389);
#1198=AXIS2_PLACEMENT_3D('',#1651,#1390,#1391);
#1199=AXIS2_PLACEMENT_3D('',#1652,#1392,#1393);
#1200=AXIS2_PLACEMENT_3D('',#1653,#1394,#1395);
#1201=AXIS2_PLACEMENT_3D('',#1654,#1396,#1397);
#1202=AXIS2_PLACEMENT_3D('',#1655,#1398,#1399);
#1203=AXIS2_PLACEMENT_3D('',#1656,#1400,#1401);
#1204=AXIS2_PLACEMENT_3D('',#1657,#1402,#1403);
#1205=AXIS2_PLACEMENT_3D('',#1658,#1404,#1405);
#1206=AXIS2_PLACEMENT_3D('',#1659,#1406,#1407);
#1207=AXIS2_PLACEMENT_3D('',#1660,#1408,#1409);
#1208=AXIS2_PLACEMENT_3D('',#1661,#1410,#1411);
#1209=AXIS2_PLACEMENT_3D('',#1662,#1412,#1413);
#1210=AXIS2_PLACEMENT_3D('',#1663,#1414,#1415);
#1211=AXIS2_PLACEMENT_3D('',#1664,#1416,#1417);
#1212=AXIS2_PLACEMENT_3D('',#1665,#1418,#1419);
#1213=AXIS2_PLACEMENT_3D('',#1666,#1420,#1421);
#1214=AXIS2_PLACEMENT_3D('',#1667,#1422,#1423);
#1215=AXIS2_PLACEMENT_3D('',#1668,#1424,#1425);
#1216=AXIS2_PLACEMENT_3D('',#1669,#1426,#1427);
#1217=AXIS2_PLACEMENT_3D('',#1670,#1428,#1429);
#1218=AXIS2_PLACEMENT_3D('',#1671,#1430,#1431);
#1219=AXIS2_PLACEMENT_3D('',#1672,#1432,#1433);
#1220=AXIS2_PLACEMENT_3D('',#1673,#1434,#1435);
#1221=AXIS2_PLACEMENT_3D('',#1674,#1436,#1437);
#1222=AXIS2_PLACEMENT_3D('',#1677,#1440,#1441);
#1223=AXIS2_PLACEMENT_3D('',#1679,#1443,#1444);
#1224=AXIS2_PLACEMENT_3D('',#1681,#1446,#1447);
#1225=AXIS2_PLACEMENT_3D('',#1684,#1449,#1450);
#1226=AXIS2_PLACEMENT_3D('',#1685,#1451,#1452);
#1227=AXIS2_PLACEMENT_3D('',#1689,#1455,#1456);
#1228=AXIS2_PLACEMENT_3D('',#1690,#1457,#1458);
#1229=AXIS2_PLACEMENT_3D('',#1691,#1459,#1460);
#1230=AXIS2_PLACEMENT_3D('',#1694,#1463,#1464);
#1231=AXIS2_PLACEMENT_3D('',#1695,#1465,#1466);
#1232=AXIS2_PLACEMENT_3D('',#1697,#1468,#1469);
#1233=AXIS2_PLACEMENT_3D('',#1698,#1470,#1471);
#1234=AXIS2_PLACEMENT_3D('',#1699,#1472,#1473);
#1235=AXIS2_PLACEMENT_3D('',#1700,#1474,#1475);
#1236=AXIS2_PLACEMENT_3D('',#1701,#1476,#1477);
#1237=AXIS2_PLACEMENT_3D('',#1702,#1478,#1479);
#1238=DIRECTION('',(0.,0.,1.));
#1239=DIRECTION('',(1.,0.,0.));
#1240=DIRECTION('',(-1.,0.,0.));
#1241=DIRECTION('',(0.,0.,1.));
#1242=DIRECTION('',(0.,0.,-1.));
#1243=DIRECTION('',(0.,-1.,0.));
#1244=DIRECTION('',(0.,0.,1.));
#1245=DIRECTION('',(0.,-1.,0.));
#1246=DIRECTION('',(-1.,0.,0.));
#1247=DIRECTION('',(0.,0.,1.));
#1248=DIRECTION('',(0.,-1.,0.));
#1249=DIRECTION('',(0.,0.,-1.));
#1250=DIRECTION('',(0.,-1.,0.));
#1251=DIRECTION('',(0.,0.,-1.));
#1252=DIRECTION('',(-1.,0.,0.));
#1253=DIRECTION('',(0.,0.,1.));
#1254=DIRECTION('',(0.,-1.,0.));
#1255=DIRECTION('',(0.,0.,-1.));
#1256=DIRECTION('',(0.,-1.,0.));
#1257=DIRECTION('',(0.,0.,-1.));
#1258=DIRECTION('',(-1.,-5.78241158658936E-17,0.));
#1259=DIRECTION('',(5.78241158658936E-17,-1.,0.));
#1260=DIRECTION('',(5.78241158658936E-17,-1.,0.));
#1261=DIRECTION('',(0.,0.,-1.));
#1262=DIRECTION('',(5.78241158658936E-17,-1.,0.));
#1263=DIRECTION('',(0.,0.,1.));
#1264=DIRECTION('',(-1.,-5.78241158658936E-17,0.));
#1265=DIRECTION('',(5.78241158658936E-17,-1.,0.));
#1266=DIRECTION('',(0.,0.,-1.));
#1267=DIRECTION('',(5.78241158658936E-17,-1.,0.));
#1268=DIRECTION('',(0.,0.,-1.));
#1269=DIRECTION('',(5.78241158658936E-17,-1.,0.));
#1270=DIRECTION('',(-1.,-5.78241158658936E-17,0.));
#1271=DIRECTION('',(5.78241158658936E-17,-1.,0.));
#1272=DIRECTION('',(0.,0.,-1.));
#1273=DIRECTION('',(5.78241158658936E-17,-1.,0.));
#1274=DIRECTION('',(0.,0.,-1.));
#1275=DIRECTION('',(5.78241158658936E-17,-1.,0.));
#1276=DIRECTION('',(0.,0.,1.));
#1277=DIRECTION('',(1.,0.,0.));
#1278=DIRECTION('',(1.,0.,0.));
#1279=DIRECTION('',(1.,0.,0.));
#1280=DIRECTION('',(0.,0.,1.));
#1281=DIRECTION('',(1.,0.,0.));
#1282=DIRECTION('',(1.,0.,0.));
#1283=DIRECTION('',(1.,0.,0.));
#1284=DIRECTION('',(0.,0.,1.));
#1285=DIRECTION('',(1.,0.,0.));
#1286=DIRECTION('',(0.,-1.,0.));
#1287=DIRECTION('',(1.,0.,0.));
#1288=DIRECTION('',(5.78241158658936E-17,-1.,0.));
#1289=DIRECTION('',(0.,0.,1.));
#1290=DIRECTION('',(1.,0.,0.));
#1291=DIRECTION('',(1.,0.,0.));
#1292=DIRECTION('',(0.,0.,1.));
#1293=DIRECTION('',(1.,0.,0.));
#1294=DIRECTION('',(0.,1.,0.));
#1295=DIRECTION('',(0.,0.,1.));
#1296=DIRECTION('',(1.,0.,0.));
#1297=DIRECTION('',(0.,0.,-1.));
#1298=DIRECTION('',(1.,0.,0.));
#1299=DIRECTION('',(0.,0.,-1.));
#1300=DIRECTION('',(1.,0.,0.));
#1301=DIRECTION('',(0.,0.,-1.));
#1302=DIRECTION('',(0.,-1.,0.));
#1303=DIRECTION('',(0.,0.,-1.));
#1304=DIRECTION('',(0.,-1.,0.));
#1305=DIRECTION('',(0.,0.,-1.));
#1306=DIRECTION('',(0.,1.,0.));
#1307=DIRECTION('',(0.,0.,1.));
#1308=DIRECTION('',(0.,0.,-1.));
#1309=DIRECTION('',(1.,0.,0.));
#1310=DIRECTION('',(0.,0.,-1.));
#1311=DIRECTION('',(1.,0.,0.));
#1312=DIRECTION('',(1.,8.16340459283203E-17,0.));
#1313=DIRECTION('',(-8.16340459283203E-17,1.,0.));
#1314=DIRECTION('',(0.,0.,-1.));
#1315=DIRECTION('',(8.16340459283203E-17,-1.,0.));
#1316=DIRECTION('',(0.,0.,-1.));
#1317=DIRECTION('',(8.16340459283203E-17,-1.,0.));
#1318=DIRECTION('',(0.,0.,1.));
#1319=DIRECTION('',(1.,0.,0.));
#1320=DIRECTION('',(1.,0.,0.));
#1321=DIRECTION('',(0.,0.,1.));
#1322=DIRECTION('',(1.,0.,0.));
#1323=DIRECTION('',(1.,0.,0.));
#1324=DIRECTION('',(0.,0.,1.));
#1325=DIRECTION('',(1.,0.,0.));
#1326=DIRECTION('',(1.,0.,0.));
#1327=DIRECTION('',(1.,0.,0.));
#1328=DIRECTION('',(1.,0.,0.));
#1329=DIRECTION('',(1.,0.,0.));
#1330=DIRECTION('',(0.,0.,1.));
#1331=DIRECTION('',(1.,0.,0.));
#1332=DIRECTION('',(1.,0.,0.));
#1333=DIRECTION('',(0.,0.,1.));
#1334=DIRECTION('',(1.,0.,0.));
#1335=DIRECTION('',(5.78241158658936E-17,-1.,0.));
#1336=DIRECTION('',(1.,0.,0.));
#1337=DIRECTION('',(0.,-1.,0.));
#1338=DIRECTION('',(0.,-1.,0.));
#1339=DIRECTION('',(1.,0.,0.));
#1340=DIRECTION('',(8.16340459283203E-17,-1.,0.));
#1341=DIRECTION('',(1.,0.,0.));
#1342=DIRECTION('',(0.,0.,1.));
#1343=DIRECTION('',(1.,0.,0.));
#1344=DIRECTION('',(1.,0.,0.));
#1345=DIRECTION('',(8.16340459283203E-17,-1.,0.));
#1346=DIRECTION('',(1.,0.,0.));
#1347=DIRECTION('',(0.,-1.,0.));
#1348=DIRECTION('',(0.,1.,0.));
#1349=DIRECTION('',(0.,0.,1.));
#1350=DIRECTION('',(0.,1.,0.));
#1351=DIRECTION('',(0.,0.,1.));
#1352=DIRECTION('',(0.,1.,0.));
#1353=DIRECTION('',(0.,0.,1.));
#1354=DIRECTION('',(1.,0.,0.));
#1355=DIRECTION('',(0.,0.,-1.));
#1356=DIRECTION('',(1.,0.,0.));
#1357=DIRECTION('',(0.,0.,-1.));
#1358=DIRECTION('',(1.,0.,0.));
#1359=DIRECTION('',(0.,0.,-1.));
#1360=DIRECTION('',(0.,0.,1.));
#1361=DIRECTION('',(1.,0.,0.));
#1362=DIRECTION('',(0.,0.,-1.));
#1363=DIRECTION('',(-1.,0.,0.));
#1364=DIRECTION('',(0.,0.,1.));
#1365=DIRECTION('',(1.,0.,0.));
#1366=DIRECTION('',(0.,-1.73472347597681E-16,-1.));
#1367=DIRECTION('',(0.,1.,-1.73472347597681E-16));
#1368=DIRECTION('',(0.,1.,0.));
#1369=DIRECTION('',(0.,0.,1.));
#1370=DIRECTION('',(6.93889390390723E-16,1.,0.));
#1371=DIRECTION('',(-1.,6.93889390390723E-16,0.));
#1372=DIRECTION('',(-1.,0.,0.));
#1373=DIRECTION('',(0.,0.,1.));
#1374=DIRECTION('',(-1.,0.,0.));
#1375=DIRECTION('',(0.,0.,1.));
#1376=DIRECTION('',(-1.,0.,0.));
#1377=DIRECTION('',(0.,0.,1.));
#1378=DIRECTION('',(0.,-1.,0.));
#1379=DIRECTION('',(0.,0.,-1.));
#1380=DIRECTION('',(0.,-1.,0.));
#1381=DIRECTION('',(0.,0.,-1.));
#1382=DIRECTION('',(0.,0.,-1.));
#1383=DIRECTION('',(-1.,0.,0.));
#1384=DIRECTION('',(0.,0.,-1.));
#1385=DIRECTION('',(-1.,0.,0.));
#1386=DIRECTION('',(0.,0.,1.));
#1387=DIRECTION('',(1.,0.,0.));
#1388=DIRECTION('',(0.,0.,-1.));
#1389=DIRECTION('',(-1.,0.,0.));
#1390=DIRECTION('',(0.,0.,-1.));
#1391=DIRECTION('',(-1.,0.,0.));
#1392=DIRECTION('',(0.,0.,1.));
#1393=DIRECTION('',(1.,0.,0.));
#1394=DIRECTION('',(1.,8.16340459283203E-17,0.));
#1395=DIRECTION('',(-8.16340459283203E-17,1.,0.));
#1396=DIRECTION('',(0.,-1.,0.));
#1397=DIRECTION('',(0.,0.,-1.));
#1398=DIRECTION('',(0.,1.,0.));
#1399=DIRECTION('',(0.,0.,1.));
#1400=DIRECTION('',(1.,0.,0.));
#1401=DIRECTION('',(0.,0.,-1.));
#1402=DIRECTION('',(8.16340459283203E-17,-1.,0.));
#1403=DIRECTION('',(1.,8.16340459283203E-17,0.));
#1404=DIRECTION('',(8.16340459283203E-17,-1.,0.));
#1405=DIRECTION('',(1.,8.16340459283203E-17,0.));
#1406=DIRECTION('',(-1.,0.,0.));
#1407=DIRECTION('',(0.,0.,1.));
#1408=DIRECTION('',(-1.,0.,0.));
#1409=DIRECTION('',(0.,0.,1.));
#1410=DIRECTION('',(0.,0.,1.));
#1411=DIRECTION('',(1.,0.,0.));
#1412=DIRECTION('',(1.,0.,0.));
#1413=DIRECTION('',(0.,0.,-1.));
#1414=DIRECTION('',(0.,0.,1.));
#1415=DIRECTION('',(1.,0.,0.));
#1416=DIRECTION('',(0.,0.,-1.));
#1417=DIRECTION('',(-1.,0.,0.));
#1418=DIRECTION('',(1.,0.,0.));
#1419=DIRECTION('',(0.,0.,-1.));
#1420=DIRECTION('',(1.,0.,0.));
#1421=DIRECTION('',(0.,0.,-1.));
#1422=DIRECTION('',(0.,0.,1.));
#1423=DIRECTION('',(1.,0.,0.));
#1424=DIRECTION('',(0.,-1.73472347597681E-16,-1.));
#1425=DIRECTION('',(0.,1.,-1.73472347597681E-16));
#1426=DIRECTION('',(0.,-1.,1.73472347597681E-16));
#1427=DIRECTION('',(0.,-1.73472347597681E-16,-1.));
#1428=DIRECTION('',(0.,-1.,0.));
#1429=DIRECTION('',(0.,0.,-1.));
#1430=DIRECTION('',(-8.16340459283203E-17,1.,0.));
#1431=DIRECTION('',(-1.,-8.16340459283203E-17,0.));
#1432=DIRECTION('',(0.,1.,-6.93889390390723E-16));
#1433=DIRECTION('',(0.,6.93889390390723E-16,1.));
#1434=DIRECTION('',(0.,0.,1.));
#1435=DIRECTION('',(1.,0.,0.));
#1436=DIRECTION('',(0.,-1.,0.));
#1437=DIRECTION('',(0.,0.,-1.));
#1438=DIRECTION('',(0.,0.,1.));
#1439=DIRECTION('',(0.,0.,1.));
#1440=DIRECTION('',(0.,0.,1.));
#1441=DIRECTION('',(1.,0.,0.));
#1442=DIRECTION('',(0.,0.,1.));
#1443=DIRECTION('',(-1.,0.,0.));
#1444=DIRECTION('',(0.,0.,1.));
#1445=DIRECTION('',(0.,0.,-1.));
#1446=DIRECTION('',(0.,0.,1.));
#1447=DIRECTION('',(1.,0.,0.));
#1448=DIRECTION('',(0.,0.,1.));
#1449=DIRECTION('',(0.,0.,1.));
#1450=DIRECTION('',(1.,0.,0.));
#1451=DIRECTION('',(0.,-1.,0.));
#1452=DIRECTION('',(0.,0.,-1.));
#1453=DIRECTION('',(0.,0.,1.));
#1454=DIRECTION('',(1.,0.,0.));
#1455=DIRECTION('',(0.,0.,1.));
#1456=DIRECTION('',(1.,0.,0.));
#1457=DIRECTION('',(0.,0.,1.));
#1458=DIRECTION('',(1.,0.,0.));
#1459=DIRECTION('',(-1.,-5.78241158658936E-17,0.));
#1460=DIRECTION('',(5.78241158658936E-17,-1.,0.));
#1461=DIRECTION('',(0.,0.,-1.));
#1462=DIRECTION('',(0.,0.,1.));
#1463=DIRECTION('',(0.,0.,1.));
#1464=DIRECTION('',(1.,0.,0.));
#1465=DIRECTION('',(0.,0.,1.));
#1466=DIRECTION('',(1.,0.,0.));
#1467=DIRECTION('',(1.,0.,0.));
#1468=DIRECTION('',(0.,1.,0.));
#1469=DIRECTION('',(0.,0.,1.));
#1470=DIRECTION('',(0.,1.,0.));
#1471=DIRECTION('',(0.,0.,1.));
#1472=DIRECTION('',(0.,1.,0.));
#1473=DIRECTION('',(0.,0.,1.));
#1474=DIRECTION('',(0.,1.,0.));
#1475=DIRECTION('',(0.,0.,1.));
#1476=DIRECTION('',(0.,1.,0.));
#1477=DIRECTION('',(0.,0.,1.));
#1478=DIRECTION('',(0.,1.,0.));
#1479=DIRECTION('',(0.,0.,1.));
#1480=CARTESIAN_POINT('',(0.,0.,0.));
#1481=CARTESIAN_POINT('',(-0.0191474287601081,-0.00904166698455811,0.0015));
#1482=CARTESIAN_POINT('',(-0.0191474287601081,-0.0280416669845581,0.02));
#1483=CARTESIAN_POINT('',(-0.0191474287601081,-0.0280416669845581,0.02));
#1484=CARTESIAN_POINT('',(-0.0191474287601081,-0.0280416669845581,0.0015));
#1485=CARTESIAN_POINT('',(-0.0191474287601081,-0.00904166698455811,0.02));
#1486=CARTESIAN_POINT('',(-0.0191474287601081,-0.0390416669845581,0.02));
#1487=CARTESIAN_POINT('',(-0.0191474287601081,-0.0390416669845581,0.0015));
#1488=CARTESIAN_POINT('',(-0.0191474287601081,-0.0390416669845581,0.0015));
#1489=CARTESIAN_POINT('',(-0.0191474287601081,-0.00904166698455811,0.0015));
#1490=CARTESIAN_POINT('',(-0.0191474287601081,-0.00904166698455811,0.0015));
#1491=CARTESIAN_POINT('',(-0.0191474287601081,-0.00904166698455811,0.02));
#1492=CARTESIAN_POINT('',(-0.0191474287601081,-0.00904166698455811,0.02));
#1493=CARTESIAN_POINT('',(-0.0191474287601081,-0.0255416669845581,0.02));
#1494=CARTESIAN_POINT('',(-0.0191474287601081,-0.0255416669845581,0.02));
#1495=CARTESIAN_POINT('',(-0.0191474287601081,-0.0255416669845581,0.0015));
#1496=CARTESIAN_POINT('',(-0.0191474287601081,-0.00904166698455811,0.0015));
#1497=CARTESIAN_POINT('',(-0.0191474287601081,-0.00904166698455811,0.0015));
#1498=CARTESIAN_POINT('',(-0.0191474287601081,-0.00904166698455811,0.02));
#1499=CARTESIAN_POINT('',(-0.0191474287601081,-0.00904166698455811,0.0015));
#1500=CARTESIAN_POINT('',(-0.0191474287601081,-0.00904166698455811,0.02));
#1501=CARTESIAN_POINT('',(-0.0191474287601081,0.00945833301544189,0.02));
#1502=CARTESIAN_POINT('',(-0.0191474287601081,-0.00654166698455811,0.02));
#1503=CARTESIAN_POINT('',(-0.0191474287601081,-0.00654166698455811,0.02));
#1504=CARTESIAN_POINT('',(-0.0191474287601081,-0.00654166698455811,0.0015));
#1505=CARTESIAN_POINT('',(-0.0191474287601081,-0.00904166698455811,0.0015));
#1506=CARTESIAN_POINT('',(-0.0191474287601081,0.00945833301544189,0.0015));
#1507=CARTESIAN_POINT('',(-0.0191474287601081,0.00945833301544189,0.02));
#1508=CARTESIAN_POINT('',(0.0158525712398919,-0.00904166698455811,0.0015));
#1509=CARTESIAN_POINT('',(0.0158525712398919,-0.00904166698455811,0.02));
#1510=CARTESIAN_POINT('',(0.0158525712398919,-0.0280416669845581,0.02));
#1511=CARTESIAN_POINT('',(0.0158525712398919,-0.0390416669845581,0.02));
#1512=CARTESIAN_POINT('',(0.0158525712398919,-0.0280416669845581,0.02));
#1513=CARTESIAN_POINT('',(0.0158525712398919,-0.0280416669845581,0.0015));
#1514=CARTESIAN_POINT('',(0.0158525712398919,-0.00904166698455811,0.0015));
#1515=CARTESIAN_POINT('',(0.0158525712398919,-0.0390416669845581,0.0015));
#1516=CARTESIAN_POINT('',(0.0158525712398919,-0.0390416669845581,0.0015));
#1517=CARTESIAN_POINT('',(0.0158525712398919,-0.00904166698455811,0.0015));
#1518=CARTESIAN_POINT('',(0.0158525712398919,-0.0255416669845581,0.02));
#1519=CARTESIAN_POINT('',(0.0158525712398919,-0.0255416669845581,0.02));
#1520=CARTESIAN_POINT('',(0.0158525712398919,-0.0255416669845581,0.0015));
#1521=CARTESIAN_POINT('',(0.0158525712398919,-0.00904166698455811,0.02));
#1522=CARTESIAN_POINT('',(0.0158525712398919,-0.00904166698455811,0.02));
#1523=CARTESIAN_POINT('',(0.0158525712398919,-0.00904166698455811,0.02));
#1524=CARTESIAN_POINT('',(0.0158525712398919,-0.00904166698455811,0.0015));
#1525=CARTESIAN_POINT('',(0.0158525712398919,-0.00904166698455811,0.0015));
#1526=CARTESIAN_POINT('',(0.0158525712398919,-0.00904166698455811,0.0015));
#1527=CARTESIAN_POINT('',(0.0158525712398919,-0.00654166698455811,0.02));
#1528=CARTESIAN_POINT('',(0.0158525712398919,-0.00654166698455811,0.02));
#1529=CARTESIAN_POINT('',(0.0158525712398919,-0.00654166698455811,0.0015));
#1530=CARTESIAN_POINT('',(0.0158525712398919,-0.00904166698455811,0.02));
#1531=CARTESIAN_POINT('',(0.0158525712398919,0.00945833301544189,0.02));
#1532=CARTESIAN_POINT('',(0.0158525712398919,0.0094583330154419,0.02));
#1533=CARTESIAN_POINT('',(0.0158525712398919,0.0094583330154419,0.0015));
#1534=CARTESIAN_POINT('',(0.0158525712398919,-0.00904166698455811,0.0015));
#1535=CARTESIAN_POINT('',(-0.00164742876010803,-0.00904166698455811,0.0015));
#1536=CARTESIAN_POINT('',(-0.00164742876010803,-0.0255416669845581,0.0015));
#1537=CARTESIAN_POINT('',(-0.00164742876010803,-0.00904166698455811,0.0015));
#1538=CARTESIAN_POINT('',(-0.00164742876010803,-0.00904166698455811,0.0015));
#1539=CARTESIAN_POINT('',(-0.00164742876010803,-0.00654166698455811,0.0015));
#1540=CARTESIAN_POINT('',(-0.00164742876010803,0.0094583330154419,0.0015));
#1541=CARTESIAN_POINT('',(-0.00164742876010803,-0.00904166698455811,0.0015));
#1542=CARTESIAN_POINT('',(-0.0191474287601081,-0.00904166698455811,0.0015));
#1543=CARTESIAN_POINT('',(-0.0191474287601081,0.0209583330154419,0.0015));
#1544=CARTESIAN_POINT('',(-0.0191474287601081,0.0119583330154419,0.0015));
#1545=CARTESIAN_POINT('',(-0.00164742876010803,0.0119583330154419,0.0015));
#1546=CARTESIAN_POINT('',(0.0158525712398919,0.0119583330154419,0.0015));
#1547=CARTESIAN_POINT('',(0.0158525712398919,-0.00904166698455811,0.0015));
#1548=CARTESIAN_POINT('',(0.0158525712398919,0.0209583330154419,0.0015));
#1549=CARTESIAN_POINT('',(0.010852571239892,0.0209583330154419,0.0015));
#1550=CARTESIAN_POINT('',(0.010852571239892,0.0259583330154419,0.0015));
#1551=CARTESIAN_POINT('',(-0.00164742876010803,0.0259583330154419,0.0015));
#1552=CARTESIAN_POINT('',(-0.014147428760108,0.0259583330154419,0.0015));
#1553=CARTESIAN_POINT('',(-0.014147428760108,0.0209583330154419,0.0015));
#1554=CARTESIAN_POINT('',(-0.00164742876010803,0.0334583330154419,0.02));
#1555=CARTESIAN_POINT('',(-0.00164742876010803,0.0334583330154419,0.015));
#1556=CARTESIAN_POINT('',(-0.021647428760108,0.0334583330154419,0.015));
#1557=CARTESIAN_POINT('',(0.0183525712398919,0.0334583330154419,0.015));
#1558=CARTESIAN_POINT('',(0.0183525712398919,0.0334583330154419,0.02));
#1559=CARTESIAN_POINT('',(0.0183525712398919,0.0334583330154419,0.005));
#1560=CARTESIAN_POINT('',(-0.0266474287601081,0.0334583330154419,0.005));
#1561=CARTESIAN_POINT('',(-0.021647428760108,0.0334583330154419,0.005));
#1562=CARTESIAN_POINT('',(-0.021647428760108,0.0334583330154419,0.015));
#1563=CARTESIAN_POINT('',(-0.0266474287601081,-0.00904166698455811,0.02));
#1564=CARTESIAN_POINT('',(-0.0266474287601081,-0.00904166698455811,0.005));
#1565=CARTESIAN_POINT('',(-0.0266474287601081,0.0284583330154419,0.005));
#1566=CARTESIAN_POINT('',(-0.0266474287601081,-0.0465416669845581,0.005));
#1567=CARTESIAN_POINT('',(-0.0266474287601081,-0.0465416669845581,0.02));
#1568=CARTESIAN_POINT('',(-0.0266474287601081,-0.0465416669845581,0.015));
#1569=CARTESIAN_POINT('',(-0.0266474287601081,0.0334583330154419,0.015));
#1570=CARTESIAN_POINT('',(-0.0266474287601081,0.0284583330154419,0.015));
#1571=CARTESIAN_POINT('',(-0.0266474287601081,0.0284583330154419,0.));
#1572=CARTESIAN_POINT('',(-0.00164742876010803,-0.0515416669845581,0.02));
#1573=CARTESIAN_POINT('',(-0.021647428760108,-0.0515416669845581,0.02));
#1574=CARTESIAN_POINT('',(-0.021647428760108,-0.0515416669845581,0.015));
#1575=CARTESIAN_POINT('',(-0.021647428760108,-0.0515416669845581,0.005));
#1576=CARTESIAN_POINT('',(-0.00164742876010803,-0.0515416669845581,0.005));
#1577=CARTESIAN_POINT('',(0.0183525712398919,-0.0515416669845581,0.005));
#1578=CARTESIAN_POINT('',(0.0183525712398919,-0.0515416669845581,0.015));
#1579=CARTESIAN_POINT('',(0.0183525712398919,-0.0515416669845581,0.015));
#1580=CARTESIAN_POINT('',(-0.021647428760108,-0.0515416669845581,0.015));
#1581=CARTESIAN_POINT('',(0.023352571239892,-0.00904166698455811,0.02));
#1582=CARTESIAN_POINT('',(0.023352571239892,-0.0465416669845581,0.));
#1583=CARTESIAN_POINT('',(0.023352571239892,-0.0465416669845581,0.015));
#1584=CARTESIAN_POINT('',(0.023352571239892,-0.0465416669845581,0.005));
#1585=CARTESIAN_POINT('',(0.023352571239892,0.0284583330154419,0.005));
#1586=CARTESIAN_POINT('',(0.023352571239892,0.0284583330154419,0.005));
#1587=CARTESIAN_POINT('',(0.023352571239892,0.0284583330154419,0.02));
#1588=CARTESIAN_POINT('',(0.023352571239892,0.0284583330154419,0.015));
#1589=CARTESIAN_POINT('',(0.023352571239892,-0.00904166698455811,0.015));
#1590=CARTESIAN_POINT('',(-0.00164742876010803,-0.0090416669845581,0.02));
#1591=CARTESIAN_POINT('',(-0.00164742876010803,-0.0280416669845581,0.02));
#1592=CARTESIAN_POINT('',(0.010852571239892,-0.0390416669845581,0.02));
#1593=CARTESIAN_POINT('',(0.010852571239892,-0.0440416669845581,0.02));
#1594=CARTESIAN_POINT('',(-0.00164742876010803,-0.0440416669845581,0.02));
#1595=CARTESIAN_POINT('',(-0.014147428760108,-0.0440416669845581,0.02));
#1596=CARTESIAN_POINT('',(-0.014147428760108,-0.0390416669845581,0.02));
#1597=CARTESIAN_POINT('',(-0.00164742876010803,-0.00904166698455811,0.02));
#1598=CARTESIAN_POINT('',(-0.00164742876010803,-0.0255416669845581,0.02));
#1599=CARTESIAN_POINT('',(-0.00164742876010803,0.0094583330154419,0.02));
#1600=CARTESIAN_POINT('',(-0.00164742876010803,-0.00654166698455811,0.02));
#1601=CARTESIAN_POINT('',(-0.014147428760108,0.0209583330154419,0.02));
#1602=CARTESIAN_POINT('',(-0.014147428760108,0.0259583330154419,0.02));
#1603=CARTESIAN_POINT('',(-0.0191474287601081,0.0209583330154419,0.02));
#1604=CARTESIAN_POINT('',(-0.00164742876010803,0.0259583330154419,0.02));
#1605=CARTESIAN_POINT('',(0.010852571239892,0.0259583330154419,0.02));
#1606=CARTESIAN_POINT('',(0.010852571239892,0.0209583330154419,0.02));
#1607=CARTESIAN_POINT('',(0.0158525712398919,0.0209583330154419,0.02));
#1608=CARTESIAN_POINT('',(0.0158525712398919,-0.00904166698455811,0.02));
#1609=CARTESIAN_POINT('',(0.0158525712398919,0.0119583330154419,0.02));
#1610=CARTESIAN_POINT('',(-0.00164742876010803,0.0119583330154419,0.02));
#1611=CARTESIAN_POINT('',(-0.0191474287601081,0.0119583330154419,0.02));
#1612=CARTESIAN_POINT('',(-0.0191474287601081,-0.00904166698455811,0.02));
#1613=CARTESIAN_POINT('',(-0.021647428760108,-0.0515416669845581,0.02));
#1614=CARTESIAN_POINT('',(-0.021647428760108,0.0284583330154419,0.02));
#1615=CARTESIAN_POINT('',(-0.021647428760108,-0.0465416669845581,0.02));
#1616=CARTESIAN_POINT('',(0.023352571239892,-0.0465416669845581,0.02));
#1617=CARTESIAN_POINT('',(0.0183525712398919,-0.0465416669845581,0.02));
#1618=CARTESIAN_POINT('',(0.0183525712398919,-0.0090416669845581,0.02));
#1619=CARTESIAN_POINT('',(0.0183525712398919,0.0284583330154419,0.02));
#1620=CARTESIAN_POINT('',(-0.00164742876010803,0.0284583330154419,0.02));
#1621=CARTESIAN_POINT('',(-0.00164742876010803,-0.0090416669845581,0.));
#1622=CARTESIAN_POINT('',(0.023352571239892,0.0284583330154419,0.));
#1623=CARTESIAN_POINT('',(-0.021647428760108,0.0284583330154419,0.));
#1624=CARTESIAN_POINT('',(0.0183525712398919,0.0284583330154419,0.));
#1625=CARTESIAN_POINT('',(0.0183525712398919,-0.0515416669845581,0.));
#1626=CARTESIAN_POINT('',(0.0183525712398919,-0.0465416669845581,0.));
#1627=CARTESIAN_POINT('',(-0.00164742876010803,-0.0465416669845581,0.));
#1628=CARTESIAN_POINT('',(-0.021647428760108,-0.0465416669845581,0.));
#1629=CARTESIAN_POINT('',(-0.021647428760108,-0.0090416669845581,0.));
#1630=CARTESIAN_POINT('',(-0.021647428760108,-0.0090416669845581,0.015));
#1631=CARTESIAN_POINT('',(-0.021647428760108,-0.0465416669845581,0.015));
#1632=CARTESIAN_POINT('',(-0.021647428760108,0.0284583330154419,0.015));
#1633=CARTESIAN_POINT('',(-0.00164742876010803,0.0284583330154419,0.015));
#1634=CARTESIAN_POINT('',(0.0183525712398919,0.0284583330154419,0.015));
#1635=CARTESIAN_POINT('',(-0.021647428760108,0.0284583330154419,0.015));
#1636=CARTESIAN_POINT('',(-0.021647428760108,0.0284583330154419,0.015));
#1637=CARTESIAN_POINT('',(-0.021647428760108,0.0284583330154419,0.015));
#1638=CARTESIAN_POINT('',(-0.021647428760108,0.0284583330154419,0.02));
#1639=CARTESIAN_POINT('',(-0.021647428760108,0.0284583330154419,0.005));
#1640=CARTESIAN_POINT('',(-0.021647428760108,0.0284583330154419,0.005));
#1641=CARTESIAN_POINT('',(-0.021647428760108,0.0284583330154419,0.005));
#1642=CARTESIAN_POINT('',(-0.021647428760108,0.0284583330154419,0.005));
#1643=CARTESIAN_POINT('',(-0.00164742876010803,0.0284583330154419,0.005));
#1644=CARTESIAN_POINT('',(0.0183525712398919,0.0284583330154419,0.005));
#1645=CARTESIAN_POINT('',(-0.021647428760108,-0.00904166698455811,0.005));
#1646=CARTESIAN_POINT('',(-0.021647428760108,-0.0465416669845581,0.005));
#1647=CARTESIAN_POINT('',(0.0183525712398919,0.0284583330154419,0.02));
#1648=CARTESIAN_POINT('',(0.0183525712398919,0.0284583330154419,0.005));
#1649=CARTESIAN_POINT('',(0.0183525712398919,0.0284583330154419,0.015));
#1650=CARTESIAN_POINT('',(-0.021647428760108,-0.0465416669845581,0.02));
#1651=CARTESIAN_POINT('',(-0.021647428760108,-0.0465416669845581,0.005));
#1652=CARTESIAN_POINT('',(-0.021647428760108,-0.0465416669845581,0.015));
#1653=CARTESIAN_POINT('',(0.0183525712398919,0.0284583330154419,0.015));
#1654=CARTESIAN_POINT('',(0.0183525712398919,0.0284583330154419,0.015));
#1655=CARTESIAN_POINT('',(-0.021647428760108,-0.0465416669845581,0.015));
#1656=CARTESIAN_POINT('',(-0.021647428760108,-0.0465416669845581,0.015));
#1657=CARTESIAN_POINT('',(0.0183525712398919,-0.00904166698455811,0.015));
#1658=CARTESIAN_POINT('',(0.0183525712398919,-0.0465416669845581,0.015));
#1659=CARTESIAN_POINT('',(-0.00164742876010803,-0.0465416669845581,0.015));
#1660=CARTESIAN_POINT('',(0.0183525712398919,-0.0465416669845581,0.015));
#1661=CARTESIAN_POINT('',(-0.021647428760108,-0.0465416669845581,0.005));
#1662=CARTESIAN_POINT('',(-0.021647428760108,-0.0465416669845581,0.005));
#1663=CARTESIAN_POINT('',(0.0183525712398919,-0.0465416669845581,0.015));
#1664=CARTESIAN_POINT('',(0.0183525712398919,-0.0465416669845581,0.015));
#1665=CARTESIAN_POINT('',(-0.00164742876010803,-0.0465416669845581,0.005));
#1666=CARTESIAN_POINT('',(0.0183525712398919,-0.0465416669845581,0.005));
#1667=CARTESIAN_POINT('',(0.0183525712398919,-0.0465416669845581,0.02));
#1668=CARTESIAN_POINT('',(0.0183525712398919,-0.0465416669845581,0.005));
#1669=CARTESIAN_POINT('',(0.0183525712398919,-0.0465416669845581,0.005));
#1670=CARTESIAN_POINT('',(0.0183525712398919,-0.0465416669845581,0.005));
#1671=CARTESIAN_POINT('',(0.0183525712398919,-0.0090416669845581,0.005));
#1672=CARTESIAN_POINT('',(0.0183525712398919,0.0284583330154419,0.005));
#1673=CARTESIAN_POINT('',(0.0183525712398919,0.0284583330154419,0.005));
#1674=CARTESIAN_POINT('',(-0.00164742876010803,0.0259583330154419,0.0015));
#1675=CARTESIAN_POINT('',(-0.014147428760108,0.0259583330154419,0.0015));
#1676=CARTESIAN_POINT('',(0.010852571239892,0.0259583330154419,0.0015));
#1677=CARTESIAN_POINT('',(-0.014147428760108,0.0209583330154419,0.0015));
#1678=CARTESIAN_POINT('',(-0.0191474287601081,0.0209583330154419,0.0015));
#1679=CARTESIAN_POINT('',(-0.0191474287601081,-0.00904166698455811,0.0015));
#1680=CARTESIAN_POINT('',(-0.0191474287601081,0.0119583330154419,0.02));
#1681=CARTESIAN_POINT('',(-0.014147428760108,-0.0390416669845581,0.0015));
#1682=CARTESIAN_POINT('',(-0.014147428760108,-0.0440416669845581,0.0015));
#1683=CARTESIAN_POINT('',(-0.014147428760108,-0.0440416669845581,0.0015));
#1684=CARTESIAN_POINT('',(-0.014147428760108,-0.0390416669845581,0.0015));
#1685=CARTESIAN_POINT('',(-0.00164742876010803,-0.0440416669845581,0.0015));
#1686=CARTESIAN_POINT('',(0.010852571239892,-0.0440416669845581,0.0015));
#1687=CARTESIAN_POINT('',(0.010852571239892,-0.0440416669845581,0.0015));
#1688=CARTESIAN_POINT('',(-0.00164742876010803,-0.0440416669845581,0.0015));
#1689=CARTESIAN_POINT('',(0.010852571239892,-0.0390416669845581,0.0015));
#1690=CARTESIAN_POINT('',(0.010852571239892,-0.0390416669845581,0.0015));
#1691=CARTESIAN_POINT('',(0.0158525712398919,-0.00904166698455811,0.0015));
#1692=CARTESIAN_POINT('',(0.0158525712398919,0.0119583330154419,0.02));
#1693=CARTESIAN_POINT('',(0.0158525712398919,0.0209583330154419,0.0015));
#1694=CARTESIAN_POINT('',(0.010852571239892,0.0209583330154419,0.0015));
#1695=CARTESIAN_POINT('',(-0.00164742876010803,-0.00904166698455811,0.0015));
#1696=CARTESIAN_POINT('',(-0.00164742876010803,-0.0280416669845581,0.0015));
#1697=CARTESIAN_POINT('',(-0.00164742876010803,0.0119583330154419,0.02));
#1698=CARTESIAN_POINT('',(-0.00164742876010803,0.0094583330154419,0.02));
#1699=CARTESIAN_POINT('',(-0.00164742876010803,-0.00654166698455811,0.02));
#1700=CARTESIAN_POINT('',(-0.00164742876010803,-0.00904166698455811,0.02));
#1701=CARTESIAN_POINT('',(-0.00164742876010803,-0.0255416669845581,0.02));
#1702=CARTESIAN_POINT('',(-0.00164742876010803,-0.0280416669845581,0.02));
#1703=MECHANICAL_DESIGN_GEOMETRIC_PRESENTATION_REPRESENTATION('',(#843,
#742,#743,#744,#745,#746,#747,#748,#749,#750,#751,#752,#753,#754,#755,#756,
#757,#758,#759,#760,#761,#762,#763,#764,#765,#766,#767,#768,#769,#770,#771,
#772,#773,#774,#775,#776,#777,#778,#779,#780,#781,#782,#783,#784,#785,#786,
#787,#788,#789,#790,#791),#1704);
#1704=(
GEOMETRIC_REPRESENTATION_CONTEXT(3)
GLOBAL_UNCERTAINTY_ASSIGNED_CONTEXT((#1705))
GLOBAL_UNIT_ASSIGNED_CONTEXT((#1708,#1707,#1706))
REPRESENTATION_CONTEXT('Part 1','TOP_LEVEL_ASSEMBLY_PART')
);
#1705=UNCERTAINTY_MEASURE_WITH_UNIT(LENGTH_MEASURE(1.E-8),#1708,
'DISTANCE_ACCURACY_VALUE','Maximum Tolerance applied to model');
#1706=(
NAMED_UNIT(*)
SI_UNIT($,.STERADIAN.)
SOLID_ANGLE_UNIT()
);
#1707=(
NAMED_UNIT(*)
PLANE_ANGLE_UNIT()
SI_UNIT($,.RADIAN.)
);
#1708=(
LENGTH_UNIT()
NAMED_UNIT(*)
SI_UNIT($,.METRE.)
);
#1709=PRODUCT_DEFINITION_SHAPE('','',#1710);
#1710=PRODUCT_DEFINITION('','',#1712,#1711);
#1711=PRODUCT_DEFINITION_CONTEXT('',#1718,'design');
#1712=PRODUCT_DEFINITION_FORMATION_WITH_SPECIFIED_SOURCE('','',#1714,
 .NOT_KNOWN.);
#1713=PRODUCT_RELATED_PRODUCT_CATEGORY('','',(#1714));
#1714=PRODUCT('Part 1','Part 1','Part 1',(#1716));
#1715=PRODUCT_CATEGORY('','');
#1716=PRODUCT_CONTEXT('',#1718,'mechanical');
#1717=APPLICATION_PROTOCOL_DEFINITION('international standard',
'ap242_managed_model_based_3d_engineering',2020,#1718);
#1718=APPLICATION_CONTEXT('managed model based 3d engineering');
ENDSEC;
END-ISO-10303-21;
