ISO-10303-21;
HEADER;
/* Generated by software containing ST-Developer
 * from STEP Tools, Inc. (www.steptools.com) 
 */
/* OPTION: using custom renumber hook */

FILE_DESCRIPTION(
/* description */ ('STEP AP242 Edition 2',
'CAx-IF Rec.Pracs.---Representation and Presentation of Product Manufa
cturing Information (PMI)---4.0---2014-10-13',
'CAx-IF Rec.Pracs.---3D Tessellated Geometry---0.4---2014-09-14','2;1',
'CAx-IF Rec.Pracs.---User Defined Attributes---1.5---2016-08-15'),
/* implementation_level */ '2;1');

FILE_NAME(
/* name */ 'Side Plate',
/* time_stamp */ '2026-09-03T13:03:12Z',
/* author */ (''),
/* organization */ (''),
/* preprocessor_version */ 'ST-DEVELOPER v20',
/* originating_system */ 'ONSHAPE BY PTC INC, 1.220',
/* authorisation */ '  ');

FILE_SCHEMA (('AP242_MANAGED_MODEL_BASED_3D_ENGINEERING_MIM_LF { 1 0 10303 442 3 1 4 }'));
ENDSEC;

DATA;
#10=SHAPE_REPRESENTATION_RELATIONSHIP('','',#1294,#11);
#11=ADVANCED_BREP_SHAPE_REPRESENTATION('',(#1292),#1868);
#12=CYLINDRICAL_SURFACE('',#1320,0.0077254833995939);
#13=CYLINDRICAL_SURFACE('',#1327,0.007);
#14=CYLINDRICAL_SURFACE('',#1331,0.01);
#15=CYLINDRICAL_SURFACE('',#1336,0.01);
#16=CYLINDRICAL_SURFACE('',#1342,0.007);
#17=CYLINDRICAL_SURFACE('',#1346,0.01);
#18=CYLINDRICAL_SURFACE('',#1351,0.01);
#19=CYLINDRICAL_SURFACE('',#1355,0.0077254833995939);
#20=CIRCLE('',#1301,0.0077254833995939);
#21=CIRCLE('',#1302,0.0077254833995939);
#22=CIRCLE('',#1303,0.01);
#23=CIRCLE('',#1304,0.01);
#24=CIRCLE('',#1305,0.007);
#25=CIRCLE('',#1306,0.01);
#26=CIRCLE('',#1307,0.01);
#27=CIRCLE('',#1308,0.007);
#28=CIRCLE('',#1310,0.0077254833995939);
#29=CIRCLE('',#1311,0.01);
#30=CIRCLE('',#1312,0.01);
#31=CIRCLE('',#1313,0.007);
#32=CIRCLE('',#1314,0.01);
#33=CIRCLE('',#1315,0.01);
#34=CIRCLE('',#1316,0.007);
#35=CIRCLE('',#1317,0.0077254833995939);
#36=ORIENTED_EDGE('',*,*,#300,.F.);
#37=ORIENTED_EDGE('',*,*,#301,.F.);
#38=ORIENTED_EDGE('',*,*,#302,.T.);
#39=ORIENTED_EDGE('',*,*,#303,.T.);
#40=ORIENTED_EDGE('',*,*,#304,.T.);
#41=ORIENTED_EDGE('',*,*,#305,.F.);
#42=ORIENTED_EDGE('',*,*,#306,.F.);
#43=ORIENTED_EDGE('',*,*,#301,.T.);
#44=ORIENTED_EDGE('',*,*,#307,.T.);
#45=ORIENTED_EDGE('',*,*,#308,.F.);
#46=ORIENTED_EDGE('',*,*,#309,.F.);
#47=ORIENTED_EDGE('',*,*,#305,.T.);
#48=ORIENTED_EDGE('',*,*,#310,.F.);
#49=ORIENTED_EDGE('',*,*,#303,.F.);
#50=ORIENTED_EDGE('',*,*,#311,.T.);
#51=ORIENTED_EDGE('',*,*,#308,.T.);
#52=ORIENTED_EDGE('',*,*,#312,.F.);
#53=ORIENTED_EDGE('',*,*,#313,.T.);
#54=ORIENTED_EDGE('',*,*,#314,.T.);
#55=ORIENTED_EDGE('',*,*,#315,.F.);
#56=ORIENTED_EDGE('',*,*,#316,.F.);
#57=ORIENTED_EDGE('',*,*,#317,.F.);
#58=ORIENTED_EDGE('',*,*,#318,.T.);
#59=ORIENTED_EDGE('',*,*,#319,.T.);
#60=ORIENTED_EDGE('',*,*,#320,.F.);
#61=ORIENTED_EDGE('',*,*,#321,.F.);
#62=ORIENTED_EDGE('',*,*,#322,.F.);
#63=ORIENTED_EDGE('',*,*,#323,.F.);
#64=ORIENTED_EDGE('',*,*,#324,.F.);
#65=ORIENTED_EDGE('',*,*,#325,.T.);
#66=ORIENTED_EDGE('',*,*,#326,.T.);
#67=ORIENTED_EDGE('',*,*,#327,.F.);
#68=ORIENTED_EDGE('',*,*,#328,.F.);
#69=ORIENTED_EDGE('',*,*,#329,.T.);
#70=ORIENTED_EDGE('',*,*,#330,.T.);
#71=ORIENTED_EDGE('',*,*,#331,.F.);
#72=ORIENTED_EDGE('',*,*,#332,.F.);
#73=ORIENTED_EDGE('',*,*,#333,.T.);
#74=ORIENTED_EDGE('',*,*,#334,.F.);
#75=ORIENTED_EDGE('',*,*,#335,.F.);
#76=ORIENTED_EDGE('',*,*,#336,.T.);
#77=ORIENTED_EDGE('',*,*,#337,.F.);
#78=ORIENTED_EDGE('',*,*,#338,.F.);
#79=ORIENTED_EDGE('',*,*,#339,.F.);
#80=ORIENTED_EDGE('',*,*,#340,.T.);
#81=ORIENTED_EDGE('',*,*,#341,.T.);
#82=ORIENTED_EDGE('',*,*,#342,.F.);
#83=ORIENTED_EDGE('',*,*,#343,.F.);
#84=ORIENTED_EDGE('',*,*,#344,.T.);
#85=ORIENTED_EDGE('',*,*,#345,.T.);
#86=ORIENTED_EDGE('',*,*,#346,.F.);
#87=ORIENTED_EDGE('',*,*,#347,.F.);
#88=ORIENTED_EDGE('',*,*,#348,.T.);
#89=ORIENTED_EDGE('',*,*,#349,.F.);
#90=ORIENTED_EDGE('',*,*,#350,.F.);
#91=ORIENTED_EDGE('',*,*,#351,.T.);
#92=ORIENTED_EDGE('',*,*,#302,.F.);
#93=ORIENTED_EDGE('',*,*,#306,.T.);
#94=ORIENTED_EDGE('',*,*,#309,.T.);
#95=ORIENTED_EDGE('',*,*,#311,.F.);
#96=ORIENTED_EDGE('',*,*,#352,.F.);
#97=ORIENTED_EDGE('',*,*,#353,.T.);
#98=ORIENTED_EDGE('',*,*,#354,.T.);
#99=ORIENTED_EDGE('',*,*,#355,.T.);
#100=ORIENTED_EDGE('',*,*,#356,.F.);
#101=ORIENTED_EDGE('',*,*,#357,.T.);
#102=ORIENTED_EDGE('',*,*,#358,.T.);
#103=ORIENTED_EDGE('',*,*,#359,.F.);
#104=ORIENTED_EDGE('',*,*,#360,.F.);
#105=ORIENTED_EDGE('',*,*,#361,.T.);
#106=ORIENTED_EDGE('',*,*,#362,.T.);
#107=ORIENTED_EDGE('',*,*,#363,.T.);
#108=ORIENTED_EDGE('',*,*,#364,.T.);
#109=ORIENTED_EDGE('',*,*,#365,.F.);
#110=ORIENTED_EDGE('',*,*,#366,.F.);
#111=ORIENTED_EDGE('',*,*,#367,.F.);
#112=ORIENTED_EDGE('',*,*,#368,.T.);
#113=ORIENTED_EDGE('',*,*,#369,.F.);
#114=ORIENTED_EDGE('',*,*,#370,.T.);
#115=ORIENTED_EDGE('',*,*,#371,.T.);
#116=ORIENTED_EDGE('',*,*,#372,.T.);
#117=ORIENTED_EDGE('',*,*,#373,.T.);
#118=ORIENTED_EDGE('',*,*,#374,.F.);
#119=ORIENTED_EDGE('',*,*,#375,.F.);
#120=ORIENTED_EDGE('',*,*,#376,.T.);
#121=ORIENTED_EDGE('',*,*,#377,.T.);
#122=ORIENTED_EDGE('',*,*,#378,.T.);
#123=ORIENTED_EDGE('',*,*,#379,.T.);
#124=ORIENTED_EDGE('',*,*,#380,.F.);
#125=ORIENTED_EDGE('',*,*,#381,.F.);
#126=ORIENTED_EDGE('',*,*,#382,.F.);
#127=ORIENTED_EDGE('',*,*,#383,.T.);
#128=ORIENTED_EDGE('',*,*,#384,.F.);
#129=ORIENTED_EDGE('',*,*,#385,.T.);
#130=ORIENTED_EDGE('',*,*,#386,.T.);
#131=ORIENTED_EDGE('',*,*,#387,.F.);
#132=ORIENTED_EDGE('',*,*,#388,.T.);
#133=ORIENTED_EDGE('',*,*,#389,.T.);
#134=ORIENTED_EDGE('',*,*,#390,.T.);
#135=ORIENTED_EDGE('',*,*,#391,.F.);
#136=ORIENTED_EDGE('',*,*,#300,.T.);
#137=ORIENTED_EDGE('',*,*,#310,.T.);
#138=ORIENTED_EDGE('',*,*,#307,.F.);
#139=ORIENTED_EDGE('',*,*,#304,.F.);
#140=ORIENTED_EDGE('',*,*,#319,.F.);
#141=ORIENTED_EDGE('',*,*,#392,.F.);
#142=ORIENTED_EDGE('',*,*,#391,.T.);
#143=ORIENTED_EDGE('',*,*,#393,.T.);
#144=ORIENTED_EDGE('',*,*,#318,.F.);
#145=ORIENTED_EDGE('',*,*,#394,.F.);
#146=ORIENTED_EDGE('',*,*,#387,.T.);
#147=ORIENTED_EDGE('',*,*,#392,.T.);
#148=ORIENTED_EDGE('',*,*,#317,.T.);
#149=ORIENTED_EDGE('',*,*,#395,.F.);
#150=ORIENTED_EDGE('',*,*,#388,.F.);
#151=ORIENTED_EDGE('',*,*,#394,.T.);
#152=ORIENTED_EDGE('',*,*,#321,.T.);
#153=ORIENTED_EDGE('',*,*,#396,.F.);
#154=ORIENTED_EDGE('',*,*,#389,.F.);
#155=ORIENTED_EDGE('',*,*,#395,.T.);
#156=ORIENTED_EDGE('',*,*,#320,.T.);
#157=ORIENTED_EDGE('',*,*,#393,.F.);
#158=ORIENTED_EDGE('',*,*,#390,.F.);
#159=ORIENTED_EDGE('',*,*,#396,.T.);
#160=ORIENTED_EDGE('',*,*,#351,.F.);
#161=ORIENTED_EDGE('',*,*,#397,.F.);
#162=ORIENTED_EDGE('',*,*,#384,.T.);
#163=ORIENTED_EDGE('',*,*,#398,.T.);
#164=ORIENTED_EDGE('',*,*,#350,.T.);
#165=ORIENTED_EDGE('',*,*,#399,.F.);
#166=ORIENTED_EDGE('',*,*,#385,.F.);
#167=ORIENTED_EDGE('',*,*,#397,.T.);
#168=ORIENTED_EDGE('',*,*,#349,.T.);
#169=ORIENTED_EDGE('',*,*,#400,.F.);
#170=ORIENTED_EDGE('',*,*,#386,.F.);
#171=ORIENTED_EDGE('',*,*,#399,.T.);
#172=ORIENTED_EDGE('',*,*,#348,.F.);
#173=ORIENTED_EDGE('',*,*,#401,.F.);
#174=ORIENTED_EDGE('',*,*,#382,.T.);
#175=ORIENTED_EDGE('',*,*,#400,.T.);
#176=ORIENTED_EDGE('',*,*,#347,.T.);
#177=ORIENTED_EDGE('',*,*,#398,.F.);
#178=ORIENTED_EDGE('',*,*,#383,.F.);
#179=ORIENTED_EDGE('',*,*,#401,.T.);
#180=ORIENTED_EDGE('',*,*,#345,.F.);
#181=ORIENTED_EDGE('',*,*,#402,.F.);
#182=ORIENTED_EDGE('',*,*,#380,.T.);
#183=ORIENTED_EDGE('',*,*,#403,.T.);
#184=ORIENTED_EDGE('',*,*,#344,.F.);
#185=ORIENTED_EDGE('',*,*,#404,.F.);
#186=ORIENTED_EDGE('',*,*,#381,.T.);
#187=ORIENTED_EDGE('',*,*,#402,.T.);
#188=ORIENTED_EDGE('',*,*,#343,.T.);
#189=ORIENTED_EDGE('',*,*,#405,.F.);
#190=ORIENTED_EDGE('',*,*,#377,.F.);
#191=ORIENTED_EDGE('',*,*,#404,.T.);
#192=ORIENTED_EDGE('',*,*,#342,.T.);
#193=ORIENTED_EDGE('',*,*,#406,.F.);
#194=ORIENTED_EDGE('',*,*,#378,.F.);
#195=ORIENTED_EDGE('',*,*,#405,.T.);
#196=ORIENTED_EDGE('',*,*,#346,.T.);
#197=ORIENTED_EDGE('',*,*,#403,.F.);
#198=ORIENTED_EDGE('',*,*,#379,.F.);
#199=ORIENTED_EDGE('',*,*,#406,.T.);
#200=ORIENTED_EDGE('',*,*,#340,.F.);
#201=ORIENTED_EDGE('',*,*,#407,.F.);
#202=ORIENTED_EDGE('',*,*,#375,.T.);
#203=ORIENTED_EDGE('',*,*,#408,.T.);
#204=ORIENTED_EDGE('',*,*,#339,.T.);
#205=ORIENTED_EDGE('',*,*,#409,.F.);
#206=ORIENTED_EDGE('',*,*,#376,.F.);
#207=ORIENTED_EDGE('',*,*,#407,.T.);
#208=ORIENTED_EDGE('',*,*,#338,.T.);
#209=ORIENTED_EDGE('',*,*,#410,.F.);
#210=ORIENTED_EDGE('',*,*,#372,.F.);
#211=ORIENTED_EDGE('',*,*,#409,.T.);
#212=ORIENTED_EDGE('',*,*,#337,.T.);
#213=ORIENTED_EDGE('',*,*,#411,.F.);
#214=ORIENTED_EDGE('',*,*,#373,.F.);
#215=ORIENTED_EDGE('',*,*,#410,.T.);
#216=ORIENTED_EDGE('',*,*,#341,.F.);
#217=ORIENTED_EDGE('',*,*,#408,.F.);
#218=ORIENTED_EDGE('',*,*,#374,.T.);
#219=ORIENTED_EDGE('',*,*,#411,.T.);
#220=ORIENTED_EDGE('',*,*,#336,.F.);
#221=ORIENTED_EDGE('',*,*,#412,.F.);
#222=ORIENTED_EDGE('',*,*,#369,.T.);
#223=ORIENTED_EDGE('',*,*,#413,.T.);
#224=ORIENTED_EDGE('',*,*,#335,.T.);
#225=ORIENTED_EDGE('',*,*,#414,.F.);
#226=ORIENTED_EDGE('',*,*,#370,.F.);
#227=ORIENTED_EDGE('',*,*,#412,.T.);
#228=ORIENTED_EDGE('',*,*,#334,.T.);
#229=ORIENTED_EDGE('',*,*,#415,.F.);
#230=ORIENTED_EDGE('',*,*,#371,.F.);
#231=ORIENTED_EDGE('',*,*,#414,.T.);
#232=ORIENTED_EDGE('',*,*,#333,.F.);
#233=ORIENTED_EDGE('',*,*,#416,.F.);
#234=ORIENTED_EDGE('',*,*,#367,.T.);
#235=ORIENTED_EDGE('',*,*,#415,.T.);
#236=ORIENTED_EDGE('',*,*,#332,.T.);
#237=ORIENTED_EDGE('',*,*,#413,.F.);
#238=ORIENTED_EDGE('',*,*,#368,.F.);
#239=ORIENTED_EDGE('',*,*,#416,.T.);
#240=ORIENTED_EDGE('',*,*,#330,.F.);
#241=ORIENTED_EDGE('',*,*,#417,.F.);
#242=ORIENTED_EDGE('',*,*,#365,.T.);
#243=ORIENTED_EDGE('',*,*,#418,.T.);
#244=ORIENTED_EDGE('',*,*,#329,.F.);
#245=ORIENTED_EDGE('',*,*,#419,.F.);
#246=ORIENTED_EDGE('',*,*,#366,.T.);
#247=ORIENTED_EDGE('',*,*,#417,.T.);
#248=ORIENTED_EDGE('',*,*,#328,.T.);
#249=ORIENTED_EDGE('',*,*,#420,.F.);
#250=ORIENTED_EDGE('',*,*,#362,.F.);
#251=ORIENTED_EDGE('',*,*,#419,.T.);
#252=ORIENTED_EDGE('',*,*,#327,.T.);
#253=ORIENTED_EDGE('',*,*,#421,.F.);
#254=ORIENTED_EDGE('',*,*,#363,.F.);
#255=ORIENTED_EDGE('',*,*,#420,.T.);
#256=ORIENTED_EDGE('',*,*,#331,.T.);
#257=ORIENTED_EDGE('',*,*,#418,.F.);
#258=ORIENTED_EDGE('',*,*,#364,.F.);
#259=ORIENTED_EDGE('',*,*,#421,.T.);
#260=ORIENTED_EDGE('',*,*,#325,.F.);
#261=ORIENTED_EDGE('',*,*,#422,.F.);
#262=ORIENTED_EDGE('',*,*,#360,.T.);
#263=ORIENTED_EDGE('',*,*,#423,.T.);
#264=ORIENTED_EDGE('',*,*,#324,.T.);
#265=ORIENTED_EDGE('',*,*,#424,.F.);
#266=ORIENTED_EDGE('',*,*,#361,.F.);
#267=ORIENTED_EDGE('',*,*,#422,.T.);
#268=ORIENTED_EDGE('',*,*,#323,.T.);
#269=ORIENTED_EDGE('',*,*,#425,.F.);
#270=ORIENTED_EDGE('',*,*,#357,.F.);
#271=ORIENTED_EDGE('',*,*,#424,.T.);
#272=ORIENTED_EDGE('',*,*,#322,.T.);
#273=ORIENTED_EDGE('',*,*,#426,.F.);
#274=ORIENTED_EDGE('',*,*,#358,.F.);
#275=ORIENTED_EDGE('',*,*,#425,.T.);
#276=ORIENTED_EDGE('',*,*,#326,.F.);
#277=ORIENTED_EDGE('',*,*,#423,.F.);
#278=ORIENTED_EDGE('',*,*,#359,.T.);
#279=ORIENTED_EDGE('',*,*,#426,.T.);
#280=ORIENTED_EDGE('',*,*,#314,.F.);
#281=ORIENTED_EDGE('',*,*,#427,.F.);
#282=ORIENTED_EDGE('',*,*,#356,.T.);
#283=ORIENTED_EDGE('',*,*,#428,.T.);
#284=ORIENTED_EDGE('',*,*,#313,.F.);
#285=ORIENTED_EDGE('',*,*,#429,.F.);
#286=ORIENTED_EDGE('',*,*,#352,.T.);
#287=ORIENTED_EDGE('',*,*,#427,.T.);
#288=ORIENTED_EDGE('',*,*,#312,.T.);
#289=ORIENTED_EDGE('',*,*,#430,.F.);
#290=ORIENTED_EDGE('',*,*,#353,.F.);
#291=ORIENTED_EDGE('',*,*,#429,.T.);
#292=ORIENTED_EDGE('',*,*,#316,.T.);
#293=ORIENTED_EDGE('',*,*,#431,.F.);
#294=ORIENTED_EDGE('',*,*,#354,.F.);
#295=ORIENTED_EDGE('',*,*,#430,.T.);
#296=ORIENTED_EDGE('',*,*,#315,.T.);
#297=ORIENTED_EDGE('',*,*,#428,.F.);
#298=ORIENTED_EDGE('',*,*,#355,.F.);
#299=ORIENTED_EDGE('',*,*,#431,.T.);
#300=EDGE_CURVE('',#432,#433,#520,.T.);
#301=EDGE_CURVE('',#434,#432,#521,.T.);
#302=EDGE_CURVE('',#434,#435,#522,.T.);
#303=EDGE_CURVE('',#435,#433,#523,.T.);
#304=EDGE_CURVE('',#432,#436,#524,.T.);
#305=EDGE_CURVE('',#437,#436,#525,.T.);
#306=EDGE_CURVE('',#434,#437,#526,.T.);
#307=EDGE_CURVE('',#436,#438,#527,.T.);
#308=EDGE_CURVE('',#439,#438,#528,.T.);
#309=EDGE_CURVE('',#437,#439,#529,.T.);
#310=EDGE_CURVE('',#433,#438,#530,.T.);
#311=EDGE_CURVE('',#435,#439,#531,.T.);
#312=EDGE_CURVE('',#440,#441,#20,.T.);
#313=EDGE_CURVE('',#440,#442,#532,.T.);
#314=EDGE_CURVE('',#442,#443,#533,.T.);
#315=EDGE_CURVE('',#444,#443,#534,.T.);
#316=EDGE_CURVE('',#441,#444,#535,.T.);
#317=EDGE_CURVE('',#445,#446,#21,.T.);
#318=EDGE_CURVE('',#445,#447,#536,.T.);
#319=EDGE_CURVE('',#447,#448,#537,.T.);
#320=EDGE_CURVE('',#449,#448,#538,.T.);
#321=EDGE_CURVE('',#446,#449,#539,.T.);
#322=EDGE_CURVE('',#450,#451,#22,.T.);
#323=EDGE_CURVE('',#452,#450,#540,.T.);
#324=EDGE_CURVE('',#453,#452,#541,.T.);
#325=EDGE_CURVE('',#453,#454,#542,.T.);
#326=EDGE_CURVE('',#454,#451,#543,.T.);
#327=EDGE_CURVE('',#455,#456,#23,.T.);
#328=EDGE_CURVE('',#457,#455,#544,.T.);
#329=EDGE_CURVE('',#457,#458,#545,.T.);
#330=EDGE_CURVE('',#458,#459,#546,.T.);
#331=EDGE_CURVE('',#456,#459,#547,.T.);
#332=EDGE_CURVE('',#460,#461,#24,.T.);
#333=EDGE_CURVE('',#460,#462,#548,.T.);
#334=EDGE_CURVE('',#463,#462,#549,.T.);
#335=EDGE_CURVE('',#464,#463,#550,.T.);
#336=EDGE_CURVE('',#464,#461,#551,.T.);
#337=EDGE_CURVE('',#465,#466,#25,.T.);
#338=EDGE_CURVE('',#467,#465,#552,.T.);
#339=EDGE_CURVE('',#468,#467,#553,.T.);
#340=EDGE_CURVE('',#468,#469,#554,.T.);
#341=EDGE_CURVE('',#469,#466,#555,.T.);
#342=EDGE_CURVE('',#470,#471,#26,.T.);
#343=EDGE_CURVE('',#472,#470,#556,.T.);
#344=EDGE_CURVE('',#472,#473,#557,.T.);
#345=EDGE_CURVE('',#473,#474,#558,.T.);
#346=EDGE_CURVE('',#471,#474,#559,.T.);
#347=EDGE_CURVE('',#475,#476,#27,.T.);
#348=EDGE_CURVE('',#475,#477,#560,.T.);
#349=EDGE_CURVE('',#478,#477,#561,.T.);
#350=EDGE_CURVE('',#479,#478,#562,.T.);
#351=EDGE_CURVE('',#479,#476,#563,.T.);
#352=EDGE_CURVE('',#480,#481,#564,.T.);
#353=EDGE_CURVE('',#480,#482,#28,.T.);
#354=EDGE_CURVE('',#482,#483,#565,.T.);
#355=EDGE_CURVE('',#483,#484,#566,.T.);
#356=EDGE_CURVE('',#481,#484,#567,.T.);
#357=EDGE_CURVE('',#485,#486,#568,.T.);
#358=EDGE_CURVE('',#486,#487,#29,.T.);
#359=EDGE_CURVE('',#488,#487,#569,.T.);
#360=EDGE_CURVE('',#489,#488,#570,.T.);
#361=EDGE_CURVE('',#489,#485,#571,.T.);
#362=EDGE_CURVE('',#490,#491,#572,.T.);
#363=EDGE_CURVE('',#491,#492,#30,.T.);
#364=EDGE_CURVE('',#492,#493,#573,.T.);
#365=EDGE_CURVE('',#494,#493,#574,.T.);
#366=EDGE_CURVE('',#490,#494,#575,.T.);
#367=EDGE_CURVE('',#495,#496,#576,.T.);
#368=EDGE_CURVE('',#495,#497,#31,.T.);
#369=EDGE_CURVE('',#498,#497,#577,.T.);
#370=EDGE_CURVE('',#498,#499,#578,.T.);
#371=EDGE_CURVE('',#499,#496,#579,.T.);
#372=EDGE_CURVE('',#500,#501,#580,.T.);
#373=EDGE_CURVE('',#501,#502,#32,.T.);
#374=EDGE_CURVE('',#503,#502,#581,.T.);
#375=EDGE_CURVE('',#504,#503,#582,.T.);
#376=EDGE_CURVE('',#504,#500,#583,.T.);
#377=EDGE_CURVE('',#505,#506,#584,.T.);
#378=EDGE_CURVE('',#506,#507,#33,.T.);
#379=EDGE_CURVE('',#507,#508,#585,.T.);
#380=EDGE_CURVE('',#509,#508,#586,.T.);
#381=EDGE_CURVE('',#505,#509,#587,.T.);
#382=EDGE_CURVE('',#510,#511,#588,.T.);
#383=EDGE_CURVE('',#510,#512,#34,.T.);
#384=EDGE_CURVE('',#513,#512,#589,.T.);
#385=EDGE_CURVE('',#513,#514,#590,.T.);
#386=EDGE_CURVE('',#514,#511,#591,.T.);
#387=EDGE_CURVE('',#515,#516,#592,.T.);
#388=EDGE_CURVE('',#515,#517,#35,.T.);
#389=EDGE_CURVE('',#517,#518,#593,.T.);
#390=EDGE_CURVE('',#518,#519,#594,.T.);
#391=EDGE_CURVE('',#516,#519,#595,.T.);
#392=EDGE_CURVE('',#516,#447,#596,.T.);
#393=EDGE_CURVE('',#519,#448,#597,.T.);
#394=EDGE_CURVE('',#515,#445,#598,.T.);
#395=EDGE_CURVE('',#517,#446,#599,.T.);
#396=EDGE_CURVE('',#518,#449,#600,.T.);
#397=EDGE_CURVE('',#513,#479,#601,.T.);
#398=EDGE_CURVE('',#512,#476,#602,.T.);
#399=EDGE_CURVE('',#514,#478,#603,.T.);
#400=EDGE_CURVE('',#511,#477,#604,.T.);
#401=EDGE_CURVE('',#510,#475,#605,.T.);
#402=EDGE_CURVE('',#509,#473,#606,.T.);
#403=EDGE_CURVE('',#508,#474,#607,.T.);
#404=EDGE_CURVE('',#505,#472,#608,.T.);
#405=EDGE_CURVE('',#506,#470,#609,.T.);
#406=EDGE_CURVE('',#507,#471,#610,.T.);
#407=EDGE_CURVE('',#504,#468,#611,.T.);
#408=EDGE_CURVE('',#503,#469,#612,.T.);
#409=EDGE_CURVE('',#500,#467,#613,.T.);
#410=EDGE_CURVE('',#501,#465,#614,.T.);
#411=EDGE_CURVE('',#502,#466,#615,.T.);
#412=EDGE_CURVE('',#498,#464,#616,.T.);
#413=EDGE_CURVE('',#497,#461,#617,.T.);
#414=EDGE_CURVE('',#499,#463,#618,.T.);
#415=EDGE_CURVE('',#496,#462,#619,.T.);
#416=EDGE_CURVE('',#495,#460,#620,.T.);
#417=EDGE_CURVE('',#494,#458,#621,.T.);
#418=EDGE_CURVE('',#493,#459,#622,.T.);
#419=EDGE_CURVE('',#490,#457,#623,.T.);
#420=EDGE_CURVE('',#491,#455,#624,.T.);
#421=EDGE_CURVE('',#492,#456,#625,.T.);
#422=EDGE_CURVE('',#489,#453,#626,.T.);
#423=EDGE_CURVE('',#488,#454,#627,.T.);
#424=EDGE_CURVE('',#485,#452,#628,.T.);
#425=EDGE_CURVE('',#486,#450,#629,.T.);
#426=EDGE_CURVE('',#487,#451,#630,.T.);
#427=EDGE_CURVE('',#481,#442,#631,.T.);
#428=EDGE_CURVE('',#484,#443,#632,.T.);
#429=EDGE_CURVE('',#480,#440,#633,.T.);
#430=EDGE_CURVE('',#482,#441,#634,.T.);
#431=EDGE_CURVE('',#483,#444,#635,.T.);
#432=VERTEX_POINT('',#1603);
#433=VERTEX_POINT('',#1604);
#434=VERTEX_POINT('',#1606);
#435=VERTEX_POINT('',#1608);
#436=VERTEX_POINT('',#1612);
#437=VERTEX_POINT('',#1614);
#438=VERTEX_POINT('',#1618);
#439=VERTEX_POINT('',#1620);
#440=VERTEX_POINT('',#1627);
#441=VERTEX_POINT('',#1628);
#442=VERTEX_POINT('',#1630);
#443=VERTEX_POINT('',#1632);
#444=VERTEX_POINT('',#1634);
#445=VERTEX_POINT('',#1637);
#446=VERTEX_POINT('',#1638);
#447=VERTEX_POINT('',#1640);
#448=VERTEX_POINT('',#1642);
#449=VERTEX_POINT('',#1644);
#450=VERTEX_POINT('',#1647);
#451=VERTEX_POINT('',#1648);
#452=VERTEX_POINT('',#1650);
#453=VERTEX_POINT('',#1652);
#454=VERTEX_POINT('',#1654);
#455=VERTEX_POINT('',#1657);
#456=VERTEX_POINT('',#1658);
#457=VERTEX_POINT('',#1660);
#458=VERTEX_POINT('',#1662);
#459=VERTEX_POINT('',#1664);
#460=VERTEX_POINT('',#1667);
#461=VERTEX_POINT('',#1668);
#462=VERTEX_POINT('',#1670);
#463=VERTEX_POINT('',#1672);
#464=VERTEX_POINT('',#1674);
#465=VERTEX_POINT('',#1677);
#466=VERTEX_POINT('',#1678);
#467=VERTEX_POINT('',#1680);
#468=VERTEX_POINT('',#1682);
#469=VERTEX_POINT('',#1684);
#470=VERTEX_POINT('',#1687);
#471=VERTEX_POINT('',#1688);
#472=VERTEX_POINT('',#1690);
#473=VERTEX_POINT('',#1692);
#474=VERTEX_POINT('',#1694);
#475=VERTEX_POINT('',#1697);
#476=VERTEX_POINT('',#1698);
#477=VERTEX_POINT('',#1700);
#478=VERTEX_POINT('',#1702);
#479=VERTEX_POINT('',#1704);
#480=VERTEX_POINT('',#1708);
#481=VERTEX_POINT('',#1709);
#482=VERTEX_POINT('',#1711);
#483=VERTEX_POINT('',#1713);
#484=VERTEX_POINT('',#1715);
#485=VERTEX_POINT('',#1718);
#486=VERTEX_POINT('',#1719);
#487=VERTEX_POINT('',#1721);
#488=VERTEX_POINT('',#1723);
#489=VERTEX_POINT('',#1725);
#490=VERTEX_POINT('',#1728);
#491=VERTEX_POINT('',#1729);
#492=VERTEX_POINT('',#1731);
#493=VERTEX_POINT('',#1733);
#494=VERTEX_POINT('',#1735);
#495=VERTEX_POINT('',#1738);
#496=VERTEX_POINT('',#1739);
#497=VERTEX_POINT('',#1741);
#498=VERTEX_POINT('',#1743);
#499=VERTEX_POINT('',#1745);
#500=VERTEX_POINT('',#1748);
#501=VERTEX_POINT('',#1749);
#502=VERTEX_POINT('',#1751);
#503=VERTEX_POINT('',#1753);
#504=VERTEX_POINT('',#1755);
#505=VERTEX_POINT('',#1758);
#506=VERTEX_POINT('',#1759);
#507=VERTEX_POINT('',#1761);
#508=VERTEX_POINT('',#1763);
#509=VERTEX_POINT('',#1765);
#510=VERTEX_POINT('',#1768);
#511=VERTEX_POINT('',#1769);
#512=VERTEX_POINT('',#1771);
#513=VERTEX_POINT('',#1773);
#514=VERTEX_POINT('',#1775);
#515=VERTEX_POINT('',#1778);
#516=VERTEX_POINT('',#1779);
#517=VERTEX_POINT('',#1781);
#518=VERTEX_POINT('',#1783);
#519=VERTEX_POINT('',#1785);
#520=LINE('',#1602,#636);
#521=LINE('',#1605,#637);
#522=LINE('',#1607,#638);
#523=LINE('',#1609,#639);
#524=LINE('',#1611,#640);
#525=LINE('',#1613,#641);
#526=LINE('',#1615,#642);
#527=LINE('',#1617,#643);
#528=LINE('',#1619,#644);
#529=LINE('',#1621,#645);
#530=LINE('',#1623,#646);
#531=LINE('',#1624,#647);
#532=LINE('',#1629,#648);
#533=LINE('',#1631,#649);
#534=LINE('',#1633,#650);
#535=LINE('',#1635,#651);
#536=LINE('',#1639,#652);
#537=LINE('',#1641,#653);
#538=LINE('',#1643,#654);
#539=LINE('',#1645,#655);
#540=LINE('',#1649,#656);
#541=LINE('',#1651,#657);
#542=LINE('',#1653,#658);
#543=LINE('',#1655,#659);
#544=LINE('',#1659,#660);
#545=LINE('',#1661,#661);
#546=LINE('',#1663,#662);
#547=LINE('',#1665,#663);
#548=LINE('',#1669,#664);
#549=LINE('',#1671,#665);
#550=LINE('',#1673,#666);
#551=LINE('',#1675,#667);
#552=LINE('',#1679,#668);
#553=LINE('',#1681,#669);
#554=LINE('',#1683,#670);
#555=LINE('',#1685,#671);
#556=LINE('',#1689,#672);
#557=LINE('',#1691,#673);
#558=LINE('',#1693,#674);
#559=LINE('',#1695,#675);
#560=LINE('',#1699,#676);
#561=LINE('',#1701,#677);
#562=LINE('',#1703,#678);
#563=LINE('',#1705,#679);
#564=LINE('',#1707,#680);
#565=LINE('',#1712,#681);
#566=LINE('',#1714,#682);
#567=LINE('',#1716,#683);
#568=LINE('',#1717,#684);
#569=LINE('',#1722,#685);
#570=LINE('',#1724,#686);
#571=LINE('',#1726,#687);
#572=LINE('',#1727,#688);
#573=LINE('',#1732,#689);
#574=LINE('',#1734,#690);
#575=LINE('',#1736,#691);
#576=LINE('',#1737,#692);
#577=LINE('',#1742,#693);
#578=LINE('',#1744,#694);
#579=LINE('',#1746,#695);
#580=LINE('',#1747,#696);
#581=LINE('',#1752,#697);
#582=LINE('',#1754,#698);
#583=LINE('',#1756,#699);
#584=LINE('',#1757,#700);
#585=LINE('',#1762,#701);
#586=LINE('',#1764,#702);
#587=LINE('',#1766,#703);
#588=LINE('',#1767,#704);
#589=LINE('',#1772,#705);
#590=LINE('',#1774,#706);
#591=LINE('',#1776,#707);
#592=LINE('',#1777,#708);
#593=LINE('',#1782,#709);
#594=LINE('',#1784,#710);
#595=LINE('',#1786,#711);
#596=LINE('',#1788,#712);
#597=LINE('',#1789,#713);
#598=LINE('',#1791,#714);
#599=LINE('',#1793,#715);
#600=LINE('',#1795,#716);
#601=LINE('',#1798,#717);
#602=LINE('',#1799,#718);
#603=LINE('',#1801,#719);
#604=LINE('',#1803,#720);
#605=LINE('',#1805,#721);
#606=LINE('',#1808,#722);
#607=LINE('',#1809,#723);
#608=LINE('',#1811,#724);
#609=LINE('',#1813,#725);
#610=LINE('',#1815,#726);
#611=LINE('',#1818,#727);
#612=LINE('',#1819,#728);
#613=LINE('',#1821,#729);
#614=LINE('',#1823,#730);
#615=LINE('',#1825,#731);
#616=LINE('',#1828,#732);
#617=LINE('',#1829,#733);
#618=LINE('',#1831,#734);
#619=LINE('',#1833,#735);
#620=LINE('',#1835,#736);
#621=LINE('',#1838,#737);
#622=LINE('',#1839,#738);
#623=LINE('',#1841,#739);
#624=LINE('',#1843,#740);
#625=LINE('',#1845,#741);
#626=LINE('',#1848,#742);
#627=LINE('',#1849,#743);
#628=LINE('',#1851,#744);
#629=LINE('',#1853,#745);
#630=LINE('',#1855,#746);
#631=LINE('',#1858,#747);
#632=LINE('',#1859,#748);
#633=LINE('',#1861,#749);
#634=LINE('',#1863,#750);
#635=LINE('',#1865,#751);
#636=VECTOR('',#1362,1.);
#637=VECTOR('',#1363,1.);
#638=VECTOR('',#1364,1.);
#639=VECTOR('',#1365,1.);
#640=VECTOR('',#1368,1.);
#641=VECTOR('',#1369,1.);
#642=VECTOR('',#1370,1.);
#643=VECTOR('',#1373,1.);
#644=VECTOR('',#1374,1.);
#645=VECTOR('',#1375,1.);
#646=VECTOR('',#1378,1.);
#647=VECTOR('',#1379,1.);
#648=VECTOR('',#1384,1.);
#649=VECTOR('',#1385,1.);
#650=VECTOR('',#1386,1.);
#651=VECTOR('',#1387,1.);
#652=VECTOR('',#1390,1.);
#653=VECTOR('',#1391,1.);
#654=VECTOR('',#1392,1.);
#655=VECTOR('',#1393,1.);
#656=VECTOR('',#1396,1.);
#657=VECTOR('',#1397,1.);
#658=VECTOR('',#1398,1.);
#659=VECTOR('',#1399,1.);
#660=VECTOR('',#1402,1.);
#661=VECTOR('',#1403,1.);
#662=VECTOR('',#1404,1.);
#663=VECTOR('',#1405,1.);
#664=VECTOR('',#1408,1.);
#665=VECTOR('',#1409,1.);
#666=VECTOR('',#1410,1.);
#667=VECTOR('',#1411,1.);
#668=VECTOR('',#1414,1.);
#669=VECTOR('',#1415,1.);
#670=VECTOR('',#1416,1.);
#671=VECTOR('',#1417,1.);
#672=VECTOR('',#1420,1.);
#673=VECTOR('',#1421,1.);
#674=VECTOR('',#1422,1.);
#675=VECTOR('',#1423,1.);
#676=VECTOR('',#1426,1.);
#677=VECTOR('',#1427,1.);
#678=VECTOR('',#1428,1.);
#679=VECTOR('',#1429,1.);
#680=VECTOR('',#1432,1.);
#681=VECTOR('',#1435,1.);
#682=VECTOR('',#1436,1.);
#683=VECTOR('',#1437,1.);
#684=VECTOR('',#1438,1.);
#685=VECTOR('',#1441,1.);
#686=VECTOR('',#1442,1.);
#687=VECTOR('',#1443,1.);
#688=VECTOR('',#1444,1.);
#689=VECTOR('',#1447,1.);
#690=VECTOR('',#1448,1.);
#691=VECTOR('',#1449,1.);
#692=VECTOR('',#1450,1.);
#693=VECTOR('',#1453,1.);
#694=VECTOR('',#1454,1.);
#695=VECTOR('',#1455,1.);
#696=VECTOR('',#1456,1.);
#697=VECTOR('',#1459,1.);
#698=VECTOR('',#1460,1.);
#699=VECTOR('',#1461,1.);
#700=VECTOR('',#1462,1.);
#701=VECTOR('',#1465,1.);
#702=VECTOR('',#1466,1.);
#703=VECTOR('',#1467,1.);
#704=VECTOR('',#1468,1.);
#705=VECTOR('',#1471,1.);
#706=VECTOR('',#1472,1.);
#707=VECTOR('',#1473,1.);
#708=VECTOR('',#1474,1.);
#709=VECTOR('',#1477,1.);
#710=VECTOR('',#1478,1.);
#711=VECTOR('',#1479,1.);
#712=VECTOR('',#1482,1.);
#713=VECTOR('',#1483,1.);
#714=VECTOR('',#1486,1.);
#715=VECTOR('',#1489,1.);
#716=VECTOR('',#1492,1.);
#717=VECTOR('',#1497,1.);
#718=VECTOR('',#1498,1.);
#719=VECTOR('',#1501,1.);
#720=VECTOR('',#1504,1.);
#721=VECTOR('',#1507,1.);
#722=VECTOR('',#1512,1.);
#723=VECTOR('',#1513,1.);
#724=VECTOR('',#1516,1.);
#725=VECTOR('',#1519,1.);
#726=VECTOR('',#1522,1.);
#727=VECTOR('',#1527,1.);
#728=VECTOR('',#1528,1.);
#729=VECTOR('',#1531,1.);
#730=VECTOR('',#1534,1.);
#731=VECTOR('',#1537,1.);
#732=VECTOR('',#1542,1.);
#733=VECTOR('',#1543,1.);
#734=VECTOR('',#1546,1.);
#735=VECTOR('',#1549,1.);
#736=VECTOR('',#1552,1.);
#737=VECTOR('',#1557,1.);
#738=VECTOR('',#1558,1.);
#739=VECTOR('',#1561,1.);
#740=VECTOR('',#1564,1.);
#741=VECTOR('',#1567,1.);
#742=VECTOR('',#1572,1.);
#743=VECTOR('',#1573,1.);
#744=VECTOR('',#1576,1.);
#745=VECTOR('',#1579,1.);
#746=VECTOR('',#1582,1.);
#747=VECTOR('',#1587,1.);
#748=VECTOR('',#1588,1.);
#749=VECTOR('',#1591,1.);
#750=VECTOR('',#1594,1.);
#751=VECTOR('',#1597,1.);
#752=EDGE_LOOP('',(#36,#37,#38,#39));
#753=EDGE_LOOP('',(#40,#41,#42,#43));
#754=EDGE_LOOP('',(#44,#45,#46,#47));
#755=EDGE_LOOP('',(#48,#49,#50,#51));
#756=EDGE_LOOP('',(#52,#53,#54,#55,#56));
#757=EDGE_LOOP('',(#57,#58,#59,#60,#61));
#758=EDGE_LOOP('',(#62,#63,#64,#65,#66));
#759=EDGE_LOOP('',(#67,#68,#69,#70,#71));
#760=EDGE_LOOP('',(#72,#73,#74,#75,#76));
#761=EDGE_LOOP('',(#77,#78,#79,#80,#81));
#762=EDGE_LOOP('',(#82,#83,#84,#85,#86));
#763=EDGE_LOOP('',(#87,#88,#89,#90,#91));
#764=EDGE_LOOP('',(#92,#93,#94,#95));
#765=EDGE_LOOP('',(#96,#97,#98,#99,#100));
#766=EDGE_LOOP('',(#101,#102,#103,#104,#105));
#767=EDGE_LOOP('',(#106,#107,#108,#109,#110));
#768=EDGE_LOOP('',(#111,#112,#113,#114,#115));
#769=EDGE_LOOP('',(#116,#117,#118,#119,#120));
#770=EDGE_LOOP('',(#121,#122,#123,#124,#125));
#771=EDGE_LOOP('',(#126,#127,#128,#129,#130));
#772=EDGE_LOOP('',(#131,#132,#133,#134,#135));
#773=EDGE_LOOP('',(#136,#137,#138,#139));
#774=EDGE_LOOP('',(#140,#141,#142,#143));
#775=EDGE_LOOP('',(#144,#145,#146,#147));
#776=EDGE_LOOP('',(#148,#149,#150,#151));
#777=EDGE_LOOP('',(#152,#153,#154,#155));
#778=EDGE_LOOP('',(#156,#157,#158,#159));
#779=EDGE_LOOP('',(#160,#161,#162,#163));
#780=EDGE_LOOP('',(#164,#165,#166,#167));
#781=EDGE_LOOP('',(#168,#169,#170,#171));
#782=EDGE_LOOP('',(#172,#173,#174,#175));
#783=EDGE_LOOP('',(#176,#177,#178,#179));
#784=EDGE_LOOP('',(#180,#181,#182,#183));
#785=EDGE_LOOP('',(#184,#185,#186,#187));
#786=EDGE_LOOP('',(#188,#189,#190,#191));
#787=EDGE_LOOP('',(#192,#193,#194,#195));
#788=EDGE_LOOP('',(#196,#197,#198,#199));
#789=EDGE_LOOP('',(#200,#201,#202,#203));
#790=EDGE_LOOP('',(#204,#205,#206,#207));
#791=EDGE_LOOP('',(#208,#209,#210,#211));
#792=EDGE_LOOP('',(#212,#213,#214,#215));
#793=EDGE_LOOP('',(#216,#217,#218,#219));
#794=EDGE_LOOP('',(#220,#221,#222,#223));
#795=EDGE_LOOP('',(#224,#225,#226,#227));
#796=EDGE_LOOP('',(#228,#229,#230,#231));
#797=EDGE_LOOP('',(#232,#233,#234,#235));
#798=EDGE_LOOP('',(#236,#237,#238,#239));
#799=EDGE_LOOP('',(#240,#241,#242,#243));
#800=EDGE_LOOP('',(#244,#245,#246,#247));
#801=EDGE_LOOP('',(#248,#249,#250,#251));
#802=EDGE_LOOP('',(#252,#253,#254,#255));
#803=EDGE_LOOP('',(#256,#257,#258,#259));
#804=EDGE_LOOP('',(#260,#261,#262,#263));
#805=EDGE_LOOP('',(#264,#265,#266,#267));
#806=EDGE_LOOP('',(#268,#269,#270,#271));
#807=EDGE_LOOP('',(#272,#273,#274,#275));
#808=EDGE_LOOP('',(#276,#277,#278,#279));
#809=EDGE_LOOP('',(#280,#281,#282,#283));
#810=EDGE_LOOP('',(#284,#285,#286,#287));
#811=EDGE_LOOP('',(#288,#289,#290,#291));
#812=EDGE_LOOP('',(#292,#293,#294,#295));
#813=EDGE_LOOP('',(#296,#297,#298,#299));
#814=FACE_BOUND('',#752,.T.);
#815=FACE_BOUND('',#753,.T.);
#816=FACE_BOUND('',#754,.T.);
#817=FACE_BOUND('',#755,.T.);
#818=FACE_BOUND('',#756,.T.);
#819=FACE_BOUND('',#757,.T.);
#820=FACE_BOUND('',#758,.T.);
#821=FACE_BOUND('',#759,.T.);
#822=FACE_BOUND('',#760,.T.);
#823=FACE_BOUND('',#761,.T.);
#824=FACE_BOUND('',#762,.T.);
#825=FACE_BOUND('',#763,.T.);
#826=FACE_BOUND('',#764,.T.);
#827=FACE_BOUND('',#765,.T.);
#828=FACE_BOUND('',#766,.T.);
#829=FACE_BOUND('',#767,.T.);
#830=FACE_BOUND('',#768,.T.);
#831=FACE_BOUND('',#769,.T.);
#832=FACE_BOUND('',#770,.T.);
#833=FACE_BOUND('',#771,.T.);
#834=FACE_BOUND('',#772,.T.);
#835=FACE_BOUND('',#773,.T.);
#836=FACE_BOUND('',#774,.T.);
#837=FACE_BOUND('',#775,.T.);
#838=FACE_BOUND('',#776,.T.);
#839=FACE_BOUND('',#777,.T.);
#840=FACE_BOUND('',#778,.T.);
#841=FACE_BOUND('',#779,.T.);
#842=FACE_BOUND('',#780,.T.);
#843=FACE_BOUND('',#781,.T.);
#844=FACE_BOUND('',#782,.T.);
#845=FACE_BOUND('',#783,.T.);
#846=FACE_BOUND('',#784,.T.);
#847=FACE_BOUND('',#785,.T.);
#848=FACE_BOUND('',#786,.T.);
#849=FACE_BOUND('',#787,.T.);
#850=FACE_BOUND('',#788,.T.);
#851=FACE_BOUND('',#789,.T.);
#852=FACE_BOUND('',#790,.T.);
#853=FACE_BOUND('',#791,.T.);
#854=FACE_BOUND('',#792,.T.);
#855=FACE_BOUND('',#793,.T.);
#856=FACE_BOUND('',#794,.T.);
#857=FACE_BOUND('',#795,.T.);
#858=FACE_BOUND('',#796,.T.);
#859=FACE_BOUND('',#797,.T.);
#860=FACE_BOUND('',#798,.T.);
#861=FACE_BOUND('',#799,.T.);
#862=FACE_BOUND('',#800,.T.);
#863=FACE_BOUND('',#801,.T.);
#864=FACE_BOUND('',#802,.T.);
#865=FACE_BOUND('',#803,.T.);
#866=FACE_BOUND('',#804,.T.);
#867=FACE_BOUND('',#805,.T.);
#868=FACE_BOUND('',#806,.T.);
#869=FACE_BOUND('',#807,.T.);
#870=FACE_BOUND('',#808,.T.);
#871=FACE_BOUND('',#809,.T.);
#872=FACE_BOUND('',#810,.T.);
#873=FACE_BOUND('',#811,.T.);
#874=FACE_BOUND('',#812,.T.);
#875=FACE_BOUND('',#813,.T.);
#876=PLANE('',#1296);
#877=PLANE('',#1297);
#878=PLANE('',#1298);
#879=PLANE('',#1299);
#880=PLANE('',#1300);
#881=PLANE('',#1309);
#882=PLANE('',#1318);
#883=PLANE('',#1319);
#884=PLANE('',#1321);
#885=PLANE('',#1322);
#886=PLANE('',#1323);
#887=PLANE('',#1324);
#888=PLANE('',#1325);
#889=PLANE('',#1326);
#890=PLANE('',#1328);
#891=PLANE('',#1329);
#892=PLANE('',#1330);
#893=PLANE('',#1332);
#894=PLANE('',#1333);
#895=PLANE('',#1334);
#896=PLANE('',#1335);
#897=PLANE('',#1337);
#898=PLANE('',#1338);
#899=PLANE('',#1339);
#900=PLANE('',#1340);
#901=PLANE('',#1341);
#902=PLANE('',#1343);
#903=PLANE('',#1344);
#904=PLANE('',#1345);
#905=PLANE('',#1347);
#906=PLANE('',#1348);
#907=PLANE('',#1349);
#908=PLANE('',#1350);
#909=PLANE('',#1352);
#910=PLANE('',#1353);
#911=PLANE('',#1354);
#912=PLANE('',#1356);
#913=PLANE('',#1357);
#914=OVER_RIDING_STYLED_ITEM('',(#1009),#960,#1007);
#915=OVER_RIDING_STYLED_ITEM('',(#1010),#961,#1007);
#916=OVER_RIDING_STYLED_ITEM('',(#1011),#962,#1007);
#917=OVER_RIDING_STYLED_ITEM('',(#1012),#963,#1007);
#918=OVER_RIDING_STYLED_ITEM('',(#1013),#964,#1007);
#919=OVER_RIDING_STYLED_ITEM('',(#1014),#965,#1007);
#920=OVER_RIDING_STYLED_ITEM('',(#1015),#966,#1007);
#921=OVER_RIDING_STYLED_ITEM('',(#1016),#967,#1007);
#922=OVER_RIDING_STYLED_ITEM('',(#1017),#968,#1007);
#923=OVER_RIDING_STYLED_ITEM('',(#1018),#969,#1007);
#924=OVER_RIDING_STYLED_ITEM('',(#1019),#970,#1007);
#925=OVER_RIDING_STYLED_ITEM('',(#1020),#971,#1007);
#926=OVER_RIDING_STYLED_ITEM('',(#1021),#972,#1007);
#927=OVER_RIDING_STYLED_ITEM('',(#1022),#973,#1007);
#928=OVER_RIDING_STYLED_ITEM('',(#1023),#974,#1007);
#929=OVER_RIDING_STYLED_ITEM('',(#1024),#975,#1007);
#930=OVER_RIDING_STYLED_ITEM('',(#1025),#976,#1007);
#931=OVER_RIDING_STYLED_ITEM('',(#1026),#977,#1007);
#932=OVER_RIDING_STYLED_ITEM('',(#1027),#978,#1007);
#933=OVER_RIDING_STYLED_ITEM('',(#1028),#979,#1007);
#934=OVER_RIDING_STYLED_ITEM('',(#1029),#980,#1007);
#935=OVER_RIDING_STYLED_ITEM('',(#1030),#981,#1007);
#936=OVER_RIDING_STYLED_ITEM('',(#1031),#982,#1007);
#937=OVER_RIDING_STYLED_ITEM('',(#1032),#983,#1007);
#938=OVER_RIDING_STYLED_ITEM('',(#1033),#984,#1007);
#939=OVER_RIDING_STYLED_ITEM('',(#1034),#985,#1007);
#940=OVER_RIDING_STYLED_ITEM('',(#1035),#986,#1007);
#941=OVER_RIDING_STYLED_ITEM('',(#1036),#987,#1007);
#942=OVER_RIDING_STYLED_ITEM('',(#1037),#988,#1007);
#943=OVER_RIDING_STYLED_ITEM('',(#1038),#989,#1007);
#944=OVER_RIDING_STYLED_ITEM('',(#1039),#990,#1007);
#945=OVER_RIDING_STYLED_ITEM('',(#1040),#991,#1007);
#946=OVER_RIDING_STYLED_ITEM('',(#1041),#992,#1007);
#947=OVER_RIDING_STYLED_ITEM('',(#1042),#993,#1007);
#948=OVER_RIDING_STYLED_ITEM('',(#1043),#994,#1007);
#949=OVER_RIDING_STYLED_ITEM('',(#1044),#995,#1007);
#950=OVER_RIDING_STYLED_ITEM('',(#1045),#996,#1007);
#951=OVER_RIDING_STYLED_ITEM('',(#1046),#997,#1007);
#952=OVER_RIDING_STYLED_ITEM('',(#1047),#998,#1007);
#953=OVER_RIDING_STYLED_ITEM('',(#1048),#999,#1007);
#954=OVER_RIDING_STYLED_ITEM('',(#1049),#1000,#1007);
#955=OVER_RIDING_STYLED_ITEM('',(#1050),#1001,#1007);
#956=OVER_RIDING_STYLED_ITEM('',(#1051),#1002,#1007);
#957=OVER_RIDING_STYLED_ITEM('',(#1052),#1003,#1007);
#958=OVER_RIDING_STYLED_ITEM('',(#1053),#1004,#1007);
#959=OVER_RIDING_STYLED_ITEM('',(#1054),#1005,#1007);
#960=ADVANCED_FACE('Face appearance 1',(#814),#876,.T.);
#961=ADVANCED_FACE('Face appearance 1',(#815),#877,.F.);
#962=ADVANCED_FACE('Face appearance 1',(#816),#878,.F.);
#963=ADVANCED_FACE('Face appearance 1',(#817),#879,.T.);
#964=ADVANCED_FACE('Face appearance 1',(#818,#819,#820,#821,#822,#823,#824,
#825,#826),#880,.T.);
#965=ADVANCED_FACE('Face appearance 1',(#827,#828,#829,#830,#831,#832,#833,
#834,#835),#881,.F.);
#966=ADVANCED_FACE('Face appearance 2',(#836),#882,.T.);
#967=ADVANCED_FACE('Face appearance 2',(#837),#883,.T.);
#968=ADVANCED_FACE('Face appearance 2',(#838),#12,.F.);
#969=ADVANCED_FACE('Face appearance 2',(#839),#884,.F.);
#970=ADVANCED_FACE('Face appearance 2',(#840),#885,.F.);
#971=ADVANCED_FACE('Face appearance 2',(#841),#886,.T.);
#972=ADVANCED_FACE('Face appearance 2',(#842),#887,.F.);
#973=ADVANCED_FACE('Face appearance 2',(#843),#888,.F.);
#974=ADVANCED_FACE('Face appearance 2',(#844),#889,.T.);
#975=ADVANCED_FACE('Face appearance 2',(#845),#13,.F.);
#976=ADVANCED_FACE('Face appearance 2',(#846),#890,.T.);
#977=ADVANCED_FACE('Face appearance 2',(#847),#891,.T.);
#978=ADVANCED_FACE('Face appearance 2',(#848),#892,.F.);
#979=ADVANCED_FACE('Face appearance 2',(#849),#14,.F.);
#980=ADVANCED_FACE('Face appearance 2',(#850),#893,.F.);
#981=ADVANCED_FACE('Face appearance 2',(#851),#894,.T.);
#982=ADVANCED_FACE('Face appearance 2',(#852),#895,.F.);
#983=ADVANCED_FACE('Face appearance 2',(#853),#896,.F.);
#984=ADVANCED_FACE('Face appearance 2',(#854),#15,.F.);
#985=ADVANCED_FACE('Face appearance 2',(#855),#897,.T.);
#986=ADVANCED_FACE('Face appearance 2',(#856),#898,.T.);
#987=ADVANCED_FACE('Face appearance 2',(#857),#899,.F.);
#988=ADVANCED_FACE('Face appearance 2',(#858),#900,.F.);
#989=ADVANCED_FACE('Face appearance 2',(#859),#901,.T.);
#990=ADVANCED_FACE('Face appearance 2',(#860),#16,.F.);
#991=ADVANCED_FACE('Face appearance 2',(#861),#902,.T.);
#992=ADVANCED_FACE('Face appearance 2',(#862),#903,.T.);
#993=ADVANCED_FACE('Face appearance 2',(#863),#904,.F.);
#994=ADVANCED_FACE('Face appearance 2',(#864),#17,.F.);
#995=ADVANCED_FACE('Face appearance 2',(#865),#905,.F.);
#996=ADVANCED_FACE('Face appearance 2',(#866),#906,.T.);
#997=ADVANCED_FACE('Face appearance 2',(#867),#907,.F.);
#998=ADVANCED_FACE('Face appearance 2',(#868),#908,.F.);
#999=ADVANCED_FACE('Face appearance 2',(#869),#18,.F.);
#1000=ADVANCED_FACE('Face appearance 2',(#870),#909,.T.);
#1001=ADVANCED_FACE('Face appearance 2',(#871),#910,.T.);
#1002=ADVANCED_FACE('Face appearance 2',(#872),#911,.T.);
#1003=ADVANCED_FACE('Face appearance 2',(#873),#19,.F.);
#1004=ADVANCED_FACE('Face appearance 2',(#874),#912,.F.);
#1005=ADVANCED_FACE('Face appearance 2',(#875),#913,.F.);
#1006=CLOSED_SHELL('',(#960,#961,#962,#963,#964,#965,#966,#967,#968,#969,
#970,#971,#972,#973,#974,#975,#976,#977,#978,#979,#980,#981,#982,#983,#984,
#985,#986,#987,#988,#989,#990,#991,#992,#993,#994,#995,#996,#997,#998,#999,
#1000,#1001,#1002,#1003,#1004,#1005));
#1007=STYLED_ITEM('',(#1008),#1292);
#1008=PRESENTATION_STYLE_ASSIGNMENT((#1055));
#1009=PRESENTATION_STYLE_ASSIGNMENT((#1056));
#1010=PRESENTATION_STYLE_ASSIGNMENT((#1057));
#1011=PRESENTATION_STYLE_ASSIGNMENT((#1058));
#1012=PRESENTATION_STYLE_ASSIGNMENT((#1059));
#1013=PRESENTATION_STYLE_ASSIGNMENT((#1060));
#1014=PRESENTATION_STYLE_ASSIGNMENT((#1061));
#1015=PRESENTATION_STYLE_ASSIGNMENT((#1062));
#1016=PRESENTATION_STYLE_ASSIGNMENT((#1063));
#1017=PRESENTATION_STYLE_ASSIGNMENT((#1064));
#1018=PRESENTATION_STYLE_ASSIGNMENT((#1065));
#1019=PRESENTATION_STYLE_ASSIGNMENT((#1066));
#1020=PRESENTATION_STYLE_ASSIGNMENT((#1067));
#1021=PRESENTATION_STYLE_ASSIGNMENT((#1068));
#1022=PRESENTATION_STYLE_ASSIGNMENT((#1069));
#1023=PRESENTATION_STYLE_ASSIGNMENT((#1070));
#1024=PRESENTATION_STYLE_ASSIGNMENT((#1071));
#1025=PRESENTATION_STYLE_ASSIGNMENT((#1072));
#1026=PRESENTATION_STYLE_ASSIGNMENT((#1073));
#1027=PRESENTATION_STYLE_ASSIGNMENT((#1074));
#1028=PRESENTATION_STYLE_ASSIGNMENT((#1075));
#1029=PRESENTATION_STYLE_ASSIGNMENT((#1076));
#1030=PRESENTATION_STYLE_ASSIGNMENT((#1077));
#1031=PRESENTATION_STYLE_ASSIGNMENT((#1078));
#1032=PRESENTATION_STYLE_ASSIGNMENT((#1079));
#1033=PRESENTATION_STYLE_ASSIGNMENT((#1080));
#1034=PRESENTATION_STYLE_ASSIGNMENT((#1081));
#1035=PRESENTATION_STYLE_ASSIGNMENT((#1082));
#1036=PRESENTATION_STYLE_ASSIGNMENT((#1083));
#1037=PRESENTATION_STYLE_ASSIGNMENT((#1084));
#1038=PRESENTATION_STYLE_ASSIGNMENT((#1085));
#1039=PRESENTATION_STYLE_ASSIGNMENT((#1086));
#1040=PRESENTATION_STYLE_ASSIGNMENT((#1087));
#1041=PRESENTATION_STYLE_ASSIGNMENT((#1088));
#1042=PRESENTATION_STYLE_ASSIGNMENT((#1089));
#1043=PRESENTATION_STYLE_ASSIGNMENT((#1090));
#1044=PRESENTATION_STYLE_ASSIGNMENT((#1091));
#1045=PRESENTATION_STYLE_ASSIGNMENT((#1092));
#1046=PRESENTATION_STYLE_ASSIGNMENT((#1093));
#1047=PRESENTATION_STYLE_ASSIGNMENT((#1094));
#1048=PRESENTATION_STYLE_ASSIGNMENT((#1095));
#1049=PRESENTATION_STYLE_ASSIGNMENT((#1096));
#1050=PRESENTATION_STYLE_ASSIGNMENT((#1097));
#1051=PRESENTATION_STYLE_ASSIGNMENT((#1098));
#1052=PRESENTATION_STYLE_ASSIGNMENT((#1099));
#1053=PRESENTATION_STYLE_ASSIGNMENT((#1100));
#1054=PRESENTATION_STYLE_ASSIGNMENT((#1101));
#1055=SURFACE_STYLE_USAGE(.BOTH.,#1102);
#1056=SURFACE_STYLE_USAGE(.BOTH.,#1103);
#1057=SURFACE_STYLE_USAGE(.BOTH.,#1104);
#1058=SURFACE_STYLE_USAGE(.BOTH.,#1105);
#1059=SURFACE_STYLE_USAGE(.BOTH.,#1106);
#1060=SURFACE_STYLE_USAGE(.BOTH.,#1107);
#1061=SURFACE_STYLE_USAGE(.BOTH.,#1108);
#1062=SURFACE_STYLE_USAGE(.BOTH.,#1109);
#1063=SURFACE_STYLE_USAGE(.BOTH.,#1110);
#1064=SURFACE_STYLE_USAGE(.BOTH.,#1111);
#1065=SURFACE_STYLE_USAGE(.BOTH.,#1112);
#1066=SURFACE_STYLE_USAGE(.BOTH.,#1113);
#1067=SURFACE_STYLE_USAGE(.BOTH.,#1114);
#1068=SURFACE_STYLE_USAGE(.BOTH.,#1115);
#1069=SURFACE_STYLE_USAGE(.BOTH.,#1116);
#1070=SURFACE_STYLE_USAGE(.BOTH.,#1117);
#1071=SURFACE_STYLE_USAGE(.BOTH.,#1118);
#1072=SURFACE_STYLE_USAGE(.BOTH.,#1119);
#1073=SURFACE_STYLE_USAGE(.BOTH.,#1120);
#1074=SURFACE_STYLE_USAGE(.BOTH.,#1121);
#1075=SURFACE_STYLE_USAGE(.BOTH.,#1122);
#1076=SURFACE_STYLE_USAGE(.BOTH.,#1123);
#1077=SURFACE_STYLE_USAGE(.BOTH.,#1124);
#1078=SURFACE_STYLE_USAGE(.BOTH.,#1125);
#1079=SURFACE_STYLE_USAGE(.BOTH.,#1126);
#1080=SURFACE_STYLE_USAGE(.BOTH.,#1127);
#1081=SURFACE_STYLE_USAGE(.BOTH.,#1128);
#1082=SURFACE_STYLE_USAGE(.BOTH.,#1129);
#1083=SURFACE_STYLE_USAGE(.BOTH.,#1130);
#1084=SURFACE_STYLE_USAGE(.BOTH.,#1131);
#1085=SURFACE_STYLE_USAGE(.BOTH.,#1132);
#1086=SURFACE_STYLE_USAGE(.BOTH.,#1133);
#1087=SURFACE_STYLE_USAGE(.BOTH.,#1134);
#1088=SURFACE_STYLE_USAGE(.BOTH.,#1135);
#1089=SURFACE_STYLE_USAGE(.BOTH.,#1136);
#1090=SURFACE_STYLE_USAGE(.BOTH.,#1137);
#1091=SURFACE_STYLE_USAGE(.BOTH.,#1138);
#1092=SURFACE_STYLE_USAGE(.BOTH.,#1139);
#1093=SURFACE_STYLE_USAGE(.BOTH.,#1140);
#1094=SURFACE_STYLE_USAGE(.BOTH.,#1141);
#1095=SURFACE_STYLE_USAGE(.BOTH.,#1142);
#1096=SURFACE_STYLE_USAGE(.BOTH.,#1143);
#1097=SURFACE_STYLE_USAGE(.BOTH.,#1144);
#1098=SURFACE_STYLE_USAGE(.BOTH.,#1145);
#1099=SURFACE_STYLE_USAGE(.BOTH.,#1146);
#1100=SURFACE_STYLE_USAGE(.BOTH.,#1147);
#1101=SURFACE_STYLE_USAGE(.BOTH.,#1148);
#1102=SURFACE_SIDE_STYLE('',(#1149));
#1103=SURFACE_SIDE_STYLE('',(#1150));
#1104=SURFACE_SIDE_STYLE('',(#1151));
#1105=SURFACE_SIDE_STYLE('',(#1152));
#1106=SURFACE_SIDE_STYLE('',(#1153));
#1107=SURFACE_SIDE_STYLE('',(#1154));
#1108=SURFACE_SIDE_STYLE('',(#1155));
#1109=SURFACE_SIDE_STYLE('',(#1156));
#1110=SURFACE_SIDE_STYLE('',(#1157));
#1111=SURFACE_SIDE_STYLE('',(#1158));
#1112=SURFACE_SIDE_STYLE('',(#1159));
#1113=SURFACE_SIDE_STYLE('',(#1160));
#1114=SURFACE_SIDE_STYLE('',(#1161));
#1115=SURFACE_SIDE_STYLE('',(#1162));
#1116=SURFACE_SIDE_STYLE('',(#1163));
#1117=SURFACE_SIDE_STYLE('',(#1164));
#1118=SURFACE_SIDE_STYLE('',(#1165));
#1119=SURFACE_SIDE_STYLE('',(#1166));
#1120=SURFACE_SIDE_STYLE('',(#1167));
#1121=SURFACE_SIDE_STYLE('',(#1168));
#1122=SURFACE_SIDE_STYLE('',(#1169));
#1123=SURFACE_SIDE_STYLE('',(#1170));
#1124=SURFACE_SIDE_STYLE('',(#1171));
#1125=SURFACE_SIDE_STYLE('',(#1172));
#1126=SURFACE_SIDE_STYLE('',(#1173));
#1127=SURFACE_SIDE_STYLE('',(#1174));
#1128=SURFACE_SIDE_STYLE('',(#1175));
#1129=SURFACE_SIDE_STYLE('',(#1176));
#1130=SURFACE_SIDE_STYLE('',(#1177));
#1131=SURFACE_SIDE_STYLE('',(#1178));
#1132=SURFACE_SIDE_STYLE('',(#1179));
#1133=SURFACE_SIDE_STYLE('',(#1180));
#1134=SURFACE_SIDE_STYLE('',(#1181));
#1135=SURFACE_SIDE_STYLE('',(#1182));
#1136=SURFACE_SIDE_STYLE('',(#1183));
#1137=SURFACE_SIDE_STYLE('',(#1184));
#1138=SURFACE_SIDE_STYLE('',(#1185));
#1139=SURFACE_SIDE_STYLE('',(#1186));
#1140=SURFACE_SIDE_STYLE('',(#1187));
#1141=SURFACE_SIDE_STYLE('',(#1188));
#1142=SURFACE_SIDE_STYLE('',(#1189));
#1143=SURFACE_SIDE_STYLE('',(#1190));
#1144=SURFACE_SIDE_STYLE('',(#1191));
#1145=SURFACE_SIDE_STYLE('',(#1192));
#1146=SURFACE_SIDE_STYLE('',(#1193));
#1147=SURFACE_SIDE_STYLE('',(#1194));
#1148=SURFACE_SIDE_STYLE('',(#1195));
#1149=SURFACE_STYLE_FILL_AREA(#1196);
#1150=SURFACE_STYLE_FILL_AREA(#1197);
#1151=SURFACE_STYLE_FILL_AREA(#1198);
#1152=SURFACE_STYLE_FILL_AREA(#1199);
#1153=SURFACE_STYLE_FILL_AREA(#1200);
#1154=SURFACE_STYLE_FILL_AREA(#1201);
#1155=SURFACE_STYLE_FILL_AREA(#1202);
#1156=SURFACE_STYLE_FILL_AREA(#1203);
#1157=SURFACE_STYLE_FILL_AREA(#1204);
#1158=SURFACE_STYLE_FILL_AREA(#1205);
#1159=SURFACE_STYLE_FILL_AREA(#1206);
#1160=SURFACE_STYLE_FILL_AREA(#1207);
#1161=SURFACE_STYLE_FILL_AREA(#1208);
#1162=SURFACE_STYLE_FILL_AREA(#1209);
#1163=SURFACE_STYLE_FILL_AREA(#1210);
#1164=SURFACE_STYLE_FILL_AREA(#1211);
#1165=SURFACE_STYLE_FILL_AREA(#1212);
#1166=SURFACE_STYLE_FILL_AREA(#1213);
#1167=SURFACE_STYLE_FILL_AREA(#1214);
#1168=SURFACE_STYLE_FILL_AREA(#1215);
#1169=SURFACE_STYLE_FILL_AREA(#1216);
#1170=SURFACE_STYLE_FILL_AREA(#1217);
#1171=SURFACE_STYLE_FILL_AREA(#1218);
#1172=SURFACE_STYLE_FILL_AREA(#1219);
#1173=SURFACE_STYLE_FILL_AREA(#1220);
#1174=SURFACE_STYLE_FILL_AREA(#1221);
#1175=SURFACE_STYLE_FILL_AREA(#1222);
#1176=SURFACE_STYLE_FILL_AREA(#1223);
#1177=SURFACE_STYLE_FILL_AREA(#1224);
#1178=SURFACE_STYLE_FILL_AREA(#1225);
#1179=SURFACE_STYLE_FILL_AREA(#1226);
#1180=SURFACE_STYLE_FILL_AREA(#1227);
#1181=SURFACE_STYLE_FILL_AREA(#1228);
#1182=SURFACE_STYLE_FILL_AREA(#1229);
#1183=SURFACE_STYLE_FILL_AREA(#1230);
#1184=SURFACE_STYLE_FILL_AREA(#1231);
#1185=SURFACE_STYLE_FILL_AREA(#1232);
#1186=SURFACE_STYLE_FILL_AREA(#1233);
#1187=SURFACE_STYLE_FILL_AREA(#1234);
#1188=SURFACE_STYLE_FILL_AREA(#1235);
#1189=SURFACE_STYLE_FILL_AREA(#1236);
#1190=SURFACE_STYLE_FILL_AREA(#1237);
#1191=SURFACE_STYLE_FILL_AREA(#1238);
#1192=SURFACE_STYLE_FILL_AREA(#1239);
#1193=SURFACE_STYLE_FILL_AREA(#1240);
#1194=SURFACE_STYLE_FILL_AREA(#1241);
#1195=SURFACE_STYLE_FILL_AREA(#1242);
#1196=FILL_AREA_STYLE('',(#1243));
#1197=FILL_AREA_STYLE('',(#1244));
#1198=FILL_AREA_STYLE('',(#1245));
#1199=FILL_AREA_STYLE('',(#1246));
#1200=FILL_AREA_STYLE('',(#1247));
#1201=FILL_AREA_STYLE('',(#1248));
#1202=FILL_AREA_STYLE('',(#1249));
#1203=FILL_AREA_STYLE('',(#1250));
#1204=FILL_AREA_STYLE('',(#1251));
#1205=FILL_AREA_STYLE('',(#1252));
#1206=FILL_AREA_STYLE('',(#1253));
#1207=FILL_AREA_STYLE('',(#1254));
#1208=FILL_AREA_STYLE('',(#1255));
#1209=FILL_AREA_STYLE('',(#1256));
#1210=FILL_AREA_STYLE('',(#1257));
#1211=FILL_AREA_STYLE('',(#1258));
#1212=FILL_AREA_STYLE('',(#1259));
#1213=FILL_AREA_STYLE('',(#1260));
#1214=FILL_AREA_STYLE('',(#1261));
#1215=FILL_AREA_STYLE('',(#1262));
#1216=FILL_AREA_STYLE('',(#1263));
#1217=FILL_AREA_STYLE('',(#1264));
#1218=FILL_AREA_STYLE('',(#1265));
#1219=FILL_AREA_STYLE('',(#1266));
#1220=FILL_AREA_STYLE('',(#1267));
#1221=FILL_AREA_STYLE('',(#1268));
#1222=FILL_AREA_STYLE('',(#1269));
#1223=FILL_AREA_STYLE('',(#1270));
#1224=FILL_AREA_STYLE('',(#1271));
#1225=FILL_AREA_STYLE('',(#1272));
#1226=FILL_AREA_STYLE('',(#1273));
#1227=FILL_AREA_STYLE('',(#1274));
#1228=FILL_AREA_STYLE('',(#1275));
#1229=FILL_AREA_STYLE('',(#1276));
#1230=FILL_AREA_STYLE('',(#1277));
#1231=FILL_AREA_STYLE('',(#1278));
#1232=FILL_AREA_STYLE('',(#1279));
#1233=FILL_AREA_STYLE('',(#1280));
#1234=FILL_AREA_STYLE('',(#1281));
#1235=FILL_AREA_STYLE('',(#1282));
#1236=FILL_AREA_STYLE('',(#1283));
#1237=FILL_AREA_STYLE('',(#1284));
#1238=FILL_AREA_STYLE('',(#1285));
#1239=FILL_AREA_STYLE('',(#1286));
#1240=FILL_AREA_STYLE('',(#1287));
#1241=FILL_AREA_STYLE('',(#1288));
#1242=FILL_AREA_STYLE('',(#1289));
#1243=FILL_AREA_STYLE_COLOUR('',#1290);
#1244=FILL_AREA_STYLE_COLOUR('',#1291);
#1245=FILL_AREA_STYLE_COLOUR('',#1291);
#1246=FILL_AREA_STYLE_COLOUR('',#1291);
#1247=FILL_AREA_STYLE_COLOUR('',#1291);
#1248=FILL_AREA_STYLE_COLOUR('',#1291);
#1249=FILL_AREA_STYLE_COLOUR('',#1291);
#1250=FILL_AREA_STYLE_COLOUR('',#1291);
#1251=FILL_AREA_STYLE_COLOUR('',#1291);
#1252=FILL_AREA_STYLE_COLOUR('',#1291);
#1253=FILL_AREA_STYLE_COLOUR('',#1291);
#1254=FILL_AREA_STYLE_COLOUR('',#1291);
#1255=FILL_AREA_STYLE_COLOUR('',#1291);
#1256=FILL_AREA_STYLE_COLOUR('',#1291);
#1257=FILL_AREA_STYLE_COLOUR('',#1291);
#1258=FILL_AREA_STYLE_COLOUR('',#1291);
#1259=FILL_AREA_STYLE_COLOUR('',#1291);
#1260=FILL_AREA_STYLE_COLOUR('',#1291);
#1261=FILL_AREA_STYLE_COLOUR('',#1291);
#1262=FILL_AREA_STYLE_COLOUR('',#1291);
#1263=FILL_AREA_STYLE_COLOUR('',#1291);
#1264=FILL_AREA_STYLE_COLOUR('',#1291);
#1265=FILL_AREA_STYLE_COLOUR('',#1291);
#1266=FILL_AREA_STYLE_COLOUR('',#1291);
#1267=FILL_AREA_STYLE_COLOUR('',#1291);
#1268=FILL_AREA_STYLE_COLOUR('',#1291);
#1269=FILL_AREA_STYLE_COLOUR('',#1291);
#1270=FILL_AREA_STYLE_COLOUR('',#1291);
#1271=FILL_AREA_STYLE_COLOUR('',#1291);
#1272=FILL_AREA_STYLE_COLOUR('',#1291);
#1273=FILL_AREA_STYLE_COLOUR('',#1291);
#1274=FILL_AREA_STYLE_COLOUR('',#1291);
#1275=FILL_AREA_STYLE_COLOUR('',#1291);
#1276=FILL_AREA_STYLE_COLOUR('',#1291);
#1277=FILL_AREA_STYLE_COLOUR('',#1291);
#1278=FILL_AREA_STYLE_COLOUR('',#1291);
#1279=FILL_AREA_STYLE_COLOUR('',#1291);
#1280=FILL_AREA_STYLE_COLOUR('',#1291);
#1281=FILL_AREA_STYLE_COLOUR('',#1291);
#1282=FILL_AREA_STYLE_COLOUR('',#1291);
#1283=FILL_AREA_STYLE_COLOUR('',#1291);
#1284=FILL_AREA_STYLE_COLOUR('',#1291);
#1285=FILL_AREA_STYLE_COLOUR('',#1291);
#1286=FILL_AREA_STYLE_COLOUR('',#1291);
#1287=FILL_AREA_STYLE_COLOUR('',#1291);
#1288=FILL_AREA_STYLE_COLOUR('',#1291);
#1289=FILL_AREA_STYLE_COLOUR('',#1291);
#1290=COLOUR_RGB('',0.615686274509804,0.811764705882353,0.929411764705882);
#1291=COLOUR_RGB('',0.815686274509804,0.850980392156863,0.627450980392157);
#1292=MANIFOLD_SOLID_BREP('Part 1',#1006);
#1293=SHAPE_DEFINITION_REPRESENTATION(#1873,#1294);
#1294=SHAPE_REPRESENTATION('Part 1',(#1295),#1868);
#1295=AXIS2_PLACEMENT_3D('',#1600,#1358,#1359);
#1296=AXIS2_PLACEMENT_3D('',#1601,#1360,#1361);
#1297=AXIS2_PLACEMENT_3D('',#1610,#1366,#1367);
#1298=AXIS2_PLACEMENT_3D('',#1616,#1371,#1372);
#1299=AXIS2_PLACEMENT_3D('',#1622,#1376,#1377);
#1300=AXIS2_PLACEMENT_3D('',#1625,#1380,#1381);
#1301=AXIS2_PLACEMENT_3D('',#1626,#1382,#1383);
#1302=AXIS2_PLACEMENT_3D('',#1636,#1388,#1389);
#1303=AXIS2_PLACEMENT_3D('',#1646,#1394,#1395);
#1304=AXIS2_PLACEMENT_3D('',#1656,#1400,#1401);
#1305=AXIS2_PLACEMENT_3D('',#1666,#1406,#1407);
#1306=AXIS2_PLACEMENT_3D('',#1676,#1412,#1413);
#1307=AXIS2_PLACEMENT_3D('',#1686,#1418,#1419);
#1308=AXIS2_PLACEMENT_3D('',#1696,#1424,#1425);
#1309=AXIS2_PLACEMENT_3D('',#1706,#1430,#1431);
#1310=AXIS2_PLACEMENT_3D('',#1710,#1433,#1434);
#1311=AXIS2_PLACEMENT_3D('',#1720,#1439,#1440);
#1312=AXIS2_PLACEMENT_3D('',#1730,#1445,#1446);
#1313=AXIS2_PLACEMENT_3D('',#1740,#1451,#1452);
#1314=AXIS2_PLACEMENT_3D('',#1750,#1457,#1458);
#1315=AXIS2_PLACEMENT_3D('',#1760,#1463,#1464);
#1316=AXIS2_PLACEMENT_3D('',#1770,#1469,#1470);
#1317=AXIS2_PLACEMENT_3D('',#1780,#1475,#1476);
#1318=AXIS2_PLACEMENT_3D('',#1787,#1480,#1481);
#1319=AXIS2_PLACEMENT_3D('',#1790,#1484,#1485);
#1320=AXIS2_PLACEMENT_3D('',#1792,#1487,#1488);
#1321=AXIS2_PLACEMENT_3D('',#1794,#1490,#1491);
#1322=AXIS2_PLACEMENT_3D('',#1796,#1493,#1494);
#1323=AXIS2_PLACEMENT_3D('',#1797,#1495,#1496);
#1324=AXIS2_PLACEMENT_3D('',#1800,#1499,#1500);
#1325=AXIS2_PLACEMENT_3D('',#1802,#1502,#1503);
#1326=AXIS2_PLACEMENT_3D('',#1804,#1505,#1506);
#1327=AXIS2_PLACEMENT_3D('',#1806,#1508,#1509);
#1328=AXIS2_PLACEMENT_3D('',#1807,#1510,#1511);
#1329=AXIS2_PLACEMENT_3D('',#1810,#1514,#1515);
#1330=AXIS2_PLACEMENT_3D('',#1812,#1517,#1518);
#1331=AXIS2_PLACEMENT_3D('',#1814,#1520,#1521);
#1332=AXIS2_PLACEMENT_3D('',#1816,#1523,#1524);
#1333=AXIS2_PLACEMENT_3D('',#1817,#1525,#1526);
#1334=AXIS2_PLACEMENT_3D('',#1820,#1529,#1530);
#1335=AXIS2_PLACEMENT_3D('',#1822,#1532,#1533);
#1336=AXIS2_PLACEMENT_3D('',#1824,#1535,#1536);
#1337=AXIS2_PLACEMENT_3D('',#1826,#1538,#1539);
#1338=AXIS2_PLACEMENT_3D('',#1827,#1540,#1541);
#1339=AXIS2_PLACEMENT_3D('',#1830,#1544,#1545);
#1340=AXIS2_PLACEMENT_3D('',#1832,#1547,#1548);
#1341=AXIS2_PLACEMENT_3D('',#1834,#1550,#1551);
#1342=AXIS2_PLACEMENT_3D('',#1836,#1553,#1554);
#1343=AXIS2_PLACEMENT_3D('',#1837,#1555,#1556);
#1344=AXIS2_PLACEMENT_3D('',#1840,#1559,#1560);
#1345=AXIS2_PLACEMENT_3D('',#1842,#1562,#1563);
#1346=AXIS2_PLACEMENT_3D('',#1844,#1565,#1566);
#1347=AXIS2_PLACEMENT_3D('',#1846,#1568,#1569);
#1348=AXIS2_PLACEMENT_3D('',#1847,#1570,#1571);
#1349=AXIS2_PLACEMENT_3D('',#1850,#1574,#1575);
#1350=AXIS2_PLACEMENT_3D('',#1852,#1577,#1578);
#1351=AXIS2_PLACEMENT_3D('',#1854,#1580,#1581);
#1352=AXIS2_PLACEMENT_3D('',#1856,#1583,#1584);
#1353=AXIS2_PLACEMENT_3D('',#1857,#1585,#1586);
#1354=AXIS2_PLACEMENT_3D('',#1860,#1589,#1590);
#1355=AXIS2_PLACEMENT_3D('',#1862,#1592,#1593);
#1356=AXIS2_PLACEMENT_3D('',#1864,#1595,#1596);
#1357=AXIS2_PLACEMENT_3D('',#1866,#1598,#1599);
#1358=DIRECTION('',(0.,0.,1.));
#1359=DIRECTION('',(1.,0.,0.));
#1360=DIRECTION('',(0.,1.,0.));
#1361=DIRECTION('',(0.,0.,1.));
#1362=DIRECTION('',(1.,0.,0.));
#1363=DIRECTION('',(0.,0.,-1.));
#1364=DIRECTION('',(1.,0.,0.));
#1365=DIRECTION('',(0.,0.,-1.));
#1366=DIRECTION('',(1.,0.,0.));
#1367=DIRECTION('',(0.,0.,-1.));
#1368=DIRECTION('',(0.,-1.,0.));
#1369=DIRECTION('',(0.,0.,-1.));
#1370=DIRECTION('',(0.,-1.,0.));
#1371=DIRECTION('',(0.,1.,0.));
#1372=DIRECTION('',(0.,0.,1.));
#1373=DIRECTION('',(1.,0.,0.));
#1374=DIRECTION('',(0.,0.,-1.));
#1375=DIRECTION('',(1.,0.,0.));
#1376=DIRECTION('',(1.,0.,0.));
#1377=DIRECTION('',(0.,0.,-1.));
#1378=DIRECTION('',(0.,-1.,0.));
#1379=DIRECTION('',(0.,-1.,0.));
#1380=DIRECTION('',(0.,0.,1.));
#1381=DIRECTION('',(1.,0.,0.));
#1382=DIRECTION('',(0.,0.,1.));
#1383=DIRECTION('',(1.,0.,0.));
#1384=DIRECTION('',(1.,0.,0.));
#1385=DIRECTION('',(0.,-1.,0.));
#1386=DIRECTION('',(1.,0.,0.));
#1387=DIRECTION('',(0.,-1.,0.));
#1388=DIRECTION('',(0.,0.,1.));
#1389=DIRECTION('',(1.,0.,0.));
#1390=DIRECTION('',(1.,0.,0.));
#1391=DIRECTION('',(0.,-1.,0.));
#1392=DIRECTION('',(1.,0.,0.));
#1393=DIRECTION('',(0.,-1.,0.));
#1394=DIRECTION('',(0.,0.,1.));
#1395=DIRECTION('',(1.,0.,0.));
#1396=DIRECTION('',(1.,0.,0.));
#1397=DIRECTION('',(0.,-1.,0.));
#1398=DIRECTION('',(1.,0.,0.));
#1399=DIRECTION('',(0.,-1.,0.));
#1400=DIRECTION('',(0.,0.,1.));
#1401=DIRECTION('',(1.,0.,0.));
#1402=DIRECTION('',(0.,-1.,0.));
#1403=DIRECTION('',(1.,0.,0.));
#1404=DIRECTION('',(0.,-1.,0.));
#1405=DIRECTION('',(1.,0.,0.));
#1406=DIRECTION('',(0.,0.,1.));
#1407=DIRECTION('',(1.,0.,0.));
#1408=DIRECTION('',(0.,-1.,0.));
#1409=DIRECTION('',(1.,0.,0.));
#1410=DIRECTION('',(0.,-1.,0.));
#1411=DIRECTION('',(1.,0.,0.));
#1412=DIRECTION('',(0.,0.,1.));
#1413=DIRECTION('',(1.,0.,0.));
#1414=DIRECTION('',(1.,0.,0.));
#1415=DIRECTION('',(0.,-1.,0.));
#1416=DIRECTION('',(1.,0.,0.));
#1417=DIRECTION('',(0.,-1.,0.));
#1418=DIRECTION('',(0.,0.,1.));
#1419=DIRECTION('',(1.,0.,0.));
#1420=DIRECTION('',(0.,-1.,0.));
#1421=DIRECTION('',(1.,0.,0.));
#1422=DIRECTION('',(0.,-1.,0.));
#1423=DIRECTION('',(1.,0.,0.));
#1424=DIRECTION('',(0.,0.,1.));
#1425=DIRECTION('',(1.,0.,0.));
#1426=DIRECTION('',(0.,-1.,0.));
#1427=DIRECTION('',(1.,0.,0.));
#1428=DIRECTION('',(0.,-1.,0.));
#1429=DIRECTION('',(1.,0.,0.));
#1430=DIRECTION('',(0.,0.,1.));
#1431=DIRECTION('',(1.,0.,0.));
#1432=DIRECTION('',(1.,0.,0.));
#1433=DIRECTION('',(0.,0.,1.));
#1434=DIRECTION('',(1.,0.,0.));
#1435=DIRECTION('',(0.,-1.,0.));
#1436=DIRECTION('',(1.,0.,0.));
#1437=DIRECTION('',(0.,-1.,0.));
#1438=DIRECTION('',(1.,0.,0.));
#1439=DIRECTION('',(0.,0.,1.));
#1440=DIRECTION('',(1.,0.,0.));
#1441=DIRECTION('',(0.,-1.,0.));
#1442=DIRECTION('',(1.,0.,0.));
#1443=DIRECTION('',(0.,-1.,0.));
#1444=DIRECTION('',(0.,-1.,0.));
#1445=DIRECTION('',(0.,0.,1.));
#1446=DIRECTION('',(1.,0.,0.));
#1447=DIRECTION('',(1.,0.,0.));
#1448=DIRECTION('',(0.,-1.,0.));
#1449=DIRECTION('',(1.,0.,0.));
#1450=DIRECTION('',(0.,-1.,0.));
#1451=DIRECTION('',(0.,0.,1.));
#1452=DIRECTION('',(1.,0.,0.));
#1453=DIRECTION('',(1.,0.,0.));
#1454=DIRECTION('',(0.,-1.,0.));
#1455=DIRECTION('',(1.,0.,0.));
#1456=DIRECTION('',(1.,0.,0.));
#1457=DIRECTION('',(0.,0.,1.));
#1458=DIRECTION('',(1.,0.,0.));
#1459=DIRECTION('',(0.,-1.,0.));
#1460=DIRECTION('',(1.,0.,0.));
#1461=DIRECTION('',(0.,-1.,0.));
#1462=DIRECTION('',(0.,-1.,0.));
#1463=DIRECTION('',(0.,0.,1.));
#1464=DIRECTION('',(1.,0.,0.));
#1465=DIRECTION('',(1.,0.,0.));
#1466=DIRECTION('',(0.,-1.,0.));
#1467=DIRECTION('',(1.,0.,0.));
#1468=DIRECTION('',(0.,-1.,0.));
#1469=DIRECTION('',(0.,0.,1.));
#1470=DIRECTION('',(1.,0.,0.));
#1471=DIRECTION('',(1.,0.,0.));
#1472=DIRECTION('',(0.,-1.,0.));
#1473=DIRECTION('',(1.,0.,0.));
#1474=DIRECTION('',(1.,0.,0.));
#1475=DIRECTION('',(0.,0.,1.));
#1476=DIRECTION('',(1.,0.,0.));
#1477=DIRECTION('',(0.,-1.,0.));
#1478=DIRECTION('',(1.,0.,0.));
#1479=DIRECTION('',(0.,-1.,0.));
#1480=DIRECTION('',(-1.,0.,0.));
#1481=DIRECTION('',(0.,0.,1.));
#1482=DIRECTION('',(0.,0.,1.));
#1483=DIRECTION('',(0.,0.,1.));
#1484=DIRECTION('',(0.,-1.,0.));
#1485=DIRECTION('',(0.,0.,-1.));
#1486=DIRECTION('',(0.,0.,1.));
#1487=DIRECTION('',(0.,0.,1.));
#1488=DIRECTION('',(1.,0.,0.));
#1489=DIRECTION('',(0.,0.,1.));
#1490=DIRECTION('',(-1.,0.,0.));
#1491=DIRECTION('',(0.,0.,1.));
#1492=DIRECTION('',(0.,0.,1.));
#1493=DIRECTION('',(0.,-1.,0.));
#1494=DIRECTION('',(0.,0.,-1.));
#1495=DIRECTION('',(0.,-1.,0.));
#1496=DIRECTION('',(0.,0.,-1.));
#1497=DIRECTION('',(0.,0.,1.));
#1498=DIRECTION('',(0.,0.,1.));
#1499=DIRECTION('',(-1.,0.,0.));
#1500=DIRECTION('',(0.,0.,1.));
#1501=DIRECTION('',(0.,0.,1.));
#1502=DIRECTION('',(0.,-1.,0.));
#1503=DIRECTION('',(0.,0.,-1.));
#1504=DIRECTION('',(0.,0.,1.));
#1505=DIRECTION('',(-1.,0.,0.));
#1506=DIRECTION('',(0.,0.,1.));
#1507=DIRECTION('',(0.,0.,1.));
#1508=DIRECTION('',(0.,0.,1.));
#1509=DIRECTION('',(1.,0.,0.));
#1510=DIRECTION('',(-1.,0.,0.));
#1511=DIRECTION('',(0.,0.,1.));
#1512=DIRECTION('',(0.,0.,1.));
#1513=DIRECTION('',(0.,0.,1.));
#1514=DIRECTION('',(0.,-1.,0.));
#1515=DIRECTION('',(0.,0.,-1.));
#1516=DIRECTION('',(0.,0.,1.));
#1517=DIRECTION('',(-1.,0.,0.));
#1518=DIRECTION('',(0.,0.,1.));
#1519=DIRECTION('',(0.,0.,1.));
#1520=DIRECTION('',(0.,0.,1.));
#1521=DIRECTION('',(1.,0.,0.));
#1522=DIRECTION('',(0.,0.,1.));
#1523=DIRECTION('',(0.,-1.,0.));
#1524=DIRECTION('',(0.,0.,-1.));
#1525=DIRECTION('',(0.,-1.,0.));
#1526=DIRECTION('',(0.,0.,-1.));
#1527=DIRECTION('',(0.,0.,1.));
#1528=DIRECTION('',(0.,0.,1.));
#1529=DIRECTION('',(-1.,0.,0.));
#1530=DIRECTION('',(0.,0.,1.));
#1531=DIRECTION('',(0.,0.,1.));
#1532=DIRECTION('',(0.,-1.,0.));
#1533=DIRECTION('',(0.,0.,-1.));
#1534=DIRECTION('',(0.,0.,1.));
#1535=DIRECTION('',(0.,0.,1.));
#1536=DIRECTION('',(1.,0.,0.));
#1537=DIRECTION('',(0.,0.,1.));
#1538=DIRECTION('',(-1.,0.,0.));
#1539=DIRECTION('',(0.,0.,1.));
#1540=DIRECTION('',(0.,-1.,0.));
#1541=DIRECTION('',(0.,0.,-1.));
#1542=DIRECTION('',(0.,0.,1.));
#1543=DIRECTION('',(0.,0.,1.));
#1544=DIRECTION('',(-1.,0.,0.));
#1545=DIRECTION('',(0.,0.,1.));
#1546=DIRECTION('',(0.,0.,1.));
#1547=DIRECTION('',(0.,-1.,0.));
#1548=DIRECTION('',(0.,0.,-1.));
#1549=DIRECTION('',(0.,0.,1.));
#1550=DIRECTION('',(-1.,0.,0.));
#1551=DIRECTION('',(0.,0.,1.));
#1552=DIRECTION('',(0.,0.,1.));
#1553=DIRECTION('',(0.,0.,1.));
#1554=DIRECTION('',(1.,0.,0.));
#1555=DIRECTION('',(-1.,0.,0.));
#1556=DIRECTION('',(0.,0.,1.));
#1557=DIRECTION('',(0.,0.,1.));
#1558=DIRECTION('',(0.,0.,1.));
#1559=DIRECTION('',(0.,-1.,0.));
#1560=DIRECTION('',(0.,0.,-1.));
#1561=DIRECTION('',(0.,0.,1.));
#1562=DIRECTION('',(-1.,0.,0.));
#1563=DIRECTION('',(0.,0.,1.));
#1564=DIRECTION('',(0.,0.,1.));
#1565=DIRECTION('',(0.,0.,1.));
#1566=DIRECTION('',(1.,0.,0.));
#1567=DIRECTION('',(0.,0.,1.));
#1568=DIRECTION('',(0.,-1.,0.));
#1569=DIRECTION('',(0.,0.,-1.));
#1570=DIRECTION('',(0.,-1.,0.));
#1571=DIRECTION('',(0.,0.,-1.));
#1572=DIRECTION('',(0.,0.,1.));
#1573=DIRECTION('',(0.,0.,1.));
#1574=DIRECTION('',(-1.,0.,0.));
#1575=DIRECTION('',(0.,0.,1.));
#1576=DIRECTION('',(0.,0.,1.));
#1577=DIRECTION('',(0.,-1.,0.));
#1578=DIRECTION('',(0.,0.,-1.));
#1579=DIRECTION('',(0.,0.,1.));
#1580=DIRECTION('',(0.,0.,1.));
#1581=DIRECTION('',(1.,0.,0.));
#1582=DIRECTION('',(0.,0.,1.));
#1583=DIRECTION('',(-1.,0.,0.));
#1584=DIRECTION('',(0.,0.,1.));
#1585=DIRECTION('',(-1.,0.,0.));
#1586=DIRECTION('',(0.,0.,1.));
#1587=DIRECTION('',(0.,0.,1.));
#1588=DIRECTION('',(0.,0.,1.));
#1589=DIRECTION('',(0.,-1.,0.));
#1590=DIRECTION('',(0.,0.,-1.));
#1591=DIRECTION('',(0.,0.,1.));
#1592=DIRECTION('',(0.,0.,1.));
#1593=DIRECTION('',(1.,0.,0.));
#1594=DIRECTION('',(0.,0.,1.));
#1595=DIRECTION('',(-1.,0.,0.));
#1596=DIRECTION('',(0.,0.,1.));
#1597=DIRECTION('',(0.,0.,1.));
#1598=DIRECTION('',(0.,-1.,0.));
#1599=DIRECTION('',(0.,0.,-1.));
#1600=CARTESIAN_POINT('',(0.,0.,0.));
#1601=CARTESIAN_POINT('',(-0.000672120600938797,0.0669415334168562,0.0025));
#1602=CARTESIAN_POINT('',(-0.000672120600938797,0.0669415334168562,0.));
#1603=CARTESIAN_POINT('',(-0.0694221206009388,0.0669415334168562,0.));
#1604=CARTESIAN_POINT('',(0.0680778793990612,0.0669415334168562,0.));
#1605=CARTESIAN_POINT('',(-0.0694221206009388,0.0669415334168562,0.0025));
#1606=CARTESIAN_POINT('',(-0.0694221206009388,0.0669415334168562,0.0025));
#1607=CARTESIAN_POINT('',(-0.000672120600938797,0.0669415334168562,0.0025));
#1608=CARTESIAN_POINT('',(0.0680778793990612,0.0669415334168562,0.0025));
#1609=CARTESIAN_POINT('',(0.0680778793990612,0.0669415334168562,0.0025));
#1610=CARTESIAN_POINT('',(-0.0694221206009388,-0.00180846658314379,0.0025));
#1611=CARTESIAN_POINT('',(-0.0694221206009388,-0.00180846658314379,0.));
#1612=CARTESIAN_POINT('',(-0.0694221206009388,-0.0705584665831438,0.));
#1613=CARTESIAN_POINT('',(-0.0694221206009388,-0.0705584665831438,0.0025));
#1614=CARTESIAN_POINT('',(-0.0694221206009388,-0.0705584665831438,0.0025));
#1615=CARTESIAN_POINT('',(-0.0694221206009388,-0.00180846658314379,0.0025));
#1616=CARTESIAN_POINT('',(-0.000672120600938797,-0.0705584665831438,0.0025));
#1617=CARTESIAN_POINT('',(-0.000672120600938797,-0.0705584665831438,0.));
#1618=CARTESIAN_POINT('',(0.0680778793990612,-0.0705584665831438,0.));
#1619=CARTESIAN_POINT('',(0.0680778793990612,-0.0705584665831438,0.0025));
#1620=CARTESIAN_POINT('',(0.0680778793990612,-0.0705584665831438,0.0025));
#1621=CARTESIAN_POINT('',(-0.000672120600938797,-0.0705584665831438,0.0025));
#1622=CARTESIAN_POINT('',(0.0680778793990612,-0.00180846658314379,0.0025));
#1623=CARTESIAN_POINT('',(0.0680778793990612,-0.00180846658314379,0.));
#1624=CARTESIAN_POINT('',(0.0680778793990612,-0.00180846658314379,0.0025));
#1625=CARTESIAN_POINT('',(-0.000672120600938797,-0.00180846658314379,0.0025));
#1626=CARTESIAN_POINT('',(0.02107930158946,0.0223118260810166,0.0025));
#1627=CARTESIAN_POINT('',(0.02107930158946,0.0300373094806105,0.0025));
#1628=CARTESIAN_POINT('',(0.0133538181898661,0.0223118260810166,0.0025));
#1629=CARTESIAN_POINT('',(0.0272165598896631,0.0300373094806105,0.0025));
#1630=CARTESIAN_POINT('',(0.0333538181898661,0.0300373094806105,0.0025));
#1631=CARTESIAN_POINT('',(0.0333538181898661,0.0200373094806105,0.0025));
#1632=CARTESIAN_POINT('',(0.0333538181898661,0.0100373094806105,0.0025));
#1633=CARTESIAN_POINT('',(0.0233538181898661,0.0100373094806105,0.0025));
#1634=CARTESIAN_POINT('',(0.0133538181898661,0.0100373094806105,0.0025));
#1635=CARTESIAN_POINT('',(0.0133538181898661,0.0161745677808136,0.0025));
#1636=CARTESIAN_POINT('',(-0.0474364083290457,0.0223118260810166,0.0025));
#1637=CARTESIAN_POINT('',(-0.0474364083290457,0.0300373094806105,0.0025));
#1638=CARTESIAN_POINT('',(-0.0551618917286396,0.0223118260810166,0.0025));
#1639=CARTESIAN_POINT('',(-0.0412991500288427,0.0300373094806105,0.0025));
#1640=CARTESIAN_POINT('',(-0.0351618917286396,0.0300373094806105,0.0025));
#1641=CARTESIAN_POINT('',(-0.0351618917286396,0.0200373094806105,0.0025));
#1642=CARTESIAN_POINT('',(-0.0351618917286396,0.0100373094806105,0.0025));
#1643=CARTESIAN_POINT('',(-0.0451618917286396,0.0100373094806105,0.0025));
#1644=CARTESIAN_POINT('',(-0.0551618917286396,0.0100373094806105,0.0025));
#1645=CARTESIAN_POINT('',(-0.0551618917286396,0.0161745677808136,0.0025));
#1646=CARTESIAN_POINT('',(-0.0224412856525736,-0.00291709717163024,0.0025));
#1647=CARTESIAN_POINT('',(-0.0224412856525736,-0.0129170971716302,0.0025));
#1648=CARTESIAN_POINT('',(-0.0124412856525736,-0.00291709717163024,0.0025));
#1649=CARTESIAN_POINT('',(-0.0274412856525736,-0.0129170971716302,0.0025));
#1650=CARTESIAN_POINT('',(-0.0324412856525736,-0.0129170971716302,0.0025));
#1651=CARTESIAN_POINT('',(-0.0324412856525736,-0.00291709717163024,0.0025));
#1652=CARTESIAN_POINT('',(-0.0324412856525736,0.00708290282836977,0.0025));
#1653=CARTESIAN_POINT('',(-0.0224412856525736,0.00708290282836977,0.0025));
#1654=CARTESIAN_POINT('',(-0.0124412856525736,0.00708290282836977,0.0025));
#1655=CARTESIAN_POINT('',(-0.0124412856525736,0.00208290282836976,0.0025));
#1656=CARTESIAN_POINT('',(-0.0451618917286396,-0.00291709717163023,0.0025));
#1657=CARTESIAN_POINT('',(-0.0551618917286396,-0.00291709717163024,0.0025));
#1658=CARTESIAN_POINT('',(-0.0451618917286396,-0.0129170971716302,0.0025));
#1659=CARTESIAN_POINT('',(-0.0551618917286396,0.00208290282836976,0.0025));
#1660=CARTESIAN_POINT('',(-0.0551618917286396,0.00708290282836976,0.0025));
#1661=CARTESIAN_POINT('',(-0.0451618917286396,0.00708290282836976,0.0025));
#1662=CARTESIAN_POINT('',(-0.0351618917286396,0.00708290282836976,0.0025));
#1663=CARTESIAN_POINT('',(-0.0351618917286396,-0.00291709717163024,0.0025));
#1664=CARTESIAN_POINT('',(-0.0351618917286396,-0.0129170971716302,0.0025));
#1665=CARTESIAN_POINT('',(-0.0401618917286396,-0.0129170971716302,0.0025));
#1666=CARTESIAN_POINT('',(-0.0191631110595216,0.0230373094806105,0.0025));
#1667=CARTESIAN_POINT('',(-0.0121631110595216,0.0230373094806105,0.0025));
#1668=CARTESIAN_POINT('',(-0.0191631110595216,0.0300373094806105,0.0025));
#1669=CARTESIAN_POINT('',(-0.0121631110595216,0.0165373094806105,0.0025));
#1670=CARTESIAN_POINT('',(-0.0121631110595216,0.0100373094806105,0.0025));
#1671=CARTESIAN_POINT('',(-0.0221631110595216,0.0100373094806105,0.0025));
#1672=CARTESIAN_POINT('',(-0.0321631110595215,0.0100373094806105,0.0025));
#1673=CARTESIAN_POINT('',(-0.0321631110595215,0.0200373094806105,0.0025));
#1674=CARTESIAN_POINT('',(-0.0321631110595215,0.0300373094806105,0.0025));
#1675=CARTESIAN_POINT('',(-0.0256631110595215,0.0300373094806105,0.0025));
#1676=CARTESIAN_POINT('',(0.0460744242659321,-0.00291709717163025,0.0025));
#1677=CARTESIAN_POINT('',(0.0460744242659321,-0.0129170971716302,0.0025));
#1678=CARTESIAN_POINT('',(0.0560744242659321,-0.00291709717163025,0.0025));
#1679=CARTESIAN_POINT('',(0.0410744242659321,-0.0129170971716302,0.0025));
#1680=CARTESIAN_POINT('',(0.0360744242659321,-0.0129170971716302,0.0025));
#1681=CARTESIAN_POINT('',(0.0360744242659321,-0.00291709717163024,0.0025));
#1682=CARTESIAN_POINT('',(0.0360744242659321,0.00708290282836976,0.0025));
#1683=CARTESIAN_POINT('',(0.0460744242659321,0.00708290282836976,0.0025));
#1684=CARTESIAN_POINT('',(0.0560744242659321,0.00708290282836976,0.0025));
#1685=CARTESIAN_POINT('',(0.0560744242659321,0.00208290282836976,0.0025));
#1686=CARTESIAN_POINT('',(0.0233538181898661,-0.00291709717163025,0.0025));
#1687=CARTESIAN_POINT('',(0.0133538181898661,-0.00291709717163025,0.0025));
#1688=CARTESIAN_POINT('',(0.0233538181898661,-0.0129170971716302,0.0025));
#1689=CARTESIAN_POINT('',(0.0133538181898661,0.00208290282836975,0.0025));
#1690=CARTESIAN_POINT('',(0.0133538181898661,0.00708290282836976,0.0025));
#1691=CARTESIAN_POINT('',(0.0233538181898661,0.00708290282836976,0.0025));
#1692=CARTESIAN_POINT('',(0.0333538181898661,0.00708290282836976,0.0025));
#1693=CARTESIAN_POINT('',(0.0333538181898661,-0.00291709717163025,0.0025));
#1694=CARTESIAN_POINT('',(0.0333538181898661,-0.0129170971716302,0.0025));
#1695=CARTESIAN_POINT('',(0.0283538181898661,-0.0129170971716302,0.0025));
#1696=CARTESIAN_POINT('',(0.0493525988589841,0.0230373094806105,0.0025));
#1697=CARTESIAN_POINT('',(0.0563525988589841,0.0230373094806105,0.0025));
#1698=CARTESIAN_POINT('',(0.0493525988589841,0.0300373094806105,0.0025));
#1699=CARTESIAN_POINT('',(0.0563525988589841,0.0165373094806105,0.0025));
#1700=CARTESIAN_POINT('',(0.0563525988589841,0.0100373094806105,0.0025));
#1701=CARTESIAN_POINT('',(0.0463525988589841,0.0100373094806105,0.0025));
#1702=CARTESIAN_POINT('',(0.0363525988589841,0.0100373094806105,0.0025));
#1703=CARTESIAN_POINT('',(0.0363525988589841,0.0200373094806105,0.0025));
#1704=CARTESIAN_POINT('',(0.0363525988589841,0.0300373094806105,0.0025));
#1705=CARTESIAN_POINT('',(0.0428525988589842,0.0300373094806105,0.0025));
#1706=CARTESIAN_POINT('',(-0.000672120600938797,-0.00180846658314379,0.));
#1707=CARTESIAN_POINT('',(0.0272165598896631,0.0300373094806105,0.));
#1708=CARTESIAN_POINT('',(0.02107930158946,0.0300373094806105,0.));
#1709=CARTESIAN_POINT('',(0.0333538181898661,0.0300373094806105,0.));
#1710=CARTESIAN_POINT('',(0.02107930158946,0.0223118260810166,0.));
#1711=CARTESIAN_POINT('',(0.0133538181898661,0.0223118260810166,0.));
#1712=CARTESIAN_POINT('',(0.0133538181898661,0.0161745677808136,0.));
#1713=CARTESIAN_POINT('',(0.0133538181898661,0.0100373094806105,0.));
#1714=CARTESIAN_POINT('',(0.0233538181898661,0.0100373094806105,0.));
#1715=CARTESIAN_POINT('',(0.0333538181898661,0.0100373094806105,0.));
#1716=CARTESIAN_POINT('',(0.0333538181898661,0.0200373094806105,0.));
#1717=CARTESIAN_POINT('',(-0.0274412856525736,-0.0129170971716302,0.));
#1718=CARTESIAN_POINT('',(-0.0324412856525736,-0.0129170971716302,0.));
#1719=CARTESIAN_POINT('',(-0.0224412856525736,-0.0129170971716302,0.));
#1720=CARTESIAN_POINT('',(-0.0224412856525736,-0.00291709717163024,0.));
#1721=CARTESIAN_POINT('',(-0.0124412856525736,-0.00291709717163024,0.));
#1722=CARTESIAN_POINT('',(-0.0124412856525736,0.00208290282836976,0.));
#1723=CARTESIAN_POINT('',(-0.0124412856525736,0.00708290282836977,0.));
#1724=CARTESIAN_POINT('',(-0.0224412856525736,0.00708290282836977,0.));
#1725=CARTESIAN_POINT('',(-0.0324412856525736,0.00708290282836977,0.));
#1726=CARTESIAN_POINT('',(-0.0324412856525736,-0.00291709717163024,0.));
#1727=CARTESIAN_POINT('',(-0.0551618917286396,0.00208290282836976,0.));
#1728=CARTESIAN_POINT('',(-0.0551618917286396,0.00708290282836976,0.));
#1729=CARTESIAN_POINT('',(-0.0551618917286396,-0.00291709717163024,0.));
#1730=CARTESIAN_POINT('',(-0.0451618917286396,-0.00291709717163023,0.));
#1731=CARTESIAN_POINT('',(-0.0451618917286396,-0.0129170971716302,0.));
#1732=CARTESIAN_POINT('',(-0.0401618917286396,-0.0129170971716302,0.));
#1733=CARTESIAN_POINT('',(-0.0351618917286396,-0.0129170971716302,0.));
#1734=CARTESIAN_POINT('',(-0.0351618917286396,-0.00291709717163024,0.));
#1735=CARTESIAN_POINT('',(-0.0351618917286396,0.00708290282836976,0.));
#1736=CARTESIAN_POINT('',(-0.0451618917286396,0.00708290282836976,0.));
#1737=CARTESIAN_POINT('',(-0.0121631110595216,0.0165373094806105,0.));
#1738=CARTESIAN_POINT('',(-0.0121631110595216,0.0230373094806105,0.));
#1739=CARTESIAN_POINT('',(-0.0121631110595216,0.0100373094806105,0.));
#1740=CARTESIAN_POINT('',(-0.0191631110595216,0.0230373094806105,0.));
#1741=CARTESIAN_POINT('',(-0.0191631110595216,0.0300373094806105,0.));
#1742=CARTESIAN_POINT('',(-0.0256631110595215,0.0300373094806105,0.));
#1743=CARTESIAN_POINT('',(-0.0321631110595215,0.0300373094806105,0.));
#1744=CARTESIAN_POINT('',(-0.0321631110595215,0.0200373094806105,0.));
#1745=CARTESIAN_POINT('',(-0.0321631110595215,0.0100373094806105,0.));
#1746=CARTESIAN_POINT('',(-0.0221631110595216,0.0100373094806105,0.));
#1747=CARTESIAN_POINT('',(0.0410744242659321,-0.0129170971716302,0.));
#1748=CARTESIAN_POINT('',(0.0360744242659321,-0.0129170971716302,0.));
#1749=CARTESIAN_POINT('',(0.0460744242659321,-0.0129170971716302,0.));
#1750=CARTESIAN_POINT('',(0.0460744242659321,-0.00291709717163025,0.));
#1751=CARTESIAN_POINT('',(0.0560744242659321,-0.00291709717163025,0.));
#1752=CARTESIAN_POINT('',(0.0560744242659321,0.00208290282836976,0.));
#1753=CARTESIAN_POINT('',(0.0560744242659321,0.00708290282836976,0.));
#1754=CARTESIAN_POINT('',(0.0460744242659321,0.00708290282836976,0.));
#1755=CARTESIAN_POINT('',(0.0360744242659321,0.00708290282836976,0.));
#1756=CARTESIAN_POINT('',(0.0360744242659321,-0.00291709717163024,0.));
#1757=CARTESIAN_POINT('',(0.0133538181898661,0.00208290282836975,0.));
#1758=CARTESIAN_POINT('',(0.0133538181898661,0.00708290282836976,0.));
#1759=CARTESIAN_POINT('',(0.0133538181898661,-0.00291709717163025,0.));
#1760=CARTESIAN_POINT('',(0.0233538181898661,-0.00291709717163025,0.));
#1761=CARTESIAN_POINT('',(0.0233538181898661,-0.0129170971716302,0.));
#1762=CARTESIAN_POINT('',(0.0283538181898661,-0.0129170971716302,0.));
#1763=CARTESIAN_POINT('',(0.0333538181898661,-0.0129170971716302,0.));
#1764=CARTESIAN_POINT('',(0.0333538181898661,-0.00291709717163025,0.));
#1765=CARTESIAN_POINT('',(0.0333538181898661,0.00708290282836976,0.));
#1766=CARTESIAN_POINT('',(0.0233538181898661,0.00708290282836976,0.));
#1767=CARTESIAN_POINT('',(0.0563525988589841,0.0165373094806105,0.));
#1768=CARTESIAN_POINT('',(0.0563525988589841,0.0230373094806105,0.));
#1769=CARTESIAN_POINT('',(0.0563525988589841,0.0100373094806105,0.));
#1770=CARTESIAN_POINT('',(0.0493525988589841,0.0230373094806105,0.));
#1771=CARTESIAN_POINT('',(0.0493525988589841,0.0300373094806105,0.));
#1772=CARTESIAN_POINT('',(0.0428525988589842,0.0300373094806105,0.));
#1773=CARTESIAN_POINT('',(0.0363525988589841,0.0300373094806105,0.));
#1774=CARTESIAN_POINT('',(0.0363525988589841,0.0200373094806105,0.));
#1775=CARTESIAN_POINT('',(0.0363525988589841,0.0100373094806105,0.));
#1776=CARTESIAN_POINT('',(0.0463525988589841,0.0100373094806105,0.));
#1777=CARTESIAN_POINT('',(-0.0412991500288427,0.0300373094806105,0.));
#1778=CARTESIAN_POINT('',(-0.0474364083290457,0.0300373094806105,0.));
#1779=CARTESIAN_POINT('',(-0.0351618917286396,0.0300373094806105,0.));
#1780=CARTESIAN_POINT('',(-0.0474364083290457,0.0223118260810166,0.));
#1781=CARTESIAN_POINT('',(-0.0551618917286396,0.0223118260810166,0.));
#1782=CARTESIAN_POINT('',(-0.0551618917286396,0.0161745677808136,0.));
#1783=CARTESIAN_POINT('',(-0.0551618917286396,0.0100373094806105,0.));
#1784=CARTESIAN_POINT('',(-0.0451618917286396,0.0100373094806105,0.));
#1785=CARTESIAN_POINT('',(-0.0351618917286396,0.0100373094806105,0.));
#1786=CARTESIAN_POINT('',(-0.0351618917286396,0.0200373094806105,0.));
#1787=CARTESIAN_POINT('',(-0.0351618917286396,0.0200373094806105,0.));
#1788=CARTESIAN_POINT('',(-0.0351618917286396,0.0300373094806105,0.));
#1789=CARTESIAN_POINT('',(-0.0351618917286396,0.0100373094806105,0.));
#1790=CARTESIAN_POINT('',(-0.0412991500288427,0.0300373094806105,0.));
#1791=CARTESIAN_POINT('',(-0.0474364083290457,0.0300373094806105,0.));
#1792=CARTESIAN_POINT('',(-0.0474364083290457,0.0223118260810166,0.));
#1793=CARTESIAN_POINT('',(-0.0551618917286396,0.0223118260810166,0.));
#1794=CARTESIAN_POINT('',(-0.0551618917286396,0.0161745677808136,0.));
#1795=CARTESIAN_POINT('',(-0.0551618917286396,0.0100373094806105,0.));
#1796=CARTESIAN_POINT('',(-0.0451618917286396,0.0100373094806105,0.));
#1797=CARTESIAN_POINT('',(0.0428525988589842,0.0300373094806105,0.));
#1798=CARTESIAN_POINT('',(0.0363525988589841,0.0300373094806105,0.));
#1799=CARTESIAN_POINT('',(0.0493525988589841,0.0300373094806105,0.));
#1800=CARTESIAN_POINT('',(0.0363525988589841,0.0200373094806105,0.));
#1801=CARTESIAN_POINT('',(0.0363525988589841,0.0100373094806105,0.));
#1802=CARTESIAN_POINT('',(0.0463525988589841,0.0100373094806105,0.));
#1803=CARTESIAN_POINT('',(0.0563525988589841,0.0100373094806105,0.));
#1804=CARTESIAN_POINT('',(0.0563525988589841,0.0165373094806105,0.));
#1805=CARTESIAN_POINT('',(0.0563525988589841,0.0230373094806105,0.));
#1806=CARTESIAN_POINT('',(0.0493525988589841,0.0230373094806105,0.));
#1807=CARTESIAN_POINT('',(0.0333538181898661,-0.00291709717163025,0.));
#1808=CARTESIAN_POINT('',(0.0333538181898661,0.00708290282836976,0.));
#1809=CARTESIAN_POINT('',(0.0333538181898661,-0.0129170971716302,0.));
#1810=CARTESIAN_POINT('',(0.0233538181898661,0.00708290282836976,0.));
#1811=CARTESIAN_POINT('',(0.0133538181898661,0.00708290282836976,0.));
#1812=CARTESIAN_POINT('',(0.0133538181898661,0.00208290282836975,0.));
#1813=CARTESIAN_POINT('',(0.0133538181898661,-0.00291709717163025,0.));
#1814=CARTESIAN_POINT('',(0.0233538181898661,-0.00291709717163025,0.));
#1815=CARTESIAN_POINT('',(0.0233538181898661,-0.0129170971716302,0.));
#1816=CARTESIAN_POINT('',(0.0283538181898661,-0.0129170971716302,0.));
#1817=CARTESIAN_POINT('',(0.0460744242659321,0.00708290282836976,0.));
#1818=CARTESIAN_POINT('',(0.0360744242659321,0.00708290282836976,0.));
#1819=CARTESIAN_POINT('',(0.0560744242659321,0.00708290282836976,0.));
#1820=CARTESIAN_POINT('',(0.0360744242659321,-0.00291709717163024,0.));
#1821=CARTESIAN_POINT('',(0.0360744242659321,-0.0129170971716302,0.));
#1822=CARTESIAN_POINT('',(0.0410744242659321,-0.0129170971716302,0.));
#1823=CARTESIAN_POINT('',(0.0460744242659321,-0.0129170971716302,0.));
#1824=CARTESIAN_POINT('',(0.0460744242659321,-0.00291709717163025,0.));
#1825=CARTESIAN_POINT('',(0.0560744242659321,-0.00291709717163025,0.));
#1826=CARTESIAN_POINT('',(0.0560744242659321,0.00208290282836976,0.));
#1827=CARTESIAN_POINT('',(-0.0256631110595215,0.0300373094806105,0.));
#1828=CARTESIAN_POINT('',(-0.0321631110595215,0.0300373094806105,0.));
#1829=CARTESIAN_POINT('',(-0.0191631110595216,0.0300373094806105,0.));
#1830=CARTESIAN_POINT('',(-0.0321631110595215,0.0200373094806105,0.));
#1831=CARTESIAN_POINT('',(-0.0321631110595215,0.0100373094806105,0.));
#1832=CARTESIAN_POINT('',(-0.0221631110595216,0.0100373094806105,0.));
#1833=CARTESIAN_POINT('',(-0.0121631110595216,0.0100373094806105,0.));
#1834=CARTESIAN_POINT('',(-0.0121631110595216,0.0165373094806105,0.));
#1835=CARTESIAN_POINT('',(-0.0121631110595216,0.0230373094806105,0.));
#1836=CARTESIAN_POINT('',(-0.0191631110595216,0.0230373094806105,0.));
#1837=CARTESIAN_POINT('',(-0.0351618917286396,-0.00291709717163024,0.));
#1838=CARTESIAN_POINT('',(-0.0351618917286396,0.00708290282836976,0.));
#1839=CARTESIAN_POINT('',(-0.0351618917286396,-0.0129170971716302,0.));
#1840=CARTESIAN_POINT('',(-0.0451618917286396,0.00708290282836976,0.));
#1841=CARTESIAN_POINT('',(-0.0551618917286396,0.00708290282836976,0.));
#1842=CARTESIAN_POINT('',(-0.0551618917286396,0.00208290282836976,0.));
#1843=CARTESIAN_POINT('',(-0.0551618917286396,-0.00291709717163024,0.));
#1844=CARTESIAN_POINT('',(-0.0451618917286396,-0.00291709717163023,0.));
#1845=CARTESIAN_POINT('',(-0.0451618917286396,-0.0129170971716302,0.));
#1846=CARTESIAN_POINT('',(-0.0401618917286396,-0.0129170971716302,0.));
#1847=CARTESIAN_POINT('',(-0.0224412856525736,0.00708290282836977,0.));
#1848=CARTESIAN_POINT('',(-0.0324412856525736,0.00708290282836977,0.));
#1849=CARTESIAN_POINT('',(-0.0124412856525736,0.00708290282836977,0.));
#1850=CARTESIAN_POINT('',(-0.0324412856525736,-0.00291709717163024,0.));
#1851=CARTESIAN_POINT('',(-0.0324412856525736,-0.0129170971716302,0.));
#1852=CARTESIAN_POINT('',(-0.0274412856525736,-0.0129170971716302,0.));
#1853=CARTESIAN_POINT('',(-0.0224412856525736,-0.0129170971716302,0.));
#1854=CARTESIAN_POINT('',(-0.0224412856525736,-0.00291709717163024,0.));
#1855=CARTESIAN_POINT('',(-0.0124412856525736,-0.00291709717163024,0.));
#1856=CARTESIAN_POINT('',(-0.0124412856525736,0.00208290282836976,0.));
#1857=CARTESIAN_POINT('',(0.0333538181898661,0.0200373094806105,0.));
#1858=CARTESIAN_POINT('',(0.0333538181898661,0.0300373094806105,0.));
#1859=CARTESIAN_POINT('',(0.0333538181898661,0.0100373094806105,0.));
#1860=CARTESIAN_POINT('',(0.0272165598896631,0.0300373094806105,0.));
#1861=CARTESIAN_POINT('',(0.02107930158946,0.0300373094806105,0.));
#1862=CARTESIAN_POINT('',(0.02107930158946,0.0223118260810166,0.));
#1863=CARTESIAN_POINT('',(0.0133538181898661,0.0223118260810166,0.));
#1864=CARTESIAN_POINT('',(0.0133538181898661,0.0161745677808136,0.));
#1865=CARTESIAN_POINT('',(0.0133538181898661,0.0100373094806105,0.));
#1866=CARTESIAN_POINT('',(0.0233538181898661,0.0100373094806105,0.));
#1867=MECHANICAL_DESIGN_GEOMETRIC_PRESENTATION_REPRESENTATION('',(#1007,
#914,#915,#916,#917,#918,#919,#920,#921,#922,#923,#924,#925,#926,#927,#928,
#929,#930,#931,#932,#933,#934,#935,#936,#937,#938,#939,#940,#941,#942,#943,
#944,#945,#946,#947,#948,#949,#950,#951,#952,#953,#954,#955,#956,#957,#958,
#959),#1868);
#1868=(
GEOMETRIC_REPRESENTATION_CONTEXT(3)
GLOBAL_UNCERTAINTY_ASSIGNED_CONTEXT((#1869))
GLOBAL_UNIT_ASSIGNED_CONTEXT((#1872,#1871,#1870))
REPRESENTATION_CONTEXT('Part 1','TOP_LEVEL_ASSEMBLY_PART')
);
#1869=UNCERTAINTY_MEASURE_WITH_UNIT(LENGTH_MEASURE(1.E-8),#1872,
'DISTANCE_ACCURACY_VALUE','Maximum Tolerance applied to model');
#1870=(
NAMED_UNIT(*)
SI_UNIT($,.STERADIAN.)
SOLID_ANGLE_UNIT()
);
#1871=(
NAMED_UNIT(*)
PLANE_ANGLE_UNIT()
SI_UNIT($,.RADIAN.)
);
#1872=(
LENGTH_UNIT()
NAMED_UNIT(*)
SI_UNIT($,.METRE.)
);
#1873=PRODUCT_DEFINITION_SHAPE('','',#1874);
#1874=PRODUCT_DEFINITION('','',#1876,#1875);
#1875=PRODUCT_DEFINITION_CONTEXT('',#1882,'design');
#1876=PRODUCT_DEFINITION_FORMATION_WITH_SPECIFIED_SOURCE('','',#1878,
 .NOT_KNOWN.);
#1877=PRODUCT_RELATED_PRODUCT_CATEGORY('','',(#1878));
#1878=PRODUCT('Part 1','Part 1','Part 1',(#1880));
#1879=PRODUCT_CATEGORY('','');
#1880=PRODUCT_CONTEXT('',#1882,'mechanical');
#1881=APPLICATION_PROTOCOL_DEFINITION('international standard',
'ap242_managed_model_based_3d_engineering',2020,#1882);
#1882=APPLICATION_CONTEXT('managed model based 3d engineering');
ENDSEC;
END-ISO-10303-21;
