ISO-10303-21;
HEADER;
/* Generated by software containing ST-Developer
 * from STEP Tools, Inc. (www.steptools.com) 
 */
/* OPTION: using custom renumber hook */

FILE_DESCRIPTION(
/* description */ ('STEP AP242 Edition 2',
'CAx-IF Rec.Pracs.---Representation and Presentation of Product Manufa
cturing Information (PMI)---4.0---2014-10-13',
'CAx-IF Rec.Pracs.---3D Tessellated Geometry---0.4---2014-09-14','2;1',
'CAx-IF Rec.Pracs.---User Defined Attributes---1.5---2016-08-15'),
/* implementation_level */ '2;1');

FILE_NAME(
/* name */ 'Table',
/* time_stamp */ '2026-09-03T13:07:02Z',
/* author */ (''),
/* organization */ (''),
/* preprocessor_version */ 'ST-DEVELOPER v20',
/* originating_system */ 'ONSHAPE BY PTC INC, 1.220',
/* authorisation */ '  ');

FILE_SCHEMA (('AP242_MANAGED_MODEL_BASED_3D_ENGINEERING_MIM_LF { 1 0 10303 442 3 1 4 }'));
ENDSEC;

DATA;
#10=SHAPE_REPRESENTATION_RELATIONSHIP('','',#141,#11);
#11=ADVANCED_BREP_SHAPE_REPRESENTATION('',(#139),#205);
#12=PLANE('',#146);
#13=PLANE('',#148);
#14=PLANE('',#154);
#15=PLANE('',#155);
#16=ORIENTED_EDGE('',*,*,#28,.F.);
#17=ORIENTED_EDGE('',*,*,#29,.T.);
#18=ORIENTED_EDGE('',*,*,#30,.F.);
#19=ORIENTED_EDGE('',*,*,#28,.T.);
#20=ORIENTED_EDGE('',*,*,#29,.F.);
#21=ORIENTED_EDGE('',*,*,#31,.F.);
#22=ORIENTED_EDGE('',*,*,#30,.T.);
#23=ORIENTED_EDGE('',*,*,#32,.F.);
#24=ORIENTED_EDGE('',*,*,#33,.T.);
#25=ORIENTED_EDGE('',*,*,#32,.T.);
#26=ORIENTED_EDGE('',*,*,#31,.T.);
#27=ORIENTED_EDGE('',*,*,#33,.F.);
#28=EDGE_CURVE('',#34,#34,#40,.T.);
#29=EDGE_CURVE('',#35,#35,#41,.T.);
#30=EDGE_CURVE('',#36,#36,#42,.T.);
#31=EDGE_CURVE('',#37,#37,#43,.T.);
#32=EDGE_CURVE('',#38,#38,#44,.T.);
#33=EDGE_CURVE('',#39,#39,#45,.T.);
#34=VERTEX_POINT('',#187);
#35=VERTEX_POINT('',#189);
#36=VERTEX_POINT('',#192);
#37=VERTEX_POINT('',#196);
#38=VERTEX_POINT('',#199);
#39=VERTEX_POINT('',#201);
#40=CIRCLE('',#144,0.01125);
#41=CIRCLE('',#145,0.01125);
#42=CIRCLE('',#147,0.00373515794461466);
#43=CIRCLE('',#150,0.00373515794461466);
#44=CIRCLE('',#152,0.0225);
#45=CIRCLE('',#153,0.0225);
#46=EDGE_LOOP('',(#16));
#47=EDGE_LOOP('',(#17));
#48=EDGE_LOOP('',(#18));
#49=EDGE_LOOP('',(#19));
#50=EDGE_LOOP('',(#20));
#51=EDGE_LOOP('',(#21));
#52=EDGE_LOOP('',(#22));
#53=EDGE_LOOP('',(#23));
#54=EDGE_LOOP('',(#24));
#55=EDGE_LOOP('',(#25));
#56=EDGE_LOOP('',(#26));
#57=EDGE_LOOP('',(#27));
#58=FACE_BOUND('',#46,.T.);
#59=FACE_BOUND('',#47,.T.);
#60=FACE_BOUND('',#48,.T.);
#61=FACE_BOUND('',#49,.T.);
#62=FACE_BOUND('',#50,.T.);
#63=FACE_BOUND('',#51,.T.);
#64=FACE_BOUND('',#52,.T.);
#65=FACE_BOUND('',#53,.T.);
#66=FACE_BOUND('',#54,.T.);
#67=FACE_BOUND('',#55,.T.);
#68=FACE_BOUND('',#56,.T.);
#69=FACE_BOUND('',#57,.T.);
#70=CYLINDRICAL_SURFACE('',#143,0.01125);
#71=CYLINDRICAL_SURFACE('',#149,0.00373515794461466);
#72=CYLINDRICAL_SURFACE('',#151,0.0225);
#73=OVER_RIDING_STYLED_ITEM('',(#90),#80,#88);
#74=OVER_RIDING_STYLED_ITEM('',(#91),#81,#88);
#75=OVER_RIDING_STYLED_ITEM('',(#92),#82,#88);
#76=OVER_RIDING_STYLED_ITEM('',(#93),#83,#88);
#77=OVER_RIDING_STYLED_ITEM('',(#94),#84,#88);
#78=OVER_RIDING_STYLED_ITEM('',(#95),#85,#88);
#79=OVER_RIDING_STYLED_ITEM('',(#96),#86,#88);
#80=ADVANCED_FACE('Face appearance 1',(#58,#59),#70,.T.);
#81=ADVANCED_FACE('Face appearance 1',(#60,#61),#12,.T.);
#82=ADVANCED_FACE('Face appearance 1',(#62),#13,.F.);
#83=ADVANCED_FACE('Face appearance 2',(#63,#64),#71,.T.);
#84=ADVANCED_FACE('Face appearance 3',(#65,#66),#72,.T.);
#85=ADVANCED_FACE('Face appearance 3',(#67),#14,.T.);
#86=ADVANCED_FACE('Face appearance 3',(#68,#69),#15,.F.);
#87=CLOSED_SHELL('',(#80,#81,#82,#83,#84,#85,#86));
#88=STYLED_ITEM('',(#89),#139);
#89=PRESENTATION_STYLE_ASSIGNMENT((#97));
#90=PRESENTATION_STYLE_ASSIGNMENT((#98));
#91=PRESENTATION_STYLE_ASSIGNMENT((#99));
#92=PRESENTATION_STYLE_ASSIGNMENT((#100));
#93=PRESENTATION_STYLE_ASSIGNMENT((#101));
#94=PRESENTATION_STYLE_ASSIGNMENT((#102));
#95=PRESENTATION_STYLE_ASSIGNMENT((#103));
#96=PRESENTATION_STYLE_ASSIGNMENT((#104));
#97=SURFACE_STYLE_USAGE(.BOTH.,#105);
#98=SURFACE_STYLE_USAGE(.BOTH.,#106);
#99=SURFACE_STYLE_USAGE(.BOTH.,#107);
#100=SURFACE_STYLE_USAGE(.BOTH.,#108);
#101=SURFACE_STYLE_USAGE(.BOTH.,#109);
#102=SURFACE_STYLE_USAGE(.BOTH.,#110);
#103=SURFACE_STYLE_USAGE(.BOTH.,#111);
#104=SURFACE_STYLE_USAGE(.BOTH.,#112);
#105=SURFACE_SIDE_STYLE('',(#113));
#106=SURFACE_SIDE_STYLE('',(#114));
#107=SURFACE_SIDE_STYLE('',(#115));
#108=SURFACE_SIDE_STYLE('',(#116));
#109=SURFACE_SIDE_STYLE('',(#117));
#110=SURFACE_SIDE_STYLE('',(#118));
#111=SURFACE_SIDE_STYLE('',(#119));
#112=SURFACE_SIDE_STYLE('',(#120));
#113=SURFACE_STYLE_FILL_AREA(#121);
#114=SURFACE_STYLE_FILL_AREA(#122);
#115=SURFACE_STYLE_FILL_AREA(#123);
#116=SURFACE_STYLE_FILL_AREA(#124);
#117=SURFACE_STYLE_FILL_AREA(#125);
#118=SURFACE_STYLE_FILL_AREA(#126);
#119=SURFACE_STYLE_FILL_AREA(#127);
#120=SURFACE_STYLE_FILL_AREA(#128);
#121=FILL_AREA_STYLE('',(#129));
#122=FILL_AREA_STYLE('',(#130));
#123=FILL_AREA_STYLE('',(#131));
#124=FILL_AREA_STYLE('',(#132));
#125=FILL_AREA_STYLE('',(#133));
#126=FILL_AREA_STYLE('',(#134));
#127=FILL_AREA_STYLE('',(#135));
#128=FILL_AREA_STYLE('',(#136));
#129=FILL_AREA_STYLE_COLOUR('',#137);
#130=FILL_AREA_STYLE_COLOUR('',#138);
#131=FILL_AREA_STYLE_COLOUR('',#138);
#132=FILL_AREA_STYLE_COLOUR('',#138);
#133=FILL_AREA_STYLE_COLOUR('',#138);
#134=FILL_AREA_STYLE_COLOUR('',#138);
#135=FILL_AREA_STYLE_COLOUR('',#138);
#136=FILL_AREA_STYLE_COLOUR('',#138);
#137=COLOUR_RGB('',0.615686274509804,0.811764705882353,0.929411764705882);
#138=COLOUR_RGB('',0.698039215686275,0.752941176470588,0.4);
#139=MANIFOLD_SOLID_BREP('Part 1',#87);
#140=SHAPE_DEFINITION_REPRESENTATION(#210,#141);
#141=SHAPE_REPRESENTATION('Part 1',(#142),#205);
#142=AXIS2_PLACEMENT_3D('',#184,#156,#157);
#143=AXIS2_PLACEMENT_3D('',#185,#158,#159);
#144=AXIS2_PLACEMENT_3D('',#186,#160,#161);
#145=AXIS2_PLACEMENT_3D('',#188,#162,#163);
#146=AXIS2_PLACEMENT_3D('',#190,#164,#165);
#147=AXIS2_PLACEMENT_3D('',#191,#166,#167);
#148=AXIS2_PLACEMENT_3D('',#193,#168,#169);
#149=AXIS2_PLACEMENT_3D('',#194,#170,#171);
#150=AXIS2_PLACEMENT_3D('',#195,#172,#173);
#151=AXIS2_PLACEMENT_3D('',#197,#174,#175);
#152=AXIS2_PLACEMENT_3D('',#198,#176,#177);
#153=AXIS2_PLACEMENT_3D('',#200,#178,#179);
#154=AXIS2_PLACEMENT_3D('',#202,#180,#181);
#155=AXIS2_PLACEMENT_3D('',#203,#182,#183);
#156=DIRECTION('',(0.,0.,1.));
#157=DIRECTION('',(1.,0.,0.));
#158=DIRECTION('',(0.,0.,-1.));
#159=DIRECTION('',(-1.,0.,0.));
#160=DIRECTION('',(0.,0.,1.));
#161=DIRECTION('',(1.,0.,0.));
#162=DIRECTION('',(0.,0.,1.));
#163=DIRECTION('',(1.,0.,0.));
#164=DIRECTION('',(0.,0.,1.));
#165=DIRECTION('',(1.,0.,0.));
#166=DIRECTION('',(0.,0.,1.));
#167=DIRECTION('',(1.,0.,0.));
#168=DIRECTION('',(0.,0.,1.));
#169=DIRECTION('',(1.,0.,0.));
#170=DIRECTION('',(0.,0.,-1.));
#171=DIRECTION('',(-1.,0.,0.));
#172=DIRECTION('',(0.,0.,1.));
#173=DIRECTION('',(1.,0.,0.));
#174=DIRECTION('',(0.,0.,-1.));
#175=DIRECTION('',(-1.,0.,0.));
#176=DIRECTION('',(0.,0.,1.));
#177=DIRECTION('',(1.,0.,0.));
#178=DIRECTION('',(0.,0.,1.));
#179=DIRECTION('',(1.,0.,0.));
#180=DIRECTION('',(0.,0.,1.));
#181=DIRECTION('',(1.,0.,0.));
#182=DIRECTION('',(0.,0.,1.));
#183=DIRECTION('',(1.,0.,0.));
#184=CARTESIAN_POINT('',(0.,0.,0.));
#185=CARTESIAN_POINT('',(-0.0327638909220695,0.0261527765542269,0.0025));
#186=CARTESIAN_POINT('',(-0.0327638909220695,0.0261527765542269,0.0025));
#187=CARTESIAN_POINT('',(-0.0215138909220695,0.0261527765542269,0.0025));
#188=CARTESIAN_POINT('',(-0.0327638909220695,0.0261527765542269,0.));
#189=CARTESIAN_POINT('',(-0.0215138909220695,0.0261527765542269,0.));
#190=CARTESIAN_POINT('',(-0.0327638909220695,0.0261527765542269,0.0025));
#191=CARTESIAN_POINT('',(-0.0327638909220695,0.0261527765542269,0.0025));
#192=CARTESIAN_POINT('',(-0.0290287329774549,0.0261527765542269,0.0025));
#193=CARTESIAN_POINT('',(-0.0327638909220695,0.0261527765542269,0.));
#194=CARTESIAN_POINT('',(-0.0327638909220695,0.0261527765542269,0.0275));
#195=CARTESIAN_POINT('',(-0.0327638909220695,0.0261527765542269,0.0275));
#196=CARTESIAN_POINT('',(-0.0290287329774549,0.0261527765542269,0.0275));
#197=CARTESIAN_POINT('',(-0.0327638909220695,0.0261527765542269,0.0325));
#198=CARTESIAN_POINT('',(-0.0327638909220695,0.0261527765542269,0.0325));
#199=CARTESIAN_POINT('',(-0.0102638909220696,0.0261527765542269,0.0325));
#200=CARTESIAN_POINT('',(-0.0327638909220695,0.0261527765542269,0.0275));
#201=CARTESIAN_POINT('',(-0.0102638909220696,0.0261527765542269,0.0275));
#202=CARTESIAN_POINT('',(-0.0327638909220695,0.0261527765542269,0.0325));
#203=CARTESIAN_POINT('',(-0.0327638909220695,0.0261527765542269,0.0275));
#204=MECHANICAL_DESIGN_GEOMETRIC_PRESENTATION_REPRESENTATION('',(#88,#73,
#74,#75,#76,#77,#78,#79),#205);
#205=(
GEOMETRIC_REPRESENTATION_CONTEXT(3)
GLOBAL_UNCERTAINTY_ASSIGNED_CONTEXT((#206))
GLOBAL_UNIT_ASSIGNED_CONTEXT((#209,#208,#207))
REPRESENTATION_CONTEXT('Part 1','TOP_LEVEL_ASSEMBLY_PART')
);
#206=UNCERTAINTY_MEASURE_WITH_UNIT(LENGTH_MEASURE(1.E-8),#209,
'DISTANCE_ACCURACY_VALUE','Maximum Tolerance applied to model');
#207=(
NAMED_UNIT(*)
SI_UNIT($,.STERADIAN.)
SOLID_ANGLE_UNIT()
);
#208=(
NAMED_UNIT(*)
PLANE_ANGLE_UNIT()
SI_UNIT($,.RADIAN.)
);
#209=(
LENGTH_UNIT()
NAMED_UNIT(*)
SI_UNIT($,.METRE.)
);
#210=PRODUCT_DEFINITION_SHAPE('','',#211);
#211=PRODUCT_DEFINITION('','',#213,#212);
#212=PRODUCT_DEFINITION_CONTEXT('',#219,'design');
#213=PRODUCT_DEFINITION_FORMATION_WITH_SPECIFIED_SOURCE('','',#215,
 .NOT_KNOWN.);
#214=PRODUCT_RELATED_PRODUCT_CATEGORY('','',(#215));
#215=PRODUCT('Part 1','Part 1','Part 1',(#217));
#216=PRODUCT_CATEGORY('','');
#217=PRODUCT_CONTEXT('',#219,'mechanical');
#218=APPLICATION_PROTOCOL_DEFINITION('international standard',
'ap242_managed_model_based_3d_engineering',2020,#219);
#219=APPLICATION_CONTEXT('managed model based 3d engineering');
ENDSEC;
END-ISO-10303-21;
